%TF.GenerationSoftware,KiCad,Pcbnew,(5.1.12)-1*%
%TF.CreationDate,2021-12-02T22:11:06-06:00*%
%TF.ProjectId,CANA_BOARD,43414e41-5f42-44f4-9152-442e6b696361,rev?*%
%TF.SameCoordinates,Original*%
%TF.FileFunction,Copper,L2,Bot*%
%TF.FilePolarity,Positive*%
%FSLAX46Y46*%
G04 Gerber Fmt 4.6, Leading zero omitted, Abs format (unit mm)*
G04 Created by KiCad (PCBNEW (5.1.12)-1) date 2021-12-02 22:11:06*
%MOMM*%
%LPD*%
G01*
G04 APERTURE LIST*
%TA.AperFunction,ComponentPad*%
%ADD10O,1.800000X3.600000*%
%TD*%
%TA.AperFunction,ComponentPad*%
%ADD11C,4.000000*%
%TD*%
%TA.AperFunction,ComponentPad*%
%ADD12C,1.600000*%
%TD*%
%TA.AperFunction,ComponentPad*%
%ADD13R,1.600000X1.600000*%
%TD*%
%TA.AperFunction,ViaPad*%
%ADD14C,0.800000*%
%TD*%
%TA.AperFunction,Conductor*%
%ADD15C,0.250000*%
%TD*%
%TA.AperFunction,Conductor*%
%ADD16C,0.254000*%
%TD*%
%TA.AperFunction,Conductor*%
%ADD17C,0.100000*%
%TD*%
G04 APERTURE END LIST*
D10*
%TO.P,J1,2*%
%TO.N,GND_ISO*%
X118110000Y-96520000D03*
%TO.P,J1,1*%
%TO.N,5V_ISO*%
%TA.AperFunction,ComponentPad*%
G36*
G01*
X124090000Y-94970000D02*
X124090000Y-98070000D01*
G75*
G02*
X123840000Y-98320000I-250000J0D01*
G01*
X122540000Y-98320000D01*
G75*
G02*
X122290000Y-98070000I0J250000D01*
G01*
X122290000Y-94970000D01*
G75*
G02*
X122540000Y-94720000I250000J0D01*
G01*
X123840000Y-94720000D01*
G75*
G02*
X124090000Y-94970000I0J-250000D01*
G01*
G37*
%TD.AperFunction*%
%TD*%
D11*
%TO.P,J6,0*%
%TO.N,N/C*%
X224940000Y-72130000D03*
X224940000Y-97130000D03*
D12*
%TO.P,J6,9*%
X226360000Y-80475000D03*
%TO.P,J6,8*%
X226360000Y-83245000D03*
%TO.P,J6,7*%
%TO.N,CAN_IN+*%
X226360000Y-86015000D03*
%TO.P,J6,6*%
%TO.N,N/C*%
X226360000Y-88785000D03*
%TO.P,J6,5*%
%TO.N,GND_ISO*%
X223520000Y-79090000D03*
%TO.P,J6,4*%
%TO.N,N/C*%
X223520000Y-81860000D03*
%TO.P,J6,3*%
%TO.N,GND_ISO*%
X223520000Y-84630000D03*
%TO.P,J6,2*%
%TO.N,CAN_IN-*%
X223520000Y-87400000D03*
D13*
%TO.P,J6,1*%
%TO.N,N/C*%
X223520000Y-90170000D03*
%TD*%
D14*
%TO.N,GND_ISO*%
X215646000Y-77978000D03*
%TO.N,Net-(J18-Pad2)*%
X109601000Y-88265000D03*
X137414000Y-88265000D03*
X158750000Y-88265000D03*
X180213000Y-88265000D03*
X201930000Y-88265000D03*
%TO.N,Net-(J18-Pad1)*%
X109601000Y-89535000D03*
X137414000Y-89535000D03*
X158750000Y-89662000D03*
X180213000Y-89535000D03*
X201930000Y-89535000D03*
%TD*%
D15*
%TO.N,Net-(J18-Pad2)*%
X109601000Y-88265000D02*
X137414000Y-88265000D01*
X137414000Y-88265000D02*
X158750000Y-88265000D01*
X158750000Y-88265000D02*
X180213000Y-88265000D01*
X180213000Y-88265000D02*
X201930000Y-88265000D01*
%TO.N,Net-(J18-Pad1)*%
X201930000Y-89535000D02*
X180213000Y-89535000D01*
X158877000Y-89535000D02*
X158750000Y-89662000D01*
X180213000Y-89535000D02*
X158877000Y-89535000D01*
X137541000Y-89662000D02*
X137414000Y-89535000D01*
X158750000Y-89662000D02*
X137541000Y-89662000D01*
X137414000Y-89535000D02*
X109601000Y-89535000D01*
%TD*%
D16*
%TO.N,GND_ISO*%
X232774545Y-68008909D02*
X233125208Y-68114780D01*
X233448625Y-68286744D01*
X233732484Y-68518254D01*
X233965965Y-68800486D01*
X234140183Y-69122695D01*
X234248502Y-69472614D01*
X234290000Y-69867443D01*
X234290001Y-99027711D01*
X234251091Y-99424545D01*
X234145220Y-99775206D01*
X233973257Y-100098623D01*
X233741748Y-100382482D01*
X233459514Y-100615965D01*
X233137304Y-100790184D01*
X232787385Y-100898502D01*
X232392557Y-100940000D01*
X107982279Y-100940000D01*
X107585455Y-100901091D01*
X107234794Y-100795220D01*
X106911377Y-100623257D01*
X106627518Y-100391748D01*
X106394035Y-100109514D01*
X106219816Y-99787304D01*
X106111498Y-99437385D01*
X106070000Y-99042557D01*
X106070000Y-97823872D01*
X106731000Y-97823872D01*
X106731000Y-98264128D01*
X106816890Y-98695925D01*
X106985369Y-99102669D01*
X107229962Y-99468729D01*
X107541271Y-99780038D01*
X107907331Y-100024631D01*
X108314075Y-100193110D01*
X108745872Y-100279000D01*
X109186128Y-100279000D01*
X109617925Y-100193110D01*
X110024669Y-100024631D01*
X110390729Y-99780038D01*
X110702038Y-99468729D01*
X110946631Y-99102669D01*
X111115110Y-98695925D01*
X111201000Y-98264128D01*
X111201000Y-97823872D01*
X111115110Y-97392075D01*
X110946631Y-96985331D01*
X110720566Y-96647000D01*
X116575000Y-96647000D01*
X116575000Y-97547000D01*
X116629271Y-97844023D01*
X116740446Y-98124751D01*
X116904252Y-98378396D01*
X117114394Y-98595210D01*
X117362796Y-98766862D01*
X117639913Y-98886755D01*
X117745260Y-98911036D01*
X117983000Y-98790378D01*
X117983000Y-96647000D01*
X118237000Y-96647000D01*
X118237000Y-98790378D01*
X118474740Y-98911036D01*
X118580087Y-98886755D01*
X118857204Y-98766862D01*
X119105606Y-98595210D01*
X119315748Y-98378396D01*
X119479554Y-98124751D01*
X119590729Y-97844023D01*
X119645000Y-97547000D01*
X119645000Y-96647000D01*
X118237000Y-96647000D01*
X117983000Y-96647000D01*
X116575000Y-96647000D01*
X110720566Y-96647000D01*
X110702038Y-96619271D01*
X110390729Y-96307962D01*
X110024669Y-96063369D01*
X109617925Y-95894890D01*
X109186128Y-95809000D01*
X108745872Y-95809000D01*
X108314075Y-95894890D01*
X107907331Y-96063369D01*
X107541271Y-96307962D01*
X107229962Y-96619271D01*
X106985369Y-96985331D01*
X106816890Y-97392075D01*
X106731000Y-97823872D01*
X106070000Y-97823872D01*
X106070000Y-95493000D01*
X116575000Y-95493000D01*
X116575000Y-96393000D01*
X117983000Y-96393000D01*
X117983000Y-94249622D01*
X118237000Y-94249622D01*
X118237000Y-96393000D01*
X119645000Y-96393000D01*
X119645000Y-95493000D01*
X119590729Y-95195977D01*
X119501237Y-94970000D01*
X121651928Y-94970000D01*
X121651928Y-98070000D01*
X121668992Y-98243254D01*
X121719528Y-98409850D01*
X121801595Y-98563386D01*
X121912038Y-98697962D01*
X122046614Y-98808405D01*
X122200150Y-98890472D01*
X122366746Y-98941008D01*
X122540000Y-98958072D01*
X123840000Y-98958072D01*
X124013254Y-98941008D01*
X124179850Y-98890472D01*
X124333386Y-98808405D01*
X124467962Y-98697962D01*
X124578405Y-98563386D01*
X124660472Y-98409850D01*
X124711008Y-98243254D01*
X124728072Y-98070000D01*
X124728072Y-97823872D01*
X215316000Y-97823872D01*
X215316000Y-98264128D01*
X215401890Y-98695925D01*
X215570369Y-99102669D01*
X215814962Y-99468729D01*
X216126271Y-99780038D01*
X216492331Y-100024631D01*
X216899075Y-100193110D01*
X217330872Y-100279000D01*
X217771128Y-100279000D01*
X218202925Y-100193110D01*
X218609669Y-100024631D01*
X218975729Y-99780038D01*
X219287038Y-99468729D01*
X219531631Y-99102669D01*
X219700110Y-98695925D01*
X219786000Y-98264128D01*
X219786000Y-97823872D01*
X219700110Y-97392075D01*
X219531631Y-96985331D01*
X219454887Y-96870475D01*
X222305000Y-96870475D01*
X222305000Y-97389525D01*
X222406261Y-97898601D01*
X222604893Y-98378141D01*
X222893262Y-98809715D01*
X223260285Y-99176738D01*
X223691859Y-99465107D01*
X224171399Y-99663739D01*
X224680475Y-99765000D01*
X225199525Y-99765000D01*
X225708601Y-99663739D01*
X226188141Y-99465107D01*
X226619715Y-99176738D01*
X226986738Y-98809715D01*
X227275107Y-98378141D01*
X227473739Y-97898601D01*
X227575000Y-97389525D01*
X227575000Y-96870475D01*
X227473739Y-96361399D01*
X227275107Y-95881859D01*
X226986738Y-95450285D01*
X226619715Y-95083262D01*
X226188141Y-94794893D01*
X225708601Y-94596261D01*
X225199525Y-94495000D01*
X224680475Y-94495000D01*
X224171399Y-94596261D01*
X223691859Y-94794893D01*
X223260285Y-95083262D01*
X222893262Y-95450285D01*
X222604893Y-95881859D01*
X222406261Y-96361399D01*
X222305000Y-96870475D01*
X219454887Y-96870475D01*
X219287038Y-96619271D01*
X218975729Y-96307962D01*
X218609669Y-96063369D01*
X218202925Y-95894890D01*
X217771128Y-95809000D01*
X217330872Y-95809000D01*
X216899075Y-95894890D01*
X216492331Y-96063369D01*
X216126271Y-96307962D01*
X215814962Y-96619271D01*
X215570369Y-96985331D01*
X215401890Y-97392075D01*
X215316000Y-97823872D01*
X124728072Y-97823872D01*
X124728072Y-94970000D01*
X124711008Y-94796746D01*
X124660472Y-94630150D01*
X124578405Y-94476614D01*
X124467962Y-94342038D01*
X124333386Y-94231595D01*
X124179850Y-94149528D01*
X124013254Y-94098992D01*
X123840000Y-94081928D01*
X122540000Y-94081928D01*
X122366746Y-94098992D01*
X122200150Y-94149528D01*
X122046614Y-94231595D01*
X121912038Y-94342038D01*
X121801595Y-94476614D01*
X121719528Y-94630150D01*
X121668992Y-94796746D01*
X121651928Y-94970000D01*
X119501237Y-94970000D01*
X119479554Y-94915249D01*
X119315748Y-94661604D01*
X119105606Y-94444790D01*
X118857204Y-94273138D01*
X118580087Y-94153245D01*
X118474740Y-94128964D01*
X118237000Y-94249622D01*
X117983000Y-94249622D01*
X117745260Y-94128964D01*
X117639913Y-94153245D01*
X117362796Y-94273138D01*
X117114394Y-94444790D01*
X116904252Y-94661604D01*
X116740446Y-94915249D01*
X116629271Y-95195977D01*
X116575000Y-95493000D01*
X106070000Y-95493000D01*
X106070000Y-88163061D01*
X108566000Y-88163061D01*
X108566000Y-88366939D01*
X108605774Y-88566898D01*
X108683795Y-88755256D01*
X108780510Y-88900000D01*
X108683795Y-89044744D01*
X108605774Y-89233102D01*
X108566000Y-89433061D01*
X108566000Y-89636939D01*
X108605774Y-89836898D01*
X108683795Y-90025256D01*
X108797063Y-90194774D01*
X108941226Y-90338937D01*
X109110744Y-90452205D01*
X109299102Y-90530226D01*
X109499061Y-90570000D01*
X109702939Y-90570000D01*
X109902898Y-90530226D01*
X110091256Y-90452205D01*
X110260774Y-90338937D01*
X110304711Y-90295000D01*
X136710289Y-90295000D01*
X136754226Y-90338937D01*
X136923744Y-90452205D01*
X137112102Y-90530226D01*
X137312061Y-90570000D01*
X137515939Y-90570000D01*
X137715898Y-90530226D01*
X137904256Y-90452205D01*
X137949461Y-90422000D01*
X158046289Y-90422000D01*
X158090226Y-90465937D01*
X158259744Y-90579205D01*
X158448102Y-90657226D01*
X158648061Y-90697000D01*
X158851939Y-90697000D01*
X159051898Y-90657226D01*
X159240256Y-90579205D01*
X159409774Y-90465937D01*
X159553937Y-90321774D01*
X159571827Y-90295000D01*
X179509289Y-90295000D01*
X179553226Y-90338937D01*
X179722744Y-90452205D01*
X179911102Y-90530226D01*
X180111061Y-90570000D01*
X180314939Y-90570000D01*
X180514898Y-90530226D01*
X180703256Y-90452205D01*
X180872774Y-90338937D01*
X180916711Y-90295000D01*
X201226289Y-90295000D01*
X201270226Y-90338937D01*
X201439744Y-90452205D01*
X201628102Y-90530226D01*
X201828061Y-90570000D01*
X202031939Y-90570000D01*
X202231898Y-90530226D01*
X202420256Y-90452205D01*
X202589774Y-90338937D01*
X202733937Y-90194774D01*
X202847205Y-90025256D01*
X202925226Y-89836898D01*
X202965000Y-89636939D01*
X202965000Y-89433061D01*
X202952457Y-89370000D01*
X222081928Y-89370000D01*
X222081928Y-90970000D01*
X222094188Y-91094482D01*
X222130498Y-91214180D01*
X222189463Y-91324494D01*
X222268815Y-91421185D01*
X222365506Y-91500537D01*
X222475820Y-91559502D01*
X222595518Y-91595812D01*
X222720000Y-91608072D01*
X224320000Y-91608072D01*
X224444482Y-91595812D01*
X224564180Y-91559502D01*
X224674494Y-91500537D01*
X224771185Y-91421185D01*
X224850537Y-91324494D01*
X224909502Y-91214180D01*
X224945812Y-91094482D01*
X224958072Y-90970000D01*
X224958072Y-89370000D01*
X224945812Y-89245518D01*
X224909502Y-89125820D01*
X224850537Y-89015506D01*
X224771185Y-88918815D01*
X224674494Y-88839463D01*
X224564180Y-88780498D01*
X224444482Y-88744188D01*
X224320000Y-88731928D01*
X224054275Y-88731928D01*
X224199727Y-88671680D01*
X224434759Y-88514637D01*
X224634637Y-88314759D01*
X224791680Y-88079727D01*
X224899853Y-87818574D01*
X224955000Y-87541335D01*
X224955000Y-87258665D01*
X224899853Y-86981426D01*
X224791680Y-86720273D01*
X224634637Y-86485241D01*
X224434759Y-86285363D01*
X224199727Y-86128320D01*
X223938574Y-86020147D01*
X223910118Y-86014487D01*
X224136292Y-85933603D01*
X224261514Y-85866671D01*
X224333097Y-85622702D01*
X223520000Y-84809605D01*
X222706903Y-85622702D01*
X222778486Y-85866671D01*
X223033996Y-85987571D01*
X223136289Y-86013212D01*
X223101426Y-86020147D01*
X222840273Y-86128320D01*
X222605241Y-86285363D01*
X222405363Y-86485241D01*
X222248320Y-86720273D01*
X222140147Y-86981426D01*
X222085000Y-87258665D01*
X222085000Y-87541335D01*
X222140147Y-87818574D01*
X222248320Y-88079727D01*
X222405363Y-88314759D01*
X222605241Y-88514637D01*
X222840273Y-88671680D01*
X222985725Y-88731928D01*
X222720000Y-88731928D01*
X222595518Y-88744188D01*
X222475820Y-88780498D01*
X222365506Y-88839463D01*
X222268815Y-88918815D01*
X222189463Y-89015506D01*
X222130498Y-89125820D01*
X222094188Y-89245518D01*
X222081928Y-89370000D01*
X202952457Y-89370000D01*
X202925226Y-89233102D01*
X202847205Y-89044744D01*
X202750490Y-88900000D01*
X202847205Y-88755256D01*
X202925226Y-88566898D01*
X202965000Y-88366939D01*
X202965000Y-88163061D01*
X202925226Y-87963102D01*
X202847205Y-87774744D01*
X202733937Y-87605226D01*
X202589774Y-87461063D01*
X202420256Y-87347795D01*
X202231898Y-87269774D01*
X202031939Y-87230000D01*
X201828061Y-87230000D01*
X201628102Y-87269774D01*
X201439744Y-87347795D01*
X201270226Y-87461063D01*
X201226289Y-87505000D01*
X180916711Y-87505000D01*
X180872774Y-87461063D01*
X180703256Y-87347795D01*
X180514898Y-87269774D01*
X180314939Y-87230000D01*
X180111061Y-87230000D01*
X179911102Y-87269774D01*
X179722744Y-87347795D01*
X179553226Y-87461063D01*
X179509289Y-87505000D01*
X159453711Y-87505000D01*
X159409774Y-87461063D01*
X159240256Y-87347795D01*
X159051898Y-87269774D01*
X158851939Y-87230000D01*
X158648061Y-87230000D01*
X158448102Y-87269774D01*
X158259744Y-87347795D01*
X158090226Y-87461063D01*
X158046289Y-87505000D01*
X138117711Y-87505000D01*
X138073774Y-87461063D01*
X137904256Y-87347795D01*
X137715898Y-87269774D01*
X137515939Y-87230000D01*
X137312061Y-87230000D01*
X137112102Y-87269774D01*
X136923744Y-87347795D01*
X136754226Y-87461063D01*
X136710289Y-87505000D01*
X110304711Y-87505000D01*
X110260774Y-87461063D01*
X110091256Y-87347795D01*
X109902898Y-87269774D01*
X109702939Y-87230000D01*
X109499061Y-87230000D01*
X109299102Y-87269774D01*
X109110744Y-87347795D01*
X108941226Y-87461063D01*
X108797063Y-87605226D01*
X108683795Y-87774744D01*
X108605774Y-87963102D01*
X108566000Y-88163061D01*
X106070000Y-88163061D01*
X106070000Y-84700512D01*
X222079783Y-84700512D01*
X222121213Y-84980130D01*
X222216397Y-85246292D01*
X222283329Y-85371514D01*
X222527298Y-85443097D01*
X223340395Y-84630000D01*
X223699605Y-84630000D01*
X224512702Y-85443097D01*
X224756671Y-85371514D01*
X224877571Y-85116004D01*
X224946300Y-84841816D01*
X224960217Y-84559488D01*
X224918787Y-84279870D01*
X224823603Y-84013708D01*
X224756671Y-83888486D01*
X224512702Y-83816903D01*
X223699605Y-84630000D01*
X223340395Y-84630000D01*
X222527298Y-83816903D01*
X222283329Y-83888486D01*
X222162429Y-84143996D01*
X222093700Y-84418184D01*
X222079783Y-84700512D01*
X106070000Y-84700512D01*
X106070000Y-81718665D01*
X222085000Y-81718665D01*
X222085000Y-82001335D01*
X222140147Y-82278574D01*
X222248320Y-82539727D01*
X222405363Y-82774759D01*
X222605241Y-82974637D01*
X222840273Y-83131680D01*
X223101426Y-83239853D01*
X223129882Y-83245513D01*
X222903708Y-83326397D01*
X222778486Y-83393329D01*
X222706903Y-83637298D01*
X223520000Y-84450395D01*
X224333097Y-83637298D01*
X224261514Y-83393329D01*
X224006004Y-83272429D01*
X223903711Y-83246788D01*
X223938574Y-83239853D01*
X224199727Y-83131680D01*
X224434759Y-82974637D01*
X224634637Y-82774759D01*
X224791680Y-82539727D01*
X224899853Y-82278574D01*
X224955000Y-82001335D01*
X224955000Y-81718665D01*
X224899853Y-81441426D01*
X224791680Y-81180273D01*
X224634637Y-80945241D01*
X224434759Y-80745363D01*
X224199727Y-80588320D01*
X223938574Y-80480147D01*
X223910118Y-80474487D01*
X224136292Y-80393603D01*
X224248429Y-80333665D01*
X224925000Y-80333665D01*
X224925000Y-80616335D01*
X224980147Y-80893574D01*
X225088320Y-81154727D01*
X225245363Y-81389759D01*
X225445241Y-81589637D01*
X225680273Y-81746680D01*
X225941426Y-81854853D01*
X225967301Y-81860000D01*
X225941426Y-81865147D01*
X225680273Y-81973320D01*
X225445241Y-82130363D01*
X225245363Y-82330241D01*
X225088320Y-82565273D01*
X224980147Y-82826426D01*
X224925000Y-83103665D01*
X224925000Y-83386335D01*
X224980147Y-83663574D01*
X225088320Y-83924727D01*
X225245363Y-84159759D01*
X225445241Y-84359637D01*
X225680273Y-84516680D01*
X225941426Y-84624853D01*
X225967301Y-84630000D01*
X225941426Y-84635147D01*
X225680273Y-84743320D01*
X225445241Y-84900363D01*
X225245363Y-85100241D01*
X225088320Y-85335273D01*
X224980147Y-85596426D01*
X224925000Y-85873665D01*
X224925000Y-86156335D01*
X224980147Y-86433574D01*
X225088320Y-86694727D01*
X225245363Y-86929759D01*
X225445241Y-87129637D01*
X225680273Y-87286680D01*
X225941426Y-87394853D01*
X225967301Y-87400000D01*
X225941426Y-87405147D01*
X225680273Y-87513320D01*
X225445241Y-87670363D01*
X225245363Y-87870241D01*
X225088320Y-88105273D01*
X224980147Y-88366426D01*
X224925000Y-88643665D01*
X224925000Y-88926335D01*
X224980147Y-89203574D01*
X225088320Y-89464727D01*
X225245363Y-89699759D01*
X225445241Y-89899637D01*
X225680273Y-90056680D01*
X225941426Y-90164853D01*
X226218665Y-90220000D01*
X226501335Y-90220000D01*
X226778574Y-90164853D01*
X227039727Y-90056680D01*
X227274759Y-89899637D01*
X227474637Y-89699759D01*
X227631680Y-89464727D01*
X227739853Y-89203574D01*
X227795000Y-88926335D01*
X227795000Y-88643665D01*
X227739853Y-88366426D01*
X227631680Y-88105273D01*
X227474637Y-87870241D01*
X227274759Y-87670363D01*
X227039727Y-87513320D01*
X226778574Y-87405147D01*
X226752699Y-87400000D01*
X226778574Y-87394853D01*
X227039727Y-87286680D01*
X227274759Y-87129637D01*
X227474637Y-86929759D01*
X227631680Y-86694727D01*
X227739853Y-86433574D01*
X227795000Y-86156335D01*
X227795000Y-85873665D01*
X227739853Y-85596426D01*
X227631680Y-85335273D01*
X227474637Y-85100241D01*
X227274759Y-84900363D01*
X227039727Y-84743320D01*
X226778574Y-84635147D01*
X226752699Y-84630000D01*
X226778574Y-84624853D01*
X227039727Y-84516680D01*
X227274759Y-84359637D01*
X227474637Y-84159759D01*
X227631680Y-83924727D01*
X227739853Y-83663574D01*
X227795000Y-83386335D01*
X227795000Y-83103665D01*
X227739853Y-82826426D01*
X227631680Y-82565273D01*
X227474637Y-82330241D01*
X227274759Y-82130363D01*
X227039727Y-81973320D01*
X226778574Y-81865147D01*
X226752699Y-81860000D01*
X226778574Y-81854853D01*
X227039727Y-81746680D01*
X227274759Y-81589637D01*
X227474637Y-81389759D01*
X227631680Y-81154727D01*
X227739853Y-80893574D01*
X227795000Y-80616335D01*
X227795000Y-80333665D01*
X227739853Y-80056426D01*
X227631680Y-79795273D01*
X227474637Y-79560241D01*
X227274759Y-79360363D01*
X227039727Y-79203320D01*
X226778574Y-79095147D01*
X226501335Y-79040000D01*
X226218665Y-79040000D01*
X225941426Y-79095147D01*
X225680273Y-79203320D01*
X225445241Y-79360363D01*
X225245363Y-79560241D01*
X225088320Y-79795273D01*
X224980147Y-80056426D01*
X224925000Y-80333665D01*
X224248429Y-80333665D01*
X224261514Y-80326671D01*
X224333097Y-80082702D01*
X223520000Y-79269605D01*
X222706903Y-80082702D01*
X222778486Y-80326671D01*
X223033996Y-80447571D01*
X223136289Y-80473212D01*
X223101426Y-80480147D01*
X222840273Y-80588320D01*
X222605241Y-80745363D01*
X222405363Y-80945241D01*
X222248320Y-81180273D01*
X222140147Y-81441426D01*
X222085000Y-81718665D01*
X106070000Y-81718665D01*
X106070000Y-79160512D01*
X222079783Y-79160512D01*
X222121213Y-79440130D01*
X222216397Y-79706292D01*
X222283329Y-79831514D01*
X222527298Y-79903097D01*
X223340395Y-79090000D01*
X223699605Y-79090000D01*
X224512702Y-79903097D01*
X224756671Y-79831514D01*
X224877571Y-79576004D01*
X224946300Y-79301816D01*
X224960217Y-79019488D01*
X224918787Y-78739870D01*
X224823603Y-78473708D01*
X224756671Y-78348486D01*
X224512702Y-78276903D01*
X223699605Y-79090000D01*
X223340395Y-79090000D01*
X222527298Y-78276903D01*
X222283329Y-78348486D01*
X222162429Y-78603996D01*
X222093700Y-78878184D01*
X222079783Y-79160512D01*
X106070000Y-79160512D01*
X106070000Y-78097298D01*
X222706903Y-78097298D01*
X223520000Y-78910395D01*
X224333097Y-78097298D01*
X224261514Y-77853329D01*
X224006004Y-77732429D01*
X223731816Y-77663700D01*
X223449488Y-77649783D01*
X223169870Y-77691213D01*
X222903708Y-77786397D01*
X222778486Y-77853329D01*
X222706903Y-78097298D01*
X106070000Y-78097298D01*
X106070000Y-70645872D01*
X106731000Y-70645872D01*
X106731000Y-71086128D01*
X106816890Y-71517925D01*
X106985369Y-71924669D01*
X107229962Y-72290729D01*
X107541271Y-72602038D01*
X107907331Y-72846631D01*
X108314075Y-73015110D01*
X108745872Y-73101000D01*
X109186128Y-73101000D01*
X109617925Y-73015110D01*
X110024669Y-72846631D01*
X110390729Y-72602038D01*
X110702038Y-72290729D01*
X110946631Y-71924669D01*
X111115110Y-71517925D01*
X111201000Y-71086128D01*
X111201000Y-70645872D01*
X215316000Y-70645872D01*
X215316000Y-71086128D01*
X215401890Y-71517925D01*
X215570369Y-71924669D01*
X215814962Y-72290729D01*
X216126271Y-72602038D01*
X216492331Y-72846631D01*
X216899075Y-73015110D01*
X217330872Y-73101000D01*
X217771128Y-73101000D01*
X218202925Y-73015110D01*
X218609669Y-72846631D01*
X218975729Y-72602038D01*
X219287038Y-72290729D01*
X219531631Y-71924669D01*
X219554078Y-71870475D01*
X222305000Y-71870475D01*
X222305000Y-72389525D01*
X222406261Y-72898601D01*
X222604893Y-73378141D01*
X222893262Y-73809715D01*
X223260285Y-74176738D01*
X223691859Y-74465107D01*
X224171399Y-74663739D01*
X224680475Y-74765000D01*
X225199525Y-74765000D01*
X225708601Y-74663739D01*
X226188141Y-74465107D01*
X226619715Y-74176738D01*
X226986738Y-73809715D01*
X227275107Y-73378141D01*
X227473739Y-72898601D01*
X227575000Y-72389525D01*
X227575000Y-71870475D01*
X227473739Y-71361399D01*
X227275107Y-70881859D01*
X226986738Y-70450285D01*
X226619715Y-70083262D01*
X226188141Y-69794893D01*
X225708601Y-69596261D01*
X225199525Y-69495000D01*
X224680475Y-69495000D01*
X224171399Y-69596261D01*
X223691859Y-69794893D01*
X223260285Y-70083262D01*
X222893262Y-70450285D01*
X222604893Y-70881859D01*
X222406261Y-71361399D01*
X222305000Y-71870475D01*
X219554078Y-71870475D01*
X219700110Y-71517925D01*
X219786000Y-71086128D01*
X219786000Y-70645872D01*
X219700110Y-70214075D01*
X219531631Y-69807331D01*
X219287038Y-69441271D01*
X218975729Y-69129962D01*
X218609669Y-68885369D01*
X218202925Y-68716890D01*
X217771128Y-68631000D01*
X217330872Y-68631000D01*
X216899075Y-68716890D01*
X216492331Y-68885369D01*
X216126271Y-69129962D01*
X215814962Y-69441271D01*
X215570369Y-69807331D01*
X215401890Y-70214075D01*
X215316000Y-70645872D01*
X111201000Y-70645872D01*
X111115110Y-70214075D01*
X110946631Y-69807331D01*
X110702038Y-69441271D01*
X110390729Y-69129962D01*
X110024669Y-68885369D01*
X109617925Y-68716890D01*
X109186128Y-68631000D01*
X108745872Y-68631000D01*
X108314075Y-68716890D01*
X107907331Y-68885369D01*
X107541271Y-69129962D01*
X107229962Y-69441271D01*
X106985369Y-69807331D01*
X106816890Y-70214075D01*
X106731000Y-70645872D01*
X106070000Y-70645872D01*
X106070000Y-69882279D01*
X106108909Y-69485455D01*
X106214780Y-69134792D01*
X106386744Y-68811375D01*
X106618254Y-68527516D01*
X106900486Y-68294035D01*
X107222695Y-68119817D01*
X107572614Y-68011498D01*
X107967443Y-67970000D01*
X232377721Y-67970000D01*
X232774545Y-68008909D01*
%TA.AperFunction,Conductor*%
D17*
G36*
X232774545Y-68008909D02*
G01*
X233125208Y-68114780D01*
X233448625Y-68286744D01*
X233732484Y-68518254D01*
X233965965Y-68800486D01*
X234140183Y-69122695D01*
X234248502Y-69472614D01*
X234290000Y-69867443D01*
X234290001Y-99027711D01*
X234251091Y-99424545D01*
X234145220Y-99775206D01*
X233973257Y-100098623D01*
X233741748Y-100382482D01*
X233459514Y-100615965D01*
X233137304Y-100790184D01*
X232787385Y-100898502D01*
X232392557Y-100940000D01*
X107982279Y-100940000D01*
X107585455Y-100901091D01*
X107234794Y-100795220D01*
X106911377Y-100623257D01*
X106627518Y-100391748D01*
X106394035Y-100109514D01*
X106219816Y-99787304D01*
X106111498Y-99437385D01*
X106070000Y-99042557D01*
X106070000Y-97823872D01*
X106731000Y-97823872D01*
X106731000Y-98264128D01*
X106816890Y-98695925D01*
X106985369Y-99102669D01*
X107229962Y-99468729D01*
X107541271Y-99780038D01*
X107907331Y-100024631D01*
X108314075Y-100193110D01*
X108745872Y-100279000D01*
X109186128Y-100279000D01*
X109617925Y-100193110D01*
X110024669Y-100024631D01*
X110390729Y-99780038D01*
X110702038Y-99468729D01*
X110946631Y-99102669D01*
X111115110Y-98695925D01*
X111201000Y-98264128D01*
X111201000Y-97823872D01*
X111115110Y-97392075D01*
X110946631Y-96985331D01*
X110720566Y-96647000D01*
X116575000Y-96647000D01*
X116575000Y-97547000D01*
X116629271Y-97844023D01*
X116740446Y-98124751D01*
X116904252Y-98378396D01*
X117114394Y-98595210D01*
X117362796Y-98766862D01*
X117639913Y-98886755D01*
X117745260Y-98911036D01*
X117983000Y-98790378D01*
X117983000Y-96647000D01*
X118237000Y-96647000D01*
X118237000Y-98790378D01*
X118474740Y-98911036D01*
X118580087Y-98886755D01*
X118857204Y-98766862D01*
X119105606Y-98595210D01*
X119315748Y-98378396D01*
X119479554Y-98124751D01*
X119590729Y-97844023D01*
X119645000Y-97547000D01*
X119645000Y-96647000D01*
X118237000Y-96647000D01*
X117983000Y-96647000D01*
X116575000Y-96647000D01*
X110720566Y-96647000D01*
X110702038Y-96619271D01*
X110390729Y-96307962D01*
X110024669Y-96063369D01*
X109617925Y-95894890D01*
X109186128Y-95809000D01*
X108745872Y-95809000D01*
X108314075Y-95894890D01*
X107907331Y-96063369D01*
X107541271Y-96307962D01*
X107229962Y-96619271D01*
X106985369Y-96985331D01*
X106816890Y-97392075D01*
X106731000Y-97823872D01*
X106070000Y-97823872D01*
X106070000Y-95493000D01*
X116575000Y-95493000D01*
X116575000Y-96393000D01*
X117983000Y-96393000D01*
X117983000Y-94249622D01*
X118237000Y-94249622D01*
X118237000Y-96393000D01*
X119645000Y-96393000D01*
X119645000Y-95493000D01*
X119590729Y-95195977D01*
X119501237Y-94970000D01*
X121651928Y-94970000D01*
X121651928Y-98070000D01*
X121668992Y-98243254D01*
X121719528Y-98409850D01*
X121801595Y-98563386D01*
X121912038Y-98697962D01*
X122046614Y-98808405D01*
X122200150Y-98890472D01*
X122366746Y-98941008D01*
X122540000Y-98958072D01*
X123840000Y-98958072D01*
X124013254Y-98941008D01*
X124179850Y-98890472D01*
X124333386Y-98808405D01*
X124467962Y-98697962D01*
X124578405Y-98563386D01*
X124660472Y-98409850D01*
X124711008Y-98243254D01*
X124728072Y-98070000D01*
X124728072Y-97823872D01*
X215316000Y-97823872D01*
X215316000Y-98264128D01*
X215401890Y-98695925D01*
X215570369Y-99102669D01*
X215814962Y-99468729D01*
X216126271Y-99780038D01*
X216492331Y-100024631D01*
X216899075Y-100193110D01*
X217330872Y-100279000D01*
X217771128Y-100279000D01*
X218202925Y-100193110D01*
X218609669Y-100024631D01*
X218975729Y-99780038D01*
X219287038Y-99468729D01*
X219531631Y-99102669D01*
X219700110Y-98695925D01*
X219786000Y-98264128D01*
X219786000Y-97823872D01*
X219700110Y-97392075D01*
X219531631Y-96985331D01*
X219454887Y-96870475D01*
X222305000Y-96870475D01*
X222305000Y-97389525D01*
X222406261Y-97898601D01*
X222604893Y-98378141D01*
X222893262Y-98809715D01*
X223260285Y-99176738D01*
X223691859Y-99465107D01*
X224171399Y-99663739D01*
X224680475Y-99765000D01*
X225199525Y-99765000D01*
X225708601Y-99663739D01*
X226188141Y-99465107D01*
X226619715Y-99176738D01*
X226986738Y-98809715D01*
X227275107Y-98378141D01*
X227473739Y-97898601D01*
X227575000Y-97389525D01*
X227575000Y-96870475D01*
X227473739Y-96361399D01*
X227275107Y-95881859D01*
X226986738Y-95450285D01*
X226619715Y-95083262D01*
X226188141Y-94794893D01*
X225708601Y-94596261D01*
X225199525Y-94495000D01*
X224680475Y-94495000D01*
X224171399Y-94596261D01*
X223691859Y-94794893D01*
X223260285Y-95083262D01*
X222893262Y-95450285D01*
X222604893Y-95881859D01*
X222406261Y-96361399D01*
X222305000Y-96870475D01*
X219454887Y-96870475D01*
X219287038Y-96619271D01*
X218975729Y-96307962D01*
X218609669Y-96063369D01*
X218202925Y-95894890D01*
X217771128Y-95809000D01*
X217330872Y-95809000D01*
X216899075Y-95894890D01*
X216492331Y-96063369D01*
X216126271Y-96307962D01*
X215814962Y-96619271D01*
X215570369Y-96985331D01*
X215401890Y-97392075D01*
X215316000Y-97823872D01*
X124728072Y-97823872D01*
X124728072Y-94970000D01*
X124711008Y-94796746D01*
X124660472Y-94630150D01*
X124578405Y-94476614D01*
X124467962Y-94342038D01*
X124333386Y-94231595D01*
X124179850Y-94149528D01*
X124013254Y-94098992D01*
X123840000Y-94081928D01*
X122540000Y-94081928D01*
X122366746Y-94098992D01*
X122200150Y-94149528D01*
X122046614Y-94231595D01*
X121912038Y-94342038D01*
X121801595Y-94476614D01*
X121719528Y-94630150D01*
X121668992Y-94796746D01*
X121651928Y-94970000D01*
X119501237Y-94970000D01*
X119479554Y-94915249D01*
X119315748Y-94661604D01*
X119105606Y-94444790D01*
X118857204Y-94273138D01*
X118580087Y-94153245D01*
X118474740Y-94128964D01*
X118237000Y-94249622D01*
X117983000Y-94249622D01*
X117745260Y-94128964D01*
X117639913Y-94153245D01*
X117362796Y-94273138D01*
X117114394Y-94444790D01*
X116904252Y-94661604D01*
X116740446Y-94915249D01*
X116629271Y-95195977D01*
X116575000Y-95493000D01*
X106070000Y-95493000D01*
X106070000Y-88163061D01*
X108566000Y-88163061D01*
X108566000Y-88366939D01*
X108605774Y-88566898D01*
X108683795Y-88755256D01*
X108780510Y-88900000D01*
X108683795Y-89044744D01*
X108605774Y-89233102D01*
X108566000Y-89433061D01*
X108566000Y-89636939D01*
X108605774Y-89836898D01*
X108683795Y-90025256D01*
X108797063Y-90194774D01*
X108941226Y-90338937D01*
X109110744Y-90452205D01*
X109299102Y-90530226D01*
X109499061Y-90570000D01*
X109702939Y-90570000D01*
X109902898Y-90530226D01*
X110091256Y-90452205D01*
X110260774Y-90338937D01*
X110304711Y-90295000D01*
X136710289Y-90295000D01*
X136754226Y-90338937D01*
X136923744Y-90452205D01*
X137112102Y-90530226D01*
X137312061Y-90570000D01*
X137515939Y-90570000D01*
X137715898Y-90530226D01*
X137904256Y-90452205D01*
X137949461Y-90422000D01*
X158046289Y-90422000D01*
X158090226Y-90465937D01*
X158259744Y-90579205D01*
X158448102Y-90657226D01*
X158648061Y-90697000D01*
X158851939Y-90697000D01*
X159051898Y-90657226D01*
X159240256Y-90579205D01*
X159409774Y-90465937D01*
X159553937Y-90321774D01*
X159571827Y-90295000D01*
X179509289Y-90295000D01*
X179553226Y-90338937D01*
X179722744Y-90452205D01*
X179911102Y-90530226D01*
X180111061Y-90570000D01*
X180314939Y-90570000D01*
X180514898Y-90530226D01*
X180703256Y-90452205D01*
X180872774Y-90338937D01*
X180916711Y-90295000D01*
X201226289Y-90295000D01*
X201270226Y-90338937D01*
X201439744Y-90452205D01*
X201628102Y-90530226D01*
X201828061Y-90570000D01*
X202031939Y-90570000D01*
X202231898Y-90530226D01*
X202420256Y-90452205D01*
X202589774Y-90338937D01*
X202733937Y-90194774D01*
X202847205Y-90025256D01*
X202925226Y-89836898D01*
X202965000Y-89636939D01*
X202965000Y-89433061D01*
X202952457Y-89370000D01*
X222081928Y-89370000D01*
X222081928Y-90970000D01*
X222094188Y-91094482D01*
X222130498Y-91214180D01*
X222189463Y-91324494D01*
X222268815Y-91421185D01*
X222365506Y-91500537D01*
X222475820Y-91559502D01*
X222595518Y-91595812D01*
X222720000Y-91608072D01*
X224320000Y-91608072D01*
X224444482Y-91595812D01*
X224564180Y-91559502D01*
X224674494Y-91500537D01*
X224771185Y-91421185D01*
X224850537Y-91324494D01*
X224909502Y-91214180D01*
X224945812Y-91094482D01*
X224958072Y-90970000D01*
X224958072Y-89370000D01*
X224945812Y-89245518D01*
X224909502Y-89125820D01*
X224850537Y-89015506D01*
X224771185Y-88918815D01*
X224674494Y-88839463D01*
X224564180Y-88780498D01*
X224444482Y-88744188D01*
X224320000Y-88731928D01*
X224054275Y-88731928D01*
X224199727Y-88671680D01*
X224434759Y-88514637D01*
X224634637Y-88314759D01*
X224791680Y-88079727D01*
X224899853Y-87818574D01*
X224955000Y-87541335D01*
X224955000Y-87258665D01*
X224899853Y-86981426D01*
X224791680Y-86720273D01*
X224634637Y-86485241D01*
X224434759Y-86285363D01*
X224199727Y-86128320D01*
X223938574Y-86020147D01*
X223910118Y-86014487D01*
X224136292Y-85933603D01*
X224261514Y-85866671D01*
X224333097Y-85622702D01*
X223520000Y-84809605D01*
X222706903Y-85622702D01*
X222778486Y-85866671D01*
X223033996Y-85987571D01*
X223136289Y-86013212D01*
X223101426Y-86020147D01*
X222840273Y-86128320D01*
X222605241Y-86285363D01*
X222405363Y-86485241D01*
X222248320Y-86720273D01*
X222140147Y-86981426D01*
X222085000Y-87258665D01*
X222085000Y-87541335D01*
X222140147Y-87818574D01*
X222248320Y-88079727D01*
X222405363Y-88314759D01*
X222605241Y-88514637D01*
X222840273Y-88671680D01*
X222985725Y-88731928D01*
X222720000Y-88731928D01*
X222595518Y-88744188D01*
X222475820Y-88780498D01*
X222365506Y-88839463D01*
X222268815Y-88918815D01*
X222189463Y-89015506D01*
X222130498Y-89125820D01*
X222094188Y-89245518D01*
X222081928Y-89370000D01*
X202952457Y-89370000D01*
X202925226Y-89233102D01*
X202847205Y-89044744D01*
X202750490Y-88900000D01*
X202847205Y-88755256D01*
X202925226Y-88566898D01*
X202965000Y-88366939D01*
X202965000Y-88163061D01*
X202925226Y-87963102D01*
X202847205Y-87774744D01*
X202733937Y-87605226D01*
X202589774Y-87461063D01*
X202420256Y-87347795D01*
X202231898Y-87269774D01*
X202031939Y-87230000D01*
X201828061Y-87230000D01*
X201628102Y-87269774D01*
X201439744Y-87347795D01*
X201270226Y-87461063D01*
X201226289Y-87505000D01*
X180916711Y-87505000D01*
X180872774Y-87461063D01*
X180703256Y-87347795D01*
X180514898Y-87269774D01*
X180314939Y-87230000D01*
X180111061Y-87230000D01*
X179911102Y-87269774D01*
X179722744Y-87347795D01*
X179553226Y-87461063D01*
X179509289Y-87505000D01*
X159453711Y-87505000D01*
X159409774Y-87461063D01*
X159240256Y-87347795D01*
X159051898Y-87269774D01*
X158851939Y-87230000D01*
X158648061Y-87230000D01*
X158448102Y-87269774D01*
X158259744Y-87347795D01*
X158090226Y-87461063D01*
X158046289Y-87505000D01*
X138117711Y-87505000D01*
X138073774Y-87461063D01*
X137904256Y-87347795D01*
X137715898Y-87269774D01*
X137515939Y-87230000D01*
X137312061Y-87230000D01*
X137112102Y-87269774D01*
X136923744Y-87347795D01*
X136754226Y-87461063D01*
X136710289Y-87505000D01*
X110304711Y-87505000D01*
X110260774Y-87461063D01*
X110091256Y-87347795D01*
X109902898Y-87269774D01*
X109702939Y-87230000D01*
X109499061Y-87230000D01*
X109299102Y-87269774D01*
X109110744Y-87347795D01*
X108941226Y-87461063D01*
X108797063Y-87605226D01*
X108683795Y-87774744D01*
X108605774Y-87963102D01*
X108566000Y-88163061D01*
X106070000Y-88163061D01*
X106070000Y-84700512D01*
X222079783Y-84700512D01*
X222121213Y-84980130D01*
X222216397Y-85246292D01*
X222283329Y-85371514D01*
X222527298Y-85443097D01*
X223340395Y-84630000D01*
X223699605Y-84630000D01*
X224512702Y-85443097D01*
X224756671Y-85371514D01*
X224877571Y-85116004D01*
X224946300Y-84841816D01*
X224960217Y-84559488D01*
X224918787Y-84279870D01*
X224823603Y-84013708D01*
X224756671Y-83888486D01*
X224512702Y-83816903D01*
X223699605Y-84630000D01*
X223340395Y-84630000D01*
X222527298Y-83816903D01*
X222283329Y-83888486D01*
X222162429Y-84143996D01*
X222093700Y-84418184D01*
X222079783Y-84700512D01*
X106070000Y-84700512D01*
X106070000Y-81718665D01*
X222085000Y-81718665D01*
X222085000Y-82001335D01*
X222140147Y-82278574D01*
X222248320Y-82539727D01*
X222405363Y-82774759D01*
X222605241Y-82974637D01*
X222840273Y-83131680D01*
X223101426Y-83239853D01*
X223129882Y-83245513D01*
X222903708Y-83326397D01*
X222778486Y-83393329D01*
X222706903Y-83637298D01*
X223520000Y-84450395D01*
X224333097Y-83637298D01*
X224261514Y-83393329D01*
X224006004Y-83272429D01*
X223903711Y-83246788D01*
X223938574Y-83239853D01*
X224199727Y-83131680D01*
X224434759Y-82974637D01*
X224634637Y-82774759D01*
X224791680Y-82539727D01*
X224899853Y-82278574D01*
X224955000Y-82001335D01*
X224955000Y-81718665D01*
X224899853Y-81441426D01*
X224791680Y-81180273D01*
X224634637Y-80945241D01*
X224434759Y-80745363D01*
X224199727Y-80588320D01*
X223938574Y-80480147D01*
X223910118Y-80474487D01*
X224136292Y-80393603D01*
X224248429Y-80333665D01*
X224925000Y-80333665D01*
X224925000Y-80616335D01*
X224980147Y-80893574D01*
X225088320Y-81154727D01*
X225245363Y-81389759D01*
X225445241Y-81589637D01*
X225680273Y-81746680D01*
X225941426Y-81854853D01*
X225967301Y-81860000D01*
X225941426Y-81865147D01*
X225680273Y-81973320D01*
X225445241Y-82130363D01*
X225245363Y-82330241D01*
X225088320Y-82565273D01*
X224980147Y-82826426D01*
X224925000Y-83103665D01*
X224925000Y-83386335D01*
X224980147Y-83663574D01*
X225088320Y-83924727D01*
X225245363Y-84159759D01*
X225445241Y-84359637D01*
X225680273Y-84516680D01*
X225941426Y-84624853D01*
X225967301Y-84630000D01*
X225941426Y-84635147D01*
X225680273Y-84743320D01*
X225445241Y-84900363D01*
X225245363Y-85100241D01*
X225088320Y-85335273D01*
X224980147Y-85596426D01*
X224925000Y-85873665D01*
X224925000Y-86156335D01*
X224980147Y-86433574D01*
X225088320Y-86694727D01*
X225245363Y-86929759D01*
X225445241Y-87129637D01*
X225680273Y-87286680D01*
X225941426Y-87394853D01*
X225967301Y-87400000D01*
X225941426Y-87405147D01*
X225680273Y-87513320D01*
X225445241Y-87670363D01*
X225245363Y-87870241D01*
X225088320Y-88105273D01*
X224980147Y-88366426D01*
X224925000Y-88643665D01*
X224925000Y-88926335D01*
X224980147Y-89203574D01*
X225088320Y-89464727D01*
X225245363Y-89699759D01*
X225445241Y-89899637D01*
X225680273Y-90056680D01*
X225941426Y-90164853D01*
X226218665Y-90220000D01*
X226501335Y-90220000D01*
X226778574Y-90164853D01*
X227039727Y-90056680D01*
X227274759Y-89899637D01*
X227474637Y-89699759D01*
X227631680Y-89464727D01*
X227739853Y-89203574D01*
X227795000Y-88926335D01*
X227795000Y-88643665D01*
X227739853Y-88366426D01*
X227631680Y-88105273D01*
X227474637Y-87870241D01*
X227274759Y-87670363D01*
X227039727Y-87513320D01*
X226778574Y-87405147D01*
X226752699Y-87400000D01*
X226778574Y-87394853D01*
X227039727Y-87286680D01*
X227274759Y-87129637D01*
X227474637Y-86929759D01*
X227631680Y-86694727D01*
X227739853Y-86433574D01*
X227795000Y-86156335D01*
X227795000Y-85873665D01*
X227739853Y-85596426D01*
X227631680Y-85335273D01*
X227474637Y-85100241D01*
X227274759Y-84900363D01*
X227039727Y-84743320D01*
X226778574Y-84635147D01*
X226752699Y-84630000D01*
X226778574Y-84624853D01*
X227039727Y-84516680D01*
X227274759Y-84359637D01*
X227474637Y-84159759D01*
X227631680Y-83924727D01*
X227739853Y-83663574D01*
X227795000Y-83386335D01*
X227795000Y-83103665D01*
X227739853Y-82826426D01*
X227631680Y-82565273D01*
X227474637Y-82330241D01*
X227274759Y-82130363D01*
X227039727Y-81973320D01*
X226778574Y-81865147D01*
X226752699Y-81860000D01*
X226778574Y-81854853D01*
X227039727Y-81746680D01*
X227274759Y-81589637D01*
X227474637Y-81389759D01*
X227631680Y-81154727D01*
X227739853Y-80893574D01*
X227795000Y-80616335D01*
X227795000Y-80333665D01*
X227739853Y-80056426D01*
X227631680Y-79795273D01*
X227474637Y-79560241D01*
X227274759Y-79360363D01*
X227039727Y-79203320D01*
X226778574Y-79095147D01*
X226501335Y-79040000D01*
X226218665Y-79040000D01*
X225941426Y-79095147D01*
X225680273Y-79203320D01*
X225445241Y-79360363D01*
X225245363Y-79560241D01*
X225088320Y-79795273D01*
X224980147Y-80056426D01*
X224925000Y-80333665D01*
X224248429Y-80333665D01*
X224261514Y-80326671D01*
X224333097Y-80082702D01*
X223520000Y-79269605D01*
X222706903Y-80082702D01*
X222778486Y-80326671D01*
X223033996Y-80447571D01*
X223136289Y-80473212D01*
X223101426Y-80480147D01*
X222840273Y-80588320D01*
X222605241Y-80745363D01*
X222405363Y-80945241D01*
X222248320Y-81180273D01*
X222140147Y-81441426D01*
X222085000Y-81718665D01*
X106070000Y-81718665D01*
X106070000Y-79160512D01*
X222079783Y-79160512D01*
X222121213Y-79440130D01*
X222216397Y-79706292D01*
X222283329Y-79831514D01*
X222527298Y-79903097D01*
X223340395Y-79090000D01*
X223699605Y-79090000D01*
X224512702Y-79903097D01*
X224756671Y-79831514D01*
X224877571Y-79576004D01*
X224946300Y-79301816D01*
X224960217Y-79019488D01*
X224918787Y-78739870D01*
X224823603Y-78473708D01*
X224756671Y-78348486D01*
X224512702Y-78276903D01*
X223699605Y-79090000D01*
X223340395Y-79090000D01*
X222527298Y-78276903D01*
X222283329Y-78348486D01*
X222162429Y-78603996D01*
X222093700Y-78878184D01*
X222079783Y-79160512D01*
X106070000Y-79160512D01*
X106070000Y-78097298D01*
X222706903Y-78097298D01*
X223520000Y-78910395D01*
X224333097Y-78097298D01*
X224261514Y-77853329D01*
X224006004Y-77732429D01*
X223731816Y-77663700D01*
X223449488Y-77649783D01*
X223169870Y-77691213D01*
X222903708Y-77786397D01*
X222778486Y-77853329D01*
X222706903Y-78097298D01*
X106070000Y-78097298D01*
X106070000Y-70645872D01*
X106731000Y-70645872D01*
X106731000Y-71086128D01*
X106816890Y-71517925D01*
X106985369Y-71924669D01*
X107229962Y-72290729D01*
X107541271Y-72602038D01*
X107907331Y-72846631D01*
X108314075Y-73015110D01*
X108745872Y-73101000D01*
X109186128Y-73101000D01*
X109617925Y-73015110D01*
X110024669Y-72846631D01*
X110390729Y-72602038D01*
X110702038Y-72290729D01*
X110946631Y-71924669D01*
X111115110Y-71517925D01*
X111201000Y-71086128D01*
X111201000Y-70645872D01*
X215316000Y-70645872D01*
X215316000Y-71086128D01*
X215401890Y-71517925D01*
X215570369Y-71924669D01*
X215814962Y-72290729D01*
X216126271Y-72602038D01*
X216492331Y-72846631D01*
X216899075Y-73015110D01*
X217330872Y-73101000D01*
X217771128Y-73101000D01*
X218202925Y-73015110D01*
X218609669Y-72846631D01*
X218975729Y-72602038D01*
X219287038Y-72290729D01*
X219531631Y-71924669D01*
X219554078Y-71870475D01*
X222305000Y-71870475D01*
X222305000Y-72389525D01*
X222406261Y-72898601D01*
X222604893Y-73378141D01*
X222893262Y-73809715D01*
X223260285Y-74176738D01*
X223691859Y-74465107D01*
X224171399Y-74663739D01*
X224680475Y-74765000D01*
X225199525Y-74765000D01*
X225708601Y-74663739D01*
X226188141Y-74465107D01*
X226619715Y-74176738D01*
X226986738Y-73809715D01*
X227275107Y-73378141D01*
X227473739Y-72898601D01*
X227575000Y-72389525D01*
X227575000Y-71870475D01*
X227473739Y-71361399D01*
X227275107Y-70881859D01*
X226986738Y-70450285D01*
X226619715Y-70083262D01*
X226188141Y-69794893D01*
X225708601Y-69596261D01*
X225199525Y-69495000D01*
X224680475Y-69495000D01*
X224171399Y-69596261D01*
X223691859Y-69794893D01*
X223260285Y-70083262D01*
X222893262Y-70450285D01*
X222604893Y-70881859D01*
X222406261Y-71361399D01*
X222305000Y-71870475D01*
X219554078Y-71870475D01*
X219700110Y-71517925D01*
X219786000Y-71086128D01*
X219786000Y-70645872D01*
X219700110Y-70214075D01*
X219531631Y-69807331D01*
X219287038Y-69441271D01*
X218975729Y-69129962D01*
X218609669Y-68885369D01*
X218202925Y-68716890D01*
X217771128Y-68631000D01*
X217330872Y-68631000D01*
X216899075Y-68716890D01*
X216492331Y-68885369D01*
X216126271Y-69129962D01*
X215814962Y-69441271D01*
X215570369Y-69807331D01*
X215401890Y-70214075D01*
X215316000Y-70645872D01*
X111201000Y-70645872D01*
X111115110Y-70214075D01*
X110946631Y-69807331D01*
X110702038Y-69441271D01*
X110390729Y-69129962D01*
X110024669Y-68885369D01*
X109617925Y-68716890D01*
X109186128Y-68631000D01*
X108745872Y-68631000D01*
X108314075Y-68716890D01*
X107907331Y-68885369D01*
X107541271Y-69129962D01*
X107229962Y-69441271D01*
X106985369Y-69807331D01*
X106816890Y-70214075D01*
X106731000Y-70645872D01*
X106070000Y-70645872D01*
X106070000Y-69882279D01*
X106108909Y-69485455D01*
X106214780Y-69134792D01*
X106386744Y-68811375D01*
X106618254Y-68527516D01*
X106900486Y-68294035D01*
X107222695Y-68119817D01*
X107572614Y-68011498D01*
X107967443Y-67970000D01*
X232377721Y-67970000D01*
X232774545Y-68008909D01*
G37*
%TD.AperFunction*%
%TD*%
M02*
