M48
; DRILL file {KiCad (5.1.12)-1} date 12/02/21 22:11:08
; FORMAT={-:-/ absolute / inch / decimal}
; #@! TF.CreationDate,2021-12-02T22:11:08-06:00
; #@! TF.GenerationSoftware,Kicad,Pcbnew,(5.1.12)-1
; #@! TF.FileFunction,Plated,1,2,PTH
FMAT,2
INCH
T1C0.0157
T2C0.0394
T3C0.0472
T4C0.1260
%
G90
G05
T1
X4.315Y-3.475
X4.315Y-3.525
X5.41Y-3.475
X5.41Y-3.525
X6.25Y-3.475
X6.25Y-3.53
X7.095Y-3.475
X7.095Y-3.525
X7.95Y-3.475
X7.95Y-3.525
X8.49Y-3.07
T2
X8.8Y-3.1138
X8.8Y-3.2228
X8.8Y-3.3319
X8.8Y-3.4409
X8.8Y-3.55
X8.9118Y-3.1683
X8.9118Y-3.2774
X8.9118Y-3.3864
X8.9118Y-3.4955
T3
X4.65Y-3.8
X4.85Y-3.8
T4
X8.8559Y-2.8398
X8.8559Y-3.824
T0
M30
