%TF.GenerationSoftware,KiCad,Pcbnew,(5.1.12)-1*%
%TF.CreationDate,2021-11-30T21:20:58-06:00*%
%TF.ProjectId,Current_Sense,43757272-656e-4745-9f53-656e73652e6b,rev?*%
%TF.SameCoordinates,Original*%
%TF.FileFunction,Copper,L2,Bot*%
%TF.FilePolarity,Positive*%
%FSLAX46Y46*%
G04 Gerber Fmt 4.6, Leading zero omitted, Abs format (unit mm)*
G04 Created by KiCad (PCBNEW (5.1.12)-1) date 2021-11-30 21:20:58*
%MOMM*%
%LPD*%
G01*
G04 APERTURE LIST*
%TA.AperFunction,ComponentPad*%
%ADD10C,4.000000*%
%TD*%
%TA.AperFunction,ComponentPad*%
%ADD11O,2.100000X1.500000*%
%TD*%
%TA.AperFunction,Conductor*%
%ADD12C,0.254000*%
%TD*%
%TA.AperFunction,Conductor*%
%ADD13C,0.100000*%
%TD*%
G04 APERTURE END LIST*
D10*
%TO.P,U1,9*%
%TO.N,Net-(U1-Pad9)*%
X75290000Y-95145001D03*
%TO.P,U1,10*%
%TO.N,Net-(U1-Pad10)*%
X78790000Y-77145001D03*
X75290000Y-77145001D03*
%TO.P,U1,9*%
%TO.N,Net-(U1-Pad9)*%
X78790000Y-95145001D03*
D11*
%TO.P,U1,1*%
%TO.N,N/C*%
X102390000Y-81765001D03*
%TO.P,U1,3*%
X102390000Y-84265001D03*
%TO.P,U1,2*%
%TO.N,GND*%
X100390000Y-83015001D03*
%TO.P,U1,4*%
%TO.N,N/C*%
X100390000Y-85515001D03*
%TO.P,U1,5*%
%TO.N,DFSDM1_CKIN5_5V*%
X102390000Y-86765001D03*
%TO.P,U1,6*%
%TO.N,DFSDM1_DATIN5_5V*%
X100390000Y-88015001D03*
%TO.P,U1,7*%
%TO.N,+5V*%
X102390000Y-89265001D03*
%TO.P,U1,8*%
%TO.N,GND*%
X100390000Y-90515001D03*
%TD*%
D12*
%TO.N,GND*%
X124824545Y-74358909D02*
X125175208Y-74464780D01*
X125498625Y-74636744D01*
X125782484Y-74868254D01*
X126015965Y-75150486D01*
X126190183Y-75472695D01*
X126298502Y-75822614D01*
X126340000Y-76217443D01*
X126340001Y-96487711D01*
X126301091Y-96884545D01*
X126195220Y-97235206D01*
X126023257Y-97558623D01*
X125791748Y-97842482D01*
X125509514Y-98075965D01*
X125187304Y-98250184D01*
X124837385Y-98358502D01*
X124442557Y-98400000D01*
X59722279Y-98400000D01*
X59325455Y-98361091D01*
X58974794Y-98255220D01*
X58651377Y-98083257D01*
X58367518Y-97851748D01*
X58134035Y-97569514D01*
X57959816Y-97247304D01*
X57851498Y-96897385D01*
X57810000Y-96502557D01*
X57810000Y-94885476D01*
X72655000Y-94885476D01*
X72655000Y-95404526D01*
X72756261Y-95913602D01*
X72954893Y-96393142D01*
X73243262Y-96824716D01*
X73610285Y-97191739D01*
X74041859Y-97480108D01*
X74521399Y-97678740D01*
X75030475Y-97780001D01*
X75549525Y-97780001D01*
X76058601Y-97678740D01*
X76538141Y-97480108D01*
X76969715Y-97191739D01*
X77040000Y-97121454D01*
X77110285Y-97191739D01*
X77541859Y-97480108D01*
X78021399Y-97678740D01*
X78530475Y-97780001D01*
X79049525Y-97780001D01*
X79558601Y-97678740D01*
X80038141Y-97480108D01*
X80469715Y-97191739D01*
X80836738Y-96824716D01*
X81125107Y-96393142D01*
X81323739Y-95913602D01*
X81425000Y-95404526D01*
X81425000Y-94885476D01*
X81323739Y-94376400D01*
X81125107Y-93896860D01*
X80836738Y-93465286D01*
X80469715Y-93098263D01*
X80038141Y-92809894D01*
X79558601Y-92611262D01*
X79049525Y-92510001D01*
X78530475Y-92510001D01*
X78021399Y-92611262D01*
X77541859Y-92809894D01*
X77110285Y-93098263D01*
X77040000Y-93168548D01*
X76969715Y-93098263D01*
X76538141Y-92809894D01*
X76058601Y-92611262D01*
X75549525Y-92510001D01*
X75030475Y-92510001D01*
X74521399Y-92611262D01*
X74041859Y-92809894D01*
X73610285Y-93098263D01*
X73243262Y-93465286D01*
X72954893Y-93896860D01*
X72756261Y-94376400D01*
X72655000Y-94885476D01*
X57810000Y-94885476D01*
X57810000Y-90856186D01*
X98747682Y-90856186D01*
X98761827Y-90927685D01*
X98867858Y-91178869D01*
X99020855Y-91404541D01*
X99214939Y-91596029D01*
X99442651Y-91745973D01*
X99695240Y-91848612D01*
X99963000Y-91900001D01*
X100263000Y-91900001D01*
X100263000Y-90642001D01*
X98870344Y-90642001D01*
X98747682Y-90856186D01*
X57810000Y-90856186D01*
X57810000Y-85515001D01*
X98698299Y-85515001D01*
X98725040Y-85786508D01*
X98804236Y-86047582D01*
X98932843Y-86288189D01*
X99105919Y-86499082D01*
X99316812Y-86672158D01*
X99490509Y-86765001D01*
X99316812Y-86857844D01*
X99105919Y-87030920D01*
X98932843Y-87241813D01*
X98804236Y-87482420D01*
X98725040Y-87743494D01*
X98698299Y-88015001D01*
X98725040Y-88286508D01*
X98804236Y-88547582D01*
X98932843Y-88788189D01*
X99105919Y-88999082D01*
X99316812Y-89172158D01*
X99490064Y-89264763D01*
X99442651Y-89284029D01*
X99214939Y-89433973D01*
X99020855Y-89625461D01*
X98867858Y-89851133D01*
X98761827Y-90102317D01*
X98747682Y-90173816D01*
X98870344Y-90388001D01*
X100263000Y-90388001D01*
X100263000Y-90368001D01*
X100517000Y-90368001D01*
X100517000Y-90388001D01*
X100537000Y-90388001D01*
X100537000Y-90642001D01*
X100517000Y-90642001D01*
X100517000Y-91900001D01*
X100817000Y-91900001D01*
X101084760Y-91848612D01*
X101337349Y-91745973D01*
X101565061Y-91596029D01*
X101759145Y-91404541D01*
X101912142Y-91178869D01*
X102018173Y-90927685D01*
X102032318Y-90856186D01*
X101909657Y-90642003D01*
X101940758Y-90642003D01*
X102021963Y-90650001D01*
X102758037Y-90650001D01*
X102961507Y-90629961D01*
X103222581Y-90550765D01*
X103463188Y-90422158D01*
X103674081Y-90249082D01*
X103847157Y-90038189D01*
X103975764Y-89797582D01*
X104054960Y-89536508D01*
X104081701Y-89265001D01*
X104054960Y-88993494D01*
X103975764Y-88732420D01*
X103847157Y-88491813D01*
X103674081Y-88280920D01*
X103463188Y-88107844D01*
X103289491Y-88015001D01*
X103463188Y-87922158D01*
X103674081Y-87749082D01*
X103847157Y-87538189D01*
X103975764Y-87297582D01*
X104054960Y-87036508D01*
X104081701Y-86765001D01*
X104054960Y-86493494D01*
X103975764Y-86232420D01*
X103847157Y-85991813D01*
X103674081Y-85780920D01*
X103463188Y-85607844D01*
X103289491Y-85515001D01*
X103463188Y-85422158D01*
X103674081Y-85249082D01*
X103847157Y-85038189D01*
X103975764Y-84797582D01*
X104054960Y-84536508D01*
X104081701Y-84265001D01*
X104054960Y-83993494D01*
X103975764Y-83732420D01*
X103847157Y-83491813D01*
X103674081Y-83280920D01*
X103463188Y-83107844D01*
X103289491Y-83015001D01*
X103463188Y-82922158D01*
X103674081Y-82749082D01*
X103847157Y-82538189D01*
X103975764Y-82297582D01*
X104054960Y-82036508D01*
X104081701Y-81765001D01*
X104054960Y-81493494D01*
X103975764Y-81232420D01*
X103847157Y-80991813D01*
X103674081Y-80780920D01*
X103463188Y-80607844D01*
X103222581Y-80479237D01*
X102961507Y-80400041D01*
X102758037Y-80380001D01*
X102021963Y-80380001D01*
X101818493Y-80400041D01*
X101557419Y-80479237D01*
X101316812Y-80607844D01*
X101105919Y-80780920D01*
X100932843Y-80991813D01*
X100804236Y-81232420D01*
X100725040Y-81493494D01*
X100711595Y-81630001D01*
X100517000Y-81630001D01*
X100517000Y-82888001D01*
X100537000Y-82888001D01*
X100537000Y-83142001D01*
X100517000Y-83142001D01*
X100517000Y-83162001D01*
X100263000Y-83162001D01*
X100263000Y-83142001D01*
X98870344Y-83142001D01*
X98747682Y-83356186D01*
X98761827Y-83427685D01*
X98867858Y-83678869D01*
X99020855Y-83904541D01*
X99214939Y-84096029D01*
X99442651Y-84245973D01*
X99490064Y-84265239D01*
X99316812Y-84357844D01*
X99105919Y-84530920D01*
X98932843Y-84741813D01*
X98804236Y-84982420D01*
X98725040Y-85243494D01*
X98698299Y-85515001D01*
X57810000Y-85515001D01*
X57810000Y-82673816D01*
X98747682Y-82673816D01*
X98870344Y-82888001D01*
X100263000Y-82888001D01*
X100263000Y-81630001D01*
X99963000Y-81630001D01*
X99695240Y-81681390D01*
X99442651Y-81784029D01*
X99214939Y-81933973D01*
X99020855Y-82125461D01*
X98867858Y-82351133D01*
X98761827Y-82602317D01*
X98747682Y-82673816D01*
X57810000Y-82673816D01*
X57810000Y-76885476D01*
X72655000Y-76885476D01*
X72655000Y-77404526D01*
X72756261Y-77913602D01*
X72954893Y-78393142D01*
X73243262Y-78824716D01*
X73610285Y-79191739D01*
X74041859Y-79480108D01*
X74521399Y-79678740D01*
X75030475Y-79780001D01*
X75549525Y-79780001D01*
X76058601Y-79678740D01*
X76538141Y-79480108D01*
X76969715Y-79191739D01*
X77040000Y-79121454D01*
X77110285Y-79191739D01*
X77541859Y-79480108D01*
X78021399Y-79678740D01*
X78530475Y-79780001D01*
X79049525Y-79780001D01*
X79558601Y-79678740D01*
X80038141Y-79480108D01*
X80469715Y-79191739D01*
X80836738Y-78824716D01*
X81125107Y-78393142D01*
X81323739Y-77913602D01*
X81425000Y-77404526D01*
X81425000Y-76885476D01*
X81323739Y-76376400D01*
X81125107Y-75896860D01*
X80836738Y-75465286D01*
X80469715Y-75098263D01*
X80038141Y-74809894D01*
X79558601Y-74611262D01*
X79049525Y-74510001D01*
X78530475Y-74510001D01*
X78021399Y-74611262D01*
X77541859Y-74809894D01*
X77110285Y-75098263D01*
X77040000Y-75168548D01*
X76969715Y-75098263D01*
X76538141Y-74809894D01*
X76058601Y-74611262D01*
X75549525Y-74510001D01*
X75030475Y-74510001D01*
X74521399Y-74611262D01*
X74041859Y-74809894D01*
X73610285Y-75098263D01*
X73243262Y-75465286D01*
X72954893Y-75896860D01*
X72756261Y-76376400D01*
X72655000Y-76885476D01*
X57810000Y-76885476D01*
X57810000Y-76232279D01*
X57848909Y-75835455D01*
X57954780Y-75484792D01*
X58126744Y-75161375D01*
X58358254Y-74877516D01*
X58640486Y-74644035D01*
X58962695Y-74469817D01*
X59312614Y-74361498D01*
X59707443Y-74320000D01*
X124427721Y-74320000D01*
X124824545Y-74358909D01*
%TA.AperFunction,Conductor*%
D13*
G36*
X124824545Y-74358909D02*
G01*
X125175208Y-74464780D01*
X125498625Y-74636744D01*
X125782484Y-74868254D01*
X126015965Y-75150486D01*
X126190183Y-75472695D01*
X126298502Y-75822614D01*
X126340000Y-76217443D01*
X126340001Y-96487711D01*
X126301091Y-96884545D01*
X126195220Y-97235206D01*
X126023257Y-97558623D01*
X125791748Y-97842482D01*
X125509514Y-98075965D01*
X125187304Y-98250184D01*
X124837385Y-98358502D01*
X124442557Y-98400000D01*
X59722279Y-98400000D01*
X59325455Y-98361091D01*
X58974794Y-98255220D01*
X58651377Y-98083257D01*
X58367518Y-97851748D01*
X58134035Y-97569514D01*
X57959816Y-97247304D01*
X57851498Y-96897385D01*
X57810000Y-96502557D01*
X57810000Y-94885476D01*
X72655000Y-94885476D01*
X72655000Y-95404526D01*
X72756261Y-95913602D01*
X72954893Y-96393142D01*
X73243262Y-96824716D01*
X73610285Y-97191739D01*
X74041859Y-97480108D01*
X74521399Y-97678740D01*
X75030475Y-97780001D01*
X75549525Y-97780001D01*
X76058601Y-97678740D01*
X76538141Y-97480108D01*
X76969715Y-97191739D01*
X77040000Y-97121454D01*
X77110285Y-97191739D01*
X77541859Y-97480108D01*
X78021399Y-97678740D01*
X78530475Y-97780001D01*
X79049525Y-97780001D01*
X79558601Y-97678740D01*
X80038141Y-97480108D01*
X80469715Y-97191739D01*
X80836738Y-96824716D01*
X81125107Y-96393142D01*
X81323739Y-95913602D01*
X81425000Y-95404526D01*
X81425000Y-94885476D01*
X81323739Y-94376400D01*
X81125107Y-93896860D01*
X80836738Y-93465286D01*
X80469715Y-93098263D01*
X80038141Y-92809894D01*
X79558601Y-92611262D01*
X79049525Y-92510001D01*
X78530475Y-92510001D01*
X78021399Y-92611262D01*
X77541859Y-92809894D01*
X77110285Y-93098263D01*
X77040000Y-93168548D01*
X76969715Y-93098263D01*
X76538141Y-92809894D01*
X76058601Y-92611262D01*
X75549525Y-92510001D01*
X75030475Y-92510001D01*
X74521399Y-92611262D01*
X74041859Y-92809894D01*
X73610285Y-93098263D01*
X73243262Y-93465286D01*
X72954893Y-93896860D01*
X72756261Y-94376400D01*
X72655000Y-94885476D01*
X57810000Y-94885476D01*
X57810000Y-90856186D01*
X98747682Y-90856186D01*
X98761827Y-90927685D01*
X98867858Y-91178869D01*
X99020855Y-91404541D01*
X99214939Y-91596029D01*
X99442651Y-91745973D01*
X99695240Y-91848612D01*
X99963000Y-91900001D01*
X100263000Y-91900001D01*
X100263000Y-90642001D01*
X98870344Y-90642001D01*
X98747682Y-90856186D01*
X57810000Y-90856186D01*
X57810000Y-85515001D01*
X98698299Y-85515001D01*
X98725040Y-85786508D01*
X98804236Y-86047582D01*
X98932843Y-86288189D01*
X99105919Y-86499082D01*
X99316812Y-86672158D01*
X99490509Y-86765001D01*
X99316812Y-86857844D01*
X99105919Y-87030920D01*
X98932843Y-87241813D01*
X98804236Y-87482420D01*
X98725040Y-87743494D01*
X98698299Y-88015001D01*
X98725040Y-88286508D01*
X98804236Y-88547582D01*
X98932843Y-88788189D01*
X99105919Y-88999082D01*
X99316812Y-89172158D01*
X99490064Y-89264763D01*
X99442651Y-89284029D01*
X99214939Y-89433973D01*
X99020855Y-89625461D01*
X98867858Y-89851133D01*
X98761827Y-90102317D01*
X98747682Y-90173816D01*
X98870344Y-90388001D01*
X100263000Y-90388001D01*
X100263000Y-90368001D01*
X100517000Y-90368001D01*
X100517000Y-90388001D01*
X100537000Y-90388001D01*
X100537000Y-90642001D01*
X100517000Y-90642001D01*
X100517000Y-91900001D01*
X100817000Y-91900001D01*
X101084760Y-91848612D01*
X101337349Y-91745973D01*
X101565061Y-91596029D01*
X101759145Y-91404541D01*
X101912142Y-91178869D01*
X102018173Y-90927685D01*
X102032318Y-90856186D01*
X101909657Y-90642003D01*
X101940758Y-90642003D01*
X102021963Y-90650001D01*
X102758037Y-90650001D01*
X102961507Y-90629961D01*
X103222581Y-90550765D01*
X103463188Y-90422158D01*
X103674081Y-90249082D01*
X103847157Y-90038189D01*
X103975764Y-89797582D01*
X104054960Y-89536508D01*
X104081701Y-89265001D01*
X104054960Y-88993494D01*
X103975764Y-88732420D01*
X103847157Y-88491813D01*
X103674081Y-88280920D01*
X103463188Y-88107844D01*
X103289491Y-88015001D01*
X103463188Y-87922158D01*
X103674081Y-87749082D01*
X103847157Y-87538189D01*
X103975764Y-87297582D01*
X104054960Y-87036508D01*
X104081701Y-86765001D01*
X104054960Y-86493494D01*
X103975764Y-86232420D01*
X103847157Y-85991813D01*
X103674081Y-85780920D01*
X103463188Y-85607844D01*
X103289491Y-85515001D01*
X103463188Y-85422158D01*
X103674081Y-85249082D01*
X103847157Y-85038189D01*
X103975764Y-84797582D01*
X104054960Y-84536508D01*
X104081701Y-84265001D01*
X104054960Y-83993494D01*
X103975764Y-83732420D01*
X103847157Y-83491813D01*
X103674081Y-83280920D01*
X103463188Y-83107844D01*
X103289491Y-83015001D01*
X103463188Y-82922158D01*
X103674081Y-82749082D01*
X103847157Y-82538189D01*
X103975764Y-82297582D01*
X104054960Y-82036508D01*
X104081701Y-81765001D01*
X104054960Y-81493494D01*
X103975764Y-81232420D01*
X103847157Y-80991813D01*
X103674081Y-80780920D01*
X103463188Y-80607844D01*
X103222581Y-80479237D01*
X102961507Y-80400041D01*
X102758037Y-80380001D01*
X102021963Y-80380001D01*
X101818493Y-80400041D01*
X101557419Y-80479237D01*
X101316812Y-80607844D01*
X101105919Y-80780920D01*
X100932843Y-80991813D01*
X100804236Y-81232420D01*
X100725040Y-81493494D01*
X100711595Y-81630001D01*
X100517000Y-81630001D01*
X100517000Y-82888001D01*
X100537000Y-82888001D01*
X100537000Y-83142001D01*
X100517000Y-83142001D01*
X100517000Y-83162001D01*
X100263000Y-83162001D01*
X100263000Y-83142001D01*
X98870344Y-83142001D01*
X98747682Y-83356186D01*
X98761827Y-83427685D01*
X98867858Y-83678869D01*
X99020855Y-83904541D01*
X99214939Y-84096029D01*
X99442651Y-84245973D01*
X99490064Y-84265239D01*
X99316812Y-84357844D01*
X99105919Y-84530920D01*
X98932843Y-84741813D01*
X98804236Y-84982420D01*
X98725040Y-85243494D01*
X98698299Y-85515001D01*
X57810000Y-85515001D01*
X57810000Y-82673816D01*
X98747682Y-82673816D01*
X98870344Y-82888001D01*
X100263000Y-82888001D01*
X100263000Y-81630001D01*
X99963000Y-81630001D01*
X99695240Y-81681390D01*
X99442651Y-81784029D01*
X99214939Y-81933973D01*
X99020855Y-82125461D01*
X98867858Y-82351133D01*
X98761827Y-82602317D01*
X98747682Y-82673816D01*
X57810000Y-82673816D01*
X57810000Y-76885476D01*
X72655000Y-76885476D01*
X72655000Y-77404526D01*
X72756261Y-77913602D01*
X72954893Y-78393142D01*
X73243262Y-78824716D01*
X73610285Y-79191739D01*
X74041859Y-79480108D01*
X74521399Y-79678740D01*
X75030475Y-79780001D01*
X75549525Y-79780001D01*
X76058601Y-79678740D01*
X76538141Y-79480108D01*
X76969715Y-79191739D01*
X77040000Y-79121454D01*
X77110285Y-79191739D01*
X77541859Y-79480108D01*
X78021399Y-79678740D01*
X78530475Y-79780001D01*
X79049525Y-79780001D01*
X79558601Y-79678740D01*
X80038141Y-79480108D01*
X80469715Y-79191739D01*
X80836738Y-78824716D01*
X81125107Y-78393142D01*
X81323739Y-77913602D01*
X81425000Y-77404526D01*
X81425000Y-76885476D01*
X81323739Y-76376400D01*
X81125107Y-75896860D01*
X80836738Y-75465286D01*
X80469715Y-75098263D01*
X80038141Y-74809894D01*
X79558601Y-74611262D01*
X79049525Y-74510001D01*
X78530475Y-74510001D01*
X78021399Y-74611262D01*
X77541859Y-74809894D01*
X77110285Y-75098263D01*
X77040000Y-75168548D01*
X76969715Y-75098263D01*
X76538141Y-74809894D01*
X76058601Y-74611262D01*
X75549525Y-74510001D01*
X75030475Y-74510001D01*
X74521399Y-74611262D01*
X74041859Y-74809894D01*
X73610285Y-75098263D01*
X73243262Y-75465286D01*
X72954893Y-75896860D01*
X72756261Y-76376400D01*
X72655000Y-76885476D01*
X57810000Y-76885476D01*
X57810000Y-76232279D01*
X57848909Y-75835455D01*
X57954780Y-75484792D01*
X58126744Y-75161375D01*
X58358254Y-74877516D01*
X58640486Y-74644035D01*
X58962695Y-74469817D01*
X59312614Y-74361498D01*
X59707443Y-74320000D01*
X124427721Y-74320000D01*
X124824545Y-74358909D01*
G37*
%TD.AperFunction*%
%TD*%
M02*
