M48
; DRILL file {KiCad (5.1.12)-1} date 12/01/21 20:01:41
; FORMAT={-:-/ absolute / inch / decimal}
; #@! TF.CreationDate,2021-12-01T20:01:41-06:00
; #@! TF.GenerationSoftware,Kicad,Pcbnew,(5.1.12)-1
; #@! TF.FileFunction,Plated,1,4,PTH
FMAT,2
INCH
T1C0.0079
T2C0.0157
T3C0.0197
T4C0.0236
T5C0.0472
T6C0.2441
%
G90
G05
T1
X1.755Y-3.195
X1.8965Y-4.5254
X1.8965Y-4.549
X1.933Y-5.0223
X1.933Y-5.0459
X1.9522Y-4.4622
X2.18Y-5.185
X2.3025Y-4.36
X2.3075Y-4.4625
X2.37Y-5.43
X2.37Y-5.72
X2.665Y-1.405
X2.715Y-1.41
X2.715Y-2.33
X2.718Y-5.836
X2.73Y-5.6
X2.7349Y-5.3441
X2.7736Y-2.3379
X2.775Y-5.66
X2.7765Y-4.3032
X2.8001Y-4.3044
X2.8306Y-4.5406
X2.8306Y-4.58
X2.8306Y-4.6194
X2.832Y-4.357
X2.8568Y-4.3528
X2.87Y-4.5406
X2.87Y-4.58
X2.87Y-4.6194
X2.8808Y-4.3646
X2.9044Y-4.365
X2.9094Y-4.5406
X2.9094Y-4.58
X2.9094Y-4.6194
X2.915Y-5.76
X2.9274Y-4.3706
X2.9432Y-5.9503
X2.9506Y-4.3751
X2.9525Y-5.749
X2.9562Y-5.7981
X2.9628Y-5.935
X2.98Y-6.0
X3.005Y-5.98
X3.045Y-4.4
X3.053Y-4.4644
X3.0694Y-4.4822
X3.1019Y-4.5033
X3.1195Y-4.519
X3.1275Y-5.643
X3.135Y-5.58
X3.2Y-5.7875
X3.27Y-2.417
X3.27Y-2.4407
X3.2956Y-4.9975
X3.3161Y-4.9511
X3.32Y-1.6
X3.335Y-5.0025
X3.355Y-1.6
X3.36Y-5.0325
X3.365Y-5.695
X3.4826Y-4.1851
X3.5Y-5.7
X3.5943Y-5.6857
X3.595Y-5.5225
X3.6117Y-5.5392
X3.6214Y-5.5914
X3.6225Y-5.5625
X3.8095Y-4.107
X4.042Y-4.138
X4.0905Y-6.086
X4.095Y-4.1
X4.18Y-3.16
X4.195Y-2.33
X4.24Y-2.33
X4.24Y-3.16
X4.729Y-6.089
X4.78Y-2.425
X4.78Y-3.265
X4.8399Y-2.4243
X4.84Y-3.265
X4.858Y-6.144
X4.9982Y-4.5103
X4.9982Y-4.5615
X5.0494Y-4.5103
X5.0494Y-4.5615
X5.1006Y-4.5103
X5.1006Y-4.5615
X5.1518Y-4.5103
X5.1518Y-4.5615
X5.3325Y-5.8369
X5.335Y-5.995
X5.344Y-6.298
X5.9605Y-6.32
X6.184Y-6.195
X6.2288Y-5.9252
X6.2949Y-5.9252
X6.296Y-6.227
X6.355Y-1.49
X6.405Y-1.49
X6.41Y-2.3357
X6.41Y-2.312
X6.43Y-6.135
X6.435Y-6.03
X6.44Y-6.081
X6.446Y-6.205
X6.4506Y-5.9504
X6.546Y-6.081
X6.673Y-5.844
X6.695Y-5.0
X6.74Y-4.565
X6.75Y-5.11
X6.7835Y-5.7565
X6.785Y-5.47
X6.805Y-4.89
X6.865Y-4.5618
X6.89Y-5.45
X6.9Y-5.11
X6.91Y-1.6
X6.935Y-4.895
X6.9507Y-2.445
X6.9769Y-2.4398
X6.985Y-1.605
X6.995Y-4.565
X7.01Y-4.05
X7.03Y-4.035
X7.04Y-5.22
X7.0654Y-4.6468
X7.0662Y-4.6189
X7.0675Y-4.6725
X7.1636Y-6.3225
X7.1821Y-4.9579
X7.19Y-4.6008
X7.19Y-5.65
X7.245Y-5.25
X7.2498Y-4.5003
X7.263Y-4.4807
X7.28Y-4.845
X7.2821Y-4.4571
X7.2925Y-4.875
X7.305Y-4.45
X7.3106Y-4.6106
X7.3106Y-4.65
X7.3106Y-4.6894
X7.32Y-4.7875
X7.3244Y-4.4352
X7.3413Y-4.4187
X7.35Y-4.6106
X7.35Y-4.65
X7.35Y-4.6894
X7.36Y-4.4
X7.37Y-6.325
X7.38Y-4.385
X7.388Y-6.017
X7.3894Y-4.6106
X7.3894Y-4.65
X7.3894Y-4.6894
X7.4071Y-5.4586
X7.4239Y-5.4754
X7.4838Y-4.5762
X7.4842Y-4.5998
X7.504Y-5.975
X7.5365Y-5.1363
X7.5365Y-5.16
X7.5395Y-4.6121
X7.5516Y-4.6324
X7.75Y-3.4
X7.75Y-5.365
X7.75Y-6.2
X7.76Y-4.62
X7.915Y-4.785
X7.945Y-5.137
X7.97Y-4.58
X8.0307Y-4.4285
X8.0342Y-4.9365
X8.0543Y-4.4285
X8.0578Y-4.9365
X8.1195Y-4.443
X8.22Y-4.785
X8.264Y-4.662
X8.267Y-4.929
T2
X1.35Y-1.05
X1.35Y-1.15
X1.35Y-1.25
X1.35Y-1.35
X1.35Y-1.45
X1.35Y-1.55
X1.35Y-1.65
X1.35Y-1.75
X1.35Y-1.85
X1.35Y-1.95
X1.35Y-2.05
X1.35Y-2.15
X1.35Y-2.25
X1.35Y-2.35
X1.35Y-2.45
X1.35Y-2.55
X1.35Y-2.65
X1.35Y-2.75
X1.35Y-2.85
X1.35Y-2.95
X1.35Y-3.05
X1.35Y-3.15
X1.35Y-3.25
X1.35Y-3.35
X1.4Y-1.0
X1.4Y-1.1
X1.4Y-1.2
X1.4Y-1.3
X1.4Y-1.4
X1.4Y-1.5
X1.4Y-1.6
X1.4Y-1.7
X1.4Y-1.8
X1.4Y-1.9
X1.4Y-2.0
X1.4Y-2.1
X1.4Y-2.2
X1.4Y-2.3
X1.4Y-2.4
X1.4Y-2.5
X1.4Y-2.6
X1.4Y-2.7
X1.4Y-2.8
X1.4Y-2.9
X1.4Y-3.0
X1.4Y-3.1
X1.4Y-3.2
X1.4Y-3.3
X1.4Y-6.115
X1.4025Y-5.165
X1.45Y-1.05
X1.45Y-1.15
X1.45Y-1.25
X1.45Y-1.35
X1.45Y-1.45
X1.45Y-1.55
X1.45Y-1.65
X1.45Y-1.75
X1.45Y-1.85
X1.45Y-1.95
X1.45Y-2.05
X1.45Y-2.15
X1.45Y-2.25
X1.45Y-2.35
X1.45Y-2.45
X1.45Y-2.55
X1.45Y-2.65
X1.45Y-2.75
X1.45Y-2.85
X1.45Y-2.95
X1.45Y-3.05
X1.45Y-3.15
X1.45Y-3.25
X1.45Y-3.35
X1.5175Y-5.4725
X1.7225Y-5.4725
X1.735Y-5.25
X1.75Y-1.0
X1.75Y-1.1
X1.75Y-1.2
X1.75Y-1.3
X1.75Y-1.4
X1.75Y-1.5
X1.75Y-1.6
X1.75Y-1.7
X1.75Y-1.8
X1.75Y-1.9
X1.75Y-2.0
X1.75Y-2.1
X1.75Y-2.2
X1.75Y-2.3
X1.75Y-2.4
X1.75Y-2.5
X1.75Y-2.6
X1.75Y-2.7
X1.75Y-2.8
X1.75Y-2.9
X1.75Y-3.0
X1.75Y-3.1
X1.75Y-3.3
X1.9Y-1.75
X1.9Y-1.85
X1.9Y-1.95
X1.9Y-2.05
X1.9Y-2.15
X1.9Y-2.25
X1.9Y-2.35
X1.9Y-2.45
X1.9Y-2.55
X1.9Y-2.65
X1.9Y-2.75
X1.9Y-2.85
X1.9Y-2.95
X1.9Y-3.05
X1.9Y-3.15
X1.9Y-3.25
X1.9Y-3.35
X1.9Y-3.45
X1.9Y-3.55
X1.9Y-3.65
X1.9Y-3.75
X1.9Y-3.85
X1.94Y-5.8225
X1.94Y-5.9775
X1.94Y-6.295
X1.94Y-6.345
X1.94Y-6.395
X1.94Y-6.445
X1.94Y-6.54
X1.94Y-6.595
X1.945Y-5.6775
X1.945Y-5.7225
X1.945Y-5.7725
X1.945Y-5.9225
X1.95Y-1.7
X1.95Y-1.8
X1.95Y-1.9
X1.95Y-2.0
X1.95Y-2.1
X1.95Y-2.2
X1.95Y-2.3
X1.95Y-2.4
X1.95Y-2.5
X1.95Y-2.6
X1.95Y-2.7
X1.95Y-2.8
X1.95Y-2.9
X1.95Y-3.0
X1.95Y-3.1
X1.95Y-3.3
X1.95Y-3.4
X1.95Y-3.5
X1.95Y-3.6
X1.95Y-3.7
X1.95Y-3.8
X1.975Y-5.495
X1.98Y-5.39
X2.0Y-1.75
X2.0Y-1.85
X2.0Y-1.95
X2.0Y-2.05
X2.0Y-2.15
X2.0Y-2.25
X2.0Y-2.35
X2.0Y-2.45
X2.0Y-2.55
X2.0Y-2.65
X2.0Y-2.75
X2.0Y-2.85
X2.0Y-2.95
X2.0Y-3.05
X2.0Y-3.15
X2.0Y-3.25
X2.0Y-3.35
X2.0Y-3.45
X2.0Y-3.55
X2.0Y-3.65
X2.0Y-3.75
X2.0Y-3.85
X2.195Y-5.495
X2.395Y-1.72
X2.395Y-2.26
X2.41Y-2.54
X2.41Y-3.08
X2.4127Y-5.6808
X2.435Y-1.72
X2.435Y-2.26
X2.45Y-2.54
X2.45Y-3.08
X2.475Y-1.72
X2.475Y-2.26
X2.487Y-6.163
X2.49Y-2.54
X2.49Y-3.08
X2.492Y-5.988
X2.5Y-5.32
X2.515Y-1.72
X2.515Y-2.26
X2.5161Y-5.6305
X2.53Y-2.54
X2.53Y-3.08
X2.555Y-1.72
X2.555Y-2.26
X2.565Y-5.805
X2.57Y-2.54
X2.57Y-3.08
X2.58Y-6.555
X2.59Y-6.33
X2.5975Y-4.59
X2.6075Y-4.655
X2.6271Y-4.5615
X2.645Y-4.68
X2.65Y-4.7525
X2.6623Y-4.5416
X2.6769Y-5.752
X2.695Y-4.455
X2.7Y-4.5219
X2.705Y-4.985
X2.705Y-5.085
X2.7212Y-5.1838
X2.73Y-4.835
X2.7411Y-4.7739
X2.76Y-6.335
X2.772Y-5.5115
X2.7875Y-4.825
X2.7875Y-4.89
X2.825Y-6.04
X2.88Y-4.965
X2.885Y-2.645
X2.885Y-2.945
X2.885Y-2.995
X2.89Y-1.74
X2.89Y-1.775
X2.89Y-1.81
X2.89Y-2.11
X2.89Y-2.16
X2.905Y-5.715
X2.9093Y-5.6676
X2.9148Y-5.8276
X2.925Y-2.645
X2.925Y-2.945
X2.925Y-2.995
X2.925Y-3.045
X2.925Y-6.155
X2.93Y-1.74
X2.93Y-1.775
X2.93Y-1.81
X2.93Y-2.11
X2.93Y-2.16
X2.93Y-2.21
X2.93Y-6.335
X2.935Y-6.42
X2.945Y-6.56
X2.9487Y-5.6676
X2.965Y-2.595
X2.965Y-2.645
X2.965Y-2.945
X2.965Y-2.995
X2.965Y-3.045
X2.97Y-1.74
X2.97Y-1.775
X2.97Y-1.81
X2.97Y-2.11
X2.97Y-2.16
X2.97Y-2.21
X2.9915Y-5.454
X3.0001Y-5.7706
X3.005Y-2.545
X3.005Y-2.595
X3.005Y-2.645
X3.005Y-2.945
X3.005Y-2.995
X3.005Y-3.045
X3.01Y-1.74
X3.01Y-1.775
X3.01Y-1.81
X3.01Y-2.11
X3.01Y-2.16
X3.01Y-2.21
X3.0304Y-5.3425
X3.045Y-2.495
X3.045Y-2.545
X3.045Y-2.595
X3.045Y-2.645
X3.045Y-2.945
X3.045Y-2.995
X3.045Y-3.045
X3.05Y-1.74
X3.05Y-1.775
X3.05Y-1.81
X3.05Y-2.11
X3.05Y-2.16
X3.05Y-2.21
X3.057Y-5.7519
X3.06Y-5.3775
X3.085Y-2.495
X3.085Y-2.545
X3.085Y-2.595
X3.085Y-2.645
X3.085Y-2.945
X3.085Y-2.995
X3.085Y-3.045
X3.0875Y-5.185
X3.09Y-1.74
X3.09Y-1.775
X3.09Y-1.81
X3.09Y-2.11
X3.09Y-2.16
X3.09Y-2.21
X3.092Y-5.4835
X3.0986Y-5.37
X3.1005Y-5.4415
X3.1095Y-6.065
X3.1157Y-5.334
X3.125Y-2.495
X3.125Y-2.545
X3.125Y-2.595
X3.125Y-2.645
X3.125Y-2.945
X3.125Y-2.995
X3.125Y-3.045
X3.13Y-1.74
X3.13Y-1.775
X3.13Y-1.81
X3.13Y-2.11
X3.13Y-2.16
X3.13Y-2.21
X3.165Y-2.495
X3.165Y-2.545
X3.165Y-2.595
X3.165Y-2.645
X3.165Y-2.945
X3.165Y-2.995
X3.165Y-3.045
X3.17Y-1.74
X3.17Y-1.775
X3.17Y-1.81
X3.17Y-2.11
X3.17Y-2.16
X3.17Y-2.21
X3.2Y-5.01
X3.205Y-2.495
X3.205Y-2.545
X3.205Y-2.595
X3.205Y-2.945
X3.205Y-2.995
X3.205Y-3.045
X3.21Y-2.11
X3.21Y-2.16
X3.21Y-2.21
X3.21Y-6.48
X3.22Y-5.12
X3.2425Y-4.92
X3.2462Y-5.7877
X3.2843Y-5.768
X3.305Y-4.72
X3.3219Y-5.7483
X3.335Y-4.61
X3.359Y-5.7286
X3.36Y-6.14
X3.37Y-5.4625
X3.3775Y-5.52
X3.445Y-6.61
X3.4647Y-5.9787
X3.475Y-1.71
X3.475Y-1.76
X3.475Y-1.81
X3.475Y-1.93
X3.475Y-1.97
X3.475Y-2.11
X3.475Y-2.16
X3.485Y-2.54
X3.485Y-2.59
X3.485Y-2.64
X3.485Y-2.76
X3.485Y-2.8
X3.485Y-2.94
X3.485Y-2.99
X3.4875Y-4.46
X3.515Y-1.71
X3.515Y-1.76
X3.515Y-1.81
X3.515Y-1.93
X3.515Y-1.97
X3.515Y-2.11
X3.515Y-2.16
X3.5199Y-5.325
X3.52Y-5.4825
X3.525Y-2.54
X3.525Y-2.59
X3.525Y-2.64
X3.525Y-2.76
X3.525Y-2.8
X3.525Y-2.94
X3.525Y-2.99
X3.55Y-4.235
X3.555Y-1.71
X3.555Y-1.76
X3.555Y-1.81
X3.555Y-1.93
X3.555Y-1.97
X3.555Y-2.11
X3.555Y-2.16
X3.555Y-2.21
X3.5562Y-5.498
X3.565Y-2.54
X3.565Y-2.59
X3.565Y-2.64
X3.565Y-2.76
X3.565Y-2.8
X3.565Y-2.94
X3.565Y-2.99
X3.5659Y-3.0431
X3.595Y-1.71
X3.595Y-1.76
X3.595Y-1.81
X3.595Y-1.93
X3.595Y-1.97
X3.595Y-2.11
X3.595Y-2.16
X3.595Y-2.21
X3.6Y-6.32
X3.605Y-2.54
X3.605Y-2.59
X3.605Y-2.64
X3.605Y-2.76
X3.605Y-2.8
X3.605Y-2.94
X3.605Y-2.99
X3.6059Y-3.0431
X3.615Y-6.475
X3.635Y-1.71
X3.635Y-1.76
X3.635Y-1.81
X3.635Y-1.93
X3.635Y-1.97
X3.635Y-2.11
X3.635Y-2.16
X3.635Y-2.21
X3.645Y-2.54
X3.645Y-2.59
X3.645Y-2.64
X3.645Y-2.76
X3.645Y-2.8
X3.645Y-2.94
X3.645Y-2.99
X3.6459Y-3.0431
X3.66Y-5.27
X3.665Y-4.4375
X3.675Y-1.71
X3.675Y-1.76
X3.675Y-1.81
X3.675Y-1.93
X3.675Y-1.97
X3.675Y-2.11
X3.675Y-2.16
X3.675Y-2.21
X3.685Y-2.54
X3.685Y-2.59
X3.685Y-2.64
X3.685Y-2.76
X3.685Y-2.8
X3.685Y-2.94
X3.685Y-2.99
X3.6859Y-3.0431
X3.715Y-1.71
X3.715Y-1.76
X3.715Y-1.81
X3.715Y-1.93
X3.715Y-1.97
X3.715Y-2.11
X3.715Y-2.16
X3.715Y-2.21
X3.725Y-4.8675
X3.7475Y-4.1825
X3.79Y-6.205
X3.825Y-4.41
X3.8275Y-5.105
X3.835Y-2.55
X3.835Y-2.6
X3.835Y-2.65
X3.835Y-2.79
X3.835Y-2.83
X3.835Y-2.95
X3.835Y-3.0
X3.835Y-3.05
X3.84Y-6.205
X3.845Y-4.9475
X3.85Y-4.88
X3.86Y-1.705
X3.86Y-1.755
X3.86Y-1.805
X3.86Y-1.945
X3.86Y-1.985
X3.86Y-2.105
X3.86Y-2.155
X3.86Y-2.205
X3.87Y-4.3975
X3.8725Y-4.31
X3.875Y-2.55
X3.875Y-2.6
X3.875Y-2.65
X3.875Y-2.79
X3.875Y-2.83
X3.875Y-2.95
X3.875Y-3.0
X3.875Y-3.05
X3.89Y-6.205
X3.9Y-1.705
X3.9Y-1.755
X3.9Y-1.805
X3.9Y-1.945
X3.9Y-1.985
X3.9Y-2.105
X3.9Y-2.155
X3.9Y-2.205
X3.91Y-6.48
X3.915Y-2.55
X3.915Y-2.6
X3.915Y-2.65
X3.915Y-2.79
X3.915Y-2.83
X3.915Y-2.95
X3.915Y-3.0
X3.915Y-3.05
X3.94Y-1.705
X3.94Y-1.755
X3.94Y-1.805
X3.94Y-1.945
X3.94Y-1.985
X3.94Y-2.105
X3.94Y-2.155
X3.94Y-2.205
X3.94Y-6.205
X3.955Y-2.55
X3.955Y-2.6
X3.955Y-2.65
X3.955Y-2.79
X3.955Y-2.83
X3.955Y-2.95
X3.955Y-3.0
X3.955Y-3.05
X3.97Y-4.8675
X3.98Y-1.705
X3.98Y-1.755
X3.98Y-1.805
X3.98Y-1.945
X3.98Y-1.985
X3.98Y-2.105
X3.98Y-2.155
X3.98Y-2.205
X3.995Y-2.55
X3.995Y-2.6
X3.995Y-2.65
X3.995Y-2.79
X3.995Y-2.83
X3.995Y-2.95
X3.995Y-3.0
X3.995Y-3.05
X4.0Y-4.1875
X4.005Y-4.41
X4.02Y-1.705
X4.02Y-1.755
X4.02Y-1.805
X4.02Y-1.945
X4.02Y-1.985
X4.02Y-2.105
X4.02Y-2.155
X4.02Y-2.205
X4.02Y-4.87
X4.035Y-2.65
X4.035Y-2.79
X4.035Y-2.83
X4.035Y-2.95
X4.035Y-3.0
X4.035Y-3.05
X4.04Y-6.205
X4.06Y-1.755
X4.06Y-1.805
X4.06Y-1.945
X4.06Y-1.985
X4.06Y-2.105
X4.06Y-2.155
X4.06Y-2.205
X4.075Y-2.65
X4.075Y-2.79
X4.075Y-2.83
X4.075Y-2.95
X4.075Y-3.0
X4.075Y-3.05
X4.095Y-4.4325
X4.1Y-1.755
X4.1Y-1.805
X4.1Y-1.945
X4.1Y-1.985
X4.1Y-2.105
X4.1Y-2.155
X4.1Y-2.205
X4.17Y-4.72
X4.2225Y-4.04
X4.27Y-4.795
X4.29Y-5.16
X4.335Y-5.49
X4.385Y-1.73
X4.385Y-1.77
X4.385Y-1.81
X4.385Y-2.11
X4.385Y-2.155
X4.385Y-2.2
X4.385Y-2.56
X4.385Y-2.605
X4.385Y-2.65
X4.385Y-2.95
X4.385Y-2.995
X4.385Y-3.04
X4.4Y-4.7
X4.4Y-4.8
X4.4Y-4.9
X4.425Y-1.73
X4.425Y-1.77
X4.425Y-1.81
X4.425Y-2.11
X4.425Y-2.155
X4.425Y-2.2
X4.425Y-2.56
X4.425Y-2.605
X4.425Y-2.65
X4.425Y-2.95
X4.425Y-2.995
X4.425Y-3.04
X4.43Y-6.21
X4.465Y-1.73
X4.465Y-1.77
X4.465Y-1.81
X4.465Y-2.11
X4.465Y-2.155
X4.465Y-2.2
X4.465Y-2.56
X4.465Y-2.605
X4.465Y-2.65
X4.465Y-2.95
X4.465Y-2.995
X4.465Y-3.04
X4.48Y-6.21
X4.5Y-4.7
X4.5Y-4.8
X4.5Y-4.9
X4.505Y-1.73
X4.505Y-1.77
X4.505Y-1.81
X4.505Y-2.11
X4.505Y-2.155
X4.505Y-2.2
X4.505Y-2.56
X4.505Y-2.605
X4.505Y-2.65
X4.505Y-2.95
X4.505Y-2.995
X4.505Y-3.04
X4.53Y-6.21
X4.545Y-1.73
X4.545Y-1.77
X4.545Y-1.81
X4.545Y-2.11
X4.545Y-2.155
X4.545Y-2.2
X4.545Y-2.56
X4.545Y-2.605
X4.545Y-2.65
X4.545Y-2.95
X4.545Y-2.995
X4.545Y-3.04
X4.585Y-1.73
X4.585Y-1.77
X4.585Y-1.81
X4.585Y-2.11
X4.585Y-2.155
X4.585Y-2.2
X4.585Y-2.56
X4.585Y-2.605
X4.585Y-2.65
X4.585Y-2.95
X4.585Y-2.995
X4.585Y-3.04
X4.6Y-4.7
X4.6Y-4.8
X4.6Y-4.9
X4.625Y-1.73
X4.625Y-1.77
X4.625Y-1.81
X4.625Y-2.11
X4.625Y-2.155
X4.625Y-2.2
X4.625Y-2.56
X4.625Y-2.605
X4.625Y-2.65
X4.625Y-2.95
X4.625Y-2.995
X4.625Y-3.04
X4.665Y-1.73
X4.665Y-1.77
X4.665Y-1.81
X4.665Y-2.11
X4.665Y-2.155
X4.665Y-2.2
X4.665Y-2.605
X4.665Y-2.65
X4.665Y-2.95
X4.665Y-2.995
X4.665Y-3.04
X4.68Y-6.21
X4.7Y-4.7
X4.7Y-4.8
X4.7Y-4.9
X4.705Y-1.77
X4.705Y-1.81
X4.705Y-2.11
X4.705Y-2.155
X4.705Y-2.2
X4.705Y-2.605
X4.705Y-2.65
X4.705Y-2.95
X4.705Y-2.995
X4.705Y-3.04
X4.95Y-5.59
X4.98Y-1.73
X4.98Y-2.265
X4.995Y-2.53
X4.995Y-3.09
X5.02Y-1.73
X5.02Y-2.265
X5.035Y-2.53
X5.035Y-3.09
X5.06Y-1.73
X5.06Y-2.265
X5.075Y-2.53
X5.075Y-3.09
X5.1Y-1.73
X5.1Y-2.265
X5.115Y-2.53
X5.115Y-3.09
X5.115Y-6.145
X5.1175Y-4.91
X5.14Y-1.73
X5.14Y-2.265
X5.15Y-4.99
X5.15Y-5.3
X5.155Y-2.53
X5.155Y-3.09
X5.295Y-5.15
X5.3Y-1.7
X5.3Y-1.8
X5.3Y-1.9
X5.3Y-2.0
X5.3Y-2.1
X5.3Y-2.2
X5.3Y-2.3
X5.3Y-2.6
X5.3Y-2.7
X5.3Y-2.8
X5.3Y-2.9
X5.3Y-3.0
X5.335Y-6.095
X5.34Y-5.66
X5.34Y-6.195
X5.4Y-1.7
X5.4Y-1.8
X5.4Y-1.9
X5.4Y-2.0
X5.4Y-2.1
X5.4Y-2.2
X5.4Y-2.3
X5.4Y-2.7
X5.4Y-2.8
X5.4Y-2.9
X5.4Y-3.0
X5.5Y-1.7
X5.5Y-1.8
X5.5Y-1.9
X5.5Y-2.0
X5.5Y-2.1
X5.5Y-2.2
X5.5Y-2.3
X5.5Y-2.6
X5.5Y-2.8
X5.5Y-2.9
X5.5Y-3.0
X5.6Y-1.7
X5.6Y-1.8
X5.6Y-1.9
X5.6Y-2.0
X5.6Y-2.1
X5.6Y-2.2
X5.6Y-2.3
X5.6Y-2.6
X5.6Y-2.7
X5.6Y-2.9
X5.6Y-3.0
X5.7Y-1.7
X5.7Y-1.8
X5.7Y-1.9
X5.7Y-2.0
X5.7Y-2.1
X5.7Y-2.2
X5.7Y-2.3
X5.7Y-2.6
X5.7Y-2.7
X5.7Y-2.8
X5.7Y-3.0
X5.7006Y-5.9921
X5.8Y-1.7
X5.8Y-1.8
X5.8Y-1.9
X5.8Y-2.0
X5.8Y-2.1
X5.8Y-2.2
X5.8Y-2.3
X5.8Y-2.6
X5.8Y-2.7
X5.8Y-2.8
X5.8Y-2.9
X5.815Y-6.215
X5.85Y-5.465
X5.895Y-4.835
X5.9Y-1.7
X5.9Y-1.8
X5.9Y-1.9
X5.9Y-2.0
X5.9Y-2.1
X5.9Y-2.2
X5.9Y-2.3
X5.9Y-2.6
X5.9Y-2.7
X5.9Y-2.8
X5.9Y-2.9
X5.9Y-3.0
X5.995Y-6.225
X6.04Y-2.52
X6.04Y-3.08
X6.05Y-1.73
X6.05Y-2.265
X6.08Y-2.52
X6.08Y-3.08
X6.09Y-1.73
X6.09Y-2.265
X6.12Y-2.52
X6.12Y-3.08
X6.13Y-1.73
X6.13Y-2.265
X6.16Y-2.52
X6.16Y-3.08
X6.17Y-1.73
X6.17Y-2.265
X6.2Y-2.52
X6.2Y-3.08
X6.2Y-4.8
X6.2Y-4.9
X6.2Y-5.0
X6.2075Y-5.085
X6.21Y-1.73
X6.21Y-2.265
X6.3Y-4.8
X6.3Y-4.9
X6.3Y-5.0
X6.4Y-4.8
X6.4Y-4.9
X6.4Y-5.0
X6.5Y-4.8
X6.5Y-4.9
X6.5Y-5.0
X6.525Y-2.56
X6.525Y-2.605
X6.525Y-2.65
X6.525Y-2.95
X6.525Y-2.995
X6.535Y-1.72
X6.535Y-1.765
X6.535Y-1.81
X6.535Y-2.11
X6.535Y-2.155
X6.565Y-2.56
X6.565Y-2.605
X6.565Y-2.65
X6.565Y-2.95
X6.565Y-2.995
X6.565Y-3.04
X6.575Y-1.72
X6.575Y-1.765
X6.575Y-1.81
X6.575Y-2.11
X6.575Y-2.155
X6.605Y-2.56
X6.605Y-2.605
X6.605Y-2.65
X6.605Y-2.95
X6.605Y-2.995
X6.605Y-3.04
X6.615Y-1.72
X6.615Y-1.765
X6.615Y-1.81
X6.615Y-2.11
X6.615Y-2.155
X6.615Y-2.2
X6.645Y-2.56
X6.645Y-2.605
X6.645Y-2.65
X6.645Y-2.95
X6.645Y-2.995
X6.645Y-3.04
X6.655Y-1.72
X6.655Y-1.765
X6.655Y-1.81
X6.655Y-2.11
X6.655Y-2.155
X6.655Y-2.2
X6.685Y-2.56
X6.685Y-2.605
X6.685Y-2.65
X6.685Y-2.95
X6.685Y-2.995
X6.685Y-3.04
X6.695Y-1.72
X6.695Y-1.765
X6.695Y-1.81
X6.695Y-2.11
X6.695Y-2.155
X6.695Y-2.2
X6.725Y-2.56
X6.725Y-2.605
X6.725Y-2.65
X6.725Y-2.95
X6.725Y-2.995
X6.725Y-3.04
X6.735Y-1.72
X6.735Y-1.765
X6.735Y-1.81
X6.735Y-2.11
X6.735Y-2.155
X6.735Y-2.2
X6.765Y-2.56
X6.765Y-2.605
X6.765Y-2.65
X6.765Y-2.95
X6.765Y-2.995
X6.765Y-3.04
X6.775Y-1.72
X6.775Y-1.765
X6.775Y-1.81
X6.775Y-2.11
X6.775Y-2.155
X6.775Y-2.2
X6.9425Y-5.325
X6.9445Y-5.7215
X7.005Y-6.115
X7.021Y-6.269
X7.085Y-2.555
X7.085Y-2.605
X7.085Y-2.65
X7.085Y-2.77
X7.085Y-2.81
X7.085Y-2.95
X7.085Y-2.995
X7.1Y-1.715
X7.1Y-1.765
X7.1Y-1.81
X7.1Y-1.93
X7.1Y-1.97
X7.1Y-2.11
X7.1Y-2.155
X7.1025Y-4.68
X7.125Y-2.555
X7.125Y-2.605
X7.125Y-2.65
X7.125Y-2.77
X7.125Y-2.81
X7.125Y-2.95
X7.125Y-2.995
X7.125Y-5.0025
X7.14Y-1.715
X7.14Y-1.765
X7.14Y-1.81
X7.14Y-1.93
X7.14Y-1.97
X7.14Y-2.11
X7.14Y-2.155
X7.155Y-4.5854
X7.155Y-5.5
X7.165Y-2.555
X7.165Y-2.605
X7.165Y-2.65
X7.165Y-2.77
X7.165Y-2.81
X7.165Y-2.95
X7.165Y-2.995
X7.18Y-1.715
X7.18Y-1.765
X7.18Y-1.81
X7.18Y-1.93
X7.18Y-1.97
X7.18Y-2.11
X7.18Y-2.155
X7.205Y-2.555
X7.205Y-2.605
X7.205Y-2.65
X7.205Y-2.77
X7.205Y-2.81
X7.205Y-2.95
X7.205Y-2.995
X7.205Y-3.04
X7.22Y-1.715
X7.22Y-1.765
X7.22Y-1.81
X7.22Y-1.93
X7.22Y-1.97
X7.22Y-2.11
X7.22Y-2.155
X7.22Y-2.2
X7.22Y-6.1764
X7.23Y-6.022
X7.245Y-2.555
X7.245Y-2.605
X7.245Y-2.65
X7.245Y-2.77
X7.245Y-2.81
X7.245Y-2.95
X7.245Y-2.995
X7.245Y-3.04
X7.26Y-1.715
X7.26Y-1.765
X7.26Y-1.81
X7.26Y-1.93
X7.26Y-1.97
X7.26Y-2.11
X7.26Y-2.155
X7.26Y-2.2
X7.265Y-4.985
X7.285Y-2.555
X7.285Y-2.605
X7.285Y-2.65
X7.285Y-2.77
X7.285Y-2.81
X7.285Y-2.95
X7.285Y-2.995
X7.285Y-3.04
X7.3Y-1.715
X7.3Y-1.765
X7.3Y-1.81
X7.3Y-1.93
X7.3Y-1.97
X7.3Y-2.11
X7.3Y-2.155
X7.3Y-2.2
X7.325Y-2.555
X7.325Y-2.605
X7.325Y-2.65
X7.325Y-2.77
X7.325Y-2.81
X7.325Y-2.95
X7.325Y-2.995
X7.325Y-3.04
X7.34Y-1.715
X7.34Y-1.765
X7.34Y-1.81
X7.34Y-1.93
X7.34Y-1.97
X7.34Y-2.11
X7.34Y-2.155
X7.34Y-2.2
X7.5Y-1.05
X7.5Y-1.15
X7.5Y-1.25
X7.5Y-1.35
X7.5Y-1.45
X7.5Y-1.55
X7.5Y-1.65
X7.5Y-1.75
X7.5Y-1.85
X7.5Y-1.95
X7.5Y-2.05
X7.5Y-2.15
X7.5Y-2.25
X7.5Y-2.35
X7.5Y-2.45
X7.5Y-2.75
X7.5Y-2.85
X7.5Y-2.95
X7.5Y-3.05
X7.5Y-3.15
X7.5Y-3.25
X7.5Y-3.35
X7.745Y-5.265
X7.745Y-6.305
X7.75Y-1.2
X7.75Y-1.3
X7.75Y-1.4
X7.75Y-1.5
X7.75Y-1.6
X7.75Y-1.7
X7.75Y-1.8
X7.75Y-1.9
X7.75Y-2.0
X7.75Y-2.1
X7.75Y-2.2
X7.75Y-2.3
X7.75Y-2.4
X7.75Y-2.5
X7.75Y-2.6
X7.75Y-2.7
X7.75Y-2.8
X7.75Y-2.9
X7.75Y-3.0
X7.75Y-3.1
X7.75Y-3.2
X7.75Y-3.3
X7.755Y-5.465
X7.755Y-6.005
X7.755Y-6.355
X7.765Y-5.505
X7.775Y-6.095
X7.8Y-1.25
X7.8Y-1.35
X7.8Y-1.45
X7.8Y-1.55
X7.8Y-1.65
X7.8Y-1.75
X7.8Y-1.85
X7.8Y-1.95
X7.8Y-2.05
X7.8Y-2.15
X7.8Y-2.25
X7.8Y-2.35
X7.8Y-2.45
X7.8Y-2.55
X7.8Y-2.65
X7.8Y-2.75
X7.8Y-2.85
X7.8Y-2.95
X7.8Y-3.05
X7.8Y-3.15
X7.8Y-3.25
X7.8Y-3.35
X7.81Y-4.785
X7.9125Y-4.4225
X7.95Y-1.8
X7.95Y-1.9
X7.95Y-2.0
X7.95Y-2.1
X7.95Y-2.2
X7.95Y-2.3
X7.95Y-2.4
X7.95Y-2.5
X7.95Y-2.6
X7.95Y-2.7
X7.95Y-2.8
X7.95Y-2.9
X7.95Y-3.0
X7.95Y-3.1
X7.95Y-3.2
X7.95Y-3.3
X7.95Y-3.4
X7.95Y-3.5
X7.95Y-3.6
X7.95Y-3.7
X7.95Y-3.8
X7.95Y-3.9
X7.955Y-6.165
X7.965Y-6.045
X8.0Y-1.75
X8.0Y-1.85
X8.0Y-1.95
X8.0Y-2.05
X8.0Y-2.15
X8.0Y-2.25
X8.0Y-2.35
X8.0Y-2.45
X8.0Y-2.55
X8.0Y-2.65
X8.0Y-2.75
X8.0Y-2.85
X8.0Y-2.95
X8.0Y-3.05
X8.0Y-3.15
X8.0Y-3.25
X8.0Y-3.35
X8.0Y-3.45
X8.0Y-3.55
X8.0Y-3.65
X8.0Y-3.75
X8.0Y-3.85
X8.05Y-1.8
X8.05Y-1.9
X8.05Y-2.0
X8.05Y-2.1
X8.05Y-2.2
X8.05Y-2.3
X8.05Y-2.4
X8.05Y-2.5
X8.05Y-2.6
X8.05Y-2.7
X8.05Y-2.8
X8.05Y-2.9
X8.05Y-3.0
X8.05Y-3.1
X8.05Y-3.2
X8.05Y-3.3
X8.05Y-3.4
X8.05Y-3.5
X8.05Y-3.6
X8.05Y-3.7
X8.05Y-3.8
X8.05Y-3.9
X8.0814Y-4.6654
T3
X6.2038Y-6.5317
X6.3612Y-6.5317
T5
X6.6925Y-6.56
X6.7925Y-6.56
X6.8925Y-6.56
X6.9925Y-6.56
T6
X3.01Y-1.535
X3.1Y-3.22
X3.8Y-0.9
X4.455Y-1.535
X4.545Y-3.225
X5.575Y-3.7
X6.655Y-1.535
X6.725Y-3.225
T4
G00X7.932Y-5.0202
M15
G01X7.995Y-5.0202
M16
G05
G00X7.932Y-5.6698
M15
G01X7.995Y-5.6698
M16
G05
G00X7.9366Y-5.855
M15
G01X7.9996Y-5.855
M16
G05
G00X7.9366Y-6.5046
M15
G01X7.9996Y-6.5046
M16
G05
G00X8.2088Y-5.0202
M15
G01X8.2521Y-5.0202
M16
G05
G00X8.2088Y-5.6698
M15
G01X8.2521Y-5.6698
M16
G05
G00X8.2133Y-5.855
M15
G01X8.2567Y-5.855
M16
G05
G00X8.2133Y-6.5046
M15
G01X8.2567Y-6.5046
M16
G05
T0
M30
