%TF.GenerationSoftware,KiCad,Pcbnew,(6.0.0)*%
%TF.CreationDate,2022-02-14T22:10:37-06:00*%
%TF.ProjectId,MA710_encoder,4d413731-305f-4656-9e63-6f6465722e6b,rev?*%
%TF.SameCoordinates,Original*%
%TF.FileFunction,Copper,L1,Top*%
%TF.FilePolarity,Positive*%
%FSLAX46Y46*%
G04 Gerber Fmt 4.6, Leading zero omitted, Abs format (unit mm)*
G04 Created by KiCad (PCBNEW (6.0.0)) date 2022-02-14 22:10:37*
%MOMM*%
%LPD*%
G01*
G04 APERTURE LIST*
G04 Aperture macros list*
%AMRoundRect*
0 Rectangle with rounded corners*
0 $1 Rounding radius*
0 $2 $3 $4 $5 $6 $7 $8 $9 X,Y pos of 4 corners*
0 Add a 4 corners polygon primitive as box body*
4,1,4,$2,$3,$4,$5,$6,$7,$8,$9,$2,$3,0*
0 Add four circle primitives for the rounded corners*
1,1,$1+$1,$2,$3*
1,1,$1+$1,$4,$5*
1,1,$1+$1,$6,$7*
1,1,$1+$1,$8,$9*
0 Add four rect primitives between the rounded corners*
20,1,$1+$1,$2,$3,$4,$5,0*
20,1,$1+$1,$4,$5,$6,$7,0*
20,1,$1+$1,$6,$7,$8,$9,0*
20,1,$1+$1,$8,$9,$2,$3,0*%
G04 Aperture macros list end*
%TA.AperFunction,ComponentPad*%
%ADD10R,1.700000X1.700000*%
%TD*%
%TA.AperFunction,ComponentPad*%
%ADD11O,1.700000X1.700000*%
%TD*%
%TA.AperFunction,SMDPad,CuDef*%
%ADD12RoundRect,0.218750X-0.218750X-0.256250X0.218750X-0.256250X0.218750X0.256250X-0.218750X0.256250X0*%
%TD*%
%TA.AperFunction,ComponentPad*%
%ADD13R,0.900000X0.900000*%
%TD*%
%TA.AperFunction,ComponentPad*%
%ADD14C,0.900000*%
%TD*%
%TA.AperFunction,ComponentPad*%
%ADD15O,2.800000X1.400000*%
%TD*%
%TA.AperFunction,SMDPad,CuDef*%
%ADD16R,0.600000X1.500000*%
%TD*%
%TA.AperFunction,SMDPad,CuDef*%
%ADD17RoundRect,0.218750X0.218750X0.256250X-0.218750X0.256250X-0.218750X-0.256250X0.218750X-0.256250X0*%
%TD*%
%TA.AperFunction,SMDPad,CuDef*%
%ADD18RoundRect,0.200000X-0.200000X-0.275000X0.200000X-0.275000X0.200000X0.275000X-0.200000X0.275000X0*%
%TD*%
%TA.AperFunction,ViaPad*%
%ADD19C,0.800000*%
%TD*%
%TA.AperFunction,ViaPad*%
%ADD20C,3.700000*%
%TD*%
%TA.AperFunction,Conductor*%
%ADD21C,0.200000*%
%TD*%
%TA.AperFunction,Conductor*%
%ADD22C,0.250000*%
%TD*%
G04 APERTURE END LIST*
D10*
%TO.P,J1,1,Pin_1*%
%TO.N,TEMP_1*%
X152654000Y-136652000D03*
D11*
%TO.P,J1,2,Pin_2*%
%TO.N,GND*%
X152654000Y-139192000D03*
%TD*%
D12*
%TO.P,C2,1*%
%TO.N,+3V3*%
X160096000Y-99949000D03*
%TO.P,C2,2*%
%TO.N,GND*%
X161671000Y-99949000D03*
%TD*%
%TO.P,C3,1*%
%TO.N,+3V3*%
X172351500Y-111188500D03*
%TO.P,C3,2*%
%TO.N,GND*%
X173926500Y-111188500D03*
%TD*%
%TO.P,R1,1*%
%TO.N,SPI6_MOSI_+*%
X169037000Y-121729500D03*
%TO.P,R1,2*%
%TO.N,SPI6_MOSI_-*%
X170612000Y-121729500D03*
%TD*%
D13*
%TO.P,J4,1,1*%
%TO.N,SPI6_nSS_-*%
X157838000Y-138501000D03*
D14*
%TO.P,J4,2,2*%
%TO.N,GND*%
X158488000Y-136581000D03*
%TO.P,J4,3,3*%
%TO.N,SPI6_nSS_+*%
X159138000Y-138501000D03*
%TO.P,J4,4,4*%
%TO.N,SPI6_SCK_-*%
X159788000Y-136581000D03*
%TO.P,J4,5,5*%
%TO.N,GND*%
X160438000Y-138501000D03*
%TO.P,J4,6,6*%
%TO.N,SPI6_SCK_+*%
X161088000Y-136581000D03*
%TO.P,J4,7,7*%
%TO.N,SPI6_MOSI_-*%
X161738000Y-138501000D03*
%TO.P,J4,8,8*%
%TO.N,GND*%
X162388000Y-136581000D03*
%TO.P,J4,9,9*%
%TO.N,SPI6_MOSI_+*%
X163038000Y-138501000D03*
%TO.P,J4,10,10*%
%TO.N,SPI6_MISO_-*%
X163688000Y-136581000D03*
%TO.P,J4,11,11*%
%TO.N,GND*%
X164338000Y-138501000D03*
%TO.P,J4,12,12*%
%TO.N,SPI6_MISO_+*%
X164988000Y-136581000D03*
%TO.P,J4,13,13*%
%TO.N,TEMP_1*%
X165638000Y-138501000D03*
%TO.P,J4,14,14*%
%TO.N,unconnected-(J4-Pad14)*%
X166288000Y-136581000D03*
%TO.P,J4,15,15*%
%TO.N,+3V3*%
X166938000Y-138501000D03*
%TO.P,J4,16,16*%
X167588000Y-136581000D03*
%TO.P,J4,17,17*%
X168238000Y-138501000D03*
%TO.P,J4,18,18*%
%TO.N,unconnected-(J4-Pad18)*%
X168888000Y-136581000D03*
%TO.P,J4,19,19*%
%TO.N,GND*%
X169538000Y-138501000D03*
%TO.P,J4,20,20*%
%TO.N,+3V3*%
X170188000Y-136581000D03*
D15*
%TO.P,J4,SH1*%
%TO.N,N/C*%
X158338000Y-140121000D03*
%TO.P,J4,SH2*%
X170338000Y-140121000D03*
%TO.P,J4,SH3*%
X164338000Y-134961000D03*
%TD*%
D16*
%TO.P,U9,1,1A*%
%TO.N,SPI6_MISO*%
X160083500Y-108110000D03*
%TO.P,U9,2,1Y*%
%TO.N,SPI6_MISO_-*%
X161353500Y-108110000D03*
%TO.P,U9,3,1Z*%
%TO.N,SPI6_MISO_+*%
X162623500Y-108110000D03*
%TO.P,U9,4,G*%
%TO.N,+3V3*%
X163893500Y-108110000D03*
%TO.P,U9,5,2Z*%
%TO.N,unconnected-(U9-Pad5)*%
X165163500Y-108110000D03*
%TO.P,U9,6,2Y*%
%TO.N,unconnected-(U9-Pad6)*%
X166433500Y-108110000D03*
%TO.P,U9,7,2A*%
%TO.N,unconnected-(U9-Pad7)*%
X167703500Y-108110000D03*
%TO.P,U9,8,GND*%
%TO.N,GND*%
X168973500Y-108110000D03*
%TO.P,U9,9,3A*%
%TO.N,unconnected-(U9-Pad9)*%
X168973500Y-102710000D03*
%TO.P,U9,10,3Y*%
%TO.N,unconnected-(U9-Pad10)*%
X167703500Y-102710000D03*
%TO.P,U9,11,3Z*%
%TO.N,unconnected-(U9-Pad11)*%
X166433500Y-102710000D03*
%TO.P,U9,12,~{G}*%
%TO.N,GND*%
X165163500Y-102710000D03*
%TO.P,U9,13,4Z*%
%TO.N,unconnected-(U9-Pad13)*%
X163893500Y-102710000D03*
%TO.P,U9,14,4Y*%
%TO.N,unconnected-(U9-Pad14)*%
X162623500Y-102710000D03*
%TO.P,U9,15,4A*%
%TO.N,unconnected-(U9-Pad15)*%
X161353500Y-102710000D03*
%TO.P,U9,16,VCC*%
%TO.N,+3V3*%
X160083500Y-102710000D03*
%TD*%
%TO.P,U14,1,1B*%
%TO.N,SPI6_MOSI_-*%
X172339000Y-119032000D03*
%TO.P,U14,2,1A*%
%TO.N,SPI6_MOSI_+*%
X173609000Y-119032000D03*
%TO.P,U14,3,1Y*%
%TO.N,SPI6_MOSI*%
X174879000Y-119032000D03*
%TO.P,U14,4,G*%
%TO.N,+3V3*%
X176149000Y-119032000D03*
%TO.P,U14,5,2Y*%
%TO.N,SPI6_SCK*%
X177419000Y-119032000D03*
%TO.P,U14,6,2A*%
%TO.N,SPI6_SCK_+*%
X178689000Y-119032000D03*
%TO.P,U14,7,2B*%
%TO.N,SPI6_SCK_-*%
X179959000Y-119032000D03*
%TO.P,U14,8,GND*%
%TO.N,GND*%
X181229000Y-119032000D03*
%TO.P,U14,9,3B*%
%TO.N,SPI6_nSS_+*%
X181229000Y-113632000D03*
%TO.P,U14,10,3A*%
%TO.N,SPI6_nSS_-*%
X179959000Y-113632000D03*
%TO.P,U14,11,3Y*%
%TO.N,SPI6_nSS*%
X178689000Y-113632000D03*
%TO.P,U14,12,~{G}*%
%TO.N,GND*%
X177419000Y-113632000D03*
%TO.P,U14,13,4Y*%
%TO.N,unconnected-(U14-Pad13)*%
X176149000Y-113632000D03*
%TO.P,U14,14,4A*%
%TO.N,unconnected-(U14-Pad14)*%
X174879000Y-113632000D03*
%TO.P,U14,15,4B*%
%TO.N,unconnected-(U14-Pad15)*%
X173609000Y-113632000D03*
%TO.P,U14,16,VCC*%
%TO.N,+3V3*%
X172339000Y-113632000D03*
%TD*%
D17*
%TO.P,R3,1*%
%TO.N,SPI6_nSS_+*%
X181381500Y-111315500D03*
%TO.P,R3,2*%
%TO.N,SPI6_nSS_-*%
X179806500Y-111315500D03*
%TD*%
%TO.P,R2,1*%
%TO.N,SPI6_SCK_+*%
X180302000Y-123698000D03*
%TO.P,R2,2*%
%TO.N,SPI6_SCK_-*%
X178727000Y-123698000D03*
%TD*%
D18*
%TO.P,R4,1*%
%TO.N,TEMP_1*%
X169228000Y-130810000D03*
%TO.P,R4,2*%
%TO.N,+3V3*%
X170878000Y-130810000D03*
%TD*%
D19*
%TO.N,+3V3*%
X170942000Y-129540000D03*
%TO.N,TEMP_1*%
X167894000Y-130810000D03*
X170434000Y-134366000D03*
%TO.N,SPI6_MISO_-*%
X163813000Y-131265500D03*
%TO.N,SPI6_MISO_+*%
X164863000Y-131265500D03*
%TO.N,SPI6_nSS_-*%
X180069000Y-108585000D03*
%TO.N,SPI6_nSS_+*%
X181119000Y-108585000D03*
%TO.N,SPI6_MOSI_-*%
X172483000Y-128524000D03*
%TO.N,SPI6_MOSI_+*%
X171433000Y-128524000D03*
D20*
%TO.N,*%
X175500000Y-104500000D03*
X153500000Y-126500000D03*
X153500000Y-104500000D03*
X175500000Y-126500000D03*
D19*
%TO.N,GND*%
X168148000Y-118364000D03*
X167259000Y-115252500D03*
%TO.N,+3V3*%
X168993767Y-117386460D03*
X159956500Y-98425000D03*
X172402500Y-109791500D03*
%TO.N,SPI6_MISO*%
X160083500Y-109918500D03*
%TO.N,SPI6_SCK*%
X177419000Y-116903500D03*
%TO.N,SPI6_nSS*%
X178689000Y-110236000D03*
%TO.N,SPI6_MOSI*%
X173545500Y-121412000D03*
%TD*%
D21*
%TO.N,SPI6_MISO_+*%
X162623500Y-109235001D02*
X162213500Y-109645001D01*
X162623500Y-108110000D02*
X162623500Y-109235001D01*
%TO.N,SPI6_MISO_-*%
X161353500Y-109235001D02*
X161763500Y-109645001D01*
X161353500Y-108110000D02*
X161353500Y-109235001D01*
D22*
%TO.N,+3V3*%
X170942000Y-129540000D02*
X170942000Y-130746000D01*
X170942000Y-130746000D02*
X170878000Y-130810000D01*
%TO.N,TEMP_1*%
X167894000Y-130810000D02*
X169228000Y-130810000D01*
X173355000Y-137287000D02*
X170434000Y-134366000D01*
X173355000Y-139319000D02*
X173355000Y-137287000D01*
X171450000Y-141224000D02*
X173355000Y-139319000D01*
X165638000Y-138501000D02*
X168361000Y-141224000D01*
X168361000Y-141224000D02*
X171450000Y-141224000D01*
D21*
%TO.N,SPI6_MISO_-*%
X161763500Y-122838700D02*
X161763500Y-109645001D01*
X164112999Y-125188199D02*
X161763500Y-122838700D01*
%TO.N,SPI6_MISO_+*%
X162213500Y-122652300D02*
X162213500Y-109645001D01*
X164563001Y-125001801D02*
X162213500Y-122652300D01*
%TO.N,SPI6_MISO_-*%
X164112999Y-130965501D02*
X164112999Y-125188199D01*
X163813000Y-131265500D02*
X164112999Y-130965501D01*
%TO.N,SPI6_MISO_+*%
X164563001Y-130965501D02*
X164563001Y-125001801D01*
X164863000Y-131265500D02*
X164563001Y-130965501D01*
%TO.N,SPI6_nSS_-*%
X180368999Y-110753001D02*
X179806500Y-111315500D01*
X180368999Y-108884999D02*
X180368999Y-110753001D01*
%TO.N,SPI6_nSS_+*%
X180819001Y-110753001D02*
X181381500Y-111315500D01*
%TO.N,SPI6_nSS_-*%
X180069000Y-108585000D02*
X180368999Y-108884999D01*
%TO.N,SPI6_nSS_+*%
X180819001Y-108884999D02*
X180819001Y-110753001D01*
X181119000Y-108585000D02*
X180819001Y-108884999D01*
%TO.N,SPI6_SCK_-*%
X179851999Y-124822999D02*
X178727000Y-123698000D01*
X179851999Y-126534801D02*
X179851999Y-124822999D01*
X173896800Y-132490000D02*
X179851999Y-126534801D01*
X162212800Y-132490000D02*
X173896800Y-132490000D01*
X160212999Y-134489801D02*
X162212800Y-132490000D01*
X160212999Y-136156001D02*
X160212999Y-134489801D01*
X159788000Y-136581000D02*
X160212999Y-136156001D01*
%TO.N,SPI6_SCK_+*%
X180302000Y-126721200D02*
X180302000Y-123698000D01*
X160663001Y-134676199D02*
X162399200Y-132940000D01*
X174083200Y-132940000D02*
X180302000Y-126721200D01*
X161088000Y-136581000D02*
X160663001Y-136156001D01*
X160663001Y-136156001D02*
X160663001Y-134676199D01*
X162399200Y-132940000D02*
X174083200Y-132940000D01*
%TO.N,SPI6_MOSI_-*%
X170049501Y-124519301D02*
X170049501Y-122291999D01*
X172183001Y-126652801D02*
X170049501Y-124519301D01*
X170049501Y-122291999D02*
X170612000Y-121729500D01*
%TO.N,SPI6_MOSI_+*%
X169599499Y-124705699D02*
X169599499Y-122291999D01*
X171732999Y-126839199D02*
X169599499Y-124705699D01*
X169599499Y-122291999D02*
X169037000Y-121729500D01*
%TO.N,SPI6_MOSI_-*%
X172483000Y-128524000D02*
X172183001Y-128224001D01*
%TO.N,SPI6_MOSI_+*%
X171732999Y-128224001D02*
X171732999Y-126839199D01*
%TO.N,SPI6_MOSI_-*%
X172183001Y-128224001D02*
X172183001Y-126652801D01*
%TO.N,SPI6_MOSI_+*%
X171433000Y-128524000D02*
X171732999Y-128224001D01*
D22*
%TO.N,GND*%
X165113001Y-137725999D02*
X168762999Y-137725999D01*
X177419000Y-115830498D02*
X178263992Y-116675490D01*
X165163500Y-101092000D02*
X165163500Y-102710000D01*
X168973500Y-106616500D02*
X167640000Y-105283000D01*
X158518000Y-136581000D02*
X158488000Y-136581000D01*
X161671000Y-99949000D02*
X164020500Y-99949000D01*
X164020500Y-99949000D02*
X165163500Y-101092000D01*
X177419000Y-113632000D02*
X177419000Y-115830498D01*
X168762999Y-137725999D02*
X169538000Y-138501000D01*
X178263992Y-116675490D02*
X178263992Y-117822006D01*
X164338000Y-138501000D02*
X162418000Y-136581000D01*
X181229000Y-119824500D02*
X180594000Y-120459500D01*
X178263992Y-117822006D02*
X178063999Y-118021999D01*
X165163500Y-104648000D02*
X165163500Y-102710000D01*
X160438000Y-138501000D02*
X162358000Y-136581000D01*
X168973500Y-108110000D02*
X168973500Y-106616500D01*
X160438000Y-138501000D02*
X158518000Y-136581000D01*
X181229000Y-119032000D02*
X181229000Y-119824500D01*
X162358000Y-136581000D02*
X162388000Y-136581000D01*
X164338000Y-138501000D02*
X165113001Y-137725999D01*
X178063999Y-118021999D02*
X178063999Y-121040999D01*
X165798500Y-105283000D02*
X165163500Y-104648000D01*
X162418000Y-136581000D02*
X162388000Y-136581000D01*
X167640000Y-105283000D02*
X165798500Y-105283000D01*
%TO.N,+3V3*%
X163893500Y-108110000D02*
X163893500Y-107124500D01*
X176149000Y-119032000D02*
X176149000Y-117157500D01*
X172351500Y-109842500D02*
X172402500Y-109791500D01*
X171381727Y-114998500D02*
X168993767Y-117386460D01*
X172351500Y-111188500D02*
X172351500Y-109842500D01*
X172656500Y-115125500D02*
X172529500Y-114998500D01*
X161544000Y-105346500D02*
X160083500Y-103886000D01*
X160083500Y-99961500D02*
X160096000Y-99949000D01*
X172339000Y-113632000D02*
X172339000Y-111201000D01*
X172339000Y-114808000D02*
X172339000Y-113632000D01*
X163893500Y-107124500D02*
X162115500Y-105346500D01*
X160096000Y-99949000D02*
X160096000Y-98564500D01*
X160083500Y-102710000D02*
X160083500Y-99961500D01*
X162115500Y-105346500D02*
X161544000Y-105346500D01*
X172339000Y-111201000D02*
X172351500Y-111188500D01*
X172529500Y-114998500D02*
X172339000Y-114808000D01*
X172529500Y-114998500D02*
X171381727Y-114998500D01*
X160096000Y-98564500D02*
X159956500Y-98425000D01*
X176149000Y-117157500D02*
X174117000Y-115125500D01*
X174117000Y-115125500D02*
X172656500Y-115125500D01*
X160083500Y-103886000D02*
X160083500Y-102710000D01*
D21*
%TO.N,SPI6_SCK_-*%
X179549000Y-117496999D02*
X179549000Y-116869700D01*
X179549000Y-116869700D02*
X179861700Y-116557000D01*
X179861700Y-116557000D02*
X182151800Y-116557000D01*
X180500800Y-121314000D02*
X181072300Y-121314000D01*
X179289500Y-122525300D02*
X180500800Y-121314000D01*
X181072300Y-121314000D02*
X182655000Y-119731300D01*
X179959000Y-117906999D02*
X179549000Y-117496999D01*
X178727000Y-123698000D02*
X179289500Y-123135500D01*
X179289500Y-123135500D02*
X179289500Y-122525300D01*
X182655000Y-117060200D02*
X182655000Y-119731300D01*
X182151800Y-116557000D02*
X182655000Y-117060200D01*
X179959000Y-119032000D02*
X179959000Y-117906999D01*
%TO.N,SPI6_nSS_-*%
X180369000Y-112096999D02*
X179959000Y-112506999D01*
X179806500Y-111315500D02*
X180369000Y-111878000D01*
X180369000Y-111878000D02*
X180369000Y-112096999D01*
X179959000Y-112506999D02*
X179959000Y-113632000D01*
%TO.N,SPI6_nSS_+*%
X180819000Y-112096999D02*
X181229000Y-112506999D01*
X181381500Y-111315500D02*
X180819000Y-111878000D01*
X180819000Y-111878000D02*
X180819000Y-112096999D01*
X181229000Y-112506999D02*
X181229000Y-113632000D01*
%TO.N,SPI6_MOSI_-*%
X171797200Y-116176000D02*
X170049500Y-117923700D01*
X172749000Y-116615700D02*
X172309300Y-116176000D01*
X172749000Y-117496999D02*
X172749000Y-116615700D01*
X172309300Y-116176000D02*
X171797200Y-116176000D01*
X172339000Y-119032000D02*
X172339000Y-117906999D01*
X172339000Y-117906999D02*
X172749000Y-117496999D01*
X170049500Y-117923700D02*
X170049500Y-121167000D01*
X170049500Y-121167000D02*
X170612000Y-121729500D01*
%TO.N,SPI6_SCK_+*%
X179675300Y-116107000D02*
X182338200Y-116107000D01*
X179099000Y-117496999D02*
X179099000Y-116683300D01*
X182338200Y-116107000D02*
X183105000Y-116873800D01*
X178689000Y-119032000D02*
X178689000Y-117906999D01*
X179099000Y-116683300D02*
X179675300Y-116107000D01*
X180687200Y-121764000D02*
X181258700Y-121764000D01*
X179739500Y-122711700D02*
X180687200Y-121764000D01*
X180302000Y-123698000D02*
X179739500Y-123135500D01*
X183105000Y-116873800D02*
X183105000Y-119917700D01*
X179739500Y-123135500D02*
X179739500Y-122711700D01*
X181258700Y-121764000D02*
X183105000Y-119917700D01*
X178689000Y-117906999D02*
X179099000Y-117496999D01*
%TO.N,SPI6_MOSI_+*%
X169599500Y-117737300D02*
X169599500Y-121167000D01*
X173609000Y-119032000D02*
X173609000Y-117906999D01*
X173199000Y-116429300D02*
X172495700Y-115726000D01*
X173199000Y-117496999D02*
X173199000Y-116429300D01*
X173609000Y-117906999D02*
X173199000Y-117496999D01*
X172495700Y-115726000D02*
X171610800Y-115726000D01*
X169599500Y-121167000D02*
X169037000Y-121729500D01*
X171610800Y-115726000D02*
X169599500Y-117737300D01*
D22*
%TO.N,SPI6_MISO*%
X160083500Y-109918500D02*
X160083500Y-108110000D01*
%TO.N,SPI6_SCK*%
X177419000Y-116903500D02*
X177419000Y-119032000D01*
%TO.N,SPI6_nSS*%
X178689000Y-110236000D02*
X178689000Y-113632000D01*
%TO.N,SPI6_MOSI*%
X174879000Y-120078500D02*
X174879000Y-119032000D01*
X173545500Y-121412000D02*
X174879000Y-120078500D01*
%TD*%
%TA.AperFunction,Conductor*%
%TO.N,GND*%
G36*
X164683872Y-95513160D02*
G01*
X165283061Y-95523401D01*
X165288617Y-95523620D01*
X165944587Y-95564043D01*
X166170032Y-95577936D01*
X166175613Y-95578404D01*
X167053764Y-95671840D01*
X167059319Y-95672556D01*
X167932458Y-95804927D01*
X167937976Y-95805890D01*
X168168702Y-95851440D01*
X168804357Y-95976932D01*
X168809803Y-95978133D01*
X169257672Y-96087436D01*
X169667721Y-96187509D01*
X169673131Y-96188957D01*
X169858923Y-96243153D01*
X170520928Y-96436262D01*
X170526240Y-96437941D01*
X171362200Y-96722676D01*
X171367430Y-96724588D01*
X171545451Y-96794198D01*
X172189900Y-97046190D01*
X172195070Y-97048345D01*
X172375727Y-97128415D01*
X173002441Y-97406184D01*
X173007492Y-97408559D01*
X173304264Y-97556206D01*
X173798157Y-97801923D01*
X173803115Y-97804529D01*
X173986676Y-97906270D01*
X174575505Y-98232636D01*
X174580323Y-98235448D01*
X175332954Y-98697476D01*
X175337624Y-98700488D01*
X176068980Y-99195510D01*
X176073543Y-99198749D01*
X176234654Y-99318573D01*
X176782133Y-99725754D01*
X176786552Y-99729195D01*
X177425813Y-100250315D01*
X177471045Y-100287188D01*
X177475301Y-100290818D01*
X177992089Y-100751807D01*
X178134331Y-100878690D01*
X178138426Y-100882511D01*
X178770635Y-101499049D01*
X178774557Y-101503047D01*
X179378763Y-102147096D01*
X179382504Y-102151265D01*
X179957501Y-102821541D01*
X179961045Y-102825863D01*
X180495582Y-103508134D01*
X180505676Y-103521018D01*
X180509022Y-103525490D01*
X181015101Y-104234192D01*
X181022236Y-104244184D01*
X181025383Y-104248805D01*
X181354950Y-104756621D01*
X181506132Y-104989571D01*
X181509076Y-104994335D01*
X181956447Y-105755764D01*
X181959176Y-105760656D01*
X182372244Y-106541174D01*
X182374747Y-106546168D01*
X182739012Y-107315331D01*
X182752734Y-107344305D01*
X182755014Y-107349410D01*
X183046557Y-108043148D01*
X183097152Y-108163542D01*
X183099201Y-108168739D01*
X183387482Y-108950271D01*
X183404825Y-108997288D01*
X183406643Y-109002575D01*
X183583627Y-109557134D01*
X183675137Y-109843871D01*
X183676720Y-109849240D01*
X183888094Y-110629757D01*
X183907559Y-110701635D01*
X183908901Y-110707066D01*
X184073369Y-111442500D01*
X184101636Y-111568901D01*
X184102734Y-111574384D01*
X184256499Y-112441239D01*
X184256971Y-112443898D01*
X184257826Y-112449427D01*
X184301354Y-112779540D01*
X184373273Y-113324978D01*
X184373879Y-113330526D01*
X184391632Y-113534909D01*
X184450297Y-114210308D01*
X184450657Y-114215883D01*
X184479148Y-114890821D01*
X184487902Y-115098216D01*
X184488014Y-115103816D01*
X184486009Y-115986936D01*
X184485871Y-115992535D01*
X184466374Y-116409484D01*
X184444639Y-116874318D01*
X184444624Y-116874631D01*
X184444240Y-116880211D01*
X184363977Y-117758016D01*
X184363825Y-117759673D01*
X184363192Y-117765226D01*
X184274281Y-118416701D01*
X184243775Y-118640230D01*
X184242896Y-118645752D01*
X184206479Y-118845770D01*
X184084712Y-119514563D01*
X184083587Y-119520049D01*
X183886943Y-120380996D01*
X183885574Y-120386428D01*
X183868910Y-120446872D01*
X183653385Y-121228635D01*
X183650872Y-121237749D01*
X183649267Y-121243104D01*
X183380627Y-122071852D01*
X183376953Y-122083186D01*
X183375120Y-122088442D01*
X183117146Y-122778151D01*
X183065737Y-122915595D01*
X183063659Y-122920795D01*
X182717819Y-123733392D01*
X182715511Y-123738495D01*
X182394208Y-124409055D01*
X182333919Y-124534877D01*
X182331389Y-124539869D01*
X182052476Y-125061155D01*
X181914779Y-125318509D01*
X181912028Y-125323388D01*
X181461194Y-126082797D01*
X181458265Y-126087490D01*
X181141878Y-126570185D01*
X181087808Y-126616190D01*
X181017446Y-126625661D01*
X180953133Y-126595588D01*
X180915289Y-126535518D01*
X180910500Y-126501110D01*
X180910500Y-124638532D01*
X180930502Y-124570411D01*
X180964219Y-124537263D01*
X180963592Y-124536472D01*
X180969335Y-124531920D01*
X180975555Y-124528071D01*
X181095364Y-124408053D01*
X181184349Y-124263692D01*
X181186654Y-124256743D01*
X181235572Y-124109262D01*
X181235572Y-124109260D01*
X181237738Y-124102731D01*
X181248000Y-124002572D01*
X181248000Y-123393428D01*
X181237478Y-123292018D01*
X181183808Y-123131151D01*
X181094571Y-122986945D01*
X180974553Y-122867136D01*
X180830192Y-122778151D01*
X180823244Y-122775846D01*
X180823241Y-122775845D01*
X180801298Y-122768567D01*
X180742938Y-122728137D01*
X180715701Y-122662572D01*
X180728234Y-122592691D01*
X180751870Y-122559879D01*
X180902344Y-122409405D01*
X180964656Y-122375379D01*
X180991439Y-122372500D01*
X181210564Y-122372500D01*
X181227007Y-122373578D01*
X181258700Y-122377750D01*
X181266889Y-122376672D01*
X181298574Y-122372501D01*
X181298584Y-122372500D01*
X181298585Y-122372500D01*
X181398157Y-122359391D01*
X181409364Y-122357916D01*
X181409366Y-122357915D01*
X181417551Y-122356838D01*
X181565576Y-122295524D01*
X181582985Y-122282166D01*
X181660772Y-122222477D01*
X181660775Y-122222474D01*
X181686137Y-122203013D01*
X181692687Y-122197987D01*
X181712158Y-122172613D01*
X181723016Y-122160233D01*
X183501234Y-120382015D01*
X183513625Y-120371148D01*
X183532437Y-120356713D01*
X183538987Y-120351687D01*
X183563474Y-120319775D01*
X183563478Y-120319771D01*
X183636524Y-120224576D01*
X183697838Y-120076550D01*
X183718751Y-119917700D01*
X183714578Y-119886001D01*
X183713500Y-119869556D01*
X183713500Y-116921936D01*
X183714578Y-116905490D01*
X183717672Y-116881988D01*
X183718750Y-116873800D01*
X183713500Y-116833920D01*
X183713500Y-116833915D01*
X183697957Y-116715851D01*
X183697838Y-116714949D01*
X183636524Y-116566924D01*
X183563477Y-116471729D01*
X183563476Y-116471727D01*
X183544017Y-116446367D01*
X183544013Y-116446363D01*
X183538987Y-116439813D01*
X183513617Y-116420346D01*
X183501232Y-116409484D01*
X182802515Y-115710766D01*
X182791649Y-115698376D01*
X182777214Y-115679564D01*
X182777213Y-115679563D01*
X182772187Y-115673013D01*
X182740275Y-115648526D01*
X182740272Y-115648523D01*
X182651629Y-115580504D01*
X182651627Y-115580503D01*
X182645076Y-115575476D01*
X182497051Y-115514162D01*
X182488864Y-115513084D01*
X182488863Y-115513084D01*
X182477658Y-115511609D01*
X182446462Y-115507502D01*
X182378085Y-115498500D01*
X182378082Y-115498500D01*
X182378074Y-115498499D01*
X182346389Y-115494328D01*
X182338200Y-115493250D01*
X182306507Y-115497422D01*
X182290064Y-115498500D01*
X179723436Y-115498500D01*
X179706990Y-115497422D01*
X179683488Y-115494328D01*
X179675300Y-115493250D01*
X179667112Y-115494328D01*
X179635429Y-115498499D01*
X179635420Y-115498500D01*
X179635415Y-115498500D01*
X179516450Y-115514162D01*
X179368425Y-115575476D01*
X179361874Y-115580503D01*
X179361870Y-115580505D01*
X179342618Y-115595278D01*
X179273228Y-115648523D01*
X179273225Y-115648526D01*
X179241313Y-115673013D01*
X179236283Y-115679568D01*
X179221848Y-115698379D01*
X179210981Y-115710770D01*
X178702766Y-116218985D01*
X178690375Y-116229852D01*
X178665013Y-116249313D01*
X178640526Y-116281225D01*
X178640523Y-116281228D01*
X178567476Y-116376424D01*
X178564316Y-116384054D01*
X178518600Y-116494423D01*
X178508972Y-116517666D01*
X178506162Y-116524450D01*
X178505084Y-116532638D01*
X178502947Y-116540614D01*
X178501258Y-116540162D01*
X178476575Y-116595962D01*
X178417311Y-116635055D01*
X178346319Y-116635902D01*
X178286140Y-116598233D01*
X178260540Y-116553528D01*
X178253527Y-116531944D01*
X178249201Y-116524450D01*
X178189538Y-116421112D01*
X178158040Y-116366556D01*
X178081211Y-116281228D01*
X178034675Y-116229545D01*
X178034674Y-116229544D01*
X178030253Y-116224634D01*
X177875752Y-116112382D01*
X177869724Y-116109698D01*
X177869722Y-116109697D01*
X177707319Y-116037391D01*
X177707318Y-116037391D01*
X177701288Y-116034706D01*
X177607888Y-116014853D01*
X177520944Y-115996372D01*
X177520939Y-115996372D01*
X177514487Y-115995000D01*
X177323513Y-115995000D01*
X177317061Y-115996372D01*
X177317056Y-115996372D01*
X177230112Y-116014853D01*
X177136712Y-116034706D01*
X177130682Y-116037391D01*
X177130681Y-116037391D01*
X176968278Y-116109697D01*
X176968276Y-116109698D01*
X176962248Y-116112382D01*
X176807747Y-116224634D01*
X176803326Y-116229544D01*
X176803325Y-116229545D01*
X176756790Y-116281228D01*
X176679960Y-116366556D01*
X176619238Y-116471729D01*
X176606136Y-116494423D01*
X176554754Y-116543416D01*
X176485040Y-116556852D01*
X176419129Y-116530466D01*
X176407922Y-116520518D01*
X174993000Y-115105595D01*
X174958974Y-115043283D01*
X174964039Y-114972467D01*
X175006586Y-114915632D01*
X175073106Y-114890821D01*
X175082095Y-114890500D01*
X175227134Y-114890500D01*
X175289316Y-114883745D01*
X175425705Y-114832615D01*
X175438435Y-114823074D01*
X175504939Y-114798226D01*
X175574322Y-114813278D01*
X175589559Y-114823070D01*
X175602295Y-114832615D01*
X175738684Y-114883745D01*
X175800866Y-114890500D01*
X176497134Y-114890500D01*
X176559316Y-114883745D01*
X176695705Y-114832615D01*
X176702889Y-114827231D01*
X176702891Y-114827230D01*
X176708853Y-114822761D01*
X176775359Y-114797914D01*
X176844742Y-114812967D01*
X176859981Y-114822761D01*
X176865352Y-114826786D01*
X176880946Y-114835324D01*
X177001394Y-114880478D01*
X177016649Y-114884105D01*
X177067514Y-114889631D01*
X177074328Y-114890000D01*
X177146885Y-114890000D01*
X177162124Y-114885525D01*
X177163329Y-114884135D01*
X177165000Y-114876452D01*
X177165000Y-114871884D01*
X177673000Y-114871884D01*
X177677475Y-114887123D01*
X177678865Y-114888328D01*
X177686548Y-114889999D01*
X177763669Y-114889999D01*
X177770490Y-114889629D01*
X177821352Y-114884105D01*
X177836604Y-114880479D01*
X177957054Y-114835324D01*
X177972648Y-114826786D01*
X177978019Y-114822761D01*
X178044526Y-114797914D01*
X178113908Y-114812968D01*
X178129147Y-114822761D01*
X178135109Y-114827230D01*
X178135111Y-114827231D01*
X178142295Y-114832615D01*
X178278684Y-114883745D01*
X178340866Y-114890500D01*
X179037134Y-114890500D01*
X179099316Y-114883745D01*
X179235705Y-114832615D01*
X179248435Y-114823074D01*
X179314939Y-114798226D01*
X179384322Y-114813278D01*
X179399559Y-114823070D01*
X179412295Y-114832615D01*
X179548684Y-114883745D01*
X179610866Y-114890500D01*
X180307134Y-114890500D01*
X180369316Y-114883745D01*
X180505705Y-114832615D01*
X180518435Y-114823074D01*
X180584939Y-114798226D01*
X180654322Y-114813278D01*
X180669559Y-114823070D01*
X180682295Y-114832615D01*
X180818684Y-114883745D01*
X180880866Y-114890500D01*
X181577134Y-114890500D01*
X181639316Y-114883745D01*
X181775705Y-114832615D01*
X181892261Y-114745261D01*
X181979615Y-114628705D01*
X182030745Y-114492316D01*
X182037500Y-114430134D01*
X182037500Y-112833866D01*
X182030745Y-112771684D01*
X181979615Y-112635295D01*
X181945292Y-112589498D01*
X181897645Y-112525922D01*
X181897642Y-112525919D01*
X181892261Y-112518739D01*
X181885081Y-112513358D01*
X181885077Y-112513354D01*
X181881482Y-112510660D01*
X181878811Y-112507088D01*
X181878729Y-112507006D01*
X181878741Y-112506994D01*
X181838966Y-112453801D01*
X181832124Y-112426278D01*
X181824859Y-112371092D01*
X181835799Y-112300944D01*
X181882927Y-112247845D01*
X181897602Y-112240924D01*
X181897277Y-112240230D01*
X181903909Y-112237123D01*
X181910849Y-112234808D01*
X182055055Y-112145571D01*
X182174864Y-112025553D01*
X182182606Y-112012994D01*
X182215726Y-111959262D01*
X182263849Y-111881192D01*
X182300537Y-111770582D01*
X182315072Y-111726762D01*
X182315072Y-111726760D01*
X182317238Y-111720231D01*
X182327500Y-111620072D01*
X182327500Y-111010928D01*
X182316978Y-110909518D01*
X182263308Y-110748651D01*
X182174071Y-110604445D01*
X182054053Y-110484636D01*
X181909692Y-110395651D01*
X181902743Y-110393346D01*
X181755262Y-110344428D01*
X181755260Y-110344428D01*
X181748731Y-110342262D01*
X181648572Y-110332000D01*
X181553501Y-110332000D01*
X181485380Y-110311998D01*
X181438887Y-110258342D01*
X181427501Y-110206000D01*
X181427501Y-109523949D01*
X181447503Y-109455828D01*
X181502252Y-109408842D01*
X181550695Y-109387274D01*
X181575752Y-109376118D01*
X181586926Y-109368000D01*
X181673319Y-109305231D01*
X181730253Y-109263866D01*
X181745140Y-109247332D01*
X181853621Y-109126852D01*
X181853622Y-109126851D01*
X181858040Y-109121944D01*
X181953527Y-108956556D01*
X182012542Y-108774928D01*
X182032504Y-108585000D01*
X182031814Y-108578435D01*
X182013232Y-108401635D01*
X182013232Y-108401633D01*
X182012542Y-108395072D01*
X181953527Y-108213444D01*
X181926209Y-108166127D01*
X181861341Y-108053774D01*
X181858040Y-108048056D01*
X181730253Y-107906134D01*
X181575752Y-107793882D01*
X181569724Y-107791198D01*
X181569722Y-107791197D01*
X181407319Y-107718891D01*
X181407318Y-107718891D01*
X181401288Y-107716206D01*
X181307888Y-107696353D01*
X181220944Y-107677872D01*
X181220939Y-107677872D01*
X181214487Y-107676500D01*
X181023513Y-107676500D01*
X181017061Y-107677872D01*
X181017056Y-107677872D01*
X180930112Y-107696353D01*
X180836712Y-107716206D01*
X180830682Y-107718891D01*
X180830681Y-107718891D01*
X180668279Y-107791197D01*
X180662248Y-107793882D01*
X180656973Y-107797714D01*
X180588008Y-107814447D01*
X180531030Y-107797717D01*
X180525752Y-107793882D01*
X180519722Y-107791197D01*
X180357319Y-107718891D01*
X180357318Y-107718891D01*
X180351288Y-107716206D01*
X180257888Y-107696353D01*
X180170944Y-107677872D01*
X180170939Y-107677872D01*
X180164487Y-107676500D01*
X179973513Y-107676500D01*
X179967061Y-107677872D01*
X179967056Y-107677872D01*
X179880112Y-107696353D01*
X179786712Y-107716206D01*
X179780682Y-107718891D01*
X179780681Y-107718891D01*
X179618278Y-107791197D01*
X179618276Y-107791198D01*
X179612248Y-107793882D01*
X179457747Y-107906134D01*
X179329960Y-108048056D01*
X179326659Y-108053774D01*
X179261792Y-108166127D01*
X179234473Y-108213444D01*
X179175458Y-108395072D01*
X179174768Y-108401633D01*
X179174768Y-108401635D01*
X179156186Y-108578435D01*
X179155496Y-108585000D01*
X179175458Y-108774928D01*
X179234473Y-108956556D01*
X179329960Y-109121944D01*
X179334378Y-109126851D01*
X179334379Y-109126852D01*
X179442860Y-109247332D01*
X179457747Y-109263866D01*
X179514681Y-109305231D01*
X179601075Y-109368000D01*
X179612248Y-109376118D01*
X179637305Y-109387274D01*
X179685748Y-109408842D01*
X179739844Y-109454822D01*
X179760499Y-109523949D01*
X179760499Y-109805606D01*
X179740497Y-109873727D01*
X179686841Y-109920220D01*
X179616567Y-109930324D01*
X179551987Y-109900830D01*
X179524571Y-109863841D01*
X179523527Y-109864444D01*
X179431341Y-109704774D01*
X179428040Y-109699056D01*
X179418490Y-109688449D01*
X179304675Y-109562045D01*
X179304674Y-109562044D01*
X179300253Y-109557134D01*
X179145752Y-109444882D01*
X179139724Y-109442198D01*
X179139722Y-109442197D01*
X178977319Y-109369891D01*
X178977318Y-109369891D01*
X178971288Y-109367206D01*
X178875535Y-109346853D01*
X178790944Y-109328872D01*
X178790939Y-109328872D01*
X178784487Y-109327500D01*
X178593513Y-109327500D01*
X178587061Y-109328872D01*
X178587056Y-109328872D01*
X178502465Y-109346853D01*
X178406712Y-109367206D01*
X178400682Y-109369891D01*
X178400681Y-109369891D01*
X178238278Y-109442197D01*
X178238276Y-109442198D01*
X178232248Y-109444882D01*
X178077747Y-109557134D01*
X178073326Y-109562044D01*
X178073325Y-109562045D01*
X177959511Y-109688449D01*
X177949960Y-109699056D01*
X177946659Y-109704774D01*
X177864808Y-109846544D01*
X177854473Y-109864444D01*
X177795458Y-110046072D01*
X177775496Y-110236000D01*
X177776186Y-110242565D01*
X177793320Y-110405583D01*
X177795458Y-110425928D01*
X177854473Y-110607556D01*
X177949960Y-110772944D01*
X178023137Y-110854215D01*
X178053853Y-110918221D01*
X178055500Y-110938524D01*
X178055500Y-112283783D01*
X178035498Y-112351904D01*
X177981842Y-112398397D01*
X177911568Y-112408501D01*
X177885271Y-112401765D01*
X177836609Y-112383522D01*
X177821351Y-112379895D01*
X177770486Y-112374369D01*
X177763672Y-112374000D01*
X177691115Y-112374000D01*
X177675876Y-112378475D01*
X177674671Y-112379865D01*
X177673000Y-112387548D01*
X177673000Y-114871884D01*
X177165000Y-114871884D01*
X177165000Y-112392116D01*
X177160525Y-112376877D01*
X177159135Y-112375672D01*
X177151452Y-112374001D01*
X177074331Y-112374001D01*
X177067510Y-112374371D01*
X177016648Y-112379895D01*
X177001396Y-112383521D01*
X176880946Y-112428676D01*
X176865352Y-112437214D01*
X176859981Y-112441239D01*
X176793474Y-112466086D01*
X176724092Y-112451032D01*
X176708853Y-112441239D01*
X176702891Y-112436770D01*
X176702888Y-112436768D01*
X176695705Y-112431385D01*
X176559316Y-112380255D01*
X176497134Y-112373500D01*
X175800866Y-112373500D01*
X175738684Y-112380255D01*
X175602295Y-112431385D01*
X175589565Y-112440926D01*
X175523061Y-112465774D01*
X175453678Y-112450722D01*
X175438441Y-112440930D01*
X175425705Y-112431385D01*
X175289316Y-112380255D01*
X175227134Y-112373500D01*
X174530866Y-112373500D01*
X174468684Y-112380255D01*
X174332295Y-112431385D01*
X174319565Y-112440926D01*
X174253061Y-112465774D01*
X174183678Y-112450722D01*
X174168441Y-112440930D01*
X174155705Y-112431385D01*
X174113284Y-112415482D01*
X174056520Y-112372840D01*
X174031820Y-112306279D01*
X174047027Y-112236930D01*
X174097313Y-112186812D01*
X174157514Y-112171500D01*
X174190266Y-112171500D01*
X174196782Y-112171163D01*
X174288021Y-112161696D01*
X174301417Y-112158803D01*
X174448687Y-112109670D01*
X174461866Y-112103496D01*
X174593514Y-112022030D01*
X174604915Y-112012994D01*
X174714298Y-111903420D01*
X174723310Y-111892009D01*
X174804553Y-111760209D01*
X174810697Y-111747032D01*
X174859579Y-111599657D01*
X174862445Y-111586290D01*
X174871672Y-111496230D01*
X174872000Y-111489815D01*
X174872000Y-111460615D01*
X174867525Y-111445376D01*
X174866135Y-111444171D01*
X174858452Y-111442500D01*
X173798500Y-111442500D01*
X173730379Y-111422498D01*
X173683886Y-111368842D01*
X173672500Y-111316500D01*
X173672500Y-110916385D01*
X174180500Y-110916385D01*
X174184975Y-110931624D01*
X174186365Y-110932829D01*
X174194048Y-110934500D01*
X174853885Y-110934500D01*
X174869124Y-110930025D01*
X174870329Y-110928635D01*
X174872000Y-110920952D01*
X174872000Y-110887234D01*
X174871663Y-110880718D01*
X174862196Y-110789479D01*
X174859303Y-110776083D01*
X174810170Y-110628813D01*
X174803996Y-110615634D01*
X174722530Y-110483986D01*
X174713494Y-110472585D01*
X174603920Y-110363202D01*
X174592509Y-110354190D01*
X174460709Y-110272947D01*
X174447532Y-110266803D01*
X174300157Y-110217921D01*
X174286790Y-110215055D01*
X174197300Y-110205886D01*
X174183376Y-110209975D01*
X174182171Y-110211365D01*
X174180500Y-110219048D01*
X174180500Y-110916385D01*
X173672500Y-110916385D01*
X173672500Y-110223615D01*
X173668025Y-110208376D01*
X173666635Y-110207171D01*
X173659679Y-110205658D01*
X173656218Y-110205837D01*
X173564979Y-110215304D01*
X173551583Y-110218197D01*
X173415562Y-110263577D01*
X173344612Y-110266161D01*
X173283528Y-110229977D01*
X173251704Y-110166513D01*
X173255853Y-110105117D01*
X173294002Y-109987706D01*
X173296042Y-109981428D01*
X173316004Y-109791500D01*
X173296042Y-109601572D01*
X173237027Y-109419944D01*
X173207037Y-109367999D01*
X173180552Y-109322127D01*
X173141540Y-109254556D01*
X173135036Y-109247332D01*
X173018175Y-109117545D01*
X173018174Y-109117544D01*
X173013753Y-109112634D01*
X172859252Y-109000382D01*
X172853224Y-108997698D01*
X172853222Y-108997697D01*
X172690819Y-108925391D01*
X172690818Y-108925391D01*
X172684788Y-108922706D01*
X172591387Y-108902853D01*
X172504444Y-108884372D01*
X172504439Y-108884372D01*
X172497987Y-108883000D01*
X172307013Y-108883000D01*
X172300561Y-108884372D01*
X172300556Y-108884372D01*
X172213613Y-108902853D01*
X172120212Y-108922706D01*
X172114182Y-108925391D01*
X172114181Y-108925391D01*
X171951778Y-108997697D01*
X171951776Y-108997698D01*
X171945748Y-109000382D01*
X171791247Y-109112634D01*
X171786826Y-109117544D01*
X171786825Y-109117545D01*
X171669965Y-109247332D01*
X171663460Y-109254556D01*
X171624448Y-109322127D01*
X171597964Y-109367999D01*
X171567973Y-109419944D01*
X171508958Y-109601572D01*
X171488996Y-109791500D01*
X171508958Y-109981428D01*
X171567973Y-110163056D01*
X171627872Y-110266803D01*
X171631438Y-110272980D01*
X171648176Y-110341975D01*
X171624956Y-110409067D01*
X171611492Y-110424998D01*
X171558136Y-110478447D01*
X171554296Y-110484677D01*
X171554295Y-110484678D01*
X171534980Y-110516014D01*
X171469151Y-110622808D01*
X171466846Y-110629756D01*
X171466846Y-110629757D01*
X171419353Y-110772944D01*
X171415762Y-110783769D01*
X171405500Y-110883928D01*
X171405500Y-111493072D01*
X171416022Y-111594482D01*
X171469692Y-111755349D01*
X171558929Y-111899555D01*
X171564107Y-111904724D01*
X171668518Y-112008953D01*
X171702597Y-112071235D01*
X171705500Y-112098126D01*
X171705500Y-112438587D01*
X171685498Y-112506708D01*
X171675898Y-112518620D01*
X171675739Y-112518739D01*
X171674905Y-112519852D01*
X171674900Y-112519858D01*
X171635943Y-112571838D01*
X171588385Y-112635295D01*
X171537255Y-112771684D01*
X171530500Y-112833866D01*
X171530500Y-114237909D01*
X171510498Y-114306030D01*
X171456842Y-114352523D01*
X171408460Y-114363847D01*
X171378992Y-114364774D01*
X171373757Y-114364938D01*
X171369802Y-114365000D01*
X171341871Y-114365000D01*
X171337956Y-114365495D01*
X171337952Y-114365495D01*
X171337894Y-114365503D01*
X171337865Y-114365506D01*
X171326023Y-114366439D01*
X171281837Y-114367827D01*
X171264471Y-114372872D01*
X171262385Y-114373478D01*
X171243033Y-114377486D01*
X171230795Y-114379032D01*
X171230793Y-114379033D01*
X171222930Y-114380026D01*
X171181813Y-114396306D01*
X171170612Y-114400141D01*
X171128133Y-114412482D01*
X171121314Y-114416515D01*
X171121309Y-114416517D01*
X171110698Y-114422793D01*
X171092948Y-114431490D01*
X171074110Y-114438948D01*
X171067694Y-114443609D01*
X171067693Y-114443610D01*
X171038352Y-114464928D01*
X171028428Y-114471447D01*
X170997187Y-114489922D01*
X170997182Y-114489926D01*
X170990364Y-114493958D01*
X170976040Y-114508282D01*
X170961008Y-114521121D01*
X170944620Y-114533028D01*
X170916439Y-114567093D01*
X170908449Y-114575873D01*
X169043267Y-116441055D01*
X168980955Y-116475081D01*
X168954172Y-116477960D01*
X168898280Y-116477960D01*
X168891828Y-116479332D01*
X168891823Y-116479332D01*
X168820828Y-116494423D01*
X168711479Y-116517666D01*
X168705449Y-116520351D01*
X168705448Y-116520351D01*
X168543045Y-116592657D01*
X168543043Y-116592658D01*
X168537015Y-116595342D01*
X168382514Y-116707594D01*
X168378093Y-116712504D01*
X168378092Y-116712505D01*
X168313268Y-116784500D01*
X168254727Y-116849516D01*
X168159240Y-117014904D01*
X168100225Y-117196532D01*
X168099535Y-117203093D01*
X168099535Y-117203095D01*
X168091257Y-117281855D01*
X168080263Y-117386460D01*
X168080953Y-117393025D01*
X168086449Y-117445312D01*
X168100225Y-117576388D01*
X168159240Y-117758016D01*
X168162543Y-117763738D01*
X168162544Y-117763739D01*
X168171872Y-117779895D01*
X168254727Y-117923404D01*
X168259145Y-117928311D01*
X168259146Y-117928312D01*
X168378092Y-118060415D01*
X168382514Y-118065326D01*
X168481610Y-118137324D01*
X168528903Y-118171684D01*
X168537015Y-118177578D01*
X168543043Y-118180262D01*
X168543045Y-118180263D01*
X168671115Y-118237283D01*
X168711479Y-118255254D01*
X168891198Y-118293455D01*
X168953670Y-118327182D01*
X168987992Y-118389332D01*
X168991000Y-118416701D01*
X168991000Y-120620000D01*
X168970998Y-120688121D01*
X168917342Y-120734614D01*
X168865000Y-120746000D01*
X168769928Y-120746000D01*
X168766682Y-120746337D01*
X168766678Y-120746337D01*
X168732897Y-120749842D01*
X168668518Y-120756522D01*
X168507651Y-120810192D01*
X168363445Y-120899429D01*
X168243636Y-121019447D01*
X168154651Y-121163808D01*
X168152346Y-121170756D01*
X168152346Y-121170757D01*
X168130126Y-121237749D01*
X168101262Y-121324769D01*
X168091000Y-121424928D01*
X168091000Y-122034072D01*
X168101522Y-122135482D01*
X168155192Y-122296349D01*
X168244429Y-122440555D01*
X168364447Y-122560364D01*
X168508808Y-122649349D01*
X168515756Y-122651654D01*
X168515757Y-122651654D01*
X168663238Y-122700572D01*
X168663240Y-122700572D01*
X168669769Y-122702738D01*
X168769928Y-122713000D01*
X168864999Y-122713000D01*
X168933120Y-122733002D01*
X168979613Y-122786658D01*
X168990999Y-122839000D01*
X168990999Y-124657563D01*
X168989921Y-124674006D01*
X168985749Y-124705699D01*
X168990999Y-124745579D01*
X168990999Y-124745584D01*
X168995940Y-124783114D01*
X169006661Y-124864550D01*
X169067975Y-125012575D01*
X169073002Y-125019126D01*
X169073003Y-125019128D01*
X169141019Y-125107768D01*
X169141025Y-125107774D01*
X169165512Y-125139686D01*
X169172067Y-125144716D01*
X169190878Y-125159151D01*
X169203269Y-125170018D01*
X171087594Y-127054343D01*
X171121620Y-127116655D01*
X171124499Y-127143438D01*
X171124499Y-127585051D01*
X171104497Y-127653172D01*
X171049748Y-127700158D01*
X170976248Y-127732882D01*
X170821747Y-127845134D01*
X170817326Y-127850044D01*
X170817325Y-127850045D01*
X170740459Y-127935414D01*
X170693960Y-127987056D01*
X170598473Y-128152444D01*
X170539458Y-128334072D01*
X170538768Y-128340633D01*
X170538768Y-128340635D01*
X170531885Y-128406122D01*
X170519496Y-128524000D01*
X170520186Y-128530565D01*
X170531421Y-128637464D01*
X170518649Y-128707302D01*
X170480172Y-128752570D01*
X170330747Y-128861134D01*
X170326326Y-128866044D01*
X170326325Y-128866045D01*
X170262541Y-128936885D01*
X170202960Y-129003056D01*
X170107473Y-129168444D01*
X170048458Y-129350072D01*
X170047768Y-129356633D01*
X170047768Y-129356635D01*
X170038930Y-129440729D01*
X170028496Y-129540000D01*
X170029186Y-129546565D01*
X170038918Y-129639156D01*
X170048458Y-129729928D01*
X170050498Y-129736206D01*
X170090116Y-129858137D01*
X170092144Y-129929104D01*
X170055481Y-129989902D01*
X169991769Y-130021228D01*
X169921235Y-130013135D01*
X169881188Y-129986168D01*
X169868381Y-129973361D01*
X169721699Y-129884528D01*
X169714452Y-129882257D01*
X169714450Y-129882256D01*
X169637486Y-129858137D01*
X169558062Y-129833247D01*
X169484635Y-129826500D01*
X169481737Y-129826500D01*
X169227335Y-129826501D01*
X168971366Y-129826501D01*
X168968508Y-129826764D01*
X168968499Y-129826764D01*
X168932996Y-129830026D01*
X168897938Y-129833247D01*
X168891560Y-129835246D01*
X168891559Y-129835246D01*
X168741550Y-129882256D01*
X168741548Y-129882257D01*
X168734301Y-129884528D01*
X168587619Y-129973361D01*
X168537673Y-130023307D01*
X168475361Y-130057333D01*
X168404546Y-130052268D01*
X168374518Y-130036149D01*
X168356842Y-130023307D01*
X168350752Y-130018882D01*
X168344724Y-130016198D01*
X168344722Y-130016197D01*
X168182319Y-129943891D01*
X168182318Y-129943891D01*
X168176288Y-129941206D01*
X168063721Y-129917279D01*
X167995944Y-129902872D01*
X167995939Y-129902872D01*
X167989487Y-129901500D01*
X167798513Y-129901500D01*
X167792061Y-129902872D01*
X167792056Y-129902872D01*
X167724279Y-129917279D01*
X167611712Y-129941206D01*
X167605682Y-129943891D01*
X167605681Y-129943891D01*
X167443278Y-130016197D01*
X167443276Y-130016198D01*
X167437248Y-130018882D01*
X167431907Y-130022762D01*
X167431906Y-130022763D01*
X167421424Y-130030379D01*
X167282747Y-130131134D01*
X167154960Y-130273056D01*
X167059473Y-130438444D01*
X167000458Y-130620072D01*
X166980496Y-130810000D01*
X167000458Y-130999928D01*
X167059473Y-131181556D01*
X167062776Y-131187278D01*
X167062777Y-131187279D01*
X167096686Y-131246010D01*
X167154960Y-131346944D01*
X167282747Y-131488866D01*
X167340405Y-131530757D01*
X167431158Y-131596693D01*
X167437248Y-131601118D01*
X167443274Y-131603801D01*
X167443281Y-131603805D01*
X167525461Y-131640393D01*
X167579557Y-131686373D01*
X167600207Y-131754300D01*
X167580855Y-131822608D01*
X167527644Y-131869610D01*
X167474213Y-131881500D01*
X165774635Y-131881500D01*
X165706514Y-131861498D01*
X165660021Y-131807842D01*
X165649917Y-131737568D01*
X165665515Y-131692503D01*
X165697527Y-131637056D01*
X165756542Y-131455428D01*
X165764607Y-131378699D01*
X165775814Y-131272065D01*
X165776504Y-131265500D01*
X165763789Y-131144526D01*
X165757232Y-131082135D01*
X165757232Y-131082133D01*
X165756542Y-131075572D01*
X165697527Y-130893944D01*
X165602040Y-130728556D01*
X165474253Y-130586634D01*
X165329204Y-130481249D01*
X165325094Y-130478263D01*
X165325093Y-130478262D01*
X165319752Y-130474382D01*
X165246252Y-130441658D01*
X165192156Y-130395678D01*
X165171501Y-130326551D01*
X165171501Y-125049937D01*
X165172579Y-125033491D01*
X165175673Y-125009989D01*
X165176751Y-125001801D01*
X165171501Y-124961923D01*
X165171501Y-124961916D01*
X165155839Y-124842951D01*
X165115508Y-124745584D01*
X165094525Y-124694925D01*
X165078476Y-124674009D01*
X165021484Y-124599737D01*
X165021478Y-124599729D01*
X165021475Y-124599726D01*
X164996988Y-124567814D01*
X164990433Y-124562784D01*
X164971622Y-124548349D01*
X164959231Y-124537482D01*
X162858905Y-122437156D01*
X162824879Y-122374844D01*
X162822000Y-122348061D01*
X162822000Y-109949240D01*
X162842002Y-109881119D01*
X162858905Y-109860145D01*
X163019734Y-109699316D01*
X163032125Y-109688449D01*
X163050937Y-109674014D01*
X163057487Y-109668988D01*
X163081974Y-109637076D01*
X163081978Y-109637072D01*
X163155024Y-109541877D01*
X163216338Y-109393852D01*
X163219164Y-109395023D01*
X163248542Y-109346853D01*
X163312411Y-109315848D01*
X163377502Y-109322127D01*
X163475782Y-109358971D01*
X163475788Y-109358973D01*
X163483184Y-109361745D01*
X163545366Y-109368500D01*
X164241634Y-109368500D01*
X164303816Y-109361745D01*
X164440205Y-109310615D01*
X164452935Y-109301074D01*
X164519439Y-109276226D01*
X164588822Y-109291278D01*
X164604059Y-109301070D01*
X164616795Y-109310615D01*
X164753184Y-109361745D01*
X164815366Y-109368500D01*
X165511634Y-109368500D01*
X165573816Y-109361745D01*
X165710205Y-109310615D01*
X165722935Y-109301074D01*
X165789439Y-109276226D01*
X165858822Y-109291278D01*
X165874059Y-109301070D01*
X165886795Y-109310615D01*
X166023184Y-109361745D01*
X166085366Y-109368500D01*
X166781634Y-109368500D01*
X166843816Y-109361745D01*
X166980205Y-109310615D01*
X166992935Y-109301074D01*
X167059439Y-109276226D01*
X167128822Y-109291278D01*
X167144059Y-109301070D01*
X167156795Y-109310615D01*
X167293184Y-109361745D01*
X167355366Y-109368500D01*
X168051634Y-109368500D01*
X168113816Y-109361745D01*
X168250205Y-109310615D01*
X168257389Y-109305231D01*
X168257391Y-109305230D01*
X168263353Y-109300761D01*
X168329859Y-109275914D01*
X168399242Y-109290967D01*
X168414481Y-109300761D01*
X168419852Y-109304786D01*
X168435446Y-109313324D01*
X168555894Y-109358478D01*
X168571149Y-109362105D01*
X168622014Y-109367631D01*
X168628828Y-109368000D01*
X168701385Y-109368000D01*
X168716624Y-109363525D01*
X168717829Y-109362135D01*
X168719500Y-109354452D01*
X168719500Y-109349884D01*
X169227500Y-109349884D01*
X169231975Y-109365123D01*
X169233365Y-109366328D01*
X169241048Y-109367999D01*
X169318169Y-109367999D01*
X169324990Y-109367629D01*
X169375852Y-109362105D01*
X169391104Y-109358479D01*
X169511554Y-109313324D01*
X169527149Y-109304786D01*
X169629224Y-109228285D01*
X169641785Y-109215724D01*
X169718286Y-109113649D01*
X169726824Y-109098054D01*
X169771978Y-108977606D01*
X169775605Y-108962351D01*
X169781131Y-108911486D01*
X169781500Y-108904672D01*
X169781500Y-108382115D01*
X169777025Y-108366876D01*
X169775635Y-108365671D01*
X169767952Y-108364000D01*
X169245615Y-108364000D01*
X169230376Y-108368475D01*
X169229171Y-108369865D01*
X169227500Y-108377548D01*
X169227500Y-109349884D01*
X168719500Y-109349884D01*
X168719500Y-107837885D01*
X169227500Y-107837885D01*
X169231975Y-107853124D01*
X169233365Y-107854329D01*
X169241048Y-107856000D01*
X169763384Y-107856000D01*
X169778623Y-107851525D01*
X169779828Y-107850135D01*
X169781499Y-107842452D01*
X169781499Y-107315331D01*
X169781129Y-107308510D01*
X169775605Y-107257648D01*
X169771979Y-107242396D01*
X169726824Y-107121946D01*
X169718286Y-107106351D01*
X169641785Y-107004276D01*
X169629224Y-106991715D01*
X169527149Y-106915214D01*
X169511554Y-106906676D01*
X169391106Y-106861522D01*
X169375851Y-106857895D01*
X169324986Y-106852369D01*
X169318172Y-106852000D01*
X169245615Y-106852000D01*
X169230376Y-106856475D01*
X169229171Y-106857865D01*
X169227500Y-106865548D01*
X169227500Y-107837885D01*
X168719500Y-107837885D01*
X168719500Y-106870116D01*
X168715025Y-106854877D01*
X168713635Y-106853672D01*
X168705952Y-106852001D01*
X168628831Y-106852001D01*
X168622010Y-106852371D01*
X168571148Y-106857895D01*
X168555896Y-106861521D01*
X168435446Y-106906676D01*
X168419852Y-106915214D01*
X168414481Y-106919239D01*
X168347974Y-106944086D01*
X168278592Y-106929032D01*
X168263353Y-106919239D01*
X168257391Y-106914770D01*
X168257388Y-106914768D01*
X168250205Y-106909385D01*
X168113816Y-106858255D01*
X168051634Y-106851500D01*
X167355366Y-106851500D01*
X167293184Y-106858255D01*
X167156795Y-106909385D01*
X167144065Y-106918926D01*
X167077561Y-106943774D01*
X167008178Y-106928722D01*
X166992941Y-106918930D01*
X166980205Y-106909385D01*
X166843816Y-106858255D01*
X166781634Y-106851500D01*
X166085366Y-106851500D01*
X166023184Y-106858255D01*
X165886795Y-106909385D01*
X165874065Y-106918926D01*
X165807561Y-106943774D01*
X165738178Y-106928722D01*
X165722941Y-106918930D01*
X165710205Y-106909385D01*
X165573816Y-106858255D01*
X165511634Y-106851500D01*
X164815366Y-106851500D01*
X164753184Y-106858255D01*
X164621967Y-106907446D01*
X164551161Y-106912629D01*
X164488792Y-106878708D01*
X164469407Y-106853811D01*
X164469325Y-106853672D01*
X164460512Y-106835724D01*
X164453052Y-106816883D01*
X164427064Y-106781113D01*
X164420548Y-106771193D01*
X164402080Y-106739965D01*
X164402078Y-106739962D01*
X164398042Y-106733138D01*
X164383721Y-106718817D01*
X164370880Y-106703783D01*
X164363631Y-106693806D01*
X164358972Y-106687393D01*
X164324895Y-106659202D01*
X164316116Y-106651212D01*
X162619152Y-104954247D01*
X162611612Y-104945961D01*
X162607500Y-104939482D01*
X162557848Y-104892856D01*
X162555007Y-104890102D01*
X162535270Y-104870365D01*
X162532073Y-104867885D01*
X162523051Y-104860180D01*
X162496600Y-104835341D01*
X162490821Y-104829914D01*
X162483875Y-104826095D01*
X162483872Y-104826093D01*
X162473066Y-104820152D01*
X162456547Y-104809301D01*
X162450218Y-104804392D01*
X162440541Y-104796886D01*
X162433272Y-104793741D01*
X162433268Y-104793738D01*
X162399963Y-104779326D01*
X162389313Y-104774109D01*
X162350560Y-104752805D01*
X162330937Y-104747767D01*
X162312234Y-104741363D01*
X162300920Y-104736467D01*
X162300919Y-104736467D01*
X162293645Y-104733319D01*
X162285822Y-104732080D01*
X162285812Y-104732077D01*
X162249976Y-104726401D01*
X162238356Y-104723995D01*
X162203211Y-104714972D01*
X162203210Y-104714972D01*
X162195530Y-104713000D01*
X162175276Y-104713000D01*
X162155565Y-104711449D01*
X162143386Y-104709520D01*
X162135557Y-104708280D01*
X162127665Y-104709026D01*
X162091539Y-104712441D01*
X162079681Y-104713000D01*
X161858595Y-104713000D01*
X161790474Y-104692998D01*
X161769499Y-104676095D01*
X161593404Y-104500000D01*
X173136439Y-104500000D01*
X173136709Y-104504119D01*
X173156217Y-104801742D01*
X173156660Y-104808507D01*
X173157464Y-104812547D01*
X173157464Y-104812550D01*
X173166938Y-104860180D01*
X173216975Y-105111735D01*
X173218300Y-105115639D01*
X173218301Y-105115642D01*
X173235034Y-105164936D01*
X173316354Y-105404496D01*
X173318177Y-105408192D01*
X173318180Y-105408200D01*
X173428721Y-105632352D01*
X173453096Y-105681780D01*
X173455390Y-105685213D01*
X173455391Y-105685215D01*
X173611532Y-105918896D01*
X173624861Y-105938845D01*
X173627575Y-105941939D01*
X173627579Y-105941945D01*
X173775679Y-106110820D01*
X173828710Y-106171290D01*
X173831799Y-106173999D01*
X174058055Y-106372421D01*
X174058061Y-106372425D01*
X174061155Y-106375139D01*
X174064581Y-106377428D01*
X174064586Y-106377432D01*
X174258318Y-106506879D01*
X174318219Y-106546904D01*
X174321918Y-106548728D01*
X174321923Y-106548731D01*
X174464435Y-106619010D01*
X174595504Y-106683646D01*
X174599409Y-106684971D01*
X174599410Y-106684972D01*
X174884358Y-106781699D01*
X174884361Y-106781700D01*
X174888265Y-106783025D01*
X175095540Y-106824254D01*
X175187450Y-106842536D01*
X175187453Y-106842536D01*
X175191493Y-106843340D01*
X175195604Y-106843609D01*
X175195608Y-106843610D01*
X175495881Y-106863291D01*
X175500000Y-106863561D01*
X175504119Y-106863291D01*
X175804392Y-106843610D01*
X175804396Y-106843609D01*
X175808507Y-106843340D01*
X175812547Y-106842536D01*
X175812550Y-106842536D01*
X175904460Y-106824254D01*
X176111735Y-106783025D01*
X176115639Y-106781700D01*
X176115642Y-106781699D01*
X176400590Y-106684972D01*
X176400591Y-106684971D01*
X176404496Y-106683646D01*
X176535565Y-106619010D01*
X176678077Y-106548731D01*
X176678082Y-106548728D01*
X176681781Y-106546904D01*
X176741682Y-106506879D01*
X176935414Y-106377432D01*
X176935419Y-106377428D01*
X176938845Y-106375139D01*
X176941939Y-106372425D01*
X176941945Y-106372421D01*
X177168201Y-106173999D01*
X177171290Y-106171290D01*
X177224321Y-106110820D01*
X177372421Y-105941945D01*
X177372425Y-105941939D01*
X177375139Y-105938845D01*
X177388469Y-105918896D01*
X177544609Y-105685215D01*
X177544610Y-105685213D01*
X177546904Y-105681780D01*
X177571279Y-105632352D01*
X177681820Y-105408200D01*
X177681823Y-105408192D01*
X177683646Y-105404496D01*
X177764966Y-105164936D01*
X177781699Y-105115642D01*
X177781700Y-105115639D01*
X177783025Y-105111735D01*
X177833062Y-104860180D01*
X177842536Y-104812550D01*
X177842536Y-104812547D01*
X177843340Y-104808507D01*
X177843784Y-104801742D01*
X177863291Y-104504119D01*
X177863561Y-104500000D01*
X177853814Y-104351298D01*
X177843610Y-104195608D01*
X177843609Y-104195604D01*
X177843340Y-104191493D01*
X177842297Y-104186246D01*
X177815627Y-104052170D01*
X177783025Y-103888265D01*
X177779076Y-103876630D01*
X177684975Y-103599419D01*
X177683646Y-103595504D01*
X177681823Y-103591808D01*
X177681820Y-103591800D01*
X177548730Y-103321923D01*
X177546904Y-103318220D01*
X177375139Y-103061155D01*
X177372425Y-103058061D01*
X177372421Y-103058055D01*
X177173999Y-102831799D01*
X177171290Y-102828710D01*
X177163115Y-102821541D01*
X176941945Y-102627579D01*
X176941939Y-102627575D01*
X176938845Y-102624861D01*
X176935419Y-102622572D01*
X176935414Y-102622568D01*
X176741682Y-102493121D01*
X176681781Y-102453096D01*
X176678082Y-102451272D01*
X176678077Y-102451269D01*
X176535565Y-102380990D01*
X176404496Y-102316354D01*
X176348412Y-102297316D01*
X176115642Y-102218301D01*
X176115639Y-102218300D01*
X176111735Y-102216975D01*
X175885039Y-102171883D01*
X175812550Y-102157464D01*
X175812547Y-102157464D01*
X175808507Y-102156660D01*
X175804396Y-102156391D01*
X175804392Y-102156390D01*
X175504119Y-102136709D01*
X175500000Y-102136439D01*
X175495881Y-102136709D01*
X175195608Y-102156390D01*
X175195604Y-102156391D01*
X175191493Y-102156660D01*
X175187453Y-102157464D01*
X175187450Y-102157464D01*
X175114961Y-102171883D01*
X174888265Y-102216975D01*
X174884361Y-102218300D01*
X174884358Y-102218301D01*
X174651588Y-102297316D01*
X174595504Y-102316354D01*
X174591808Y-102318177D01*
X174591800Y-102318180D01*
X174367648Y-102428721D01*
X174318220Y-102453096D01*
X174314787Y-102455390D01*
X174314785Y-102455391D01*
X174064586Y-102622568D01*
X174064581Y-102622572D01*
X174061155Y-102624861D01*
X174058061Y-102627575D01*
X174058055Y-102627579D01*
X173836885Y-102821541D01*
X173828710Y-102828710D01*
X173826001Y-102831799D01*
X173627579Y-103058055D01*
X173627575Y-103058061D01*
X173624861Y-103061155D01*
X173453096Y-103318220D01*
X173451270Y-103321923D01*
X173318180Y-103591800D01*
X173318177Y-103591808D01*
X173316354Y-103595504D01*
X173315025Y-103599419D01*
X173220925Y-103876630D01*
X173216975Y-103888265D01*
X173184373Y-104052170D01*
X173157704Y-104186246D01*
X173156660Y-104191493D01*
X173156391Y-104195604D01*
X173156390Y-104195608D01*
X173146186Y-104351298D01*
X173136439Y-104500000D01*
X161593404Y-104500000D01*
X161277000Y-104183595D01*
X161242975Y-104121283D01*
X161248040Y-104050467D01*
X161290587Y-103993632D01*
X161357107Y-103968821D01*
X161366096Y-103968500D01*
X161701634Y-103968500D01*
X161763816Y-103961745D01*
X161900205Y-103910615D01*
X161912935Y-103901074D01*
X161979439Y-103876226D01*
X162048822Y-103891278D01*
X162064059Y-103901070D01*
X162076795Y-103910615D01*
X162213184Y-103961745D01*
X162275366Y-103968500D01*
X162971634Y-103968500D01*
X163033816Y-103961745D01*
X163170205Y-103910615D01*
X163182935Y-103901074D01*
X163249439Y-103876226D01*
X163318822Y-103891278D01*
X163334059Y-103901070D01*
X163346795Y-103910615D01*
X163483184Y-103961745D01*
X163545366Y-103968500D01*
X164241634Y-103968500D01*
X164303816Y-103961745D01*
X164440205Y-103910615D01*
X164447389Y-103905231D01*
X164447391Y-103905230D01*
X164453353Y-103900761D01*
X164519859Y-103875914D01*
X164589242Y-103890967D01*
X164604481Y-103900761D01*
X164609852Y-103904786D01*
X164625446Y-103913324D01*
X164745894Y-103958478D01*
X164761149Y-103962105D01*
X164812014Y-103967631D01*
X164818828Y-103968000D01*
X164891385Y-103968000D01*
X164906624Y-103963525D01*
X164907829Y-103962135D01*
X164909500Y-103954452D01*
X164909500Y-103949884D01*
X165417500Y-103949884D01*
X165421975Y-103965123D01*
X165423365Y-103966328D01*
X165431048Y-103967999D01*
X165508169Y-103967999D01*
X165514990Y-103967629D01*
X165565852Y-103962105D01*
X165581104Y-103958479D01*
X165701554Y-103913324D01*
X165717148Y-103904786D01*
X165722519Y-103900761D01*
X165789026Y-103875914D01*
X165858408Y-103890968D01*
X165873647Y-103900761D01*
X165879609Y-103905230D01*
X165879611Y-103905231D01*
X165886795Y-103910615D01*
X166023184Y-103961745D01*
X166085366Y-103968500D01*
X166781634Y-103968500D01*
X166843816Y-103961745D01*
X166980205Y-103910615D01*
X166992935Y-103901074D01*
X167059439Y-103876226D01*
X167128822Y-103891278D01*
X167144059Y-103901070D01*
X167156795Y-103910615D01*
X167293184Y-103961745D01*
X167355366Y-103968500D01*
X168051634Y-103968500D01*
X168113816Y-103961745D01*
X168250205Y-103910615D01*
X168262935Y-103901074D01*
X168329439Y-103876226D01*
X168398822Y-103891278D01*
X168414059Y-103901070D01*
X168426795Y-103910615D01*
X168563184Y-103961745D01*
X168625366Y-103968500D01*
X169321634Y-103968500D01*
X169383816Y-103961745D01*
X169520205Y-103910615D01*
X169636761Y-103823261D01*
X169724115Y-103706705D01*
X169775245Y-103570316D01*
X169782000Y-103508134D01*
X169782000Y-101911866D01*
X169775245Y-101849684D01*
X169724115Y-101713295D01*
X169636761Y-101596739D01*
X169520205Y-101509385D01*
X169383816Y-101458255D01*
X169321634Y-101451500D01*
X168625366Y-101451500D01*
X168563184Y-101458255D01*
X168426795Y-101509385D01*
X168414065Y-101518926D01*
X168347561Y-101543774D01*
X168278178Y-101528722D01*
X168262941Y-101518930D01*
X168250205Y-101509385D01*
X168113816Y-101458255D01*
X168051634Y-101451500D01*
X167355366Y-101451500D01*
X167293184Y-101458255D01*
X167156795Y-101509385D01*
X167144065Y-101518926D01*
X167077561Y-101543774D01*
X167008178Y-101528722D01*
X166992941Y-101518930D01*
X166980205Y-101509385D01*
X166843816Y-101458255D01*
X166781634Y-101451500D01*
X166085366Y-101451500D01*
X166023184Y-101458255D01*
X165886795Y-101509385D01*
X165879612Y-101514768D01*
X165879609Y-101514770D01*
X165873647Y-101519239D01*
X165807141Y-101544086D01*
X165737758Y-101529033D01*
X165722519Y-101519239D01*
X165717148Y-101515214D01*
X165701554Y-101506676D01*
X165581106Y-101461522D01*
X165565851Y-101457895D01*
X165514986Y-101452369D01*
X165508172Y-101452000D01*
X165435615Y-101452000D01*
X165420376Y-101456475D01*
X165419171Y-101457865D01*
X165417500Y-101465548D01*
X165417500Y-103949884D01*
X164909500Y-103949884D01*
X164909500Y-101470116D01*
X164905025Y-101454877D01*
X164903635Y-101453672D01*
X164895952Y-101452001D01*
X164818831Y-101452001D01*
X164812010Y-101452371D01*
X164761148Y-101457895D01*
X164745896Y-101461521D01*
X164625446Y-101506676D01*
X164609852Y-101515214D01*
X164604481Y-101519239D01*
X164537974Y-101544086D01*
X164468592Y-101529032D01*
X164453353Y-101519239D01*
X164447391Y-101514770D01*
X164447388Y-101514768D01*
X164440205Y-101509385D01*
X164303816Y-101458255D01*
X164241634Y-101451500D01*
X163545366Y-101451500D01*
X163483184Y-101458255D01*
X163346795Y-101509385D01*
X163334065Y-101518926D01*
X163267561Y-101543774D01*
X163198178Y-101528722D01*
X163182941Y-101518930D01*
X163170205Y-101509385D01*
X163033816Y-101458255D01*
X162971634Y-101451500D01*
X162275366Y-101451500D01*
X162213184Y-101458255D01*
X162076795Y-101509385D01*
X162064065Y-101518926D01*
X161997561Y-101543774D01*
X161928178Y-101528722D01*
X161912941Y-101518930D01*
X161900205Y-101509385D01*
X161763816Y-101458255D01*
X161701634Y-101451500D01*
X161005366Y-101451500D01*
X160943184Y-101458255D01*
X160935788Y-101461027D01*
X160935782Y-101461029D01*
X160887229Y-101479231D01*
X160816422Y-101484414D01*
X160754053Y-101450493D01*
X160719924Y-101388237D01*
X160717000Y-101361249D01*
X160717000Y-100880554D01*
X160737002Y-100812433D01*
X160764234Y-100782364D01*
X160769555Y-100779071D01*
X160794741Y-100753841D01*
X160857023Y-100719762D01*
X160927843Y-100724765D01*
X160972932Y-100753686D01*
X160993580Y-100774298D01*
X161004991Y-100783310D01*
X161136791Y-100864553D01*
X161149968Y-100870697D01*
X161297343Y-100919579D01*
X161310710Y-100922445D01*
X161400200Y-100931614D01*
X161414124Y-100927525D01*
X161415329Y-100926135D01*
X161417000Y-100918452D01*
X161417000Y-100913885D01*
X161925000Y-100913885D01*
X161929475Y-100929124D01*
X161930865Y-100930329D01*
X161937821Y-100931842D01*
X161941282Y-100931663D01*
X162032521Y-100922196D01*
X162045917Y-100919303D01*
X162193187Y-100870170D01*
X162206366Y-100863996D01*
X162338014Y-100782530D01*
X162349415Y-100773494D01*
X162458798Y-100663920D01*
X162467810Y-100652509D01*
X162549053Y-100520709D01*
X162555197Y-100507532D01*
X162604079Y-100360157D01*
X162606945Y-100346790D01*
X162616172Y-100256730D01*
X162616500Y-100250315D01*
X162616500Y-100221115D01*
X162612025Y-100205876D01*
X162610635Y-100204671D01*
X162602952Y-100203000D01*
X161943115Y-100203000D01*
X161927876Y-100207475D01*
X161926671Y-100208865D01*
X161925000Y-100216548D01*
X161925000Y-100913885D01*
X161417000Y-100913885D01*
X161417000Y-99676885D01*
X161925000Y-99676885D01*
X161929475Y-99692124D01*
X161930865Y-99693329D01*
X161938548Y-99695000D01*
X162598385Y-99695000D01*
X162613624Y-99690525D01*
X162614829Y-99689135D01*
X162616500Y-99681452D01*
X162616500Y-99647734D01*
X162616163Y-99641218D01*
X162606696Y-99549979D01*
X162603803Y-99536583D01*
X162554670Y-99389313D01*
X162548496Y-99376134D01*
X162467030Y-99244486D01*
X162457994Y-99233085D01*
X162348420Y-99123702D01*
X162337009Y-99114690D01*
X162205209Y-99033447D01*
X162192032Y-99027303D01*
X162044657Y-98978421D01*
X162031290Y-98975555D01*
X161941800Y-98966386D01*
X161927876Y-98970475D01*
X161926671Y-98971865D01*
X161925000Y-98979548D01*
X161925000Y-99676885D01*
X161417000Y-99676885D01*
X161417000Y-98984115D01*
X161412525Y-98968876D01*
X161411135Y-98967671D01*
X161404179Y-98966158D01*
X161400718Y-98966337D01*
X161309479Y-98975804D01*
X161296083Y-98978697D01*
X161148813Y-99027830D01*
X161135634Y-99034004D01*
X161003986Y-99115470D01*
X160992585Y-99124506D01*
X160972967Y-99144158D01*
X160910684Y-99178237D01*
X160839864Y-99173234D01*
X160794777Y-99144314D01*
X160768554Y-99118137D01*
X160770382Y-99116305D01*
X160736340Y-99068277D01*
X160729500Y-99027327D01*
X160729500Y-98936885D01*
X160746381Y-98873885D01*
X160787723Y-98802279D01*
X160787724Y-98802278D01*
X160791027Y-98796556D01*
X160850042Y-98614928D01*
X160870004Y-98425000D01*
X160850042Y-98235072D01*
X160791027Y-98053444D01*
X160695540Y-97888056D01*
X160567753Y-97746134D01*
X160413252Y-97633882D01*
X160407224Y-97631198D01*
X160407222Y-97631197D01*
X160244819Y-97558891D01*
X160244818Y-97558891D01*
X160238788Y-97556206D01*
X160145388Y-97536353D01*
X160058444Y-97517872D01*
X160058439Y-97517872D01*
X160051987Y-97516500D01*
X159861013Y-97516500D01*
X159854561Y-97517872D01*
X159854556Y-97517872D01*
X159767612Y-97536353D01*
X159674212Y-97556206D01*
X159668182Y-97558891D01*
X159668181Y-97558891D01*
X159505778Y-97631197D01*
X159505776Y-97631198D01*
X159499748Y-97633882D01*
X159345247Y-97746134D01*
X159217460Y-97888056D01*
X159121973Y-98053444D01*
X159062958Y-98235072D01*
X159042996Y-98425000D01*
X159062958Y-98614928D01*
X159121973Y-98796556D01*
X159217460Y-98961944D01*
X159221878Y-98966851D01*
X159221879Y-98966852D01*
X159309050Y-99063665D01*
X159339767Y-99127672D01*
X159331003Y-99198126D01*
X159311263Y-99227167D01*
X159312345Y-99228021D01*
X159307807Y-99233767D01*
X159302636Y-99238947D01*
X159213651Y-99383308D01*
X159160262Y-99544269D01*
X159150000Y-99644428D01*
X159150000Y-100253572D01*
X159160522Y-100354982D01*
X159214192Y-100515849D01*
X159303429Y-100660055D01*
X159308607Y-100665224D01*
X159413018Y-100769453D01*
X159447097Y-100831735D01*
X159450000Y-100858626D01*
X159450000Y-101516587D01*
X159429998Y-101584708D01*
X159420398Y-101596620D01*
X159420239Y-101596739D01*
X159332885Y-101713295D01*
X159281755Y-101849684D01*
X159275000Y-101911866D01*
X159275000Y-103508134D01*
X159281755Y-103570316D01*
X159332885Y-103706705D01*
X159338271Y-103713891D01*
X159420239Y-103823261D01*
X159418635Y-103824463D01*
X159447121Y-103876630D01*
X159450000Y-103903413D01*
X159450000Y-103925856D01*
X159450497Y-103929790D01*
X159450497Y-103929791D01*
X159450505Y-103929856D01*
X159451438Y-103941693D01*
X159452827Y-103985889D01*
X159455077Y-103993632D01*
X159458478Y-104005339D01*
X159462487Y-104024700D01*
X159465026Y-104044797D01*
X159467945Y-104052168D01*
X159467945Y-104052170D01*
X159481304Y-104085912D01*
X159485149Y-104097142D01*
X159495271Y-104131983D01*
X159497482Y-104139593D01*
X159501515Y-104146412D01*
X159501517Y-104146417D01*
X159507793Y-104157028D01*
X159516488Y-104174776D01*
X159523948Y-104193617D01*
X159528610Y-104200033D01*
X159528610Y-104200034D01*
X159549936Y-104229387D01*
X159556452Y-104239307D01*
X159562075Y-104248814D01*
X159578958Y-104277362D01*
X159593279Y-104291683D01*
X159606119Y-104306716D01*
X159618028Y-104323107D01*
X159652105Y-104351298D01*
X159660884Y-104359288D01*
X161040348Y-105738753D01*
X161047888Y-105747039D01*
X161052000Y-105753518D01*
X161057777Y-105758943D01*
X161101651Y-105800143D01*
X161104493Y-105802898D01*
X161124230Y-105822635D01*
X161127427Y-105825115D01*
X161136447Y-105832818D01*
X161168679Y-105863086D01*
X161175625Y-105866905D01*
X161175628Y-105866907D01*
X161186434Y-105872848D01*
X161202953Y-105883699D01*
X161218959Y-105896114D01*
X161226228Y-105899259D01*
X161226232Y-105899262D01*
X161259537Y-105913674D01*
X161270187Y-105918891D01*
X161308940Y-105940195D01*
X161316615Y-105942166D01*
X161316616Y-105942166D01*
X161328562Y-105945233D01*
X161347267Y-105951637D01*
X161365855Y-105959681D01*
X161373678Y-105960920D01*
X161373688Y-105960923D01*
X161409524Y-105966599D01*
X161421144Y-105969005D01*
X161456289Y-105978028D01*
X161463970Y-105980000D01*
X161484224Y-105980000D01*
X161503934Y-105981551D01*
X161523943Y-105984720D01*
X161531835Y-105983974D01*
X161567961Y-105980559D01*
X161579819Y-105980000D01*
X161800906Y-105980000D01*
X161869027Y-106000002D01*
X161890001Y-106016905D01*
X162509501Y-106636405D01*
X162543527Y-106698717D01*
X162538462Y-106769532D01*
X162495915Y-106826368D01*
X162429395Y-106851179D01*
X162420406Y-106851500D01*
X162275366Y-106851500D01*
X162213184Y-106858255D01*
X162076795Y-106909385D01*
X162064065Y-106918926D01*
X161997561Y-106943774D01*
X161928178Y-106928722D01*
X161912941Y-106918930D01*
X161900205Y-106909385D01*
X161763816Y-106858255D01*
X161701634Y-106851500D01*
X161005366Y-106851500D01*
X160943184Y-106858255D01*
X160806795Y-106909385D01*
X160794065Y-106918926D01*
X160727561Y-106943774D01*
X160658178Y-106928722D01*
X160642941Y-106918930D01*
X160630205Y-106909385D01*
X160493816Y-106858255D01*
X160431634Y-106851500D01*
X159735366Y-106851500D01*
X159673184Y-106858255D01*
X159536795Y-106909385D01*
X159420239Y-106996739D01*
X159332885Y-107113295D01*
X159281755Y-107249684D01*
X159275000Y-107311866D01*
X159275000Y-108908134D01*
X159281755Y-108970316D01*
X159332885Y-109106705D01*
X159388436Y-109180826D01*
X159413284Y-109247332D01*
X159398231Y-109316715D01*
X159381246Y-109340701D01*
X159365240Y-109358478D01*
X159344460Y-109381556D01*
X159325601Y-109414221D01*
X159256304Y-109534247D01*
X159248973Y-109546944D01*
X159189958Y-109728572D01*
X159169996Y-109918500D01*
X159170686Y-109925065D01*
X159183468Y-110046675D01*
X159189958Y-110108428D01*
X159248973Y-110290056D01*
X159252276Y-110295778D01*
X159252277Y-110295779D01*
X159279114Y-110342262D01*
X159344460Y-110455444D01*
X159348878Y-110460351D01*
X159348879Y-110460352D01*
X159467825Y-110592455D01*
X159472247Y-110597366D01*
X159571343Y-110669364D01*
X159619492Y-110704346D01*
X159626748Y-110709618D01*
X159632776Y-110712302D01*
X159632778Y-110712303D01*
X159795181Y-110784609D01*
X159801212Y-110787294D01*
X159894612Y-110807147D01*
X159981556Y-110825628D01*
X159981561Y-110825628D01*
X159988013Y-110827000D01*
X160178987Y-110827000D01*
X160185439Y-110825628D01*
X160185444Y-110825628D01*
X160272388Y-110807147D01*
X160365788Y-110787294D01*
X160371819Y-110784609D01*
X160534222Y-110712303D01*
X160534224Y-110712302D01*
X160540252Y-110709618D01*
X160547509Y-110704346D01*
X160595657Y-110669364D01*
X160694753Y-110597366D01*
X160699175Y-110592455D01*
X160818121Y-110460352D01*
X160818122Y-110460351D01*
X160822540Y-110455444D01*
X160918027Y-110290056D01*
X160919580Y-110290953D01*
X160959875Y-110243546D01*
X161027802Y-110222898D01*
X161096110Y-110242251D01*
X161143111Y-110295463D01*
X161155000Y-110348892D01*
X161155000Y-122790564D01*
X161153922Y-122807007D01*
X161149750Y-122838700D01*
X161155000Y-122878580D01*
X161155000Y-122878585D01*
X161165610Y-122959175D01*
X161170662Y-122997551D01*
X161231976Y-123145576D01*
X161237003Y-123152127D01*
X161237004Y-123152129D01*
X161305020Y-123240769D01*
X161305026Y-123240775D01*
X161329513Y-123272687D01*
X161336068Y-123277717D01*
X161354879Y-123292152D01*
X161367270Y-123303019D01*
X163467594Y-125403343D01*
X163501620Y-125465655D01*
X163504499Y-125492438D01*
X163504499Y-130326551D01*
X163484497Y-130394672D01*
X163429748Y-130441658D01*
X163356248Y-130474382D01*
X163350907Y-130478262D01*
X163350906Y-130478263D01*
X163346796Y-130481249D01*
X163201747Y-130586634D01*
X163073960Y-130728556D01*
X162978473Y-130893944D01*
X162919458Y-131075572D01*
X162918768Y-131082133D01*
X162918768Y-131082135D01*
X162912211Y-131144526D01*
X162899496Y-131265500D01*
X162900186Y-131272065D01*
X162911394Y-131378699D01*
X162919458Y-131455428D01*
X162978473Y-131637056D01*
X163010485Y-131692502D01*
X163027222Y-131761495D01*
X163004002Y-131828587D01*
X162948195Y-131872474D01*
X162901365Y-131881500D01*
X162260944Y-131881500D01*
X162244498Y-131880422D01*
X162220988Y-131877327D01*
X162212800Y-131876249D01*
X162053949Y-131897162D01*
X161905924Y-131958476D01*
X161860105Y-131993634D01*
X161810737Y-132031515D01*
X161810721Y-132031529D01*
X161785366Y-132050984D01*
X161785363Y-132050987D01*
X161778813Y-132056013D01*
X161773783Y-132062568D01*
X161759348Y-132081379D01*
X161748481Y-132093770D01*
X159816765Y-134025486D01*
X159804374Y-134036353D01*
X159779012Y-134055814D01*
X159754525Y-134087726D01*
X159754522Y-134087729D01*
X159754516Y-134087737D01*
X159686734Y-134176072D01*
X159681475Y-134182925D01*
X159620161Y-134330950D01*
X159620161Y-134330951D01*
X159618413Y-134344227D01*
X159613450Y-134381925D01*
X159604499Y-134449916D01*
X159604499Y-134449921D01*
X159599249Y-134489801D01*
X159601631Y-134507891D01*
X159603421Y-134521491D01*
X159604499Y-134537937D01*
X159604499Y-135541552D01*
X159584497Y-135609673D01*
X159530841Y-135656166D01*
X159514074Y-135662425D01*
X159433120Y-135686251D01*
X159433109Y-135686256D01*
X159427202Y-135687994D01*
X159260621Y-135775080D01*
X159217058Y-135810106D01*
X159151438Y-135837201D01*
X159081583Y-135824518D01*
X159057793Y-135808993D01*
X159031048Y-135786867D01*
X159020877Y-135780007D01*
X158866456Y-135696512D01*
X158855150Y-135691760D01*
X158687452Y-135639849D01*
X158675439Y-135637383D01*
X158500848Y-135619032D01*
X158488580Y-135618947D01*
X158313759Y-135634857D01*
X158301710Y-135637155D01*
X158133300Y-135686721D01*
X158121931Y-135691314D01*
X158030020Y-135739364D01*
X158019871Y-135749152D01*
X158022325Y-135756115D01*
X158758115Y-136491905D01*
X158792141Y-136554217D01*
X158787076Y-136625032D01*
X158758115Y-136670095D01*
X158488000Y-136940210D01*
X158027204Y-137401007D01*
X158016015Y-137421498D01*
X158003965Y-137476887D01*
X157953762Y-137527088D01*
X157893378Y-137542500D01*
X157339866Y-137542500D01*
X157277684Y-137549255D01*
X157141295Y-137600385D01*
X157024739Y-137687739D01*
X156937385Y-137804295D01*
X156886255Y-137940684D01*
X156879500Y-138002866D01*
X156879500Y-138999134D01*
X156886255Y-139061316D01*
X156889028Y-139068714D01*
X156890362Y-139074323D01*
X156886660Y-139145223D01*
X156850111Y-139198849D01*
X156849700Y-139199204D01*
X156845149Y-139202474D01*
X156790826Y-139258531D01*
X156702087Y-139350103D01*
X156695023Y-139357392D01*
X156574703Y-139536447D01*
X156572444Y-139541593D01*
X156572443Y-139541595D01*
X156559910Y-139570146D01*
X156487992Y-139733980D01*
X156437632Y-139943745D01*
X156437309Y-139949350D01*
X156430297Y-140070965D01*
X156425214Y-140159113D01*
X156451130Y-140373277D01*
X156452777Y-140378631D01*
X156452778Y-140378635D01*
X156471103Y-140438199D01*
X156514563Y-140579466D01*
X156613505Y-140771164D01*
X156616920Y-140775614D01*
X156741415Y-140937860D01*
X156741419Y-140937864D01*
X156744831Y-140942311D01*
X156775447Y-140970169D01*
X156900242Y-141083724D01*
X156900245Y-141083726D01*
X156904389Y-141087497D01*
X156909141Y-141090478D01*
X157082379Y-141199151D01*
X157082383Y-141199153D01*
X157087135Y-141202134D01*
X157287293Y-141282597D01*
X157498537Y-141326344D01*
X157503148Y-141326610D01*
X157503149Y-141326610D01*
X157551452Y-141329395D01*
X157551456Y-141329395D01*
X157553275Y-141329500D01*
X159092735Y-141329500D01*
X159095522Y-141329251D01*
X159095528Y-141329251D01*
X159162240Y-141323297D01*
X159252872Y-141315208D01*
X159379740Y-141280501D01*
X159455536Y-141259766D01*
X159455540Y-141259765D01*
X159460952Y-141258284D01*
X159655663Y-141165411D01*
X159830851Y-141039526D01*
X159948047Y-140918589D01*
X159977074Y-140888636D01*
X159977076Y-140888633D01*
X159980977Y-140884608D01*
X160101297Y-140705553D01*
X160188008Y-140508020D01*
X160238368Y-140298255D01*
X160245828Y-140168883D01*
X160250463Y-140088494D01*
X160250463Y-140088491D01*
X160250786Y-140082887D01*
X160224870Y-139868723D01*
X160210697Y-139822652D01*
X160163085Y-139667891D01*
X160161437Y-139662534D01*
X160158864Y-139657548D01*
X160144030Y-139628807D01*
X160130561Y-139559100D01*
X160156917Y-139493176D01*
X160214730Y-139451967D01*
X160270915Y-139445904D01*
X160411728Y-139462695D01*
X160423977Y-139462952D01*
X160599017Y-139449483D01*
X160611095Y-139447353D01*
X160780181Y-139400144D01*
X160791610Y-139395711D01*
X160948305Y-139316559D01*
X160958661Y-139309987D01*
X161008515Y-139271036D01*
X161074509Y-139244858D01*
X161144180Y-139258515D01*
X161167751Y-139274371D01*
X161188324Y-139291880D01*
X161352409Y-139383584D01*
X161531180Y-139441670D01*
X161717830Y-139463927D01*
X161723965Y-139463455D01*
X161723967Y-139463455D01*
X161899105Y-139449979D01*
X161899109Y-139449978D01*
X161905247Y-139449506D01*
X161990378Y-139425737D01*
X162080350Y-139400616D01*
X162080353Y-139400615D01*
X162086294Y-139398956D01*
X162091798Y-139396176D01*
X162091800Y-139396175D01*
X162248572Y-139316984D01*
X162248574Y-139316983D01*
X162254075Y-139314204D01*
X162258934Y-139310408D01*
X162258937Y-139310406D01*
X162308906Y-139271367D01*
X162374900Y-139245190D01*
X162444571Y-139258848D01*
X162468142Y-139274703D01*
X162488324Y-139291880D01*
X162493702Y-139294886D01*
X162493704Y-139294887D01*
X162533242Y-139316984D01*
X162652409Y-139383584D01*
X162831180Y-139441670D01*
X163017830Y-139463927D01*
X163023965Y-139463455D01*
X163023967Y-139463455D01*
X163199105Y-139449979D01*
X163199109Y-139449978D01*
X163205247Y-139449506D01*
X163290378Y-139425737D01*
X163380350Y-139400616D01*
X163380353Y-139400615D01*
X163386294Y-139398956D01*
X163391798Y-139396176D01*
X163391800Y-139396175D01*
X163548574Y-139316983D01*
X163548576Y-139316982D01*
X163554075Y-139314204D01*
X163609307Y-139271052D01*
X163675301Y-139244874D01*
X163744972Y-139258531D01*
X163768545Y-139274389D01*
X163783918Y-139287473D01*
X163793991Y-139294474D01*
X163947230Y-139380116D01*
X163958470Y-139385027D01*
X164125429Y-139439275D01*
X164137403Y-139441908D01*
X164311728Y-139462695D01*
X164323977Y-139462952D01*
X164499017Y-139449483D01*
X164511095Y-139447353D01*
X164680181Y-139400144D01*
X164691610Y-139395711D01*
X164848305Y-139316559D01*
X164858661Y-139309987D01*
X164908515Y-139271036D01*
X164974509Y-139244858D01*
X165044180Y-139258515D01*
X165067751Y-139274371D01*
X165088324Y-139291880D01*
X165252409Y-139383584D01*
X165431180Y-139441670D01*
X165617830Y-139463927D01*
X165623964Y-139463455D01*
X165623965Y-139463455D01*
X165627319Y-139463197D01*
X165641011Y-139462143D01*
X165710464Y-139476859D01*
X165739773Y-139498677D01*
X167857343Y-141616247D01*
X167864887Y-141624537D01*
X167869000Y-141631018D01*
X167874777Y-141636443D01*
X167918667Y-141677658D01*
X167921509Y-141680413D01*
X167941231Y-141700135D01*
X167944355Y-141702558D01*
X167944359Y-141702562D01*
X167944424Y-141702612D01*
X167953445Y-141710317D01*
X167985679Y-141740586D01*
X167992627Y-141744405D01*
X167992629Y-141744407D01*
X168003432Y-141750346D01*
X168019959Y-141761202D01*
X168029698Y-141768757D01*
X168029700Y-141768758D01*
X168035960Y-141773614D01*
X168076540Y-141791174D01*
X168087188Y-141796391D01*
X168111976Y-141810018D01*
X168125940Y-141817695D01*
X168133616Y-141819666D01*
X168133619Y-141819667D01*
X168145562Y-141822733D01*
X168164267Y-141829137D01*
X168182855Y-141837181D01*
X168190678Y-141838420D01*
X168190688Y-141838423D01*
X168226524Y-141844099D01*
X168238144Y-141846505D01*
X168269959Y-141854673D01*
X168280970Y-141857500D01*
X168301224Y-141857500D01*
X168320934Y-141859051D01*
X168340943Y-141862220D01*
X168348835Y-141861474D01*
X168367580Y-141859702D01*
X168384962Y-141858059D01*
X168396819Y-141857500D01*
X171371233Y-141857500D01*
X171382416Y-141858027D01*
X171389909Y-141859702D01*
X171397835Y-141859453D01*
X171397836Y-141859453D01*
X171457986Y-141857562D01*
X171461945Y-141857500D01*
X171489856Y-141857500D01*
X171493791Y-141857003D01*
X171493856Y-141856995D01*
X171505693Y-141856062D01*
X171537951Y-141855048D01*
X171541970Y-141854922D01*
X171549889Y-141854673D01*
X171569343Y-141849021D01*
X171588700Y-141845013D01*
X171600930Y-141843468D01*
X171600931Y-141843468D01*
X171608797Y-141842474D01*
X171616168Y-141839555D01*
X171616170Y-141839555D01*
X171649912Y-141826196D01*
X171661142Y-141822351D01*
X171695983Y-141812229D01*
X171695984Y-141812229D01*
X171703593Y-141810018D01*
X171710412Y-141805985D01*
X171710417Y-141805983D01*
X171721028Y-141799707D01*
X171738776Y-141791012D01*
X171757617Y-141783552D01*
X171793387Y-141757564D01*
X171803307Y-141751048D01*
X171834535Y-141732580D01*
X171834538Y-141732578D01*
X171841362Y-141728542D01*
X171855683Y-141714221D01*
X171870717Y-141701380D01*
X171873624Y-141699268D01*
X171887107Y-141689472D01*
X171915298Y-141655395D01*
X171923288Y-141646616D01*
X173747253Y-139822652D01*
X173755539Y-139815112D01*
X173762018Y-139811000D01*
X173808644Y-139761348D01*
X173811398Y-139758507D01*
X173831135Y-139738770D01*
X173833615Y-139735573D01*
X173841320Y-139726551D01*
X173866159Y-139700100D01*
X173871586Y-139694321D01*
X173875405Y-139687375D01*
X173875407Y-139687372D01*
X173881348Y-139676566D01*
X173892199Y-139660047D01*
X173899758Y-139650301D01*
X173904614Y-139644041D01*
X173907759Y-139636772D01*
X173907762Y-139636768D01*
X173922174Y-139603463D01*
X173927391Y-139592813D01*
X173948695Y-139554060D01*
X173951896Y-139541595D01*
X173953733Y-139534438D01*
X173960137Y-139515734D01*
X173965033Y-139504420D01*
X173965033Y-139504419D01*
X173968181Y-139497145D01*
X173969420Y-139489322D01*
X173969423Y-139489312D01*
X173975099Y-139453476D01*
X173977505Y-139441856D01*
X173986528Y-139406711D01*
X173986528Y-139406710D01*
X173988500Y-139399030D01*
X173988500Y-139378776D01*
X173990051Y-139359065D01*
X173991980Y-139346886D01*
X173993220Y-139339057D01*
X173989059Y-139295038D01*
X173988500Y-139283181D01*
X173988500Y-137365767D01*
X173989027Y-137354584D01*
X173990702Y-137347091D01*
X173988562Y-137279000D01*
X173988500Y-137275043D01*
X173988500Y-137247144D01*
X173987996Y-137243153D01*
X173987063Y-137231311D01*
X173985923Y-137195036D01*
X173985674Y-137187111D01*
X173983462Y-137179497D01*
X173983461Y-137179492D01*
X173980023Y-137167659D01*
X173976012Y-137148295D01*
X173974467Y-137136064D01*
X173973474Y-137128203D01*
X173970557Y-137120836D01*
X173970556Y-137120831D01*
X173957198Y-137087092D01*
X173953354Y-137075865D01*
X173945645Y-137049332D01*
X173941018Y-137033407D01*
X173930707Y-137015972D01*
X173922012Y-136998224D01*
X173914552Y-136979383D01*
X173888564Y-136943613D01*
X173882048Y-136933693D01*
X173863580Y-136902465D01*
X173863578Y-136902462D01*
X173859542Y-136895638D01*
X173845221Y-136881317D01*
X173832380Y-136866283D01*
X173825131Y-136856306D01*
X173820472Y-136849893D01*
X173786395Y-136821702D01*
X173777616Y-136813712D01*
X171381122Y-134417217D01*
X171347096Y-134354905D01*
X171344907Y-134341292D01*
X171328232Y-134182635D01*
X171328232Y-134182633D01*
X171327542Y-134176072D01*
X171268527Y-133994444D01*
X171173040Y-133829056D01*
X171109789Y-133758808D01*
X171079073Y-133694803D01*
X171087837Y-133624349D01*
X171133299Y-133569818D01*
X171203426Y-133548500D01*
X174035064Y-133548500D01*
X174051507Y-133549578D01*
X174083200Y-133553750D01*
X174091389Y-133552672D01*
X174123074Y-133548501D01*
X174123084Y-133548500D01*
X174123085Y-133548500D01*
X174222657Y-133535391D01*
X174233864Y-133533916D01*
X174233866Y-133533915D01*
X174242051Y-133532838D01*
X174390076Y-133471524D01*
X174485272Y-133398477D01*
X174485275Y-133398474D01*
X174517187Y-133373987D01*
X174536658Y-133348613D01*
X174547516Y-133336233D01*
X179106143Y-128777606D01*
X179168455Y-128743580D01*
X179239270Y-128748645D01*
X179296106Y-128791192D01*
X179320917Y-128857712D01*
X179305826Y-128927086D01*
X179286738Y-128953325D01*
X178750749Y-129519485D01*
X178743758Y-129526114D01*
X178737433Y-129530104D01*
X178731489Y-129536832D01*
X178724654Y-129542648D01*
X178724634Y-129542625D01*
X178723266Y-129543878D01*
X178723287Y-129543899D01*
X178716892Y-129550204D01*
X178709672Y-129555535D01*
X178704240Y-129562677D01*
X178704237Y-129562680D01*
X178679703Y-129594939D01*
X178673859Y-129602064D01*
X178641090Y-129639156D01*
X178637274Y-129647280D01*
X178632343Y-129654784D01*
X178632319Y-129654768D01*
X178631360Y-129656352D01*
X178631384Y-129656366D01*
X178627016Y-129664212D01*
X178621582Y-129671357D01*
X178603874Y-129717596D01*
X178600271Y-129726060D01*
X178579225Y-129770865D01*
X178577843Y-129779735D01*
X178575216Y-129788322D01*
X178575188Y-129788314D01*
X178574713Y-129790100D01*
X178574741Y-129790106D01*
X178572750Y-129798865D01*
X178569540Y-129807246D01*
X178568812Y-129816191D01*
X178568811Y-129816194D01*
X178565524Y-129856566D01*
X178564437Y-129865742D01*
X178562006Y-129881338D01*
X178562005Y-129886211D01*
X178562005Y-129886214D01*
X178562004Y-129894698D01*
X178561588Y-129904901D01*
X178557730Y-129952281D01*
X178559544Y-129961081D01*
X178559655Y-129962904D01*
X178561989Y-129985812D01*
X178561704Y-131692499D01*
X178560179Y-140843661D01*
X178540166Y-140911778D01*
X178494327Y-140954357D01*
X178337554Y-141039526D01*
X177916499Y-141268268D01*
X177912585Y-141270306D01*
X176996569Y-141726740D01*
X176992594Y-141728634D01*
X176060976Y-142152391D01*
X176056894Y-142154161D01*
X175852958Y-142238349D01*
X175110938Y-142544668D01*
X175106788Y-142546296D01*
X174147591Y-142903103D01*
X174143386Y-142904583D01*
X173172195Y-143227226D01*
X173167940Y-143228557D01*
X172185892Y-143516658D01*
X172181593Y-143517837D01*
X171472788Y-143698809D01*
X171189989Y-143771013D01*
X171185673Y-143772033D01*
X170751478Y-143866667D01*
X170185732Y-143989972D01*
X170181360Y-143990844D01*
X169174351Y-144173272D01*
X169169951Y-144173989D01*
X168692502Y-144243139D01*
X168157097Y-144320683D01*
X168152716Y-144321238D01*
X167135293Y-144432012D01*
X167130857Y-144432416D01*
X166110172Y-144507127D01*
X166105755Y-144507372D01*
X165422262Y-144533142D01*
X165083048Y-144545931D01*
X165078591Y-144546020D01*
X164490747Y-144547374D01*
X164055173Y-144548377D01*
X164050729Y-144548308D01*
X163027895Y-144514462D01*
X163023444Y-144514236D01*
X162839469Y-144501621D01*
X162002398Y-144444223D01*
X161997997Y-144443843D01*
X161489040Y-144390800D01*
X160980107Y-144337760D01*
X160975682Y-144337220D01*
X159962157Y-144195192D01*
X159957754Y-144194495D01*
X158949919Y-144016708D01*
X158945543Y-144015856D01*
X157944626Y-143802529D01*
X157940283Y-143801523D01*
X156947527Y-143552918D01*
X156943223Y-143551759D01*
X155959880Y-143268191D01*
X155955619Y-143266880D01*
X154982928Y-142948705D01*
X154978716Y-142947244D01*
X154327670Y-142708473D01*
X154017865Y-142594852D01*
X154013769Y-142593267D01*
X153065985Y-142207104D01*
X153061903Y-142205356D01*
X152286585Y-141856995D01*
X152128375Y-141785909D01*
X152124345Y-141784012D01*
X152109620Y-141776759D01*
X151627880Y-141539480D01*
X151206259Y-141331812D01*
X151202296Y-141329772D01*
X151005925Y-141224260D01*
X150625827Y-141020030D01*
X150575288Y-140970169D01*
X150559465Y-140908718D01*
X150563146Y-139459966D01*
X151322257Y-139459966D01*
X151352565Y-139594446D01*
X151355645Y-139604275D01*
X151435770Y-139801603D01*
X151440413Y-139810794D01*
X151551694Y-139992388D01*
X151557777Y-140000699D01*
X151697213Y-140161667D01*
X151704580Y-140168883D01*
X151868434Y-140304916D01*
X151876881Y-140310831D01*
X152060756Y-140418279D01*
X152070042Y-140422729D01*
X152269001Y-140498703D01*
X152278899Y-140501579D01*
X152382250Y-140522606D01*
X152396299Y-140521410D01*
X152400000Y-140511065D01*
X152400000Y-140510517D01*
X152908000Y-140510517D01*
X152912064Y-140524359D01*
X152925478Y-140526393D01*
X152932184Y-140525534D01*
X152942262Y-140523392D01*
X153146255Y-140462191D01*
X153155842Y-140458433D01*
X153347095Y-140364739D01*
X153355945Y-140359464D01*
X153529328Y-140235792D01*
X153537200Y-140229139D01*
X153688052Y-140078812D01*
X153694730Y-140070965D01*
X153819003Y-139898020D01*
X153824313Y-139889183D01*
X153918670Y-139698267D01*
X153922469Y-139688672D01*
X153984377Y-139484910D01*
X153986555Y-139474837D01*
X153987986Y-139463962D01*
X153985775Y-139449778D01*
X153972617Y-139446000D01*
X152926115Y-139446000D01*
X152910876Y-139450475D01*
X152909671Y-139451865D01*
X152908000Y-139459548D01*
X152908000Y-140510517D01*
X152400000Y-140510517D01*
X152400000Y-139464115D01*
X152395525Y-139448876D01*
X152394135Y-139447671D01*
X152386452Y-139446000D01*
X151337225Y-139446000D01*
X151323694Y-139449973D01*
X151322257Y-139459966D01*
X150563146Y-139459966D01*
X150563340Y-139383584D01*
X150567998Y-137550134D01*
X151295500Y-137550134D01*
X151302255Y-137612316D01*
X151353385Y-137748705D01*
X151440739Y-137865261D01*
X151557295Y-137952615D01*
X151565704Y-137955767D01*
X151565705Y-137955768D01*
X151674960Y-137996726D01*
X151731725Y-138039367D01*
X151756425Y-138105929D01*
X151741218Y-138175278D01*
X151721825Y-138201759D01*
X151598590Y-138330717D01*
X151592104Y-138338727D01*
X151472098Y-138514649D01*
X151467000Y-138523623D01*
X151377338Y-138716783D01*
X151373775Y-138726470D01*
X151318389Y-138926183D01*
X151319912Y-138934607D01*
X151332292Y-138938000D01*
X153972344Y-138938000D01*
X153985875Y-138934027D01*
X153987180Y-138924947D01*
X153945214Y-138757875D01*
X153941894Y-138748124D01*
X153856972Y-138552814D01*
X153852105Y-138543739D01*
X153736426Y-138364926D01*
X153730136Y-138356757D01*
X153586293Y-138198677D01*
X153555241Y-138134831D01*
X153563635Y-138064333D01*
X153608812Y-138009564D01*
X153635256Y-137995895D01*
X153742297Y-137955767D01*
X153750705Y-137952615D01*
X153867261Y-137865261D01*
X153954615Y-137748705D01*
X154005745Y-137612316D01*
X154012500Y-137550134D01*
X154012500Y-136573704D01*
X157525975Y-136573704D01*
X157540664Y-136748632D01*
X157542879Y-136760699D01*
X157591265Y-136929443D01*
X157595784Y-136940855D01*
X157646282Y-137039113D01*
X157656001Y-137049332D01*
X157662801Y-137046988D01*
X158115979Y-136593811D01*
X158123592Y-136579868D01*
X158123461Y-136578034D01*
X158119210Y-136571420D01*
X157667935Y-136120146D01*
X157655560Y-136113389D01*
X157649171Y-136118171D01*
X157606175Y-136196381D01*
X157601345Y-136207651D01*
X157548264Y-136374984D01*
X157545714Y-136386978D01*
X157526146Y-136561435D01*
X157525975Y-136573704D01*
X154012500Y-136573704D01*
X154012500Y-135753866D01*
X154005745Y-135691684D01*
X153954615Y-135555295D01*
X153867261Y-135438739D01*
X153750705Y-135351385D01*
X153614316Y-135300255D01*
X153552134Y-135293500D01*
X151755866Y-135293500D01*
X151693684Y-135300255D01*
X151557295Y-135351385D01*
X151440739Y-135438739D01*
X151353385Y-135555295D01*
X151302255Y-135691684D01*
X151295500Y-135753866D01*
X151295500Y-137550134D01*
X150567998Y-137550134D01*
X150586825Y-130139846D01*
X150588326Y-130126259D01*
X150588167Y-130126247D01*
X150588841Y-130117296D01*
X150590777Y-130108529D01*
X150588655Y-130076944D01*
X150587341Y-130057399D01*
X150587057Y-130048632D01*
X150587081Y-130039285D01*
X150587081Y-130039281D01*
X150587092Y-130034813D01*
X150586470Y-130030388D01*
X150586469Y-130030379D01*
X150585300Y-130022072D01*
X150584354Y-130012965D01*
X150581622Y-129972298D01*
X150581622Y-129972296D01*
X150581020Y-129963343D01*
X150577929Y-129954917D01*
X150576063Y-129946135D01*
X150576122Y-129946122D01*
X150575766Y-129944701D01*
X150575708Y-129944718D01*
X150573209Y-129936092D01*
X150571960Y-129927206D01*
X150551494Y-129881888D01*
X150548035Y-129873422D01*
X150534000Y-129835159D01*
X150533998Y-129835155D01*
X150530907Y-129826729D01*
X150525574Y-129819507D01*
X150521320Y-129811605D01*
X150521372Y-129811577D01*
X150520630Y-129810311D01*
X150520580Y-129810343D01*
X150515762Y-129802767D01*
X150512069Y-129794589D01*
X150506229Y-129787777D01*
X150506227Y-129787773D01*
X150479705Y-129756833D01*
X150474010Y-129749680D01*
X150449800Y-129716896D01*
X150449799Y-129716895D01*
X150444465Y-129709672D01*
X150437316Y-129704235D01*
X150431019Y-129697848D01*
X150431062Y-129697806D01*
X150429996Y-129696801D01*
X150429957Y-129696845D01*
X150423205Y-129690925D01*
X150417364Y-129684111D01*
X150409844Y-129679210D01*
X150403095Y-129673292D01*
X150403441Y-129672898D01*
X150393956Y-129665068D01*
X149820735Y-129071912D01*
X149816933Y-129067799D01*
X149232071Y-128406122D01*
X149228456Y-128401844D01*
X148673587Y-127714839D01*
X148670166Y-127710404D01*
X148146374Y-126999415D01*
X148143152Y-126994833D01*
X147986481Y-126761085D01*
X147811488Y-126500000D01*
X151136439Y-126500000D01*
X151136709Y-126504119D01*
X151153552Y-126761085D01*
X151156660Y-126808507D01*
X151216975Y-127111735D01*
X151218300Y-127115639D01*
X151218301Y-127115642D01*
X151231725Y-127155187D01*
X151316354Y-127404496D01*
X151318177Y-127408192D01*
X151318180Y-127408200D01*
X151405073Y-127584399D01*
X151453096Y-127681780D01*
X151455390Y-127685213D01*
X151455391Y-127685215D01*
X151565527Y-127850045D01*
X151624861Y-127938845D01*
X151627575Y-127941939D01*
X151627579Y-127941945D01*
X151812182Y-128152444D01*
X151828710Y-128171290D01*
X151831799Y-128173999D01*
X152058055Y-128372421D01*
X152058061Y-128372425D01*
X152061155Y-128375139D01*
X152064581Y-128377428D01*
X152064586Y-128377432D01*
X152104387Y-128404026D01*
X152318219Y-128546904D01*
X152321918Y-128548728D01*
X152321923Y-128548731D01*
X152390881Y-128582737D01*
X152595504Y-128683646D01*
X152599409Y-128684971D01*
X152599410Y-128684972D01*
X152884358Y-128781699D01*
X152884361Y-128781700D01*
X152888265Y-128783025D01*
X153114961Y-128828117D01*
X153187450Y-128842536D01*
X153187453Y-128842536D01*
X153191493Y-128843340D01*
X153195604Y-128843609D01*
X153195608Y-128843610D01*
X153495881Y-128863291D01*
X153500000Y-128863561D01*
X153504119Y-128863291D01*
X153804392Y-128843610D01*
X153804396Y-128843609D01*
X153808507Y-128843340D01*
X153812547Y-128842536D01*
X153812550Y-128842536D01*
X153885039Y-128828117D01*
X154111735Y-128783025D01*
X154115639Y-128781700D01*
X154115642Y-128781699D01*
X154400590Y-128684972D01*
X154400591Y-128684971D01*
X154404496Y-128683646D01*
X154609119Y-128582737D01*
X154678077Y-128548731D01*
X154678082Y-128548728D01*
X154681781Y-128546904D01*
X154895613Y-128404026D01*
X154935414Y-128377432D01*
X154935419Y-128377428D01*
X154938845Y-128375139D01*
X154941939Y-128372425D01*
X154941945Y-128372421D01*
X155168201Y-128173999D01*
X155171290Y-128171290D01*
X155187818Y-128152444D01*
X155372421Y-127941945D01*
X155372425Y-127941939D01*
X155375139Y-127938845D01*
X155434474Y-127850045D01*
X155544609Y-127685215D01*
X155544610Y-127685213D01*
X155546904Y-127681780D01*
X155594927Y-127584399D01*
X155681820Y-127408200D01*
X155681823Y-127408192D01*
X155683646Y-127404496D01*
X155768275Y-127155187D01*
X155781699Y-127115642D01*
X155781700Y-127115639D01*
X155783025Y-127111735D01*
X155843340Y-126808507D01*
X155846449Y-126761085D01*
X155863291Y-126504119D01*
X155863561Y-126500000D01*
X155853033Y-126339372D01*
X155843610Y-126195608D01*
X155843609Y-126195604D01*
X155843340Y-126191493D01*
X155783025Y-125888265D01*
X155683646Y-125595504D01*
X155681823Y-125591808D01*
X155681820Y-125591800D01*
X155562777Y-125350407D01*
X155546904Y-125318220D01*
X155423233Y-125133133D01*
X155377432Y-125064586D01*
X155377428Y-125064581D01*
X155375139Y-125061155D01*
X155372425Y-125058061D01*
X155372421Y-125058055D01*
X155173999Y-124831799D01*
X155171290Y-124828710D01*
X155076503Y-124745584D01*
X154941945Y-124627579D01*
X154941939Y-124627575D01*
X154938845Y-124624861D01*
X154935419Y-124622572D01*
X154935414Y-124622568D01*
X154741682Y-124493121D01*
X154681781Y-124453096D01*
X154678082Y-124451272D01*
X154678077Y-124451269D01*
X154535565Y-124380990D01*
X154404496Y-124316354D01*
X154267718Y-124269924D01*
X154115642Y-124218301D01*
X154115639Y-124218300D01*
X154111735Y-124216975D01*
X153885039Y-124171883D01*
X153812550Y-124157464D01*
X153812547Y-124157464D01*
X153808507Y-124156660D01*
X153804396Y-124156391D01*
X153804392Y-124156390D01*
X153504119Y-124136709D01*
X153500000Y-124136439D01*
X153495881Y-124136709D01*
X153195608Y-124156390D01*
X153195604Y-124156391D01*
X153191493Y-124156660D01*
X153187453Y-124157464D01*
X153187450Y-124157464D01*
X153114961Y-124171883D01*
X152888265Y-124216975D01*
X152884361Y-124218300D01*
X152884358Y-124218301D01*
X152732282Y-124269924D01*
X152595504Y-124316354D01*
X152591808Y-124318177D01*
X152591800Y-124318180D01*
X152407526Y-124409055D01*
X152318220Y-124453096D01*
X152314787Y-124455390D01*
X152314785Y-124455391D01*
X152064586Y-124622568D01*
X152064581Y-124622572D01*
X152061155Y-124624861D01*
X152058061Y-124627575D01*
X152058055Y-124627579D01*
X151923497Y-124745584D01*
X151828710Y-124828710D01*
X151826001Y-124831799D01*
X151627579Y-125058055D01*
X151627575Y-125058061D01*
X151624861Y-125061155D01*
X151622572Y-125064581D01*
X151622568Y-125064586D01*
X151576767Y-125133133D01*
X151453096Y-125318220D01*
X151437223Y-125350407D01*
X151318180Y-125591800D01*
X151318177Y-125591808D01*
X151316354Y-125595504D01*
X151216975Y-125888265D01*
X151156660Y-126191493D01*
X151156391Y-126195604D01*
X151156390Y-126195608D01*
X151146967Y-126339372D01*
X151136439Y-126500000D01*
X147811488Y-126500000D01*
X147651458Y-126261240D01*
X147648470Y-126256561D01*
X147189867Y-125501847D01*
X147187066Y-125496997D01*
X146762480Y-124722692D01*
X146759896Y-124717722D01*
X146454650Y-124097126D01*
X146370119Y-123925265D01*
X146367762Y-123920190D01*
X146013605Y-123111231D01*
X146011473Y-123106051D01*
X145693609Y-122282132D01*
X145691710Y-122276863D01*
X145581676Y-121948944D01*
X145410778Y-121439639D01*
X145409122Y-121434314D01*
X145406431Y-121424928D01*
X145165673Y-120585416D01*
X145164249Y-120580000D01*
X144958772Y-119721141D01*
X144957590Y-119715667D01*
X144790482Y-118848513D01*
X144789545Y-118842991D01*
X144661141Y-117969282D01*
X144660450Y-117963723D01*
X144571003Y-117085162D01*
X144570560Y-117079579D01*
X144561093Y-116913680D01*
X144538493Y-116517666D01*
X144520246Y-116197927D01*
X144520051Y-116192329D01*
X144514864Y-115779002D01*
X144508970Y-115309289D01*
X144509024Y-115303698D01*
X144537197Y-114421047D01*
X144537500Y-114415454D01*
X144604873Y-113534909D01*
X144605425Y-113529336D01*
X144711858Y-112652703D01*
X144712656Y-112647159D01*
X144857951Y-111776085D01*
X144858995Y-111770582D01*
X145042858Y-110906824D01*
X145044146Y-110901373D01*
X145130522Y-110568914D01*
X145266210Y-110046654D01*
X145267726Y-110041307D01*
X145527572Y-109197252D01*
X145529339Y-109191937D01*
X145826420Y-108360316D01*
X145828421Y-108355085D01*
X146162163Y-107537501D01*
X146164394Y-107532363D01*
X146450131Y-106912629D01*
X146534165Y-106730368D01*
X146536618Y-106725345D01*
X146539988Y-106718817D01*
X146822586Y-106171290D01*
X146941652Y-105940604D01*
X146944331Y-105935686D01*
X147383832Y-105169731D01*
X147386727Y-105164936D01*
X147571846Y-104873169D01*
X147808614Y-104500000D01*
X151136439Y-104500000D01*
X151136709Y-104504119D01*
X151156217Y-104801742D01*
X151156660Y-104808507D01*
X151157464Y-104812547D01*
X151157464Y-104812550D01*
X151166938Y-104860180D01*
X151216975Y-105111735D01*
X151218300Y-105115639D01*
X151218301Y-105115642D01*
X151235034Y-105164936D01*
X151316354Y-105404496D01*
X151318177Y-105408192D01*
X151318180Y-105408200D01*
X151428721Y-105632352D01*
X151453096Y-105681780D01*
X151455390Y-105685213D01*
X151455391Y-105685215D01*
X151611532Y-105918896D01*
X151624861Y-105938845D01*
X151627575Y-105941939D01*
X151627579Y-105941945D01*
X151775679Y-106110820D01*
X151828710Y-106171290D01*
X151831799Y-106173999D01*
X152058055Y-106372421D01*
X152058061Y-106372425D01*
X152061155Y-106375139D01*
X152064581Y-106377428D01*
X152064586Y-106377432D01*
X152258318Y-106506879D01*
X152318219Y-106546904D01*
X152321918Y-106548728D01*
X152321923Y-106548731D01*
X152464435Y-106619010D01*
X152595504Y-106683646D01*
X152599409Y-106684971D01*
X152599410Y-106684972D01*
X152884358Y-106781699D01*
X152884361Y-106781700D01*
X152888265Y-106783025D01*
X153095540Y-106824254D01*
X153187450Y-106842536D01*
X153187453Y-106842536D01*
X153191493Y-106843340D01*
X153195604Y-106843609D01*
X153195608Y-106843610D01*
X153495881Y-106863291D01*
X153500000Y-106863561D01*
X153504119Y-106863291D01*
X153804392Y-106843610D01*
X153804396Y-106843609D01*
X153808507Y-106843340D01*
X153812547Y-106842536D01*
X153812550Y-106842536D01*
X153904460Y-106824254D01*
X154111735Y-106783025D01*
X154115639Y-106781700D01*
X154115642Y-106781699D01*
X154400590Y-106684972D01*
X154400591Y-106684971D01*
X154404496Y-106683646D01*
X154535565Y-106619010D01*
X154678077Y-106548731D01*
X154678082Y-106548728D01*
X154681781Y-106546904D01*
X154741682Y-106506879D01*
X154935414Y-106377432D01*
X154935419Y-106377428D01*
X154938845Y-106375139D01*
X154941939Y-106372425D01*
X154941945Y-106372421D01*
X155168201Y-106173999D01*
X155171290Y-106171290D01*
X155224321Y-106110820D01*
X155372421Y-105941945D01*
X155372425Y-105941939D01*
X155375139Y-105938845D01*
X155388469Y-105918896D01*
X155544609Y-105685215D01*
X155544610Y-105685213D01*
X155546904Y-105681780D01*
X155571279Y-105632352D01*
X155681820Y-105408200D01*
X155681823Y-105408192D01*
X155683646Y-105404496D01*
X155764966Y-105164936D01*
X155781699Y-105115642D01*
X155781700Y-105115639D01*
X155783025Y-105111735D01*
X155833062Y-104860180D01*
X155842536Y-104812550D01*
X155842536Y-104812547D01*
X155843340Y-104808507D01*
X155843784Y-104801742D01*
X155863291Y-104504119D01*
X155863561Y-104500000D01*
X155853814Y-104351298D01*
X155843610Y-104195608D01*
X155843609Y-104195604D01*
X155843340Y-104191493D01*
X155842297Y-104186246D01*
X155815627Y-104052170D01*
X155783025Y-103888265D01*
X155779076Y-103876630D01*
X155684975Y-103599419D01*
X155683646Y-103595504D01*
X155681823Y-103591808D01*
X155681820Y-103591800D01*
X155548730Y-103321923D01*
X155546904Y-103318220D01*
X155375139Y-103061155D01*
X155372425Y-103058061D01*
X155372421Y-103058055D01*
X155173999Y-102831799D01*
X155171290Y-102828710D01*
X155163115Y-102821541D01*
X154941945Y-102627579D01*
X154941939Y-102627575D01*
X154938845Y-102624861D01*
X154935419Y-102622572D01*
X154935414Y-102622568D01*
X154741682Y-102493121D01*
X154681781Y-102453096D01*
X154678082Y-102451272D01*
X154678077Y-102451269D01*
X154535565Y-102380990D01*
X154404496Y-102316354D01*
X154348412Y-102297316D01*
X154115642Y-102218301D01*
X154115639Y-102218300D01*
X154111735Y-102216975D01*
X153885039Y-102171883D01*
X153812550Y-102157464D01*
X153812547Y-102157464D01*
X153808507Y-102156660D01*
X153804396Y-102156391D01*
X153804392Y-102156390D01*
X153504119Y-102136709D01*
X153500000Y-102136439D01*
X153495881Y-102136709D01*
X153195608Y-102156390D01*
X153195604Y-102156391D01*
X153191493Y-102156660D01*
X153187453Y-102157464D01*
X153187450Y-102157464D01*
X153114961Y-102171883D01*
X152888265Y-102216975D01*
X152884361Y-102218300D01*
X152884358Y-102218301D01*
X152651588Y-102297316D01*
X152595504Y-102316354D01*
X152591808Y-102318177D01*
X152591800Y-102318180D01*
X152367648Y-102428721D01*
X152318220Y-102453096D01*
X152314787Y-102455390D01*
X152314785Y-102455391D01*
X152064586Y-102622568D01*
X152064581Y-102622572D01*
X152061155Y-102624861D01*
X152058061Y-102627575D01*
X152058055Y-102627579D01*
X151836885Y-102821541D01*
X151828710Y-102828710D01*
X151826001Y-102831799D01*
X151627579Y-103058055D01*
X151627575Y-103058061D01*
X151624861Y-103061155D01*
X151453096Y-103318220D01*
X151451270Y-103321923D01*
X151318180Y-103591800D01*
X151318177Y-103591808D01*
X151316354Y-103595504D01*
X151315025Y-103599419D01*
X151220925Y-103876630D01*
X151216975Y-103888265D01*
X151184373Y-104052170D01*
X151157704Y-104186246D01*
X151156660Y-104191493D01*
X151156391Y-104195604D01*
X151156390Y-104195608D01*
X151146186Y-104351298D01*
X151136439Y-104500000D01*
X147808614Y-104500000D01*
X147859848Y-104419250D01*
X147862925Y-104414630D01*
X148368726Y-103690696D01*
X148372034Y-103686178D01*
X148909500Y-102985449D01*
X148913007Y-102981082D01*
X149481056Y-102304965D01*
X149484753Y-102300757D01*
X150082330Y-101650507D01*
X150086211Y-101646469D01*
X150712048Y-101023466D01*
X150716104Y-101019603D01*
X150943599Y-100812433D01*
X151369056Y-100424988D01*
X151373274Y-100421315D01*
X151446742Y-100360157D01*
X152051995Y-99856315D01*
X152056372Y-99852834D01*
X152269987Y-99690525D01*
X152759517Y-99318569D01*
X152764045Y-99315284D01*
X152882839Y-99233085D01*
X153490243Y-98812792D01*
X153494915Y-98809710D01*
X153506746Y-98802279D01*
X154242737Y-98339982D01*
X154247545Y-98337109D01*
X155015504Y-97901080D01*
X155020435Y-97898424D01*
X155429129Y-97689826D01*
X155807005Y-97496958D01*
X155812032Y-97494532D01*
X156615680Y-97128415D01*
X156620827Y-97126207D01*
X157439930Y-96796175D01*
X157445170Y-96794198D01*
X158278129Y-96500895D01*
X158283453Y-96499152D01*
X159128640Y-96243153D01*
X159134035Y-96241649D01*
X159989754Y-96023467D01*
X159995211Y-96022204D01*
X160859786Y-95842266D01*
X160865293Y-95841247D01*
X161737017Y-95699909D01*
X161742565Y-95699136D01*
X162619692Y-95596681D01*
X162625268Y-95596155D01*
X163506082Y-95532783D01*
X163511676Y-95532505D01*
X164394447Y-95508339D01*
X164400048Y-95508310D01*
X164683872Y-95513160D01*
G37*
%TD.AperFunction*%
%TA.AperFunction,Conductor*%
G36*
X171262502Y-136102119D02*
G01*
X171300128Y-136128032D01*
X171993797Y-136821702D01*
X172684595Y-137512500D01*
X172718621Y-137574812D01*
X172721500Y-137601595D01*
X172721500Y-139004406D01*
X172701498Y-139072527D01*
X172684595Y-139093501D01*
X172267777Y-139510319D01*
X172205465Y-139544345D01*
X172134650Y-139539280D01*
X172077814Y-139496733D01*
X172066716Y-139479014D01*
X172065066Y-139475817D01*
X172065065Y-139475816D01*
X172062495Y-139470836D01*
X172007339Y-139398956D01*
X171934585Y-139304140D01*
X171934581Y-139304136D01*
X171931169Y-139299689D01*
X171810002Y-139189436D01*
X171775758Y-139158276D01*
X171775755Y-139158274D01*
X171771611Y-139154503D01*
X171766859Y-139151522D01*
X171593621Y-139042849D01*
X171593617Y-139042847D01*
X171588865Y-139039866D01*
X171388707Y-138959403D01*
X171177463Y-138915656D01*
X171172852Y-138915390D01*
X171172851Y-138915390D01*
X171124548Y-138912605D01*
X171124544Y-138912605D01*
X171122725Y-138912500D01*
X170585474Y-138912500D01*
X170517353Y-138892498D01*
X170470860Y-138838842D01*
X170460756Y-138768568D01*
X170465915Y-138746729D01*
X170474768Y-138720117D01*
X170477486Y-138708150D01*
X170499818Y-138531381D01*
X170500309Y-138524354D01*
X170500586Y-138504505D01*
X170500293Y-138497512D01*
X170482903Y-138320156D01*
X170480520Y-138308121D01*
X170429781Y-138140069D01*
X170425108Y-138128729D01*
X170379590Y-138043121D01*
X170369730Y-138033040D01*
X170362601Y-138035609D01*
X169627095Y-138771115D01*
X169564783Y-138805141D01*
X169493968Y-138800076D01*
X169448905Y-138771115D01*
X169267885Y-138590095D01*
X169233859Y-138527783D01*
X169238924Y-138456968D01*
X169267885Y-138411905D01*
X169998942Y-137680848D01*
X170010748Y-137659227D01*
X170022269Y-137606265D01*
X170072471Y-137556063D01*
X170147774Y-137541536D01*
X170161715Y-137543198D01*
X170161717Y-137543198D01*
X170167830Y-137543927D01*
X170173965Y-137543455D01*
X170173967Y-137543455D01*
X170349105Y-137529979D01*
X170349109Y-137529978D01*
X170355247Y-137529506D01*
X170440378Y-137505737D01*
X170530350Y-137480616D01*
X170530353Y-137480615D01*
X170536294Y-137478956D01*
X170541798Y-137476176D01*
X170541800Y-137476175D01*
X170698574Y-137396983D01*
X170698576Y-137396982D01*
X170704075Y-137394204D01*
X170852199Y-137278477D01*
X170892912Y-137231311D01*
X170970994Y-137140852D01*
X170970995Y-137140850D01*
X170975023Y-137136184D01*
X171067870Y-136972744D01*
X171127203Y-136794382D01*
X171150762Y-136607892D01*
X171151138Y-136581000D01*
X171132795Y-136393926D01*
X171131014Y-136388027D01*
X171131013Y-136388022D01*
X171090412Y-136253546D01*
X171089871Y-136182551D01*
X171127799Y-136122535D01*
X171192153Y-136092551D01*
X171262502Y-136102119D01*
G37*
%TD.AperFunction*%
%TA.AperFunction,Conductor*%
G36*
X172058532Y-116879383D02*
G01*
X172115368Y-116921930D01*
X172140179Y-116988450D01*
X172140500Y-116997439D01*
X172140500Y-117192760D01*
X172120498Y-117260881D01*
X172103595Y-117281855D01*
X171942766Y-117442684D01*
X171930380Y-117453547D01*
X171905013Y-117473012D01*
X171880526Y-117504924D01*
X171880523Y-117504927D01*
X171880517Y-117504935D01*
X171825689Y-117576388D01*
X171807476Y-117600123D01*
X171746162Y-117748148D01*
X171746162Y-117748149D01*
X171744414Y-117761425D01*
X171735876Y-117826280D01*
X171707154Y-117891207D01*
X171686520Y-117910659D01*
X171675739Y-117918739D01*
X171588385Y-118035295D01*
X171537255Y-118171684D01*
X171530500Y-118233866D01*
X171530500Y-119830134D01*
X171537255Y-119892316D01*
X171588385Y-120028705D01*
X171675739Y-120145261D01*
X171792295Y-120232615D01*
X171928684Y-120283745D01*
X171990866Y-120290500D01*
X172687134Y-120290500D01*
X172749316Y-120283745D01*
X172885705Y-120232615D01*
X172898435Y-120223074D01*
X172964939Y-120198226D01*
X173034322Y-120213278D01*
X173049559Y-120223070D01*
X173062295Y-120232615D01*
X173198684Y-120283745D01*
X173260866Y-120290500D01*
X173262047Y-120290500D01*
X173328581Y-120314015D01*
X173372104Y-120370107D01*
X173378392Y-120440824D01*
X173345449Y-120503715D01*
X173281023Y-120539420D01*
X173269670Y-120541833D01*
X173269667Y-120541834D01*
X173263212Y-120543206D01*
X173257182Y-120545891D01*
X173257181Y-120545891D01*
X173094778Y-120618197D01*
X173094776Y-120618198D01*
X173088748Y-120620882D01*
X172934247Y-120733134D01*
X172929826Y-120738044D01*
X172929825Y-120738045D01*
X172861892Y-120813493D01*
X172806460Y-120875056D01*
X172710973Y-121040444D01*
X172651958Y-121222072D01*
X172631996Y-121412000D01*
X172651958Y-121601928D01*
X172710973Y-121783556D01*
X172714276Y-121789278D01*
X172714277Y-121789279D01*
X172748186Y-121848010D01*
X172806460Y-121948944D01*
X172810878Y-121953851D01*
X172810879Y-121953852D01*
X172929825Y-122085955D01*
X172934247Y-122090866D01*
X173088748Y-122203118D01*
X173094776Y-122205802D01*
X173094778Y-122205803D01*
X173257181Y-122278109D01*
X173263212Y-122280794D01*
X173356613Y-122300647D01*
X173443556Y-122319128D01*
X173443561Y-122319128D01*
X173450013Y-122320500D01*
X173640987Y-122320500D01*
X173647439Y-122319128D01*
X173647444Y-122319128D01*
X173734387Y-122300647D01*
X173827788Y-122280794D01*
X173833819Y-122278109D01*
X173996222Y-122205803D01*
X173996224Y-122205802D01*
X174002252Y-122203118D01*
X174156753Y-122090866D01*
X174161175Y-122085955D01*
X174280121Y-121953852D01*
X174280122Y-121953851D01*
X174284540Y-121948944D01*
X174342814Y-121848010D01*
X174376723Y-121789279D01*
X174376724Y-121789278D01*
X174380027Y-121783556D01*
X174439042Y-121601928D01*
X174456407Y-121436708D01*
X174483420Y-121371051D01*
X174492622Y-121360782D01*
X175271258Y-120582147D01*
X175279537Y-120574613D01*
X175286018Y-120570500D01*
X175332644Y-120520848D01*
X175335398Y-120518007D01*
X175355135Y-120498270D01*
X175357615Y-120495073D01*
X175365320Y-120486051D01*
X175390159Y-120459600D01*
X175395586Y-120453821D01*
X175399405Y-120446875D01*
X175399407Y-120446872D01*
X175405348Y-120436066D01*
X175416199Y-120419547D01*
X175423758Y-120409801D01*
X175428614Y-120403541D01*
X175431759Y-120396272D01*
X175431762Y-120396268D01*
X175446174Y-120362963D01*
X175451391Y-120352313D01*
X175472695Y-120313560D01*
X175472864Y-120312904D01*
X175514554Y-120259473D01*
X175581557Y-120235997D01*
X175632260Y-120243849D01*
X175731282Y-120280971D01*
X175731288Y-120280973D01*
X175738684Y-120283745D01*
X175800866Y-120290500D01*
X176497134Y-120290500D01*
X176559316Y-120283745D01*
X176695705Y-120232615D01*
X176708435Y-120223074D01*
X176774939Y-120198226D01*
X176844322Y-120213278D01*
X176859559Y-120223070D01*
X176872295Y-120232615D01*
X177008684Y-120283745D01*
X177070866Y-120290500D01*
X177767134Y-120290500D01*
X177829316Y-120283745D01*
X177965705Y-120232615D01*
X177978435Y-120223074D01*
X178044939Y-120198226D01*
X178114322Y-120213278D01*
X178129559Y-120223070D01*
X178142295Y-120232615D01*
X178278684Y-120283745D01*
X178340866Y-120290500D01*
X179037134Y-120290500D01*
X179099316Y-120283745D01*
X179235705Y-120232615D01*
X179248435Y-120223074D01*
X179314939Y-120198226D01*
X179384322Y-120213278D01*
X179399559Y-120223070D01*
X179412295Y-120232615D01*
X179548684Y-120283745D01*
X179610866Y-120290500D01*
X180307134Y-120290500D01*
X180369316Y-120283745D01*
X180505705Y-120232615D01*
X180512889Y-120227231D01*
X180512891Y-120227230D01*
X180518853Y-120222761D01*
X180585359Y-120197914D01*
X180654742Y-120212967D01*
X180669981Y-120222761D01*
X180675352Y-120226786D01*
X180690946Y-120235324D01*
X180811394Y-120280478D01*
X180826649Y-120284105D01*
X180877514Y-120289631D01*
X180884328Y-120290000D01*
X180931561Y-120290000D01*
X180999682Y-120310002D01*
X181046175Y-120363658D01*
X181056279Y-120433932D01*
X181026785Y-120498512D01*
X181020656Y-120505095D01*
X180857156Y-120668595D01*
X180794844Y-120702621D01*
X180768061Y-120705500D01*
X180548936Y-120705500D01*
X180532493Y-120704422D01*
X180500800Y-120700250D01*
X180492611Y-120701328D01*
X180460926Y-120705499D01*
X180460917Y-120705500D01*
X180460915Y-120705500D01*
X180460909Y-120705501D01*
X180460907Y-120705501D01*
X180361343Y-120718609D01*
X180350136Y-120720084D01*
X180350134Y-120720085D01*
X180341949Y-120721162D01*
X180193924Y-120782476D01*
X180158509Y-120809651D01*
X180098737Y-120855515D01*
X180098721Y-120855529D01*
X180073366Y-120874984D01*
X180073363Y-120874987D01*
X180066813Y-120880013D01*
X180061783Y-120886568D01*
X180047348Y-120905379D01*
X180036481Y-120917770D01*
X178893266Y-122060985D01*
X178880875Y-122071852D01*
X178855513Y-122091313D01*
X178831026Y-122123225D01*
X178831023Y-122123228D01*
X178826881Y-122128626D01*
X178767661Y-122205803D01*
X178757976Y-122218424D01*
X178696662Y-122366449D01*
X178695174Y-122377750D01*
X178681000Y-122485415D01*
X178681000Y-122485420D01*
X178675750Y-122525300D01*
X178676828Y-122533488D01*
X178679922Y-122556990D01*
X178681000Y-122573436D01*
X178681000Y-122588500D01*
X178660998Y-122656621D01*
X178607342Y-122703114D01*
X178555000Y-122714500D01*
X178459928Y-122714500D01*
X178456682Y-122714837D01*
X178456678Y-122714837D01*
X178434686Y-122717119D01*
X178358518Y-122725022D01*
X178197651Y-122778692D01*
X178053445Y-122867929D01*
X177933636Y-122987947D01*
X177844651Y-123132308D01*
X177842346Y-123139256D01*
X177842346Y-123139257D01*
X177808674Y-123240775D01*
X177791262Y-123293269D01*
X177781000Y-123393428D01*
X177781000Y-124002572D01*
X177791522Y-124103982D01*
X177845192Y-124264849D01*
X177934429Y-124409055D01*
X178054447Y-124528864D01*
X178060677Y-124532704D01*
X178060678Y-124532705D01*
X178068073Y-124537263D01*
X178198808Y-124617849D01*
X178205756Y-124620154D01*
X178205757Y-124620154D01*
X178353238Y-124669072D01*
X178353240Y-124669072D01*
X178359769Y-124671238D01*
X178459928Y-124681500D01*
X178797761Y-124681500D01*
X178865882Y-124701502D01*
X178886856Y-124718405D01*
X179206594Y-125038143D01*
X179240620Y-125100455D01*
X179243499Y-125127238D01*
X179243499Y-126230562D01*
X179223497Y-126298683D01*
X179206594Y-126319657D01*
X177797028Y-127729223D01*
X177734716Y-127763249D01*
X177663901Y-127758184D01*
X177607065Y-127715637D01*
X177582254Y-127649117D01*
X177594927Y-127584399D01*
X177681820Y-127408200D01*
X177681823Y-127408192D01*
X177683646Y-127404496D01*
X177768275Y-127155187D01*
X177781699Y-127115642D01*
X177781700Y-127115639D01*
X177783025Y-127111735D01*
X177843340Y-126808507D01*
X177846449Y-126761085D01*
X177863291Y-126504119D01*
X177863561Y-126500000D01*
X177853033Y-126339372D01*
X177843610Y-126195608D01*
X177843609Y-126195604D01*
X177843340Y-126191493D01*
X177783025Y-125888265D01*
X177683646Y-125595504D01*
X177681823Y-125591808D01*
X177681820Y-125591800D01*
X177562777Y-125350407D01*
X177546904Y-125318220D01*
X177423233Y-125133133D01*
X177377432Y-125064586D01*
X177377428Y-125064581D01*
X177375139Y-125061155D01*
X177372425Y-125058061D01*
X177372421Y-125058055D01*
X177173999Y-124831799D01*
X177171290Y-124828710D01*
X177076503Y-124745584D01*
X176941945Y-124627579D01*
X176941939Y-124627575D01*
X176938845Y-124624861D01*
X176935419Y-124622572D01*
X176935414Y-124622568D01*
X176741682Y-124493121D01*
X176681781Y-124453096D01*
X176678082Y-124451272D01*
X176678077Y-124451269D01*
X176535565Y-124380990D01*
X176404496Y-124316354D01*
X176267718Y-124269924D01*
X176115642Y-124218301D01*
X176115639Y-124218300D01*
X176111735Y-124216975D01*
X175885039Y-124171883D01*
X175812550Y-124157464D01*
X175812547Y-124157464D01*
X175808507Y-124156660D01*
X175804396Y-124156391D01*
X175804392Y-124156390D01*
X175504119Y-124136709D01*
X175500000Y-124136439D01*
X175495881Y-124136709D01*
X175195608Y-124156390D01*
X175195604Y-124156391D01*
X175191493Y-124156660D01*
X175187453Y-124157464D01*
X175187450Y-124157464D01*
X175114961Y-124171883D01*
X174888265Y-124216975D01*
X174884361Y-124218300D01*
X174884358Y-124218301D01*
X174732282Y-124269924D01*
X174595504Y-124316354D01*
X174591808Y-124318177D01*
X174591800Y-124318180D01*
X174407526Y-124409055D01*
X174318220Y-124453096D01*
X174314787Y-124455390D01*
X174314785Y-124455391D01*
X174064586Y-124622568D01*
X174064581Y-124622572D01*
X174061155Y-124624861D01*
X174058061Y-124627575D01*
X174058055Y-124627579D01*
X173923497Y-124745584D01*
X173828710Y-124828710D01*
X173826001Y-124831799D01*
X173627579Y-125058055D01*
X173627575Y-125058061D01*
X173624861Y-125061155D01*
X173622572Y-125064581D01*
X173622568Y-125064586D01*
X173576767Y-125133133D01*
X173453096Y-125318220D01*
X173437223Y-125350407D01*
X173318180Y-125591800D01*
X173318177Y-125591808D01*
X173316354Y-125595504D01*
X173216975Y-125888265D01*
X173156660Y-126191493D01*
X173156391Y-126195604D01*
X173156390Y-126195608D01*
X173146967Y-126339372D01*
X173136439Y-126500000D01*
X173136709Y-126504119D01*
X173153552Y-126761085D01*
X173156660Y-126808507D01*
X173216975Y-127111735D01*
X173218300Y-127115639D01*
X173218301Y-127115642D01*
X173231725Y-127155187D01*
X173316354Y-127404496D01*
X173318177Y-127408192D01*
X173318180Y-127408200D01*
X173405073Y-127584399D01*
X173453096Y-127681780D01*
X173455390Y-127685213D01*
X173455391Y-127685215D01*
X173565527Y-127850045D01*
X173624861Y-127938845D01*
X173627575Y-127941939D01*
X173627579Y-127941945D01*
X173812182Y-128152444D01*
X173828710Y-128171290D01*
X173831799Y-128173999D01*
X174058055Y-128372421D01*
X174058061Y-128372425D01*
X174061155Y-128375139D01*
X174064581Y-128377428D01*
X174064586Y-128377432D01*
X174104387Y-128404026D01*
X174318219Y-128546904D01*
X174321918Y-128548728D01*
X174321923Y-128548731D01*
X174390881Y-128582737D01*
X174595504Y-128683646D01*
X174599409Y-128684971D01*
X174599410Y-128684972D01*
X174884358Y-128781699D01*
X174884361Y-128781700D01*
X174888265Y-128783025D01*
X175114961Y-128828117D01*
X175187450Y-128842536D01*
X175187453Y-128842536D01*
X175191493Y-128843340D01*
X175195604Y-128843609D01*
X175195608Y-128843610D01*
X175495881Y-128863291D01*
X175500000Y-128863561D01*
X175504119Y-128863291D01*
X175804392Y-128843610D01*
X175804396Y-128843609D01*
X175808507Y-128843340D01*
X175812547Y-128842536D01*
X175812550Y-128842536D01*
X175885039Y-128828117D01*
X176111735Y-128783025D01*
X176115639Y-128781700D01*
X176115642Y-128781699D01*
X176400590Y-128684972D01*
X176400591Y-128684971D01*
X176404496Y-128683646D01*
X176584400Y-128594927D01*
X176654342Y-128582737D01*
X176719771Y-128610296D01*
X176759915Y-128668854D01*
X176762027Y-128739819D01*
X176729223Y-128797028D01*
X173681656Y-131844595D01*
X173619344Y-131878621D01*
X173592561Y-131881500D01*
X171581860Y-131881500D01*
X171513739Y-131861498D01*
X171467246Y-131807842D01*
X171457142Y-131737568D01*
X171486636Y-131672988D01*
X171506601Y-131656151D01*
X171505904Y-131655262D01*
X171511880Y-131650576D01*
X171518381Y-131646639D01*
X171639639Y-131525381D01*
X171728472Y-131378699D01*
X171736886Y-131351852D01*
X171761889Y-131272065D01*
X171779753Y-131215062D01*
X171786500Y-131141635D01*
X171786500Y-130810000D01*
X171786499Y-130481249D01*
X171786499Y-130478366D01*
X171785887Y-130471698D01*
X171780364Y-130411592D01*
X171779753Y-130404938D01*
X171755188Y-130326551D01*
X171730744Y-130248550D01*
X171730743Y-130248548D01*
X171728472Y-130241301D01*
X171694211Y-130184729D01*
X171676032Y-130116099D01*
X171692868Y-130056458D01*
X171773223Y-129917279D01*
X171773224Y-129917278D01*
X171776527Y-129911556D01*
X171835542Y-129729928D01*
X171845083Y-129639156D01*
X171854814Y-129546565D01*
X171855504Y-129540000D01*
X171845070Y-129440728D01*
X171857842Y-129370890D01*
X171906344Y-129319044D01*
X171975177Y-129301649D01*
X172025749Y-129316238D01*
X172026248Y-129315118D01*
X172151515Y-129370890D01*
X172200712Y-129392794D01*
X172294113Y-129412647D01*
X172381056Y-129431128D01*
X172381061Y-129431128D01*
X172387513Y-129432500D01*
X172578487Y-129432500D01*
X172584939Y-129431128D01*
X172584944Y-129431128D01*
X172671887Y-129412647D01*
X172765288Y-129392794D01*
X172771319Y-129390109D01*
X172933722Y-129317803D01*
X172933724Y-129317802D01*
X172939752Y-129315118D01*
X172958291Y-129301649D01*
X173008000Y-129265533D01*
X173094253Y-129202866D01*
X173184865Y-129102231D01*
X173217621Y-129065852D01*
X173217622Y-129065851D01*
X173222040Y-129060944D01*
X173317527Y-128895556D01*
X173376542Y-128713928D01*
X173377239Y-128707302D01*
X173395814Y-128530565D01*
X173396504Y-128524000D01*
X173384115Y-128406122D01*
X173377232Y-128340635D01*
X173377232Y-128340633D01*
X173376542Y-128334072D01*
X173317527Y-128152444D01*
X173222040Y-127987056D01*
X173175542Y-127935414D01*
X173098675Y-127850045D01*
X173098674Y-127850044D01*
X173094253Y-127845134D01*
X172939752Y-127732882D01*
X172866252Y-127700158D01*
X172812156Y-127654178D01*
X172791501Y-127585051D01*
X172791501Y-126700945D01*
X172792579Y-126684499D01*
X172795674Y-126660989D01*
X172796752Y-126652801D01*
X172785875Y-126570183D01*
X172776917Y-126502138D01*
X172775839Y-126493950D01*
X172714525Y-126345925D01*
X172641479Y-126250730D01*
X172641475Y-126250726D01*
X172626003Y-126230562D01*
X172622017Y-126225367D01*
X172622014Y-126225364D01*
X172616988Y-126218814D01*
X172610433Y-126213784D01*
X172591622Y-126199349D01*
X172579231Y-126188482D01*
X170694906Y-124304157D01*
X170660880Y-124241845D01*
X170658001Y-124215062D01*
X170658001Y-122839000D01*
X170678003Y-122770879D01*
X170731659Y-122724386D01*
X170784001Y-122713000D01*
X170879072Y-122713000D01*
X170882318Y-122712663D01*
X170882322Y-122712663D01*
X170916103Y-122709158D01*
X170980482Y-122702478D01*
X171141349Y-122648808D01*
X171285555Y-122559571D01*
X171405364Y-122439553D01*
X171494349Y-122295192D01*
X171521986Y-122211871D01*
X171545572Y-122140762D01*
X171545572Y-122140760D01*
X171547738Y-122134231D01*
X171558000Y-122034072D01*
X171558000Y-121424928D01*
X171555978Y-121405435D01*
X171548189Y-121330374D01*
X171547478Y-121323518D01*
X171493808Y-121162651D01*
X171404571Y-121018445D01*
X171284553Y-120898636D01*
X171140192Y-120809651D01*
X171048736Y-120779316D01*
X170985762Y-120758428D01*
X170985760Y-120758428D01*
X170979231Y-120756262D01*
X170879072Y-120746000D01*
X170784000Y-120746000D01*
X170715879Y-120725998D01*
X170669386Y-120672342D01*
X170658000Y-120620000D01*
X170658000Y-118227939D01*
X170678002Y-118159818D01*
X170694905Y-118138844D01*
X171925405Y-116908344D01*
X171987717Y-116874318D01*
X172058532Y-116879383D01*
G37*
%TD.AperFunction*%
%TA.AperFunction,Conductor*%
G36*
X181915682Y-117185502D02*
G01*
X181936656Y-117202405D01*
X182009595Y-117275344D01*
X182043621Y-117337656D01*
X182046500Y-117364439D01*
X182046500Y-117783069D01*
X182026498Y-117851190D01*
X181972842Y-117897683D01*
X181902568Y-117907787D01*
X181844935Y-117883895D01*
X181782649Y-117837214D01*
X181767054Y-117828676D01*
X181646606Y-117783522D01*
X181631351Y-117779895D01*
X181580486Y-117774369D01*
X181573672Y-117774000D01*
X181501115Y-117774000D01*
X181485876Y-117778475D01*
X181484671Y-117779865D01*
X181483000Y-117787548D01*
X181483000Y-119160000D01*
X181462998Y-119228121D01*
X181409342Y-119274614D01*
X181357000Y-119286000D01*
X181101000Y-119286000D01*
X181032879Y-119265998D01*
X180986386Y-119212342D01*
X180975000Y-119160000D01*
X180975000Y-117792116D01*
X180970525Y-117776877D01*
X180969135Y-117775672D01*
X180961452Y-117774001D01*
X180884331Y-117774001D01*
X180877510Y-117774371D01*
X180826648Y-117779895D01*
X180811397Y-117783521D01*
X180713133Y-117820359D01*
X180642326Y-117825542D01*
X180579957Y-117791622D01*
X180554231Y-117747157D01*
X180551838Y-117748148D01*
X180493684Y-117607753D01*
X180490524Y-117600123D01*
X180417478Y-117504928D01*
X180417474Y-117504924D01*
X180417471Y-117504920D01*
X180398016Y-117479565D01*
X180398011Y-117479560D01*
X180392987Y-117473012D01*
X180386432Y-117467982D01*
X180367621Y-117453547D01*
X180355230Y-117442680D01*
X180293145Y-117380595D01*
X180259119Y-117318283D01*
X180264184Y-117247468D01*
X180306731Y-117190632D01*
X180373251Y-117165821D01*
X180382240Y-117165500D01*
X181847561Y-117165500D01*
X181915682Y-117185502D01*
G37*
%TD.AperFunction*%
%TD*%
M02*
