%TF.GenerationSoftware,KiCad,Pcbnew,(6.0.0)*%
%TF.CreationDate,2022-02-14T22:10:37-06:00*%
%TF.ProjectId,MA710_encoder,4d413731-305f-4656-9e63-6f6465722e6b,rev?*%
%TF.SameCoordinates,Original*%
%TF.FileFunction,Soldermask,Bot*%
%TF.FilePolarity,Negative*%
%FSLAX46Y46*%
G04 Gerber Fmt 4.6, Leading zero omitted, Abs format (unit mm)*
G04 Created by KiCad (PCBNEW (6.0.0)) date 2022-02-14 22:10:37*
%MOMM*%
%LPD*%
G01*
G04 APERTURE LIST*
G04 Aperture macros list*
%AMRoundRect*
0 Rectangle with rounded corners*
0 $1 Rounding radius*
0 $2 $3 $4 $5 $6 $7 $8 $9 X,Y pos of 4 corners*
0 Add a 4 corners polygon primitive as box body*
4,1,4,$2,$3,$4,$5,$6,$7,$8,$9,$2,$3,0*
0 Add four circle primitives for the rounded corners*
1,1,$1+$1,$2,$3*
1,1,$1+$1,$4,$5*
1,1,$1+$1,$6,$7*
1,1,$1+$1,$8,$9*
0 Add four rect primitives between the rounded corners*
20,1,$1+$1,$2,$3,$4,$5,0*
20,1,$1+$1,$4,$5,$6,$7,0*
20,1,$1+$1,$6,$7,$8,$9,0*
20,1,$1+$1,$8,$9,$2,$3,0*%
G04 Aperture macros list end*
%ADD10RoundRect,0.050000X-0.850000X-0.850000X0.850000X-0.850000X0.850000X0.850000X-0.850000X0.850000X0*%
%ADD11O,1.800000X1.800000*%
%ADD12RoundRect,0.050000X-0.450000X-0.450000X0.450000X-0.450000X0.450000X0.450000X-0.450000X0.450000X0*%
%ADD13C,1.000000*%
%ADD14O,2.900000X1.500000*%
%ADD15RoundRect,0.268750X-0.218750X-0.256250X0.218750X-0.256250X0.218750X0.256250X-0.218750X0.256250X0*%
%ADD16RoundRect,0.112500X-0.350000X-0.062500X0.350000X-0.062500X0.350000X0.062500X-0.350000X0.062500X0*%
%ADD17RoundRect,0.112500X-0.062500X-0.350000X0.062500X-0.350000X0.062500X0.350000X-0.062500X0.350000X0*%
%ADD18RoundRect,0.300000X-0.600000X-0.600000X0.600000X-0.600000X0.600000X0.600000X-0.600000X0.600000X0*%
G04 APERTURE END LIST*
D10*
%TO.C,J1*%
X152654000Y-136652000D03*
D11*
X152654000Y-139192000D03*
%TD*%
D12*
%TO.C,J4*%
X157838000Y-138501000D03*
D13*
X158488000Y-136581000D03*
X159138000Y-138501000D03*
X159788000Y-136581000D03*
X160438000Y-138501000D03*
X161088000Y-136581000D03*
X161738000Y-138501000D03*
X162388000Y-136581000D03*
X163038000Y-138501000D03*
X163688000Y-136581000D03*
X164338000Y-138501000D03*
X164988000Y-136581000D03*
X165638000Y-138501000D03*
X166288000Y-136581000D03*
X166938000Y-138501000D03*
X167588000Y-136581000D03*
X168238000Y-138501000D03*
X168888000Y-136581000D03*
X169538000Y-138501000D03*
X170188000Y-136581000D03*
D14*
X158338000Y-140121000D03*
X170338000Y-140121000D03*
X164338000Y-134961000D03*
%TD*%
D15*
%TO.C,C1*%
X165470840Y-118427500D03*
X167045840Y-118427500D03*
%TD*%
D16*
%TO.C,U1*%
X163037500Y-116250000D03*
X163037500Y-115750000D03*
X163037500Y-115250000D03*
X163037500Y-114750000D03*
D17*
X163750000Y-114037500D03*
X164250000Y-114037500D03*
X164750000Y-114037500D03*
X165250000Y-114037500D03*
D16*
X165962500Y-114750000D03*
X165962500Y-115250000D03*
X165962500Y-115750000D03*
X165962500Y-116250000D03*
D17*
X165250000Y-116962500D03*
X164750000Y-116962500D03*
X164250000Y-116962500D03*
X163750000Y-116962500D03*
D18*
X164500000Y-115500000D03*
%TD*%
M02*
