%TF.GenerationSoftware,KiCad,Pcbnew,(6.0.0)*%
%TF.CreationDate,2022-02-14T22:10:37-06:00*%
%TF.ProjectId,MA710_encoder,4d413731-305f-4656-9e63-6f6465722e6b,rev?*%
%TF.SameCoordinates,Original*%
%TF.FileFunction,Legend,Top*%
%TF.FilePolarity,Positive*%
%FSLAX46Y46*%
G04 Gerber Fmt 4.6, Leading zero omitted, Abs format (unit mm)*
G04 Created by KiCad (PCBNEW (6.0.0)) date 2022-02-14 22:10:37*
%MOMM*%
%LPD*%
G01*
G04 APERTURE LIST*
%ADD10C,0.150000*%
%ADD11C,0.120000*%
%ADD12C,0.127000*%
%ADD13C,0.280000*%
G04 APERTURE END LIST*
D10*
X151242380Y-123054095D02*
X150242380Y-123054095D01*
X150242380Y-122816000D01*
X150290000Y-122673142D01*
X150385238Y-122577904D01*
X150480476Y-122530285D01*
X150670952Y-122482666D01*
X150813809Y-122482666D01*
X151004285Y-122530285D01*
X151099523Y-122577904D01*
X151194761Y-122673142D01*
X151242380Y-122816000D01*
X151242380Y-123054095D01*
X151242380Y-122054095D02*
X150242380Y-122054095D01*
X150242380Y-121673142D01*
X150290000Y-121577904D01*
X150337619Y-121530285D01*
X150432857Y-121482666D01*
X150575714Y-121482666D01*
X150670952Y-121530285D01*
X150718571Y-121577904D01*
X150766190Y-121673142D01*
X150766190Y-122054095D01*
X150718571Y-119958857D02*
X150718571Y-120292190D01*
X151242380Y-120292190D02*
X150242380Y-120292190D01*
X150242380Y-119816000D01*
X151242380Y-119435047D02*
X150575714Y-119435047D01*
X150242380Y-119435047D02*
X150290000Y-119482666D01*
X150337619Y-119435047D01*
X150290000Y-119387428D01*
X150242380Y-119435047D01*
X150337619Y-119435047D01*
X151242380Y-119054095D02*
X150575714Y-118530285D01*
X150575714Y-119054095D02*
X151242380Y-118530285D01*
X151194761Y-117768380D02*
X151242380Y-117863619D01*
X151242380Y-118054095D01*
X151194761Y-118149333D01*
X151099523Y-118196952D01*
X150718571Y-118196952D01*
X150623333Y-118149333D01*
X150575714Y-118054095D01*
X150575714Y-117863619D01*
X150623333Y-117768380D01*
X150718571Y-117720761D01*
X150813809Y-117720761D01*
X150909047Y-118196952D01*
X151242380Y-116863619D02*
X150242380Y-116863619D01*
X151194761Y-116863619D02*
X151242380Y-116958857D01*
X151242380Y-117149333D01*
X151194761Y-117244571D01*
X151147142Y-117292190D01*
X151051904Y-117339809D01*
X150766190Y-117339809D01*
X150670952Y-117292190D01*
X150623333Y-117244571D01*
X150575714Y-117149333D01*
X150575714Y-116958857D01*
X150623333Y-116863619D01*
X151242380Y-115625523D02*
X150242380Y-115625523D01*
X150242380Y-115244571D01*
X150290000Y-115149333D01*
X150337619Y-115101714D01*
X150432857Y-115054095D01*
X150575714Y-115054095D01*
X150670952Y-115101714D01*
X150718571Y-115149333D01*
X150766190Y-115244571D01*
X150766190Y-115625523D01*
X151242380Y-114482666D02*
X151194761Y-114577904D01*
X151147142Y-114625523D01*
X151051904Y-114673142D01*
X150766190Y-114673142D01*
X150670952Y-114625523D01*
X150623333Y-114577904D01*
X150575714Y-114482666D01*
X150575714Y-114339809D01*
X150623333Y-114244571D01*
X150670952Y-114196952D01*
X150766190Y-114149333D01*
X151051904Y-114149333D01*
X151147142Y-114196952D01*
X151194761Y-114244571D01*
X151242380Y-114339809D01*
X151242380Y-114482666D01*
X151194761Y-113768380D02*
X151242380Y-113673142D01*
X151242380Y-113482666D01*
X151194761Y-113387428D01*
X151099523Y-113339809D01*
X151051904Y-113339809D01*
X150956666Y-113387428D01*
X150909047Y-113482666D01*
X150909047Y-113625523D01*
X150861428Y-113720761D01*
X150766190Y-113768380D01*
X150718571Y-113768380D01*
X150623333Y-113720761D01*
X150575714Y-113625523D01*
X150575714Y-113482666D01*
X150623333Y-113387428D01*
X151194761Y-112196952D02*
X151242380Y-112054095D01*
X151242380Y-111816000D01*
X151194761Y-111720761D01*
X151147142Y-111673142D01*
X151051904Y-111625523D01*
X150956666Y-111625523D01*
X150861428Y-111673142D01*
X150813809Y-111720761D01*
X150766190Y-111816000D01*
X150718571Y-112006476D01*
X150670952Y-112101714D01*
X150623333Y-112149333D01*
X150528095Y-112196952D01*
X150432857Y-112196952D01*
X150337619Y-112149333D01*
X150290000Y-112101714D01*
X150242380Y-112006476D01*
X150242380Y-111768380D01*
X150290000Y-111625523D01*
X151194761Y-110816000D02*
X151242380Y-110911238D01*
X151242380Y-111101714D01*
X151194761Y-111196952D01*
X151099523Y-111244571D01*
X150718571Y-111244571D01*
X150623333Y-111196952D01*
X150575714Y-111101714D01*
X150575714Y-110911238D01*
X150623333Y-110816000D01*
X150718571Y-110768380D01*
X150813809Y-110768380D01*
X150909047Y-111244571D01*
X150575714Y-110339809D02*
X151242380Y-110339809D01*
X150670952Y-110339809D02*
X150623333Y-110292190D01*
X150575714Y-110196952D01*
X150575714Y-110054095D01*
X150623333Y-109958857D01*
X150718571Y-109911238D01*
X151242380Y-109911238D01*
X151194761Y-109482666D02*
X151242380Y-109387428D01*
X151242380Y-109196952D01*
X151194761Y-109101714D01*
X151099523Y-109054095D01*
X151051904Y-109054095D01*
X150956666Y-109101714D01*
X150909047Y-109196952D01*
X150909047Y-109339809D01*
X150861428Y-109435047D01*
X150766190Y-109482666D01*
X150718571Y-109482666D01*
X150623333Y-109435047D01*
X150575714Y-109339809D01*
X150575714Y-109196952D01*
X150623333Y-109101714D01*
X151242380Y-108482666D02*
X151194761Y-108577904D01*
X151147142Y-108625523D01*
X151051904Y-108673142D01*
X150766190Y-108673142D01*
X150670952Y-108625523D01*
X150623333Y-108577904D01*
X150575714Y-108482666D01*
X150575714Y-108339809D01*
X150623333Y-108244571D01*
X150670952Y-108196952D01*
X150766190Y-108149333D01*
X151051904Y-108149333D01*
X151147142Y-108196952D01*
X151194761Y-108244571D01*
X151242380Y-108339809D01*
X151242380Y-108482666D01*
X151242380Y-107720761D02*
X150575714Y-107720761D01*
X150766190Y-107720761D02*
X150670952Y-107673142D01*
X150623333Y-107625523D01*
X150575714Y-107530285D01*
X150575714Y-107435047D01*
X151947619Y-119506476D02*
X151900000Y-119458857D01*
X151852380Y-119363619D01*
X151852380Y-119125523D01*
X151900000Y-119030285D01*
X151947619Y-118982666D01*
X152042857Y-118935047D01*
X152138095Y-118935047D01*
X152280952Y-118982666D01*
X152852380Y-119554095D01*
X152852380Y-118935047D01*
X151804761Y-117792190D02*
X153090476Y-118649333D01*
X152852380Y-116935047D02*
X152852380Y-117506476D01*
X152852380Y-117220761D02*
X151852380Y-117220761D01*
X151995238Y-117316000D01*
X152090476Y-117411238D01*
X152138095Y-117506476D01*
X152185714Y-116077904D02*
X152852380Y-116077904D01*
X151804761Y-116316000D02*
X152519047Y-116554095D01*
X152519047Y-115935047D01*
X151804761Y-114839809D02*
X153090476Y-115696952D01*
X151947619Y-114554095D02*
X151900000Y-114506476D01*
X151852380Y-114411238D01*
X151852380Y-114173142D01*
X151900000Y-114077904D01*
X151947619Y-114030285D01*
X152042857Y-113982666D01*
X152138095Y-113982666D01*
X152280952Y-114030285D01*
X152852380Y-114601714D01*
X152852380Y-113982666D01*
X151852380Y-113363619D02*
X151852380Y-113268380D01*
X151900000Y-113173142D01*
X151947619Y-113125523D01*
X152042857Y-113077904D01*
X152233333Y-113030285D01*
X152471428Y-113030285D01*
X152661904Y-113077904D01*
X152757142Y-113125523D01*
X152804761Y-113173142D01*
X152852380Y-113268380D01*
X152852380Y-113363619D01*
X152804761Y-113458857D01*
X152757142Y-113506476D01*
X152661904Y-113554095D01*
X152471428Y-113601714D01*
X152233333Y-113601714D01*
X152042857Y-113554095D01*
X151947619Y-113506476D01*
X151900000Y-113458857D01*
X151852380Y-113363619D01*
X151947619Y-112649333D02*
X151900000Y-112601714D01*
X151852380Y-112506476D01*
X151852380Y-112268380D01*
X151900000Y-112173142D01*
X151947619Y-112125523D01*
X152042857Y-112077904D01*
X152138095Y-112077904D01*
X152280952Y-112125523D01*
X152852380Y-112696952D01*
X152852380Y-112077904D01*
X151947619Y-111696952D02*
X151900000Y-111649333D01*
X151852380Y-111554095D01*
X151852380Y-111316000D01*
X151900000Y-111220761D01*
X151947619Y-111173142D01*
X152042857Y-111125523D01*
X152138095Y-111125523D01*
X152280952Y-111173142D01*
X152852380Y-111744571D01*
X152852380Y-111125523D01*
X154462380Y-121673142D02*
X154462380Y-122149333D01*
X153462380Y-122149333D01*
X154462380Y-121196952D02*
X154414761Y-121292190D01*
X154367142Y-121339809D01*
X154271904Y-121387428D01*
X153986190Y-121387428D01*
X153890952Y-121339809D01*
X153843333Y-121292190D01*
X153795714Y-121196952D01*
X153795714Y-121054095D01*
X153843333Y-120958857D01*
X153890952Y-120911238D01*
X153986190Y-120863619D01*
X154271904Y-120863619D01*
X154367142Y-120911238D01*
X154414761Y-120958857D01*
X154462380Y-121054095D01*
X154462380Y-121196952D01*
X153795714Y-120006476D02*
X154605238Y-120006476D01*
X154700476Y-120054095D01*
X154748095Y-120101714D01*
X154795714Y-120196952D01*
X154795714Y-120339809D01*
X154748095Y-120435047D01*
X154414761Y-120006476D02*
X154462380Y-120101714D01*
X154462380Y-120292190D01*
X154414761Y-120387428D01*
X154367142Y-120435047D01*
X154271904Y-120482666D01*
X153986190Y-120482666D01*
X153890952Y-120435047D01*
X153843333Y-120387428D01*
X153795714Y-120292190D01*
X153795714Y-120101714D01*
X153843333Y-120006476D01*
X154462380Y-119101714D02*
X153938571Y-119101714D01*
X153843333Y-119149333D01*
X153795714Y-119244571D01*
X153795714Y-119435047D01*
X153843333Y-119530285D01*
X154414761Y-119101714D02*
X154462380Y-119196952D01*
X154462380Y-119435047D01*
X154414761Y-119530285D01*
X154319523Y-119577904D01*
X154224285Y-119577904D01*
X154129047Y-119530285D01*
X154081428Y-119435047D01*
X154081428Y-119196952D01*
X154033809Y-119101714D01*
X153795714Y-118625523D02*
X154462380Y-118625523D01*
X153890952Y-118625523D02*
X153843333Y-118577904D01*
X153795714Y-118482666D01*
X153795714Y-118339809D01*
X153843333Y-118244571D01*
X153938571Y-118196952D01*
X154462380Y-118196952D01*
X154462380Y-116387428D02*
X153986190Y-116720761D01*
X154462380Y-116958857D02*
X153462380Y-116958857D01*
X153462380Y-116577904D01*
X153510000Y-116482666D01*
X153557619Y-116435047D01*
X153652857Y-116387428D01*
X153795714Y-116387428D01*
X153890952Y-116435047D01*
X153938571Y-116482666D01*
X153986190Y-116577904D01*
X153986190Y-116958857D01*
X154462380Y-115816000D02*
X154414761Y-115911238D01*
X154367142Y-115958857D01*
X154271904Y-116006476D01*
X153986190Y-116006476D01*
X153890952Y-115958857D01*
X153843333Y-115911238D01*
X153795714Y-115816000D01*
X153795714Y-115673142D01*
X153843333Y-115577904D01*
X153890952Y-115530285D01*
X153986190Y-115482666D01*
X154271904Y-115482666D01*
X154367142Y-115530285D01*
X154414761Y-115577904D01*
X154462380Y-115673142D01*
X154462380Y-115816000D01*
X154414761Y-115101714D02*
X154462380Y-115006476D01*
X154462380Y-114816000D01*
X154414761Y-114720761D01*
X154319523Y-114673142D01*
X154271904Y-114673142D01*
X154176666Y-114720761D01*
X154129047Y-114816000D01*
X154129047Y-114958857D01*
X154081428Y-115054095D01*
X153986190Y-115101714D01*
X153938571Y-115101714D01*
X153843333Y-115054095D01*
X153795714Y-114958857D01*
X153795714Y-114816000D01*
X153843333Y-114720761D01*
X154414761Y-113863619D02*
X154462380Y-113958857D01*
X154462380Y-114149333D01*
X154414761Y-114244571D01*
X154319523Y-114292190D01*
X153938571Y-114292190D01*
X153843333Y-114244571D01*
X153795714Y-114149333D01*
X153795714Y-113958857D01*
X153843333Y-113863619D01*
X153938571Y-113816000D01*
X154033809Y-113816000D01*
X154129047Y-114292190D01*
X153795714Y-113387428D02*
X154462380Y-113387428D01*
X153890952Y-113387428D02*
X153843333Y-113339809D01*
X153795714Y-113244571D01*
X153795714Y-113101714D01*
X153843333Y-113006476D01*
X153938571Y-112958857D01*
X154462380Y-112958857D01*
X154462380Y-112482666D02*
X153795714Y-112482666D01*
X153890952Y-112482666D02*
X153843333Y-112435047D01*
X153795714Y-112339809D01*
X153795714Y-112196952D01*
X153843333Y-112101714D01*
X153938571Y-112054095D01*
X154462380Y-112054095D01*
X153938571Y-112054095D02*
X153843333Y-112006476D01*
X153795714Y-111911238D01*
X153795714Y-111768380D01*
X153843333Y-111673142D01*
X153938571Y-111625523D01*
X154462380Y-111625523D01*
X154462380Y-110720761D02*
X153938571Y-110720761D01*
X153843333Y-110768380D01*
X153795714Y-110863619D01*
X153795714Y-111054095D01*
X153843333Y-111149333D01*
X154414761Y-110720761D02*
X154462380Y-110816000D01*
X154462380Y-111054095D01*
X154414761Y-111149333D01*
X154319523Y-111196952D01*
X154224285Y-111196952D01*
X154129047Y-111149333D01*
X154081428Y-111054095D01*
X154081428Y-110816000D01*
X154033809Y-110720761D01*
X153795714Y-110339809D02*
X154462380Y-110101714D01*
X153795714Y-109863619D02*
X154462380Y-110101714D01*
X154700476Y-110196952D01*
X154748095Y-110244571D01*
X154795714Y-110339809D01*
X154414761Y-109101714D02*
X154462380Y-109196952D01*
X154462380Y-109387428D01*
X154414761Y-109482666D01*
X154319523Y-109530285D01*
X153938571Y-109530285D01*
X153843333Y-109482666D01*
X153795714Y-109387428D01*
X153795714Y-109196952D01*
X153843333Y-109101714D01*
X153938571Y-109054095D01*
X154033809Y-109054095D01*
X154129047Y-109530285D01*
X154462380Y-108625523D02*
X153795714Y-108625523D01*
X153986190Y-108625523D02*
X153890952Y-108577904D01*
X153843333Y-108530285D01*
X153795714Y-108435047D01*
X153795714Y-108339809D01*
%TO.C,J1*%
X152320666Y-133774380D02*
X152320666Y-134488666D01*
X152273047Y-134631523D01*
X152177809Y-134726761D01*
X152034952Y-134774380D01*
X151939714Y-134774380D01*
X153320666Y-134774380D02*
X152749238Y-134774380D01*
X153034952Y-134774380D02*
X153034952Y-133774380D01*
X152939714Y-133917238D01*
X152844476Y-134012476D01*
X152749238Y-134060095D01*
%TO.C,C2*%
X158304333Y-100331142D02*
X158256714Y-100378761D01*
X158113857Y-100426380D01*
X158018619Y-100426380D01*
X157875761Y-100378761D01*
X157780523Y-100283523D01*
X157732904Y-100188285D01*
X157685285Y-99997809D01*
X157685285Y-99854952D01*
X157732904Y-99664476D01*
X157780523Y-99569238D01*
X157875761Y-99474000D01*
X158018619Y-99426380D01*
X158113857Y-99426380D01*
X158256714Y-99474000D01*
X158304333Y-99521619D01*
X158685285Y-99521619D02*
X158732904Y-99474000D01*
X158828142Y-99426380D01*
X159066238Y-99426380D01*
X159161476Y-99474000D01*
X159209095Y-99521619D01*
X159256714Y-99616857D01*
X159256714Y-99712095D01*
X159209095Y-99854952D01*
X158637666Y-100426380D01*
X159256714Y-100426380D01*
%TO.C,C3*%
X170572333Y-111545642D02*
X170524714Y-111593261D01*
X170381857Y-111640880D01*
X170286619Y-111640880D01*
X170143761Y-111593261D01*
X170048523Y-111498023D01*
X170000904Y-111402785D01*
X169953285Y-111212309D01*
X169953285Y-111069452D01*
X170000904Y-110878976D01*
X170048523Y-110783738D01*
X170143761Y-110688500D01*
X170286619Y-110640880D01*
X170381857Y-110640880D01*
X170524714Y-110688500D01*
X170572333Y-110736119D01*
X170905666Y-110640880D02*
X171524714Y-110640880D01*
X171191380Y-111021833D01*
X171334238Y-111021833D01*
X171429476Y-111069452D01*
X171477095Y-111117071D01*
X171524714Y-111212309D01*
X171524714Y-111450404D01*
X171477095Y-111545642D01*
X171429476Y-111593261D01*
X171334238Y-111640880D01*
X171048523Y-111640880D01*
X170953285Y-111593261D01*
X170905666Y-111545642D01*
%TO.C,R1*%
X169657833Y-120751880D02*
X169324500Y-120275690D01*
X169086404Y-120751880D02*
X169086404Y-119751880D01*
X169467357Y-119751880D01*
X169562595Y-119799500D01*
X169610214Y-119847119D01*
X169657833Y-119942357D01*
X169657833Y-120085214D01*
X169610214Y-120180452D01*
X169562595Y-120228071D01*
X169467357Y-120275690D01*
X169086404Y-120275690D01*
X170610214Y-120751880D02*
X170038785Y-120751880D01*
X170324500Y-120751880D02*
X170324500Y-119751880D01*
X170229261Y-119894738D01*
X170134023Y-119989976D01*
X170038785Y-120037595D01*
%TO.C,J4*%
X158267625Y-132648684D02*
X158267625Y-133364387D01*
X158219911Y-133507527D01*
X158124484Y-133602954D01*
X157981344Y-133650668D01*
X157885917Y-133650668D01*
X159174182Y-132982679D02*
X159174182Y-133650668D01*
X158935614Y-132600970D02*
X158697047Y-133316673D01*
X159317322Y-133316673D01*
%TO.C,U9*%
X157980880Y-106171904D02*
X158790404Y-106171904D01*
X158885642Y-106124285D01*
X158933261Y-106076666D01*
X158980880Y-105981428D01*
X158980880Y-105790952D01*
X158933261Y-105695714D01*
X158885642Y-105648095D01*
X158790404Y-105600476D01*
X157980880Y-105600476D01*
X158980880Y-105076666D02*
X158980880Y-104886190D01*
X158933261Y-104790952D01*
X158885642Y-104743333D01*
X158742785Y-104648095D01*
X158552309Y-104600476D01*
X158171357Y-104600476D01*
X158076119Y-104648095D01*
X158028500Y-104695714D01*
X157980880Y-104790952D01*
X157980880Y-104981428D01*
X158028500Y-105076666D01*
X158076119Y-105124285D01*
X158171357Y-105171904D01*
X158409452Y-105171904D01*
X158504690Y-105124285D01*
X158552309Y-105076666D01*
X158599928Y-104981428D01*
X158599928Y-104790952D01*
X158552309Y-104695714D01*
X158504690Y-104648095D01*
X158409452Y-104600476D01*
%TO.C,U14*%
X170236380Y-117570095D02*
X171045904Y-117570095D01*
X171141142Y-117522476D01*
X171188761Y-117474857D01*
X171236380Y-117379619D01*
X171236380Y-117189142D01*
X171188761Y-117093904D01*
X171141142Y-117046285D01*
X171045904Y-116998666D01*
X170236380Y-116998666D01*
X171236380Y-115998666D02*
X171236380Y-116570095D01*
X171236380Y-116284380D02*
X170236380Y-116284380D01*
X170379238Y-116379619D01*
X170474476Y-116474857D01*
X170522095Y-116570095D01*
X170569714Y-115141523D02*
X171236380Y-115141523D01*
X170188761Y-115379619D02*
X170903047Y-115617714D01*
X170903047Y-114998666D01*
%TO.C,R3*%
X180427333Y-110370880D02*
X180094000Y-109894690D01*
X179855904Y-110370880D02*
X179855904Y-109370880D01*
X180236857Y-109370880D01*
X180332095Y-109418500D01*
X180379714Y-109466119D01*
X180427333Y-109561357D01*
X180427333Y-109704214D01*
X180379714Y-109799452D01*
X180332095Y-109847071D01*
X180236857Y-109894690D01*
X179855904Y-109894690D01*
X180760666Y-109370880D02*
X181379714Y-109370880D01*
X181046380Y-109751833D01*
X181189238Y-109751833D01*
X181284476Y-109799452D01*
X181332095Y-109847071D01*
X181379714Y-109942309D01*
X181379714Y-110180404D01*
X181332095Y-110275642D01*
X181284476Y-110323261D01*
X181189238Y-110370880D01*
X180903523Y-110370880D01*
X180808285Y-110323261D01*
X180760666Y-110275642D01*
%TO.C,R2*%
X179347833Y-125580380D02*
X179014500Y-125104190D01*
X178776404Y-125580380D02*
X178776404Y-124580380D01*
X179157357Y-124580380D01*
X179252595Y-124628000D01*
X179300214Y-124675619D01*
X179347833Y-124770857D01*
X179347833Y-124913714D01*
X179300214Y-125008952D01*
X179252595Y-125056571D01*
X179157357Y-125104190D01*
X178776404Y-125104190D01*
X179728785Y-124675619D02*
X179776404Y-124628000D01*
X179871642Y-124580380D01*
X180109738Y-124580380D01*
X180204976Y-124628000D01*
X180252595Y-124675619D01*
X180300214Y-124770857D01*
X180300214Y-124866095D01*
X180252595Y-125008952D01*
X179681166Y-125580380D01*
X180300214Y-125580380D01*
%TO.C,R4*%
X169886333Y-129832380D02*
X169553000Y-129356190D01*
X169314904Y-129832380D02*
X169314904Y-128832380D01*
X169695857Y-128832380D01*
X169791095Y-128880000D01*
X169838714Y-128927619D01*
X169886333Y-129022857D01*
X169886333Y-129165714D01*
X169838714Y-129260952D01*
X169791095Y-129308571D01*
X169695857Y-129356190D01*
X169314904Y-129356190D01*
X170743476Y-129165714D02*
X170743476Y-129832380D01*
X170505380Y-128784761D02*
X170267285Y-129499047D01*
X170886333Y-129499047D01*
D11*
%TO.C,J1*%
X151324000Y-140522000D02*
X153984000Y-140522000D01*
X151324000Y-137922000D02*
X151324000Y-140522000D01*
X153984000Y-137922000D02*
X153984000Y-140522000D01*
X151324000Y-137922000D02*
X153984000Y-137922000D01*
X151324000Y-136652000D02*
X151324000Y-135322000D01*
X151324000Y-135322000D02*
X152654000Y-135322000D01*
%TO.C,C2*%
X160720721Y-99439000D02*
X161046279Y-99439000D01*
X160720721Y-100459000D02*
X161046279Y-100459000D01*
%TO.C,C3*%
X172976221Y-111698500D02*
X173301779Y-111698500D01*
X172976221Y-110678500D02*
X173301779Y-110678500D01*
%TO.C,R1*%
X169661721Y-122239500D02*
X169987279Y-122239500D01*
X169661721Y-121219500D02*
X169987279Y-121219500D01*
D12*
%TO.C,J4*%
X168638000Y-140771000D02*
X160038000Y-140771000D01*
X173238000Y-140771000D02*
X171838000Y-140771000D01*
X173238000Y-134311000D02*
X173238000Y-140771000D01*
X155438000Y-134311000D02*
X162838000Y-134311000D01*
X155438000Y-140771000D02*
X156838000Y-140771000D01*
X155438000Y-140771000D02*
X155438000Y-134311000D01*
X173238000Y-134311000D02*
X165838000Y-134311000D01*
D13*
X155078000Y-138541000D02*
G75*
G03*
X155078000Y-138541000I-140000J0D01*
G01*
D10*
%TO.C,U9*%
X169603500Y-107485000D02*
X169603500Y-103335000D01*
X159453500Y-103335000D02*
X159558500Y-103335000D01*
X169603500Y-103335000D02*
X169498500Y-103335000D01*
X159453500Y-107485000D02*
X159478500Y-107485000D01*
X159478500Y-107485000D02*
X159478500Y-108860000D01*
X169603500Y-107485000D02*
X169498500Y-107485000D01*
X159453500Y-107485000D02*
X159453500Y-103335000D01*
%TO.C,U14*%
X181859000Y-118407000D02*
X181754000Y-118407000D01*
X171709000Y-118407000D02*
X171734000Y-118407000D01*
X181859000Y-114257000D02*
X181754000Y-114257000D01*
X171734000Y-118407000D02*
X171734000Y-119782000D01*
X171709000Y-118407000D02*
X171709000Y-114257000D01*
X171709000Y-114257000D02*
X171814000Y-114257000D01*
X181859000Y-118407000D02*
X181859000Y-114257000D01*
D11*
%TO.C,R3*%
X180756779Y-110805500D02*
X180431221Y-110805500D01*
X180756779Y-111825500D02*
X180431221Y-111825500D01*
%TO.C,R2*%
X179677279Y-123188000D02*
X179351721Y-123188000D01*
X179677279Y-124208000D02*
X179351721Y-124208000D01*
%TO.C,R4*%
X169815742Y-130287500D02*
X170290258Y-130287500D01*
X169815742Y-131332500D02*
X170290258Y-131332500D01*
%TD*%
M02*
