%TF.GenerationSoftware,KiCad,Pcbnew,(6.0.0)*%
%TF.CreationDate,2022-02-14T22:10:37-06:00*%
%TF.ProjectId,MA710_encoder,4d413731-305f-4656-9e63-6f6465722e6b,rev?*%
%TF.SameCoordinates,Original*%
%TF.FileFunction,Paste,Top*%
%TF.FilePolarity,Positive*%
%FSLAX46Y46*%
G04 Gerber Fmt 4.6, Leading zero omitted, Abs format (unit mm)*
G04 Created by KiCad (PCBNEW (6.0.0)) date 2022-02-14 22:10:37*
%MOMM*%
%LPD*%
G01*
G04 APERTURE LIST*
G04 Aperture macros list*
%AMRoundRect*
0 Rectangle with rounded corners*
0 $1 Rounding radius*
0 $2 $3 $4 $5 $6 $7 $8 $9 X,Y pos of 4 corners*
0 Add a 4 corners polygon primitive as box body*
4,1,4,$2,$3,$4,$5,$6,$7,$8,$9,$2,$3,0*
0 Add four circle primitives for the rounded corners*
1,1,$1+$1,$2,$3*
1,1,$1+$1,$4,$5*
1,1,$1+$1,$6,$7*
1,1,$1+$1,$8,$9*
0 Add four rect primitives between the rounded corners*
20,1,$1+$1,$2,$3,$4,$5,0*
20,1,$1+$1,$4,$5,$6,$7,0*
20,1,$1+$1,$6,$7,$8,$9,0*
20,1,$1+$1,$8,$9,$2,$3,0*%
G04 Aperture macros list end*
%ADD10RoundRect,0.218750X-0.218750X-0.256250X0.218750X-0.256250X0.218750X0.256250X-0.218750X0.256250X0*%
%ADD11R,0.600000X1.500000*%
%ADD12RoundRect,0.218750X0.218750X0.256250X-0.218750X0.256250X-0.218750X-0.256250X0.218750X-0.256250X0*%
%ADD13RoundRect,0.200000X-0.200000X-0.275000X0.200000X-0.275000X0.200000X0.275000X-0.200000X0.275000X0*%
G04 APERTURE END LIST*
D10*
%TO.C,C2*%
X160096000Y-99949000D03*
X161671000Y-99949000D03*
%TD*%
%TO.C,C3*%
X172351500Y-111188500D03*
X173926500Y-111188500D03*
%TD*%
%TO.C,R1*%
X169037000Y-121729500D03*
X170612000Y-121729500D03*
%TD*%
D11*
%TO.C,U9*%
X160083500Y-108110000D03*
X161353500Y-108110000D03*
X162623500Y-108110000D03*
X163893500Y-108110000D03*
X165163500Y-108110000D03*
X166433500Y-108110000D03*
X167703500Y-108110000D03*
X168973500Y-108110000D03*
X168973500Y-102710000D03*
X167703500Y-102710000D03*
X166433500Y-102710000D03*
X165163500Y-102710000D03*
X163893500Y-102710000D03*
X162623500Y-102710000D03*
X161353500Y-102710000D03*
X160083500Y-102710000D03*
%TD*%
%TO.C,U14*%
X172339000Y-119032000D03*
X173609000Y-119032000D03*
X174879000Y-119032000D03*
X176149000Y-119032000D03*
X177419000Y-119032000D03*
X178689000Y-119032000D03*
X179959000Y-119032000D03*
X181229000Y-119032000D03*
X181229000Y-113632000D03*
X179959000Y-113632000D03*
X178689000Y-113632000D03*
X177419000Y-113632000D03*
X176149000Y-113632000D03*
X174879000Y-113632000D03*
X173609000Y-113632000D03*
X172339000Y-113632000D03*
%TD*%
D12*
%TO.C,R3*%
X181381500Y-111315500D03*
X179806500Y-111315500D03*
%TD*%
%TO.C,R2*%
X180302000Y-123698000D03*
X178727000Y-123698000D03*
%TD*%
D13*
%TO.C,R4*%
X169228000Y-130810000D03*
X170878000Y-130810000D03*
%TD*%
M02*
