%TF.GenerationSoftware,KiCad,Pcbnew,(6.0.0)*%
%TF.CreationDate,2022-02-14T22:10:37-06:00*%
%TF.ProjectId,MA710_encoder,4d413731-305f-4656-9e63-6f6465722e6b,rev?*%
%TF.SameCoordinates,Original*%
%TF.FileFunction,Copper,L2,Bot*%
%TF.FilePolarity,Positive*%
%FSLAX46Y46*%
G04 Gerber Fmt 4.6, Leading zero omitted, Abs format (unit mm)*
G04 Created by KiCad (PCBNEW (6.0.0)) date 2022-02-14 22:10:37*
%MOMM*%
%LPD*%
G01*
G04 APERTURE LIST*
G04 Aperture macros list*
%AMRoundRect*
0 Rectangle with rounded corners*
0 $1 Rounding radius*
0 $2 $3 $4 $5 $6 $7 $8 $9 X,Y pos of 4 corners*
0 Add a 4 corners polygon primitive as box body*
4,1,4,$2,$3,$4,$5,$6,$7,$8,$9,$2,$3,0*
0 Add four circle primitives for the rounded corners*
1,1,$1+$1,$2,$3*
1,1,$1+$1,$4,$5*
1,1,$1+$1,$6,$7*
1,1,$1+$1,$8,$9*
0 Add four rect primitives between the rounded corners*
20,1,$1+$1,$2,$3,$4,$5,0*
20,1,$1+$1,$4,$5,$6,$7,0*
20,1,$1+$1,$6,$7,$8,$9,0*
20,1,$1+$1,$8,$9,$2,$3,0*%
G04 Aperture macros list end*
%TA.AperFunction,ComponentPad*%
%ADD10R,1.700000X1.700000*%
%TD*%
%TA.AperFunction,ComponentPad*%
%ADD11O,1.700000X1.700000*%
%TD*%
%TA.AperFunction,ComponentPad*%
%ADD12R,0.900000X0.900000*%
%TD*%
%TA.AperFunction,ComponentPad*%
%ADD13C,0.900000*%
%TD*%
%TA.AperFunction,ComponentPad*%
%ADD14O,2.800000X1.400000*%
%TD*%
%TA.AperFunction,SMDPad,CuDef*%
%ADD15RoundRect,0.218750X-0.218750X-0.256250X0.218750X-0.256250X0.218750X0.256250X-0.218750X0.256250X0*%
%TD*%
%TA.AperFunction,SMDPad,CuDef*%
%ADD16RoundRect,0.062500X-0.350000X-0.062500X0.350000X-0.062500X0.350000X0.062500X-0.350000X0.062500X0*%
%TD*%
%TA.AperFunction,SMDPad,CuDef*%
%ADD17RoundRect,0.062500X-0.062500X-0.350000X0.062500X-0.350000X0.062500X0.350000X-0.062500X0.350000X0*%
%TD*%
%TA.AperFunction,SMDPad,CuDef*%
%ADD18RoundRect,0.250000X-0.600000X-0.600000X0.600000X-0.600000X0.600000X0.600000X-0.600000X0.600000X0*%
%TD*%
%TA.AperFunction,ViaPad*%
%ADD19C,0.800000*%
%TD*%
%TA.AperFunction,ViaPad*%
%ADD20C,3.700000*%
%TD*%
%TA.AperFunction,Conductor*%
%ADD21C,0.250000*%
%TD*%
%TA.AperFunction,Conductor*%
%ADD22C,0.200000*%
%TD*%
G04 APERTURE END LIST*
D10*
%TO.P,J1,1,Pin_1*%
%TO.N,TEMP_1*%
X152654000Y-136652000D03*
D11*
%TO.P,J1,2,Pin_2*%
%TO.N,GND*%
X152654000Y-139192000D03*
%TD*%
D12*
%TO.P,J4,1,1*%
%TO.N,SPI6_nSS_-*%
X157838000Y-138501000D03*
D13*
%TO.P,J4,2,2*%
%TO.N,GND*%
X158488000Y-136581000D03*
%TO.P,J4,3,3*%
%TO.N,SPI6_nSS_+*%
X159138000Y-138501000D03*
%TO.P,J4,4,4*%
%TO.N,SPI6_SCK_-*%
X159788000Y-136581000D03*
%TO.P,J4,5,5*%
%TO.N,GND*%
X160438000Y-138501000D03*
%TO.P,J4,6,6*%
%TO.N,SPI6_SCK_+*%
X161088000Y-136581000D03*
%TO.P,J4,7,7*%
%TO.N,SPI6_MOSI_-*%
X161738000Y-138501000D03*
%TO.P,J4,8,8*%
%TO.N,GND*%
X162388000Y-136581000D03*
%TO.P,J4,9,9*%
%TO.N,SPI6_MOSI_+*%
X163038000Y-138501000D03*
%TO.P,J4,10,10*%
%TO.N,SPI6_MISO_-*%
X163688000Y-136581000D03*
%TO.P,J4,11,11*%
%TO.N,GND*%
X164338000Y-138501000D03*
%TO.P,J4,12,12*%
%TO.N,SPI6_MISO_+*%
X164988000Y-136581000D03*
%TO.P,J4,13,13*%
%TO.N,TEMP_1*%
X165638000Y-138501000D03*
%TO.P,J4,14,14*%
%TO.N,unconnected-(J4-Pad14)*%
X166288000Y-136581000D03*
%TO.P,J4,15,15*%
%TO.N,+3V3*%
X166938000Y-138501000D03*
%TO.P,J4,16,16*%
X167588000Y-136581000D03*
%TO.P,J4,17,17*%
X168238000Y-138501000D03*
%TO.P,J4,18,18*%
%TO.N,unconnected-(J4-Pad18)*%
X168888000Y-136581000D03*
%TO.P,J4,19,19*%
%TO.N,GND*%
X169538000Y-138501000D03*
%TO.P,J4,20,20*%
%TO.N,+3V3*%
X170188000Y-136581000D03*
D14*
%TO.P,J4,SH1*%
%TO.N,N/C*%
X158338000Y-140121000D03*
%TO.P,J4,SH2*%
X170338000Y-140121000D03*
%TO.P,J4,SH3*%
X164338000Y-134961000D03*
%TD*%
D15*
%TO.P,C1,1*%
%TO.N,+3V3*%
X165470840Y-118427500D03*
%TO.P,C1,2*%
%TO.N,GND*%
X167045840Y-118427500D03*
%TD*%
D16*
%TO.P,U1,1,SSD*%
%TO.N,unconnected-(U1-Pad1)*%
X163037500Y-116250000D03*
%TO.P,U1,2,A*%
%TO.N,unconnected-(U1-Pad2)*%
X163037500Y-115750000D03*
%TO.P,U1,3,Z*%
%TO.N,unconnected-(U1-Pad3)*%
X163037500Y-115250000D03*
%TO.P,U1,4,MOSI*%
%TO.N,SPI6_MOSI*%
X163037500Y-114750000D03*
D17*
%TO.P,U1,5,~{CS}*%
%TO.N,SPI6_nSS*%
X163750000Y-114037500D03*
%TO.P,U1,6,B*%
%TO.N,unconnected-(U1-Pad6)*%
X164250000Y-114037500D03*
%TO.P,U1,7,MISO*%
%TO.N,SPI6_MISO*%
X164750000Y-114037500D03*
%TO.P,U1,8,GND*%
%TO.N,GND*%
X165250000Y-114037500D03*
D16*
%TO.P,U1,9,PWM*%
%TO.N,unconnected-(U1-Pad9)*%
X165962500Y-114750000D03*
%TO.P,U1,10,TEST*%
%TO.N,GND*%
X165962500Y-115250000D03*
%TO.P,U1,11,MGL*%
%TO.N,unconnected-(U1-Pad11)*%
X165962500Y-115750000D03*
%TO.P,U1,12,SCLK*%
%TO.N,SPI6_SCK*%
X165962500Y-116250000D03*
D17*
%TO.P,U1,13,VDD*%
%TO.N,+3V3*%
X165250000Y-116962500D03*
%TO.P,U1,14,NC*%
%TO.N,unconnected-(U1-Pad14)*%
X164750000Y-116962500D03*
%TO.P,U1,15,SSCK*%
%TO.N,unconnected-(U1-Pad15)*%
X164250000Y-116962500D03*
%TO.P,U1,16,MGH*%
%TO.N,unconnected-(U1-Pad16)*%
X163750000Y-116962500D03*
D18*
%TO.P,U1,17,PAD*%
%TO.N,GND*%
X164500000Y-115500000D03*
%TD*%
D19*
%TO.N,+3V3*%
X170942000Y-129540000D03*
%TO.N,TEMP_1*%
X167894000Y-130810000D03*
X170434000Y-134366000D03*
%TO.N,SPI6_MISO_-*%
X163813000Y-131265500D03*
%TO.N,SPI6_MISO_+*%
X164863000Y-131265500D03*
%TO.N,SPI6_nSS_-*%
X180069000Y-108585000D03*
%TO.N,SPI6_nSS_+*%
X181119000Y-108585000D03*
%TO.N,SPI6_MOSI_-*%
X172483000Y-128524000D03*
%TO.N,SPI6_MOSI_+*%
X171433000Y-128524000D03*
D20*
%TO.N,*%
X175500000Y-104500000D03*
X153500000Y-126500000D03*
X153500000Y-104500000D03*
X175500000Y-126500000D03*
D19*
%TO.N,GND*%
X168148000Y-118364000D03*
X167259000Y-115252500D03*
%TO.N,+3V3*%
X168993767Y-117386460D03*
X159956500Y-98425000D03*
X172402500Y-109791500D03*
%TO.N,SPI6_MISO*%
X160083500Y-109918500D03*
%TO.N,SPI6_SCK*%
X177419000Y-116903500D03*
%TO.N,SPI6_nSS*%
X178689000Y-110236000D03*
%TO.N,SPI6_MOSI*%
X173545500Y-121412000D03*
%TD*%
D21*
%TO.N,+3V3*%
X171158511Y-129756511D02*
X170942000Y-129540000D01*
X171158511Y-135610489D02*
X171158511Y-129756511D01*
X170188000Y-136581000D02*
X171158511Y-135610489D01*
%TO.N,TEMP_1*%
X167894000Y-131826000D02*
X167894000Y-130810000D01*
X170434000Y-134366000D02*
X167894000Y-131826000D01*
%TO.N,+3V3*%
X167588000Y-136581000D02*
X167588000Y-137851000D01*
X167588000Y-137851000D02*
X168238000Y-138501000D01*
X170158000Y-136581000D02*
X170188000Y-136581000D01*
X168238000Y-138501000D02*
X170158000Y-136581000D01*
X166938000Y-138501000D02*
X168238000Y-138501000D01*
D22*
%TO.N,SPI6_MISO_-*%
X164112999Y-133961480D02*
X164112999Y-131565499D01*
%TO.N,SPI6_MISO_+*%
X164563001Y-131565499D02*
X164863000Y-131265500D01*
X164563001Y-133961480D02*
X164563001Y-131565499D01*
%TO.N,SPI6_MISO_-*%
X164112999Y-131565499D02*
X163813000Y-131265500D01*
X163223986Y-133961480D02*
X164112999Y-133961480D01*
X162638480Y-134546986D02*
X163223986Y-133961480D01*
X162638480Y-135375014D02*
X162638480Y-134546986D01*
X164112999Y-135960520D02*
X163223986Y-135960520D01*
X164112999Y-136156001D02*
X164112999Y-135960520D01*
%TO.N,SPI6_MISO_+*%
X165452014Y-133961480D02*
X164563001Y-133961480D01*
X166037520Y-135375014D02*
X166037520Y-134546986D01*
X165452014Y-135960520D02*
X166037520Y-135375014D01*
X164563001Y-135960520D02*
X165452014Y-135960520D01*
%TO.N,SPI6_MISO_-*%
X163688000Y-136581000D02*
X164112999Y-136156001D01*
%TO.N,SPI6_MISO_+*%
X164563001Y-136156001D02*
X164563001Y-135960520D01*
X166037520Y-134546986D02*
X165452014Y-133961480D01*
%TO.N,SPI6_MISO_-*%
X163223986Y-135960520D02*
X162638480Y-135375014D01*
%TO.N,SPI6_MISO_+*%
X164988000Y-136581000D02*
X164563001Y-136156001D01*
%TO.N,SPI6_nSS_-*%
X180368999Y-108884999D02*
X180069000Y-108585000D01*
%TO.N,SPI6_nSS_+*%
X180819001Y-108884999D02*
X181119000Y-108585000D01*
X180819000Y-118330200D02*
X180819001Y-108884999D01*
%TO.N,SPI6_nSS_-*%
X180369000Y-118143800D02*
X180368999Y-108884999D01*
%TO.N,SPI6_nSS_+*%
X159138000Y-138501000D02*
X158713001Y-138076001D01*
X158713001Y-138076001D02*
X158713001Y-137865971D01*
X158713001Y-137865971D02*
X157738489Y-136891459D01*
X157738489Y-136891459D02*
X157738489Y-136270541D01*
X157738489Y-136270541D02*
X158713001Y-135296029D01*
X158713001Y-135296029D02*
X158713001Y-134721199D01*
X158713001Y-134721199D02*
X169765200Y-123669000D01*
X169765200Y-123669000D02*
X175480200Y-123669000D01*
X175480200Y-123669000D02*
X180819000Y-118330200D01*
%TO.N,SPI6_nSS_-*%
X157838000Y-138501000D02*
X158262999Y-138076001D01*
X158262999Y-138076001D02*
X158262999Y-138052352D01*
X158262999Y-138052352D02*
X157288498Y-137077851D01*
X157288498Y-137077851D02*
X157288498Y-136084148D01*
X157288498Y-136084148D02*
X158262999Y-135109647D01*
X158262999Y-135109647D02*
X158262999Y-134534801D01*
X175293800Y-123219000D02*
X180369000Y-118143800D01*
X158262999Y-134534801D02*
X169578800Y-123219000D01*
X169578800Y-123219000D02*
X175293800Y-123219000D01*
%TO.N,SPI6_MOSI_-*%
X172183001Y-128823999D02*
X172483000Y-128524000D01*
X172183001Y-138791819D02*
X172183001Y-128823999D01*
X172787511Y-139396329D02*
X172183001Y-138791819D01*
X172787511Y-140845670D02*
X172787511Y-139396329D01*
X172183001Y-141450181D02*
X172787511Y-140845670D01*
X172183001Y-141571199D02*
X172183001Y-141450181D01*
X171797200Y-141957000D02*
X172183001Y-141571199D01*
%TO.N,SPI6_MOSI_+*%
X171732999Y-128823999D02*
X171433000Y-128524000D01*
X171732999Y-138978201D02*
X171732999Y-128823999D01*
X172337520Y-140659278D02*
X172337520Y-139582722D01*
X172337520Y-139582722D02*
X171732999Y-138978201D01*
X171732999Y-141263799D02*
X172337520Y-140659278D01*
X171732999Y-141384801D02*
X171732999Y-141263799D01*
X171610800Y-141507000D02*
X171732999Y-141384801D01*
%TO.N,SPI6_MOSI_-*%
X164117800Y-141957000D02*
X171797200Y-141957000D01*
%TO.N,SPI6_MOSI_+*%
X164304200Y-141507000D02*
X171610800Y-141507000D01*
X162613001Y-139815801D02*
X164304200Y-141507000D01*
%TO.N,SPI6_MOSI_-*%
X162162999Y-140002199D02*
X164117800Y-141957000D01*
X162162999Y-138925999D02*
X162162999Y-140002199D01*
X161738000Y-138501000D02*
X162162999Y-138925999D01*
%TO.N,SPI6_MOSI_+*%
X163038000Y-138501000D02*
X162613001Y-138925999D01*
X162613001Y-138925999D02*
X162613001Y-139815801D01*
D21*
%TO.N,GND*%
X165250000Y-114037500D02*
X165224990Y-114062510D01*
X165224990Y-114775010D02*
X164500000Y-115500000D01*
X167256500Y-115250000D02*
X167259000Y-115252500D01*
X165224990Y-114062510D02*
X165224990Y-114775010D01*
X167045840Y-118328440D02*
X168112440Y-118328440D01*
X164750000Y-115250000D02*
X164500000Y-115500000D01*
X168112440Y-118328440D02*
X168148000Y-118364000D01*
X165962500Y-115250000D02*
X164750000Y-115250000D01*
X165962500Y-115250000D02*
X167256500Y-115250000D01*
%TO.N,+3V3*%
X165250000Y-118107600D02*
X165470840Y-118328440D01*
X165250000Y-116962500D02*
X165250000Y-118107600D01*
%TO.N,SPI6_MISO*%
X163131500Y-109918500D02*
X160083500Y-109918500D01*
X164750000Y-114037500D02*
X164750000Y-111537000D01*
X164750000Y-111537000D02*
X163131500Y-109918500D01*
%TO.N,SPI6_SCK*%
X176765500Y-116250000D02*
X177419000Y-116903500D01*
X165962500Y-116250000D02*
X176765500Y-116250000D01*
%TO.N,SPI6_nSS*%
X159358499Y-108802001D02*
X160528000Y-107632500D01*
X176085500Y-107632500D02*
X178689000Y-110236000D01*
X159358499Y-110971499D02*
X159358499Y-108802001D01*
X161861500Y-111569500D02*
X159956500Y-111569500D01*
X159956500Y-111569500D02*
X159358499Y-110971499D01*
X163750000Y-114037500D02*
X163750000Y-113458000D01*
X163750000Y-113458000D02*
X161861500Y-111569500D01*
X160528000Y-107632500D02*
X176085500Y-107632500D01*
%TO.N,SPI6_MOSI*%
X163037500Y-114750000D02*
X161602000Y-114750000D01*
X160782000Y-120459500D02*
X161671000Y-121348500D01*
X161671000Y-121348500D02*
X173482000Y-121348500D01*
X160782000Y-115570000D02*
X160782000Y-120459500D01*
X161602000Y-114750000D02*
X160782000Y-115570000D01*
X173482000Y-121348500D02*
X173545500Y-121412000D01*
%TD*%
%TA.AperFunction,Conductor*%
%TO.N,+3V3*%
G36*
X164683872Y-95513160D02*
G01*
X165283061Y-95523401D01*
X165288617Y-95523620D01*
X165944587Y-95564043D01*
X166170032Y-95577936D01*
X166175613Y-95578404D01*
X167053764Y-95671840D01*
X167059319Y-95672556D01*
X167932458Y-95804927D01*
X167937976Y-95805890D01*
X168168702Y-95851440D01*
X168804357Y-95976932D01*
X168809803Y-95978133D01*
X169257672Y-96087436D01*
X169667721Y-96187509D01*
X169673131Y-96188957D01*
X169858923Y-96243153D01*
X170520928Y-96436262D01*
X170526240Y-96437941D01*
X171362200Y-96722676D01*
X171367430Y-96724588D01*
X171545451Y-96794198D01*
X172189900Y-97046190D01*
X172195070Y-97048345D01*
X172375727Y-97128415D01*
X173002441Y-97406184D01*
X173007492Y-97408559D01*
X173266207Y-97537272D01*
X173798157Y-97801923D01*
X173803115Y-97804529D01*
X173986676Y-97906270D01*
X174575505Y-98232636D01*
X174580323Y-98235448D01*
X175332954Y-98697476D01*
X175337624Y-98700488D01*
X175503548Y-98812794D01*
X176068980Y-99195510D01*
X176073543Y-99198749D01*
X176234654Y-99318573D01*
X176782133Y-99725754D01*
X176786552Y-99729195D01*
X177471045Y-100287188D01*
X177475307Y-100290823D01*
X178134331Y-100878690D01*
X178138426Y-100882511D01*
X178770635Y-101499049D01*
X178774557Y-101503047D01*
X179378763Y-102147096D01*
X179382504Y-102151265D01*
X179957501Y-102821541D01*
X179961045Y-102825863D01*
X180349692Y-103321923D01*
X180505676Y-103521018D01*
X180509022Y-103525490D01*
X180984610Y-104191493D01*
X181022236Y-104244184D01*
X181025383Y-104248805D01*
X181185733Y-104495881D01*
X181506132Y-104989571D01*
X181509076Y-104994335D01*
X181956447Y-105755764D01*
X181959176Y-105760656D01*
X182372244Y-106541174D01*
X182374747Y-106546168D01*
X182752734Y-107344305D01*
X182755014Y-107349410D01*
X183046557Y-108043148D01*
X183097152Y-108163542D01*
X183099201Y-108168739D01*
X183383372Y-108939128D01*
X183404825Y-108997288D01*
X183406643Y-109002575D01*
X183583627Y-109557134D01*
X183675137Y-109843871D01*
X183676720Y-109849240D01*
X183863895Y-110540400D01*
X183907559Y-110701635D01*
X183908901Y-110707066D01*
X184060749Y-111386068D01*
X184101636Y-111568901D01*
X184102734Y-111574384D01*
X184213890Y-112201028D01*
X184256971Y-112443898D01*
X184257826Y-112449427D01*
X184354892Y-113185574D01*
X184373273Y-113324978D01*
X184373879Y-113330526D01*
X184448977Y-114195110D01*
X184450297Y-114210308D01*
X184450657Y-114215883D01*
X184487293Y-115083777D01*
X184487902Y-115098216D01*
X184488014Y-115103800D01*
X184487091Y-115510224D01*
X184486009Y-115986936D01*
X184485871Y-115992535D01*
X184468968Y-116354013D01*
X184444897Y-116868803D01*
X184444624Y-116874631D01*
X184444240Y-116880211D01*
X184370192Y-117690045D01*
X184363825Y-117759673D01*
X184363192Y-117765226D01*
X184244205Y-118637076D01*
X184243775Y-118640230D01*
X184242896Y-118645752D01*
X184136530Y-119229956D01*
X184084712Y-119514563D01*
X184083587Y-119520049D01*
X183886943Y-120380996D01*
X183885574Y-120386428D01*
X183653385Y-121228635D01*
X183650872Y-121237749D01*
X183649267Y-121243104D01*
X183396239Y-122023690D01*
X183376953Y-122083186D01*
X183375120Y-122088442D01*
X183100457Y-122822770D01*
X183065737Y-122915595D01*
X183063659Y-122920795D01*
X182717819Y-123733392D01*
X182715511Y-123738495D01*
X182515145Y-124156660D01*
X182333919Y-124534877D01*
X182331389Y-124539869D01*
X182052476Y-125061155D01*
X181914779Y-125318509D01*
X181912028Y-125323388D01*
X181461194Y-126082797D01*
X181458265Y-126087490D01*
X180974129Y-126826111D01*
X180970969Y-126830705D01*
X180454512Y-127547041D01*
X180451137Y-127551510D01*
X180218934Y-127845134D01*
X179961004Y-128171290D01*
X179903341Y-128244205D01*
X179899771Y-128248518D01*
X179825701Y-128334072D01*
X179321760Y-128916150D01*
X179318001Y-128920302D01*
X178750749Y-129519485D01*
X178743758Y-129526114D01*
X178737433Y-129530104D01*
X178731489Y-129536832D01*
X178724654Y-129542648D01*
X178724634Y-129542625D01*
X178723266Y-129543878D01*
X178723287Y-129543899D01*
X178716892Y-129550204D01*
X178709672Y-129555535D01*
X178704240Y-129562677D01*
X178704237Y-129562680D01*
X178679703Y-129594939D01*
X178673859Y-129602064D01*
X178641090Y-129639156D01*
X178637274Y-129647280D01*
X178632343Y-129654784D01*
X178632319Y-129654768D01*
X178631360Y-129656352D01*
X178631384Y-129656366D01*
X178627016Y-129664212D01*
X178621582Y-129671357D01*
X178603874Y-129717596D01*
X178600271Y-129726060D01*
X178579225Y-129770865D01*
X178577843Y-129779735D01*
X178575216Y-129788322D01*
X178575188Y-129788314D01*
X178574713Y-129790100D01*
X178574741Y-129790106D01*
X178572750Y-129798865D01*
X178569540Y-129807246D01*
X178568812Y-129816191D01*
X178568811Y-129816194D01*
X178565524Y-129856566D01*
X178564437Y-129865742D01*
X178562006Y-129881338D01*
X178562005Y-129886211D01*
X178562005Y-129886214D01*
X178562004Y-129894698D01*
X178561588Y-129904901D01*
X178557730Y-129952281D01*
X178559544Y-129961081D01*
X178559655Y-129962904D01*
X178561989Y-129985812D01*
X178561630Y-132140034D01*
X178560179Y-140843661D01*
X178540166Y-140911778D01*
X178494327Y-140954357D01*
X178337554Y-141039526D01*
X177916499Y-141268268D01*
X177912585Y-141270306D01*
X176996569Y-141726740D01*
X176992594Y-141728634D01*
X176317927Y-142035514D01*
X176060976Y-142152391D01*
X176056894Y-142154161D01*
X175246940Y-142488524D01*
X175110938Y-142544668D01*
X175106788Y-142546296D01*
X174147591Y-142903103D01*
X174143386Y-142904583D01*
X173172195Y-143227226D01*
X173167940Y-143228557D01*
X172185892Y-143516658D01*
X172181593Y-143517837D01*
X171472788Y-143698809D01*
X171189989Y-143771013D01*
X171185673Y-143772033D01*
X170751478Y-143866667D01*
X170185732Y-143989972D01*
X170181360Y-143990844D01*
X169174351Y-144173272D01*
X169169951Y-144173989D01*
X168692502Y-144243139D01*
X168157097Y-144320683D01*
X168152716Y-144321238D01*
X167135293Y-144432012D01*
X167130857Y-144432416D01*
X166110172Y-144507127D01*
X166105755Y-144507372D01*
X165422262Y-144533142D01*
X165083048Y-144545931D01*
X165078591Y-144546020D01*
X164490747Y-144547374D01*
X164055173Y-144548377D01*
X164050729Y-144548308D01*
X163027895Y-144514462D01*
X163023444Y-144514236D01*
X162839469Y-144501621D01*
X162002398Y-144444223D01*
X161997997Y-144443843D01*
X161489040Y-144390800D01*
X160980107Y-144337760D01*
X160975682Y-144337220D01*
X159962157Y-144195192D01*
X159957754Y-144194495D01*
X158949919Y-144016708D01*
X158945543Y-144015856D01*
X157944626Y-143802529D01*
X157940283Y-143801523D01*
X156947527Y-143552918D01*
X156943223Y-143551759D01*
X155959880Y-143268191D01*
X155955619Y-143266880D01*
X154982928Y-142948705D01*
X154978716Y-142947244D01*
X154327670Y-142708473D01*
X154017865Y-142594852D01*
X154013769Y-142593267D01*
X153065985Y-142207104D01*
X153061903Y-142205356D01*
X152128379Y-141785911D01*
X152124345Y-141784012D01*
X152019655Y-141732447D01*
X151627880Y-141539480D01*
X151206259Y-141331812D01*
X151202296Y-141329772D01*
X151064751Y-141255868D01*
X150625827Y-141020030D01*
X150575288Y-140970169D01*
X150559465Y-140908718D01*
X150563345Y-139381715D01*
X150563912Y-139158695D01*
X151291251Y-139158695D01*
X151291548Y-139163848D01*
X151291548Y-139163851D01*
X151300217Y-139314204D01*
X151304110Y-139381715D01*
X151305247Y-139386761D01*
X151305248Y-139386767D01*
X151325119Y-139474939D01*
X151353222Y-139599639D01*
X151437266Y-139806616D01*
X151439965Y-139811020D01*
X151532681Y-139962319D01*
X151553987Y-139997088D01*
X151700250Y-140165938D01*
X151872126Y-140308632D01*
X152065000Y-140421338D01*
X152273692Y-140501030D01*
X152278760Y-140502061D01*
X152278763Y-140502062D01*
X152333317Y-140513161D01*
X152492597Y-140545567D01*
X152497772Y-140545757D01*
X152497774Y-140545757D01*
X152710673Y-140553564D01*
X152710677Y-140553564D01*
X152715837Y-140553753D01*
X152720957Y-140553097D01*
X152720959Y-140553097D01*
X152932288Y-140526025D01*
X152932289Y-140526025D01*
X152937416Y-140525368D01*
X152978104Y-140513161D01*
X153146429Y-140462661D01*
X153146434Y-140462659D01*
X153151384Y-140461174D01*
X153351994Y-140362896D01*
X153533860Y-140233173D01*
X153606236Y-140161050D01*
X153608180Y-140159113D01*
X156425214Y-140159113D01*
X156451130Y-140373277D01*
X156452777Y-140378631D01*
X156452778Y-140378635D01*
X156490750Y-140502062D01*
X156514563Y-140579466D01*
X156613505Y-140771164D01*
X156633739Y-140797533D01*
X156741415Y-140937860D01*
X156741419Y-140937864D01*
X156744831Y-140942311D01*
X156760891Y-140956924D01*
X156900242Y-141083724D01*
X156900245Y-141083726D01*
X156904389Y-141087497D01*
X156909141Y-141090478D01*
X157082379Y-141199151D01*
X157082383Y-141199153D01*
X157087135Y-141202134D01*
X157256743Y-141270316D01*
X157279980Y-141279657D01*
X157287293Y-141282597D01*
X157498537Y-141326344D01*
X157503148Y-141326610D01*
X157503149Y-141326610D01*
X157551452Y-141329395D01*
X157551456Y-141329395D01*
X157553275Y-141329500D01*
X159092735Y-141329500D01*
X159095522Y-141329251D01*
X159095528Y-141329251D01*
X159162240Y-141323297D01*
X159252872Y-141315208D01*
X159382825Y-141279657D01*
X159455536Y-141259766D01*
X159455540Y-141259765D01*
X159460952Y-141258284D01*
X159655663Y-141165411D01*
X159830851Y-141039526D01*
X159948047Y-140918589D01*
X159977074Y-140888636D01*
X159977076Y-140888633D01*
X159980977Y-140884608D01*
X160101297Y-140705553D01*
X160188008Y-140508020D01*
X160238368Y-140298255D01*
X160250786Y-140082887D01*
X160224870Y-139868723D01*
X160204291Y-139801829D01*
X160163085Y-139667891D01*
X160161437Y-139662534D01*
X160144307Y-139629345D01*
X160130838Y-139559637D01*
X160157193Y-139493714D01*
X160215006Y-139452504D01*
X160271191Y-139446441D01*
X160417830Y-139463927D01*
X160423965Y-139463455D01*
X160423967Y-139463455D01*
X160599105Y-139449979D01*
X160599109Y-139449978D01*
X160605247Y-139449506D01*
X160736321Y-139412909D01*
X160780350Y-139400616D01*
X160780353Y-139400615D01*
X160786294Y-139398956D01*
X160791798Y-139396176D01*
X160791800Y-139396175D01*
X160948572Y-139316984D01*
X160948574Y-139316983D01*
X160954075Y-139314204D01*
X160958934Y-139310408D01*
X160958937Y-139310406D01*
X161008906Y-139271367D01*
X161074900Y-139245190D01*
X161144571Y-139258848D01*
X161168142Y-139274703D01*
X161188324Y-139291880D01*
X161193702Y-139294886D01*
X161193704Y-139294887D01*
X161262238Y-139333189D01*
X161352409Y-139383584D01*
X161442663Y-139412909D01*
X161467435Y-139420958D01*
X161526041Y-139461031D01*
X161553678Y-139526428D01*
X161554499Y-139540791D01*
X161554499Y-139954063D01*
X161553421Y-139970506D01*
X161549249Y-140002199D01*
X161554499Y-140042079D01*
X161554499Y-140042084D01*
X161565109Y-140122676D01*
X161570161Y-140161050D01*
X161631475Y-140309075D01*
X161636502Y-140315626D01*
X161636503Y-140315628D01*
X161704519Y-140404268D01*
X161704525Y-140404274D01*
X161729012Y-140436186D01*
X161735567Y-140441216D01*
X161754378Y-140455651D01*
X161766769Y-140466518D01*
X163653485Y-142353234D01*
X163664352Y-142365625D01*
X163683813Y-142390987D01*
X163715725Y-142415474D01*
X163715728Y-142415477D01*
X163810924Y-142488524D01*
X163958949Y-142549838D01*
X163967136Y-142550916D01*
X163967137Y-142550916D01*
X163978342Y-142552391D01*
X164009538Y-142556498D01*
X164077915Y-142565500D01*
X164077918Y-142565500D01*
X164077926Y-142565501D01*
X164109611Y-142569672D01*
X164117800Y-142570750D01*
X164149493Y-142566578D01*
X164165936Y-142565500D01*
X171749064Y-142565500D01*
X171765507Y-142566578D01*
X171797200Y-142570750D01*
X171805389Y-142569672D01*
X171837074Y-142565501D01*
X171837084Y-142565500D01*
X171837085Y-142565500D01*
X171837101Y-142565498D01*
X171936657Y-142552391D01*
X171947864Y-142550916D01*
X171947866Y-142550915D01*
X171956051Y-142549838D01*
X172104076Y-142488524D01*
X172199272Y-142415477D01*
X172199275Y-142415474D01*
X172231187Y-142390987D01*
X172236217Y-142384432D01*
X172250652Y-142365621D01*
X172261519Y-142353230D01*
X172579235Y-142035514D01*
X172591626Y-142024647D01*
X172610438Y-142010212D01*
X172616988Y-142005186D01*
X172641475Y-141973274D01*
X172641481Y-141973268D01*
X172709497Y-141884628D01*
X172709498Y-141884626D01*
X172714525Y-141878075D01*
X172774846Y-141732446D01*
X172802160Y-141691570D01*
X173183745Y-141309985D01*
X173196136Y-141299118D01*
X173214948Y-141284683D01*
X173221498Y-141279657D01*
X173245976Y-141247757D01*
X173245994Y-141247735D01*
X173307311Y-141167824D01*
X173319035Y-141152545D01*
X173380349Y-141004520D01*
X173386615Y-140956923D01*
X173392559Y-140911778D01*
X173396009Y-140885572D01*
X173396012Y-140885540D01*
X173396748Y-140879954D01*
X173401261Y-140845669D01*
X173397089Y-140813976D01*
X173396011Y-140797533D01*
X173396011Y-139444465D01*
X173397089Y-139428019D01*
X173400183Y-139404517D01*
X173401261Y-139396329D01*
X173396011Y-139356451D01*
X173396011Y-139356444D01*
X173393839Y-139339945D01*
X173381427Y-139245667D01*
X173380349Y-139237479D01*
X173359698Y-139187621D01*
X173322863Y-139098695D01*
X173322862Y-139098692D01*
X173322195Y-139097081D01*
X173322193Y-139097078D01*
X173319035Y-139089453D01*
X173245988Y-138994257D01*
X173245985Y-138994254D01*
X173221498Y-138962342D01*
X173214943Y-138957312D01*
X173196132Y-138942877D01*
X173183741Y-138932010D01*
X172828406Y-138576675D01*
X172794380Y-138514363D01*
X172791501Y-138487580D01*
X172791501Y-129462949D01*
X172811503Y-129394828D01*
X172866252Y-129347842D01*
X172939752Y-129315118D01*
X173094253Y-129202866D01*
X173184865Y-129102231D01*
X173217621Y-129065852D01*
X173217622Y-129065851D01*
X173222040Y-129060944D01*
X173317527Y-128895556D01*
X173376542Y-128713928D01*
X173379586Y-128684972D01*
X173395814Y-128530565D01*
X173396504Y-128524000D01*
X173384115Y-128406122D01*
X173377232Y-128340635D01*
X173377232Y-128340633D01*
X173376542Y-128334072D01*
X173317527Y-128152444D01*
X173222040Y-127987056D01*
X173175542Y-127935414D01*
X173098675Y-127850045D01*
X173098674Y-127850044D01*
X173094253Y-127845134D01*
X172939752Y-127732882D01*
X172933724Y-127730198D01*
X172933722Y-127730197D01*
X172771319Y-127657891D01*
X172771318Y-127657891D01*
X172765288Y-127655206D01*
X172671888Y-127635353D01*
X172584944Y-127616872D01*
X172584939Y-127616872D01*
X172578487Y-127615500D01*
X172387513Y-127615500D01*
X172381061Y-127616872D01*
X172381056Y-127616872D01*
X172294112Y-127635353D01*
X172200712Y-127655206D01*
X172194682Y-127657891D01*
X172194681Y-127657891D01*
X172032279Y-127730197D01*
X172026248Y-127732882D01*
X172020973Y-127736714D01*
X171952008Y-127753447D01*
X171895030Y-127736717D01*
X171889752Y-127732882D01*
X171883722Y-127730197D01*
X171721319Y-127657891D01*
X171721318Y-127657891D01*
X171715288Y-127655206D01*
X171621888Y-127635353D01*
X171534944Y-127616872D01*
X171534939Y-127616872D01*
X171528487Y-127615500D01*
X171337513Y-127615500D01*
X171331061Y-127616872D01*
X171331056Y-127616872D01*
X171244112Y-127635353D01*
X171150712Y-127655206D01*
X171144682Y-127657891D01*
X171144681Y-127657891D01*
X170982278Y-127730197D01*
X170982276Y-127730198D01*
X170976248Y-127732882D01*
X170821747Y-127845134D01*
X170817326Y-127850044D01*
X170817325Y-127850045D01*
X170740459Y-127935414D01*
X170693960Y-127987056D01*
X170598473Y-128152444D01*
X170539458Y-128334072D01*
X170538768Y-128340633D01*
X170538768Y-128340635D01*
X170531885Y-128406122D01*
X170519496Y-128524000D01*
X170520186Y-128530565D01*
X170536415Y-128684972D01*
X170539458Y-128713928D01*
X170598473Y-128895556D01*
X170693960Y-129060944D01*
X170698378Y-129065851D01*
X170698379Y-129065852D01*
X170731135Y-129102231D01*
X170821747Y-129202866D01*
X170976248Y-129315118D01*
X171049748Y-129347842D01*
X171103844Y-129393822D01*
X171124499Y-129462949D01*
X171124499Y-133497420D01*
X171104497Y-133565541D01*
X171050841Y-133612034D01*
X170980567Y-133622138D01*
X170924439Y-133599357D01*
X170896092Y-133578762D01*
X170890752Y-133574882D01*
X170884724Y-133572198D01*
X170884722Y-133572197D01*
X170722319Y-133499891D01*
X170722318Y-133499891D01*
X170716288Y-133497206D01*
X170622888Y-133477353D01*
X170535944Y-133458872D01*
X170535939Y-133458872D01*
X170529487Y-133457500D01*
X170473595Y-133457500D01*
X170405474Y-133437498D01*
X170384500Y-133420595D01*
X168564935Y-131601030D01*
X168530909Y-131538718D01*
X168535974Y-131467903D01*
X168560391Y-131427629D01*
X168633040Y-131346944D01*
X168728527Y-131181556D01*
X168787542Y-130999928D01*
X168807504Y-130810000D01*
X168787542Y-130620072D01*
X168728527Y-130438444D01*
X168633040Y-130273056D01*
X168592735Y-130228292D01*
X168509675Y-130136045D01*
X168509674Y-130136044D01*
X168505253Y-130131134D01*
X168350752Y-130018882D01*
X168344724Y-130016198D01*
X168344722Y-130016197D01*
X168182319Y-129943891D01*
X168182318Y-129943891D01*
X168176288Y-129941206D01*
X168071954Y-129919029D01*
X167995944Y-129902872D01*
X167995939Y-129902872D01*
X167989487Y-129901500D01*
X167798513Y-129901500D01*
X167792061Y-129902872D01*
X167792056Y-129902872D01*
X167716046Y-129919029D01*
X167611712Y-129941206D01*
X167605682Y-129943891D01*
X167605681Y-129943891D01*
X167443278Y-130016197D01*
X167443276Y-130016198D01*
X167437248Y-130018882D01*
X167282747Y-130131134D01*
X167278326Y-130136044D01*
X167278325Y-130136045D01*
X167195266Y-130228292D01*
X167154960Y-130273056D01*
X167059473Y-130438444D01*
X167000458Y-130620072D01*
X166980496Y-130810000D01*
X167000458Y-130999928D01*
X167059473Y-131181556D01*
X167154960Y-131346944D01*
X167228137Y-131428215D01*
X167258853Y-131492221D01*
X167260500Y-131512524D01*
X167260500Y-131747233D01*
X167259973Y-131758416D01*
X167258298Y-131765909D01*
X167258547Y-131773835D01*
X167258547Y-131773836D01*
X167260438Y-131833986D01*
X167260500Y-131837945D01*
X167260500Y-131865856D01*
X167260997Y-131869790D01*
X167260997Y-131869791D01*
X167261005Y-131869856D01*
X167261938Y-131881693D01*
X167263327Y-131925889D01*
X167268695Y-131944366D01*
X167268978Y-131945339D01*
X167272987Y-131964700D01*
X167275526Y-131984797D01*
X167278445Y-131992168D01*
X167278445Y-131992170D01*
X167291804Y-132025912D01*
X167295649Y-132037142D01*
X167307982Y-132079593D01*
X167312015Y-132086412D01*
X167312017Y-132086417D01*
X167318293Y-132097028D01*
X167326988Y-132114776D01*
X167334448Y-132133617D01*
X167339110Y-132140033D01*
X167339110Y-132140034D01*
X167360436Y-132169387D01*
X167366952Y-132179307D01*
X167389458Y-132217362D01*
X167403779Y-132231683D01*
X167416619Y-132246716D01*
X167428528Y-132263107D01*
X167434634Y-132268158D01*
X167462605Y-132291298D01*
X167471384Y-132299288D01*
X169486878Y-134314782D01*
X169520904Y-134377094D01*
X169523092Y-134390703D01*
X169531652Y-134472144D01*
X169538658Y-134538798D01*
X169540458Y-134555928D01*
X169599473Y-134737556D01*
X169694960Y-134902944D01*
X169699378Y-134907851D01*
X169699379Y-134907852D01*
X169758262Y-134973248D01*
X169822747Y-135044866D01*
X169977248Y-135157118D01*
X169983276Y-135159802D01*
X169983278Y-135159803D01*
X170145681Y-135232109D01*
X170151712Y-135234794D01*
X170213338Y-135247893D01*
X170332056Y-135273128D01*
X170332061Y-135273128D01*
X170338513Y-135274500D01*
X170529487Y-135274500D01*
X170535939Y-135273128D01*
X170535944Y-135273128D01*
X170654662Y-135247893D01*
X170716288Y-135234794D01*
X170722319Y-135232109D01*
X170884722Y-135159803D01*
X170884724Y-135159802D01*
X170890752Y-135157118D01*
X170924439Y-135132643D01*
X170991307Y-135108785D01*
X171060458Y-135124866D01*
X171109938Y-135175781D01*
X171124499Y-135234580D01*
X171124499Y-135986758D01*
X171104497Y-136054879D01*
X171050841Y-136101372D01*
X171041218Y-136105295D01*
X171012604Y-136115607D01*
X170560021Y-136568189D01*
X170552408Y-136582132D01*
X170552539Y-136583966D01*
X170556790Y-136590580D01*
X171007992Y-137041781D01*
X171050448Y-137064964D01*
X171058874Y-137066796D01*
X171109081Y-137116993D01*
X171124499Y-137177389D01*
X171124499Y-138786500D01*
X171104497Y-138854621D01*
X171050841Y-138901114D01*
X170998499Y-138912500D01*
X170586001Y-138912500D01*
X170517880Y-138892498D01*
X170471387Y-138838842D01*
X170461283Y-138768568D01*
X170466443Y-138746728D01*
X170475256Y-138720234D01*
X170477203Y-138714382D01*
X170500762Y-138527892D01*
X170501138Y-138501000D01*
X170482795Y-138313926D01*
X170428465Y-138133977D01*
X170340218Y-137968008D01*
X170221415Y-137822340D01*
X170216673Y-137818417D01*
X170216669Y-137818413D01*
X170148688Y-137762174D01*
X170108950Y-137703340D01*
X170107329Y-137632362D01*
X170144338Y-137571775D01*
X170208229Y-137540815D01*
X170219337Y-137539461D01*
X170349017Y-137529483D01*
X170361095Y-137527353D01*
X170530179Y-137480144D01*
X170541609Y-137475711D01*
X170646288Y-137422834D01*
X170656572Y-137413189D01*
X170654334Y-137406544D01*
X169917885Y-136670095D01*
X169883859Y-136607783D01*
X169888924Y-136536968D01*
X169917885Y-136491905D01*
X170188000Y-136221790D01*
X170648939Y-135760850D01*
X170655699Y-135748470D01*
X170651040Y-135742247D01*
X170566456Y-135696513D01*
X170555150Y-135691760D01*
X170387452Y-135639849D01*
X170375439Y-135637383D01*
X170200848Y-135619032D01*
X170188580Y-135618947D01*
X170013759Y-135634857D01*
X170001710Y-135637155D01*
X169833300Y-135686721D01*
X169821932Y-135691314D01*
X169666354Y-135772648D01*
X169656097Y-135779360D01*
X169617851Y-135810110D01*
X169552228Y-135837206D01*
X169482374Y-135824522D01*
X169458584Y-135808998D01*
X169431329Y-135786450D01*
X169431324Y-135786447D01*
X169426580Y-135782522D01*
X169421159Y-135779591D01*
X169421158Y-135779590D01*
X169285113Y-135706032D01*
X169261231Y-135693119D01*
X169081666Y-135637534D01*
X169075541Y-135636890D01*
X169075540Y-135636890D01*
X168900852Y-135618529D01*
X168900851Y-135618529D01*
X168894724Y-135617885D01*
X168817673Y-135624897D01*
X168713665Y-135634363D01*
X168713662Y-135634364D01*
X168707526Y-135634922D01*
X168701620Y-135636660D01*
X168701616Y-135636661D01*
X168600542Y-135666409D01*
X168527202Y-135687994D01*
X168495830Y-135704395D01*
X168387841Y-135760850D01*
X168360621Y-135775080D01*
X168317058Y-135810106D01*
X168251438Y-135837201D01*
X168181583Y-135824518D01*
X168157793Y-135808993D01*
X168131048Y-135786867D01*
X168120877Y-135780007D01*
X167966456Y-135696512D01*
X167955150Y-135691760D01*
X167787452Y-135639849D01*
X167775439Y-135637383D01*
X167600848Y-135619032D01*
X167588580Y-135618947D01*
X167413759Y-135634857D01*
X167401710Y-135637155D01*
X167233300Y-135686721D01*
X167221932Y-135691314D01*
X167066354Y-135772648D01*
X167056097Y-135779360D01*
X167017851Y-135810110D01*
X166952228Y-135837206D01*
X166882374Y-135824522D01*
X166858584Y-135808998D01*
X166831329Y-135786450D01*
X166831324Y-135786447D01*
X166826580Y-135782522D01*
X166682084Y-135704394D01*
X166631676Y-135654401D01*
X166616298Y-135585090D01*
X166625604Y-135545340D01*
X166627199Y-135541490D01*
X166630358Y-135533864D01*
X166651271Y-135375014D01*
X166647098Y-135343315D01*
X166646020Y-135326870D01*
X166646020Y-134595130D01*
X166647098Y-134578684D01*
X166650193Y-134555174D01*
X166651271Y-134546986D01*
X166630358Y-134388136D01*
X166625785Y-134377094D01*
X166572204Y-134247740D01*
X166569044Y-134240110D01*
X166495998Y-134144915D01*
X166495994Y-134144911D01*
X166486653Y-134132737D01*
X166476536Y-134119552D01*
X166476531Y-134119547D01*
X166471507Y-134112999D01*
X166464161Y-134107362D01*
X166446141Y-134093534D01*
X166433750Y-134082667D01*
X165916329Y-133565246D01*
X165905462Y-133552855D01*
X165891027Y-133534043D01*
X165886001Y-133527493D01*
X165854089Y-133503006D01*
X165854083Y-133503000D01*
X165765443Y-133434984D01*
X165765441Y-133434983D01*
X165758890Y-133429956D01*
X165610865Y-133368642D01*
X165602678Y-133367564D01*
X165602677Y-133367564D01*
X165591472Y-133366089D01*
X165560276Y-133361982D01*
X165491899Y-133352980D01*
X165491896Y-133352980D01*
X165491888Y-133352979D01*
X165460203Y-133348808D01*
X165452014Y-133347730D01*
X165420321Y-133351902D01*
X165403878Y-133352980D01*
X165297501Y-133352980D01*
X165229380Y-133332978D01*
X165182887Y-133279322D01*
X165171501Y-133226980D01*
X165171501Y-132204449D01*
X165191503Y-132136328D01*
X165246252Y-132089342D01*
X165285241Y-132071983D01*
X165319752Y-132056618D01*
X165474253Y-131944366D01*
X165478675Y-131939455D01*
X165597621Y-131807352D01*
X165597622Y-131807351D01*
X165602040Y-131802444D01*
X165697527Y-131637056D01*
X165756542Y-131455428D01*
X165759403Y-131428213D01*
X165775814Y-131272065D01*
X165776504Y-131265500D01*
X165756542Y-131075572D01*
X165697527Y-130893944D01*
X165602040Y-130728556D01*
X165474253Y-130586634D01*
X165319752Y-130474382D01*
X165313724Y-130471698D01*
X165313722Y-130471697D01*
X165151319Y-130399391D01*
X165151318Y-130399391D01*
X165145288Y-130396706D01*
X165051888Y-130376853D01*
X164964944Y-130358372D01*
X164964939Y-130358372D01*
X164958487Y-130357000D01*
X164767513Y-130357000D01*
X164761061Y-130358372D01*
X164761056Y-130358372D01*
X164674112Y-130376853D01*
X164580712Y-130396706D01*
X164574682Y-130399391D01*
X164574681Y-130399391D01*
X164412279Y-130471697D01*
X164406248Y-130474382D01*
X164400973Y-130478214D01*
X164332008Y-130494947D01*
X164275030Y-130478217D01*
X164269752Y-130474382D01*
X164263724Y-130471698D01*
X164126289Y-130410508D01*
X164072193Y-130364528D01*
X164051544Y-130296600D01*
X164070896Y-130228292D01*
X164088443Y-130206306D01*
X169980344Y-124314405D01*
X170042656Y-124280379D01*
X170069439Y-124277500D01*
X174165652Y-124277500D01*
X174233773Y-124297502D01*
X174280266Y-124351158D01*
X174290370Y-124421432D01*
X174260876Y-124486012D01*
X174235655Y-124508264D01*
X174061155Y-124624861D01*
X174058061Y-124627575D01*
X174058055Y-124627579D01*
X173949600Y-124722692D01*
X173828710Y-124828710D01*
X173826001Y-124831799D01*
X173627579Y-125058055D01*
X173627575Y-125058061D01*
X173624861Y-125061155D01*
X173453096Y-125318220D01*
X173437223Y-125350407D01*
X173318180Y-125591800D01*
X173318177Y-125591808D01*
X173316354Y-125595504D01*
X173216975Y-125888265D01*
X173156660Y-126191493D01*
X173156391Y-126195604D01*
X173156390Y-126195608D01*
X173152239Y-126258940D01*
X173136439Y-126500000D01*
X173156660Y-126808507D01*
X173216975Y-127111735D01*
X173316354Y-127404496D01*
X173318177Y-127408192D01*
X173318180Y-127408200D01*
X173420410Y-127615500D01*
X173453096Y-127681780D01*
X173455390Y-127685213D01*
X173455391Y-127685215D01*
X173565527Y-127850045D01*
X173624861Y-127938845D01*
X173627575Y-127941939D01*
X173627579Y-127941945D01*
X173812182Y-128152444D01*
X173828710Y-128171290D01*
X173831799Y-128173999D01*
X174058055Y-128372421D01*
X174058061Y-128372425D01*
X174061155Y-128375139D01*
X174064581Y-128377428D01*
X174064586Y-128377432D01*
X174104387Y-128404026D01*
X174318219Y-128546904D01*
X174321918Y-128548728D01*
X174321923Y-128548731D01*
X174464435Y-128619010D01*
X174595504Y-128683646D01*
X174599409Y-128684971D01*
X174599410Y-128684972D01*
X174884358Y-128781699D01*
X174884361Y-128781700D01*
X174888265Y-128783025D01*
X175114961Y-128828117D01*
X175187450Y-128842536D01*
X175187453Y-128842536D01*
X175191493Y-128843340D01*
X175195604Y-128843609D01*
X175195608Y-128843610D01*
X175495881Y-128863291D01*
X175500000Y-128863561D01*
X175504119Y-128863291D01*
X175804392Y-128843610D01*
X175804396Y-128843609D01*
X175808507Y-128843340D01*
X175812547Y-128842536D01*
X175812550Y-128842536D01*
X175885039Y-128828117D01*
X176111735Y-128783025D01*
X176115639Y-128781700D01*
X176115642Y-128781699D01*
X176400590Y-128684972D01*
X176400591Y-128684971D01*
X176404496Y-128683646D01*
X176535565Y-128619010D01*
X176678077Y-128548731D01*
X176678082Y-128548728D01*
X176681781Y-128546904D01*
X176895613Y-128404026D01*
X176935414Y-128377432D01*
X176935419Y-128377428D01*
X176938845Y-128375139D01*
X176941939Y-128372425D01*
X176941945Y-128372421D01*
X177168201Y-128173999D01*
X177171290Y-128171290D01*
X177187818Y-128152444D01*
X177372421Y-127941945D01*
X177372425Y-127941939D01*
X177375139Y-127938845D01*
X177434474Y-127850045D01*
X177544609Y-127685215D01*
X177544610Y-127685213D01*
X177546904Y-127681780D01*
X177579590Y-127615500D01*
X177681820Y-127408200D01*
X177681823Y-127408192D01*
X177683646Y-127404496D01*
X177783025Y-127111735D01*
X177843340Y-126808507D01*
X177863561Y-126500000D01*
X177847761Y-126258940D01*
X177843610Y-126195608D01*
X177843609Y-126195604D01*
X177843340Y-126191493D01*
X177783025Y-125888265D01*
X177683646Y-125595504D01*
X177681823Y-125591808D01*
X177681820Y-125591800D01*
X177562777Y-125350407D01*
X177546904Y-125318220D01*
X177375139Y-125061155D01*
X177372425Y-125058061D01*
X177372421Y-125058055D01*
X177173999Y-124831799D01*
X177171290Y-124828710D01*
X177050400Y-124722692D01*
X176941945Y-124627579D01*
X176941939Y-124627575D01*
X176938845Y-124624861D01*
X176935415Y-124622569D01*
X176935414Y-124622568D01*
X176731043Y-124486012D01*
X176681781Y-124453096D01*
X176678082Y-124451272D01*
X176678077Y-124451269D01*
X176475071Y-124351158D01*
X176404496Y-124316354D01*
X176400581Y-124315025D01*
X176115642Y-124218301D01*
X176115639Y-124218300D01*
X176111735Y-124216975D01*
X176107695Y-124216171D01*
X176107686Y-124216169D01*
X176082734Y-124211206D01*
X176076894Y-124210045D01*
X176013984Y-124177139D01*
X175978851Y-124115445D01*
X175982649Y-124044550D01*
X176012378Y-123997371D01*
X181215234Y-118794515D01*
X181227625Y-118783648D01*
X181246437Y-118769213D01*
X181252987Y-118764187D01*
X181277474Y-118732275D01*
X181277477Y-118732272D01*
X181350523Y-118637076D01*
X181350524Y-118637075D01*
X181411838Y-118489050D01*
X181427500Y-118370085D01*
X181427500Y-118370078D01*
X181432750Y-118330200D01*
X181428578Y-118298507D01*
X181427500Y-118282064D01*
X181427501Y-109523949D01*
X181447503Y-109455828D01*
X181502252Y-109408842D01*
X181526395Y-109398093D01*
X181575752Y-109376118D01*
X181588019Y-109367206D01*
X181673198Y-109305319D01*
X181730253Y-109263866D01*
X181734675Y-109258955D01*
X181853621Y-109126852D01*
X181853622Y-109126851D01*
X181858040Y-109121944D01*
X181953527Y-108956556D01*
X182012542Y-108774928D01*
X182013908Y-108761936D01*
X182031814Y-108591565D01*
X182032504Y-108585000D01*
X182020491Y-108470700D01*
X182013232Y-108401635D01*
X182013232Y-108401633D01*
X182012542Y-108395072D01*
X181953527Y-108213444D01*
X181926209Y-108166127D01*
X181861341Y-108053774D01*
X181858040Y-108048056D01*
X181730253Y-107906134D01*
X181575752Y-107793882D01*
X181569724Y-107791198D01*
X181569722Y-107791197D01*
X181407319Y-107718891D01*
X181407318Y-107718891D01*
X181401288Y-107716206D01*
X181307888Y-107696353D01*
X181220944Y-107677872D01*
X181220939Y-107677872D01*
X181214487Y-107676500D01*
X181023513Y-107676500D01*
X181017061Y-107677872D01*
X181017056Y-107677872D01*
X180930112Y-107696353D01*
X180836712Y-107716206D01*
X180830682Y-107718891D01*
X180830681Y-107718891D01*
X180668279Y-107791197D01*
X180662248Y-107793882D01*
X180656973Y-107797714D01*
X180588008Y-107814447D01*
X180531030Y-107797717D01*
X180525752Y-107793882D01*
X180519722Y-107791197D01*
X180357319Y-107718891D01*
X180357318Y-107718891D01*
X180351288Y-107716206D01*
X180257888Y-107696353D01*
X180170944Y-107677872D01*
X180170939Y-107677872D01*
X180164487Y-107676500D01*
X179973513Y-107676500D01*
X179967061Y-107677872D01*
X179967056Y-107677872D01*
X179880112Y-107696353D01*
X179786712Y-107716206D01*
X179780682Y-107718891D01*
X179780681Y-107718891D01*
X179618278Y-107791197D01*
X179618276Y-107791198D01*
X179612248Y-107793882D01*
X179457747Y-107906134D01*
X179329960Y-108048056D01*
X179326659Y-108053774D01*
X179261792Y-108166127D01*
X179234473Y-108213444D01*
X179175458Y-108395072D01*
X179174768Y-108401633D01*
X179174768Y-108401635D01*
X179167509Y-108470700D01*
X179155496Y-108585000D01*
X179156186Y-108591565D01*
X179174093Y-108761936D01*
X179175458Y-108774928D01*
X179234473Y-108956556D01*
X179329960Y-109121944D01*
X179334378Y-109126851D01*
X179334379Y-109126852D01*
X179453325Y-109258955D01*
X179457747Y-109263866D01*
X179514802Y-109305319D01*
X179599982Y-109367206D01*
X179612248Y-109376118D01*
X179661605Y-109398093D01*
X179685748Y-109408842D01*
X179739844Y-109454822D01*
X179760499Y-109523949D01*
X179760499Y-109805606D01*
X179740497Y-109873727D01*
X179686841Y-109920220D01*
X179616567Y-109930324D01*
X179551987Y-109900830D01*
X179524571Y-109863841D01*
X179523527Y-109864444D01*
X179431341Y-109704774D01*
X179428040Y-109699056D01*
X179300253Y-109557134D01*
X179173245Y-109464857D01*
X179151094Y-109448763D01*
X179151093Y-109448762D01*
X179145752Y-109444882D01*
X179139724Y-109442198D01*
X179139722Y-109442197D01*
X178977319Y-109369891D01*
X178977318Y-109369891D01*
X178971288Y-109367206D01*
X178877888Y-109347353D01*
X178790944Y-109328872D01*
X178790939Y-109328872D01*
X178784487Y-109327500D01*
X178728594Y-109327500D01*
X178660473Y-109307498D01*
X178639499Y-109290595D01*
X177617784Y-108268879D01*
X176589152Y-107240247D01*
X176581612Y-107231961D01*
X176577500Y-107225482D01*
X176527848Y-107178856D01*
X176525007Y-107176102D01*
X176505270Y-107156365D01*
X176502073Y-107153885D01*
X176493051Y-107146180D01*
X176479616Y-107133564D01*
X176460821Y-107115914D01*
X176453875Y-107112095D01*
X176453872Y-107112093D01*
X176443066Y-107106152D01*
X176426547Y-107095301D01*
X176426083Y-107094941D01*
X176410541Y-107082886D01*
X176403272Y-107079741D01*
X176403268Y-107079738D01*
X176369963Y-107065326D01*
X176359313Y-107060109D01*
X176320560Y-107038805D01*
X176300937Y-107033767D01*
X176282234Y-107027363D01*
X176270920Y-107022467D01*
X176270919Y-107022467D01*
X176263645Y-107019319D01*
X176255822Y-107018080D01*
X176255812Y-107018077D01*
X176219976Y-107012401D01*
X176208357Y-107009995D01*
X176182692Y-107003406D01*
X176121685Y-106967093D01*
X176089995Y-106903562D01*
X176097683Y-106832982D01*
X176142309Y-106777764D01*
X176173523Y-106762051D01*
X176400590Y-106684972D01*
X176400591Y-106684971D01*
X176404496Y-106683646D01*
X176535565Y-106619010D01*
X176678077Y-106548731D01*
X176678082Y-106548728D01*
X176681781Y-106546904D01*
X176741682Y-106506879D01*
X176935414Y-106377432D01*
X176935419Y-106377428D01*
X176938845Y-106375139D01*
X176941939Y-106372425D01*
X176941945Y-106372421D01*
X177168201Y-106173999D01*
X177171290Y-106171290D01*
X177224321Y-106110820D01*
X177372421Y-105941945D01*
X177372425Y-105941939D01*
X177375139Y-105938845D01*
X177495866Y-105758165D01*
X177544609Y-105685215D01*
X177544610Y-105685213D01*
X177546904Y-105681780D01*
X177571279Y-105632352D01*
X177681820Y-105408200D01*
X177681823Y-105408192D01*
X177683646Y-105404496D01*
X177764966Y-105164936D01*
X177781699Y-105115642D01*
X177781700Y-105115639D01*
X177783025Y-105111735D01*
X177843340Y-104808507D01*
X177863561Y-104500000D01*
X177857964Y-104414609D01*
X177843610Y-104195608D01*
X177843609Y-104195604D01*
X177843340Y-104191493D01*
X177783025Y-103888265D01*
X177683646Y-103595504D01*
X177681823Y-103591808D01*
X177681820Y-103591800D01*
X177548730Y-103321923D01*
X177546904Y-103318220D01*
X177375139Y-103061155D01*
X177372425Y-103058061D01*
X177372421Y-103058055D01*
X177173999Y-102831799D01*
X177171290Y-102828710D01*
X177163115Y-102821541D01*
X176941945Y-102627579D01*
X176941939Y-102627575D01*
X176938845Y-102624861D01*
X176935419Y-102622572D01*
X176935414Y-102622568D01*
X176741682Y-102493121D01*
X176681781Y-102453096D01*
X176678082Y-102451272D01*
X176678077Y-102451269D01*
X176535565Y-102380990D01*
X176404496Y-102316354D01*
X176348412Y-102297316D01*
X176115642Y-102218301D01*
X176115639Y-102218300D01*
X176111735Y-102216975D01*
X175885039Y-102171883D01*
X175812550Y-102157464D01*
X175812547Y-102157464D01*
X175808507Y-102156660D01*
X175804396Y-102156391D01*
X175804392Y-102156390D01*
X175504119Y-102136709D01*
X175500000Y-102136439D01*
X175495881Y-102136709D01*
X175195608Y-102156390D01*
X175195604Y-102156391D01*
X175191493Y-102156660D01*
X175187453Y-102157464D01*
X175187450Y-102157464D01*
X175114961Y-102171883D01*
X174888265Y-102216975D01*
X174884361Y-102218300D01*
X174884358Y-102218301D01*
X174651588Y-102297316D01*
X174595504Y-102316354D01*
X174591808Y-102318177D01*
X174591800Y-102318180D01*
X174367648Y-102428721D01*
X174318220Y-102453096D01*
X174314787Y-102455390D01*
X174314785Y-102455391D01*
X174064586Y-102622568D01*
X174064581Y-102622572D01*
X174061155Y-102624861D01*
X174058061Y-102627575D01*
X174058055Y-102627579D01*
X173836885Y-102821541D01*
X173828710Y-102828710D01*
X173826001Y-102831799D01*
X173627579Y-103058055D01*
X173627575Y-103058061D01*
X173624861Y-103061155D01*
X173453096Y-103318220D01*
X173451270Y-103321923D01*
X173318180Y-103591800D01*
X173318177Y-103591808D01*
X173316354Y-103595504D01*
X173216975Y-103888265D01*
X173156660Y-104191493D01*
X173156391Y-104195604D01*
X173156390Y-104195608D01*
X173142036Y-104414609D01*
X173136439Y-104500000D01*
X173156660Y-104808507D01*
X173216975Y-105111735D01*
X173218300Y-105115639D01*
X173218301Y-105115642D01*
X173235034Y-105164936D01*
X173316354Y-105404496D01*
X173318177Y-105408192D01*
X173318180Y-105408200D01*
X173428721Y-105632352D01*
X173453096Y-105681780D01*
X173455390Y-105685213D01*
X173455391Y-105685215D01*
X173504135Y-105758165D01*
X173624861Y-105938845D01*
X173627575Y-105941939D01*
X173627579Y-105941945D01*
X173775679Y-106110820D01*
X173828710Y-106171290D01*
X173831799Y-106173999D01*
X174058055Y-106372421D01*
X174058061Y-106372425D01*
X174061155Y-106375139D01*
X174064581Y-106377428D01*
X174064586Y-106377432D01*
X174258318Y-106506879D01*
X174318219Y-106546904D01*
X174321918Y-106548728D01*
X174321923Y-106548731D01*
X174464435Y-106619010D01*
X174595504Y-106683646D01*
X174599409Y-106684971D01*
X174599410Y-106684972D01*
X174801838Y-106753687D01*
X174859915Y-106794524D01*
X174886693Y-106860277D01*
X174873672Y-106930069D01*
X174824985Y-106981742D01*
X174761337Y-106999000D01*
X160606767Y-106999000D01*
X160595584Y-106998473D01*
X160588091Y-106996798D01*
X160580165Y-106997047D01*
X160580164Y-106997047D01*
X160520014Y-106998938D01*
X160516055Y-106999000D01*
X160488144Y-106999000D01*
X160484210Y-106999497D01*
X160484209Y-106999497D01*
X160484144Y-106999505D01*
X160472307Y-107000438D01*
X160440490Y-107001438D01*
X160436029Y-107001578D01*
X160428110Y-107001827D01*
X160410454Y-107006956D01*
X160408658Y-107007478D01*
X160389306Y-107011486D01*
X160382235Y-107012380D01*
X160369203Y-107014026D01*
X160361834Y-107016943D01*
X160361832Y-107016944D01*
X160328097Y-107030300D01*
X160316869Y-107034145D01*
X160274407Y-107046482D01*
X160267585Y-107050516D01*
X160267579Y-107050519D01*
X160256968Y-107056794D01*
X160239218Y-107065490D01*
X160227756Y-107070028D01*
X160227751Y-107070031D01*
X160220383Y-107072948D01*
X160202970Y-107085599D01*
X160184625Y-107098927D01*
X160174707Y-107105443D01*
X160163463Y-107112093D01*
X160136637Y-107127958D01*
X160122313Y-107142282D01*
X160107281Y-107155121D01*
X160090893Y-107167028D01*
X160062712Y-107201093D01*
X160054722Y-107209873D01*
X158966246Y-108298349D01*
X158957960Y-108305889D01*
X158951481Y-108310001D01*
X158946056Y-108315778D01*
X158904856Y-108359652D01*
X158902101Y-108362494D01*
X158882364Y-108382231D01*
X158879884Y-108385428D01*
X158872181Y-108394448D01*
X158841913Y-108426680D01*
X158838094Y-108433626D01*
X158838092Y-108433629D01*
X158832151Y-108444435D01*
X158821300Y-108460954D01*
X158808885Y-108476960D01*
X158805740Y-108484229D01*
X158805737Y-108484233D01*
X158791325Y-108517538D01*
X158786108Y-108528188D01*
X158764804Y-108566941D01*
X158762833Y-108574616D01*
X158762833Y-108574617D01*
X158759766Y-108586563D01*
X158753362Y-108605267D01*
X158745318Y-108623856D01*
X158744079Y-108631679D01*
X158744076Y-108631689D01*
X158738400Y-108667525D01*
X158735994Y-108679145D01*
X158724999Y-108721971D01*
X158724999Y-108742225D01*
X158723448Y-108761935D01*
X158720279Y-108781944D01*
X158721025Y-108789836D01*
X158724440Y-108825962D01*
X158724999Y-108837820D01*
X158724999Y-110892732D01*
X158724472Y-110903915D01*
X158722797Y-110911408D01*
X158723046Y-110919334D01*
X158723046Y-110919335D01*
X158724937Y-110979485D01*
X158724999Y-110983444D01*
X158724999Y-111011355D01*
X158725496Y-111015289D01*
X158725496Y-111015290D01*
X158725504Y-111015355D01*
X158726437Y-111027192D01*
X158727826Y-111071388D01*
X158731252Y-111083180D01*
X158733477Y-111090838D01*
X158737486Y-111110199D01*
X158740025Y-111130296D01*
X158742944Y-111137667D01*
X158742944Y-111137669D01*
X158756303Y-111171411D01*
X158760148Y-111182641D01*
X158772481Y-111225092D01*
X158776514Y-111231911D01*
X158776516Y-111231916D01*
X158782792Y-111242527D01*
X158791487Y-111260275D01*
X158798947Y-111279116D01*
X158803609Y-111285532D01*
X158803609Y-111285533D01*
X158824935Y-111314886D01*
X158831451Y-111324806D01*
X158838721Y-111337098D01*
X158853957Y-111362861D01*
X158868278Y-111377182D01*
X158881118Y-111392215D01*
X158893027Y-111408606D01*
X158918275Y-111429493D01*
X158927092Y-111436787D01*
X158935873Y-111444777D01*
X159452853Y-111961758D01*
X159460387Y-111970037D01*
X159464500Y-111976518D01*
X159514151Y-112023143D01*
X159516993Y-112025898D01*
X159536730Y-112045635D01*
X159539927Y-112048115D01*
X159548947Y-112055818D01*
X159581179Y-112086086D01*
X159588125Y-112089905D01*
X159588128Y-112089907D01*
X159598934Y-112095848D01*
X159615453Y-112106699D01*
X159631459Y-112119114D01*
X159638728Y-112122259D01*
X159638732Y-112122262D01*
X159672037Y-112136674D01*
X159682687Y-112141891D01*
X159721440Y-112163195D01*
X159729115Y-112165166D01*
X159729116Y-112165166D01*
X159741062Y-112168233D01*
X159759767Y-112174637D01*
X159778355Y-112182681D01*
X159786178Y-112183920D01*
X159786188Y-112183923D01*
X159822024Y-112189599D01*
X159833644Y-112192005D01*
X159868789Y-112201028D01*
X159876470Y-112203000D01*
X159896724Y-112203000D01*
X159916434Y-112204551D01*
X159936443Y-112207720D01*
X159944335Y-112206974D01*
X159980461Y-112203559D01*
X159992319Y-112203000D01*
X161546906Y-112203000D01*
X161615027Y-112223002D01*
X161636001Y-112239905D01*
X163079595Y-113683499D01*
X163113621Y-113745811D01*
X163116500Y-113772594D01*
X163116500Y-113990500D01*
X163096498Y-114058621D01*
X163042842Y-114105114D01*
X162990500Y-114116500D01*
X161680767Y-114116500D01*
X161669584Y-114115973D01*
X161662091Y-114114298D01*
X161654165Y-114114547D01*
X161654164Y-114114547D01*
X161594014Y-114116438D01*
X161590055Y-114116500D01*
X161562144Y-114116500D01*
X161558210Y-114116997D01*
X161558209Y-114116997D01*
X161558144Y-114117005D01*
X161546307Y-114117938D01*
X161514490Y-114118938D01*
X161510029Y-114119078D01*
X161502110Y-114119327D01*
X161484454Y-114124456D01*
X161482658Y-114124978D01*
X161463306Y-114128986D01*
X161456235Y-114129880D01*
X161443203Y-114131526D01*
X161435834Y-114134443D01*
X161435832Y-114134444D01*
X161402097Y-114147800D01*
X161390869Y-114151645D01*
X161348407Y-114163982D01*
X161341584Y-114168017D01*
X161341582Y-114168018D01*
X161330972Y-114174293D01*
X161313224Y-114182988D01*
X161294383Y-114190448D01*
X161287967Y-114195110D01*
X161287966Y-114195110D01*
X161258613Y-114216436D01*
X161248693Y-114222952D01*
X161217465Y-114241420D01*
X161217462Y-114241422D01*
X161210638Y-114245458D01*
X161196317Y-114259779D01*
X161181284Y-114272619D01*
X161164893Y-114284528D01*
X161159842Y-114290633D01*
X161159837Y-114290638D01*
X161136701Y-114318604D01*
X161128713Y-114327382D01*
X160389747Y-115066348D01*
X160381461Y-115073888D01*
X160374982Y-115078000D01*
X160369557Y-115083777D01*
X160328357Y-115127651D01*
X160325602Y-115130493D01*
X160305865Y-115150230D01*
X160303385Y-115153427D01*
X160295682Y-115162447D01*
X160265414Y-115194679D01*
X160261595Y-115201625D01*
X160261593Y-115201628D01*
X160255652Y-115212434D01*
X160244801Y-115228953D01*
X160232386Y-115244959D01*
X160229241Y-115252228D01*
X160229238Y-115252232D01*
X160214826Y-115285537D01*
X160209609Y-115296187D01*
X160188305Y-115334940D01*
X160186334Y-115342615D01*
X160186334Y-115342616D01*
X160183267Y-115354562D01*
X160176863Y-115373266D01*
X160172435Y-115383500D01*
X160168819Y-115391855D01*
X160167580Y-115399678D01*
X160167577Y-115399688D01*
X160161901Y-115435524D01*
X160159495Y-115447144D01*
X160158360Y-115451566D01*
X160148500Y-115489970D01*
X160148500Y-115510224D01*
X160146949Y-115529934D01*
X160143780Y-115549943D01*
X160144526Y-115557835D01*
X160147941Y-115593961D01*
X160148500Y-115605819D01*
X160148500Y-120380733D01*
X160147973Y-120391916D01*
X160146298Y-120399409D01*
X160146547Y-120407335D01*
X160146547Y-120407336D01*
X160148438Y-120467486D01*
X160148500Y-120471445D01*
X160148500Y-120499356D01*
X160148997Y-120503290D01*
X160148997Y-120503291D01*
X160149005Y-120503356D01*
X160149938Y-120515193D01*
X160151327Y-120559389D01*
X160156978Y-120578839D01*
X160160987Y-120598200D01*
X160163526Y-120618297D01*
X160166445Y-120625668D01*
X160166445Y-120625670D01*
X160179804Y-120659412D01*
X160183649Y-120670642D01*
X160195982Y-120713093D01*
X160200015Y-120719912D01*
X160200017Y-120719917D01*
X160206293Y-120730528D01*
X160214988Y-120748276D01*
X160222448Y-120767117D01*
X160227110Y-120773533D01*
X160227110Y-120773534D01*
X160248436Y-120802887D01*
X160254952Y-120812807D01*
X160277458Y-120850862D01*
X160291779Y-120865183D01*
X160304619Y-120880216D01*
X160316528Y-120896607D01*
X160322633Y-120901658D01*
X160322638Y-120901663D01*
X160350604Y-120924799D01*
X160359382Y-120932787D01*
X161167348Y-121740753D01*
X161174888Y-121749039D01*
X161179000Y-121755518D01*
X161184777Y-121760943D01*
X161228651Y-121802143D01*
X161231493Y-121804898D01*
X161251230Y-121824635D01*
X161254427Y-121827115D01*
X161263447Y-121834818D01*
X161295679Y-121865086D01*
X161302625Y-121868905D01*
X161302628Y-121868907D01*
X161313434Y-121874848D01*
X161329953Y-121885699D01*
X161345959Y-121898114D01*
X161353228Y-121901259D01*
X161353232Y-121901262D01*
X161386537Y-121915674D01*
X161397187Y-121920891D01*
X161435940Y-121942195D01*
X161443615Y-121944166D01*
X161443616Y-121944166D01*
X161455562Y-121947233D01*
X161474267Y-121953637D01*
X161492855Y-121961681D01*
X161500678Y-121962920D01*
X161500688Y-121962923D01*
X161536524Y-121968599D01*
X161548144Y-121971005D01*
X161583289Y-121980028D01*
X161590970Y-121982000D01*
X161611224Y-121982000D01*
X161630934Y-121983551D01*
X161650943Y-121986720D01*
X161658835Y-121985974D01*
X161694961Y-121982559D01*
X161706819Y-121982000D01*
X172780126Y-121982000D01*
X172848247Y-122002002D01*
X172873757Y-122023685D01*
X172934247Y-122090866D01*
X173088748Y-122203118D01*
X173094776Y-122205802D01*
X173094778Y-122205803D01*
X173257181Y-122278109D01*
X173263212Y-122280794D01*
X173356613Y-122300647D01*
X173443556Y-122319128D01*
X173443561Y-122319128D01*
X173450013Y-122320500D01*
X173640987Y-122320500D01*
X173647439Y-122319128D01*
X173647444Y-122319128D01*
X173734387Y-122300647D01*
X173827788Y-122280794D01*
X173833819Y-122278109D01*
X173996222Y-122205803D01*
X173996224Y-122205802D01*
X174002252Y-122203118D01*
X174156753Y-122090866D01*
X174161175Y-122085955D01*
X174280121Y-121953852D01*
X174280122Y-121953851D01*
X174284540Y-121948944D01*
X174354882Y-121827108D01*
X174376723Y-121789279D01*
X174376724Y-121789278D01*
X174380027Y-121783556D01*
X174439042Y-121601928D01*
X174459004Y-121412000D01*
X174439042Y-121222072D01*
X174380027Y-121040444D01*
X174284540Y-120875056D01*
X174187352Y-120767117D01*
X174161175Y-120738045D01*
X174161174Y-120738044D01*
X174156753Y-120733134D01*
X174002252Y-120620882D01*
X173996224Y-120618198D01*
X173996222Y-120618197D01*
X173833819Y-120545891D01*
X173833818Y-120545891D01*
X173827788Y-120543206D01*
X173734387Y-120523353D01*
X173647444Y-120504872D01*
X173647439Y-120504872D01*
X173640987Y-120503500D01*
X173450013Y-120503500D01*
X173443561Y-120504872D01*
X173443556Y-120504872D01*
X173356613Y-120523353D01*
X173263212Y-120543206D01*
X173257182Y-120545891D01*
X173257181Y-120545891D01*
X173094778Y-120618197D01*
X173094776Y-120618198D01*
X173088748Y-120620882D01*
X173083407Y-120624762D01*
X173083406Y-120624763D01*
X172992327Y-120690936D01*
X172925459Y-120714795D01*
X172918266Y-120715000D01*
X161985595Y-120715000D01*
X161917474Y-120694998D01*
X161896499Y-120678095D01*
X161452404Y-120233999D01*
X161418379Y-120171687D01*
X161415500Y-120144904D01*
X161415500Y-118728766D01*
X164525340Y-118728766D01*
X164525677Y-118735282D01*
X164535144Y-118826521D01*
X164538037Y-118839917D01*
X164587170Y-118987187D01*
X164593344Y-119000366D01*
X164674810Y-119132014D01*
X164683846Y-119143415D01*
X164793420Y-119252798D01*
X164804831Y-119261810D01*
X164936631Y-119343053D01*
X164949808Y-119349197D01*
X165097183Y-119398079D01*
X165110550Y-119400945D01*
X165200040Y-119410114D01*
X165213964Y-119406025D01*
X165215169Y-119404635D01*
X165216840Y-119396952D01*
X165216840Y-118699615D01*
X165212365Y-118684376D01*
X165210975Y-118683171D01*
X165203292Y-118681500D01*
X164543455Y-118681500D01*
X164528216Y-118685975D01*
X164527011Y-118687365D01*
X164525340Y-118695048D01*
X164525340Y-118728766D01*
X161415500Y-118728766D01*
X161415500Y-115884595D01*
X161435502Y-115816474D01*
X161452405Y-115795499D01*
X161827501Y-115420404D01*
X161889813Y-115386379D01*
X161916596Y-115383500D01*
X162009622Y-115383500D01*
X162077743Y-115403502D01*
X162124236Y-115457158D01*
X162134340Y-115527432D01*
X162132951Y-115534205D01*
X162131197Y-115538439D01*
X162116500Y-115650075D01*
X162116501Y-115849924D01*
X162131197Y-115961561D01*
X162133875Y-115968026D01*
X162133875Y-116031974D01*
X162131197Y-116038439D01*
X162116500Y-116150075D01*
X162116501Y-116349924D01*
X162117039Y-116354009D01*
X162117039Y-116354013D01*
X162130119Y-116453374D01*
X162131197Y-116461561D01*
X162188733Y-116600464D01*
X162280258Y-116719742D01*
X162399537Y-116811267D01*
X162538439Y-116868803D01*
X162546623Y-116869880D01*
X162546625Y-116869881D01*
X162645988Y-116882962D01*
X162650075Y-116883500D01*
X162664850Y-116883500D01*
X162990501Y-116883499D01*
X163058620Y-116903501D01*
X163105113Y-116957156D01*
X163116500Y-117009499D01*
X163116501Y-117349924D01*
X163117039Y-117354008D01*
X163117039Y-117354014D01*
X163129063Y-117445352D01*
X163131197Y-117461561D01*
X163188733Y-117600464D01*
X163280258Y-117719742D01*
X163399537Y-117811267D01*
X163538439Y-117868803D01*
X163546623Y-117869880D01*
X163546625Y-117869881D01*
X163645988Y-117882962D01*
X163650075Y-117883500D01*
X163749987Y-117883500D01*
X163849924Y-117883499D01*
X163854009Y-117882961D01*
X163854013Y-117882961D01*
X163920344Y-117874229D01*
X163961561Y-117868803D01*
X163968026Y-117866125D01*
X164031974Y-117866125D01*
X164038439Y-117868803D01*
X164132008Y-117881121D01*
X164145981Y-117882961D01*
X164150075Y-117883500D01*
X164249987Y-117883500D01*
X164349924Y-117883499D01*
X164354006Y-117882962D01*
X164354016Y-117882961D01*
X164395437Y-117877508D01*
X164465585Y-117888448D01*
X164518683Y-117935577D01*
X164537872Y-118003931D01*
X164535081Y-118028844D01*
X164534895Y-118029711D01*
X164525668Y-118119770D01*
X164525340Y-118126185D01*
X164525340Y-118155385D01*
X164529815Y-118170624D01*
X164531205Y-118171829D01*
X164538888Y-118173500D01*
X165598840Y-118173500D01*
X165666961Y-118193502D01*
X165713454Y-118247158D01*
X165724840Y-118299500D01*
X165724840Y-119392385D01*
X165729315Y-119407624D01*
X165730705Y-119408829D01*
X165737661Y-119410342D01*
X165741122Y-119410163D01*
X165832361Y-119400696D01*
X165845757Y-119397803D01*
X165993027Y-119348670D01*
X166006206Y-119342496D01*
X166137854Y-119261030D01*
X166149255Y-119251994D01*
X166168873Y-119232342D01*
X166231156Y-119198263D01*
X166301976Y-119203266D01*
X166347063Y-119232186D01*
X166362751Y-119247846D01*
X166373287Y-119258364D01*
X166517648Y-119347349D01*
X166524596Y-119349654D01*
X166524597Y-119349654D01*
X166672078Y-119398572D01*
X166672080Y-119398572D01*
X166678609Y-119400738D01*
X166778768Y-119411000D01*
X167312912Y-119411000D01*
X167316158Y-119410663D01*
X167316162Y-119410663D01*
X167349943Y-119407158D01*
X167414322Y-119400478D01*
X167575189Y-119346808D01*
X167719395Y-119257571D01*
X167724566Y-119252391D01*
X167730300Y-119247846D01*
X167732153Y-119250183D01*
X167782555Y-119222589D01*
X167853376Y-119227576D01*
X167859210Y-119229956D01*
X167859682Y-119230109D01*
X167865712Y-119232794D01*
X167956040Y-119251994D01*
X168046056Y-119271128D01*
X168046061Y-119271128D01*
X168052513Y-119272500D01*
X168243487Y-119272500D01*
X168249939Y-119271128D01*
X168249944Y-119271128D01*
X168339960Y-119251994D01*
X168430288Y-119232794D01*
X168436319Y-119230109D01*
X168598722Y-119157803D01*
X168598724Y-119157802D01*
X168604752Y-119155118D01*
X168759253Y-119042866D01*
X168887040Y-118900944D01*
X168982527Y-118735556D01*
X169041542Y-118553928D01*
X169049222Y-118480862D01*
X169060814Y-118370565D01*
X169061504Y-118364000D01*
X169041542Y-118174072D01*
X168982527Y-117992444D01*
X168969155Y-117969282D01*
X168945314Y-117927990D01*
X168887040Y-117827056D01*
X168838968Y-117773666D01*
X168763675Y-117690045D01*
X168763674Y-117690044D01*
X168759253Y-117685134D01*
X168633240Y-117593580D01*
X168610094Y-117576763D01*
X168610093Y-117576762D01*
X168604752Y-117572882D01*
X168598724Y-117570198D01*
X168598722Y-117570197D01*
X168436319Y-117497891D01*
X168436318Y-117497891D01*
X168430288Y-117495206D01*
X168336887Y-117475353D01*
X168249944Y-117456872D01*
X168249939Y-117456872D01*
X168243487Y-117455500D01*
X168052513Y-117455500D01*
X168046061Y-117456872D01*
X168046056Y-117456872D01*
X167959113Y-117475353D01*
X167865712Y-117495206D01*
X167859682Y-117497891D01*
X167859681Y-117497891D01*
X167793863Y-117527195D01*
X167763012Y-117540931D01*
X167745387Y-117548778D01*
X167675020Y-117558212D01*
X167628022Y-117540931D01*
X167581001Y-117511947D01*
X167574032Y-117507651D01*
X167532376Y-117493834D01*
X167419602Y-117456428D01*
X167419600Y-117456428D01*
X167413071Y-117454262D01*
X167312912Y-117444000D01*
X166778768Y-117444000D01*
X166775522Y-117444337D01*
X166775518Y-117444337D01*
X166741737Y-117447842D01*
X166677358Y-117454522D01*
X166516491Y-117508192D01*
X166372285Y-117597429D01*
X166367116Y-117602607D01*
X166347099Y-117622659D01*
X166284817Y-117656738D01*
X166213997Y-117651735D01*
X166168908Y-117622814D01*
X166148260Y-117602202D01*
X166136849Y-117593190D01*
X166005049Y-117511947D01*
X165991872Y-117505803D01*
X165966737Y-117497466D01*
X165908377Y-117457036D01*
X165881140Y-117391472D01*
X165881481Y-117361430D01*
X165882462Y-117353974D01*
X165883000Y-117345772D01*
X165883000Y-117009500D01*
X165903002Y-116941379D01*
X165956658Y-116894886D01*
X166009000Y-116883500D01*
X176389943Y-116883500D01*
X176458064Y-116903502D01*
X176504557Y-116957158D01*
X176515253Y-116996328D01*
X176525458Y-117093428D01*
X176584473Y-117275056D01*
X176679960Y-117440444D01*
X176684378Y-117445351D01*
X176684379Y-117445352D01*
X176799249Y-117572928D01*
X176807747Y-117582366D01*
X176962248Y-117694618D01*
X176968276Y-117697302D01*
X176968278Y-117697303D01*
X177114622Y-117762459D01*
X177136712Y-117772294D01*
X177230113Y-117792147D01*
X177317056Y-117810628D01*
X177317061Y-117810628D01*
X177323513Y-117812000D01*
X177514487Y-117812000D01*
X177520939Y-117810628D01*
X177520944Y-117810628D01*
X177607887Y-117792147D01*
X177701288Y-117772294D01*
X177723378Y-117762459D01*
X177869722Y-117697303D01*
X177869724Y-117697302D01*
X177875752Y-117694618D01*
X178030253Y-117582366D01*
X178038751Y-117572928D01*
X178153621Y-117445352D01*
X178153622Y-117445351D01*
X178158040Y-117440444D01*
X178253527Y-117275056D01*
X178312542Y-117093428D01*
X178332504Y-116903500D01*
X178312542Y-116713572D01*
X178253527Y-116531944D01*
X178158040Y-116366556D01*
X178143065Y-116349924D01*
X178034675Y-116229545D01*
X178034674Y-116229544D01*
X178030253Y-116224634D01*
X177875752Y-116112382D01*
X177869724Y-116109698D01*
X177869722Y-116109697D01*
X177707319Y-116037391D01*
X177707318Y-116037391D01*
X177701288Y-116034706D01*
X177607888Y-116014853D01*
X177520944Y-115996372D01*
X177520939Y-115996372D01*
X177514487Y-115995000D01*
X177458595Y-115995000D01*
X177390474Y-115974998D01*
X177369500Y-115958095D01*
X177269152Y-115857747D01*
X177261612Y-115849461D01*
X177257500Y-115842982D01*
X177246236Y-115832404D01*
X177207849Y-115796357D01*
X177205007Y-115793602D01*
X177185270Y-115773865D01*
X177182073Y-115771385D01*
X177173051Y-115763680D01*
X177146600Y-115738841D01*
X177140821Y-115733414D01*
X177133875Y-115729595D01*
X177133872Y-115729593D01*
X177123066Y-115723652D01*
X177106547Y-115712801D01*
X177106083Y-115712441D01*
X177090541Y-115700386D01*
X177083272Y-115697241D01*
X177083268Y-115697238D01*
X177049963Y-115682826D01*
X177039313Y-115677609D01*
X177000560Y-115656305D01*
X176980937Y-115651267D01*
X176962234Y-115644863D01*
X176950920Y-115639967D01*
X176950919Y-115639967D01*
X176943645Y-115636819D01*
X176935822Y-115635580D01*
X176935812Y-115635577D01*
X176899976Y-115629901D01*
X176888356Y-115627495D01*
X176853211Y-115618472D01*
X176853210Y-115618472D01*
X176845530Y-115616500D01*
X176825276Y-115616500D01*
X176805565Y-115614949D01*
X176793386Y-115613020D01*
X176785557Y-115611780D01*
X176777665Y-115612526D01*
X176741539Y-115615941D01*
X176729681Y-115616500D01*
X168269407Y-115616500D01*
X168201286Y-115596498D01*
X168154793Y-115542842D01*
X168144689Y-115472568D01*
X168149573Y-115451566D01*
X168150500Y-115448712D01*
X168152542Y-115442428D01*
X168156634Y-115403502D01*
X168171814Y-115259065D01*
X168172504Y-115252500D01*
X168166427Y-115194679D01*
X168153232Y-115069135D01*
X168153232Y-115069133D01*
X168152542Y-115062572D01*
X168093527Y-114880944D01*
X167998040Y-114715556D01*
X167870253Y-114573634D01*
X167715752Y-114461382D01*
X167709724Y-114458698D01*
X167709722Y-114458697D01*
X167547319Y-114386391D01*
X167547318Y-114386391D01*
X167541288Y-114383706D01*
X167447808Y-114363836D01*
X167360944Y-114345372D01*
X167360939Y-114345372D01*
X167354487Y-114344000D01*
X167163513Y-114344000D01*
X167157061Y-114345372D01*
X167157056Y-114345372D01*
X167070192Y-114363836D01*
X166976712Y-114383706D01*
X166970682Y-114386391D01*
X166970681Y-114386391D01*
X166935086Y-114402239D01*
X166864719Y-114411673D01*
X166800422Y-114381566D01*
X166783875Y-114363836D01*
X166724773Y-114286813D01*
X166724768Y-114286808D01*
X166719742Y-114280258D01*
X166600463Y-114188733D01*
X166461561Y-114131197D01*
X166453377Y-114130120D01*
X166453375Y-114130119D01*
X166354012Y-114117038D01*
X166354011Y-114117038D01*
X166349925Y-114116500D01*
X166335149Y-114116500D01*
X166009498Y-114116501D01*
X165941379Y-114096499D01*
X165894886Y-114042844D01*
X165883499Y-113990501D01*
X165883499Y-113650076D01*
X165868803Y-113538439D01*
X165811267Y-113399536D01*
X165719742Y-113280258D01*
X165600463Y-113188733D01*
X165461561Y-113131197D01*
X165462924Y-113127906D01*
X165416273Y-113099476D01*
X165385246Y-113035618D01*
X165383500Y-113014713D01*
X165383500Y-111615768D01*
X165384027Y-111604585D01*
X165385702Y-111597092D01*
X165383562Y-111529001D01*
X165383500Y-111525044D01*
X165383500Y-111497144D01*
X165382996Y-111493153D01*
X165382063Y-111481311D01*
X165380923Y-111445036D01*
X165380674Y-111437111D01*
X165375021Y-111417652D01*
X165371012Y-111398293D01*
X165370244Y-111392216D01*
X165368474Y-111378203D01*
X165365558Y-111370837D01*
X165365556Y-111370831D01*
X165352200Y-111337098D01*
X165348355Y-111325868D01*
X165338230Y-111291017D01*
X165338230Y-111291016D01*
X165336019Y-111283407D01*
X165325705Y-111265966D01*
X165317008Y-111248213D01*
X165312472Y-111236758D01*
X165309552Y-111229383D01*
X165283563Y-111193612D01*
X165277047Y-111183692D01*
X165254542Y-111145638D01*
X165240221Y-111131317D01*
X165227380Y-111116283D01*
X165215472Y-111099893D01*
X165181395Y-111071702D01*
X165172616Y-111063712D01*
X163635152Y-109526247D01*
X163627612Y-109517961D01*
X163623500Y-109511482D01*
X163573848Y-109464856D01*
X163571007Y-109462102D01*
X163551270Y-109442365D01*
X163548073Y-109439885D01*
X163539051Y-109432180D01*
X163506821Y-109401914D01*
X163499875Y-109398095D01*
X163499872Y-109398093D01*
X163489066Y-109392152D01*
X163472547Y-109381301D01*
X163469325Y-109378802D01*
X163456541Y-109368886D01*
X163449272Y-109365741D01*
X163449268Y-109365738D01*
X163415963Y-109351326D01*
X163405313Y-109346109D01*
X163366560Y-109324805D01*
X163346937Y-109319767D01*
X163328234Y-109313363D01*
X163316920Y-109308467D01*
X163316919Y-109308467D01*
X163309645Y-109305319D01*
X163301822Y-109304080D01*
X163301812Y-109304077D01*
X163265976Y-109298401D01*
X163254356Y-109295995D01*
X163219211Y-109286972D01*
X163219210Y-109286972D01*
X163211530Y-109285000D01*
X163191276Y-109285000D01*
X163171565Y-109283449D01*
X163159386Y-109281520D01*
X163151557Y-109280280D01*
X163143665Y-109281026D01*
X163107539Y-109284441D01*
X163095681Y-109285000D01*
X160791700Y-109285000D01*
X160723579Y-109264998D01*
X160704353Y-109248657D01*
X160704080Y-109248960D01*
X160699168Y-109244537D01*
X160694753Y-109239634D01*
X160540252Y-109127382D01*
X160534224Y-109124698D01*
X160534222Y-109124697D01*
X160371819Y-109052391D01*
X160371818Y-109052391D01*
X160365788Y-109049706D01*
X160359333Y-109048334D01*
X160359324Y-109048331D01*
X160296636Y-109035006D01*
X160234163Y-109001278D01*
X160199842Y-108939128D01*
X160204570Y-108868289D01*
X160233739Y-108822665D01*
X160753499Y-108302905D01*
X160815811Y-108268879D01*
X160842594Y-108266000D01*
X175770906Y-108266000D01*
X175839027Y-108286002D01*
X175860001Y-108302905D01*
X177741878Y-110184783D01*
X177775904Y-110247095D01*
X177778093Y-110260706D01*
X177795458Y-110425928D01*
X177854473Y-110607556D01*
X177949960Y-110772944D01*
X177954378Y-110777851D01*
X177954379Y-110777852D01*
X178068047Y-110904093D01*
X178077747Y-110914866D01*
X178134802Y-110956319D01*
X178216058Y-111015355D01*
X178232248Y-111027118D01*
X178238276Y-111029802D01*
X178238278Y-111029803D01*
X178395704Y-111099893D01*
X178406712Y-111104794D01*
X178489678Y-111122429D01*
X178587056Y-111143128D01*
X178587061Y-111143128D01*
X178593513Y-111144500D01*
X178784487Y-111144500D01*
X178790939Y-111143128D01*
X178790944Y-111143128D01*
X178888322Y-111122429D01*
X178971288Y-111104794D01*
X178982296Y-111099893D01*
X179139722Y-111029803D01*
X179139724Y-111029802D01*
X179145752Y-111027118D01*
X179161943Y-111015355D01*
X179243198Y-110956319D01*
X179300253Y-110914866D01*
X179309953Y-110904093D01*
X179423621Y-110777852D01*
X179423622Y-110777851D01*
X179428040Y-110772944D01*
X179523527Y-110607556D01*
X179525081Y-110608453D01*
X179565371Y-110561050D01*
X179633298Y-110540400D01*
X179701607Y-110559752D01*
X179748609Y-110612962D01*
X179760499Y-110666394D01*
X179760500Y-117839561D01*
X179740498Y-117907682D01*
X179723595Y-117928656D01*
X175078656Y-122573595D01*
X175016344Y-122607621D01*
X174989561Y-122610500D01*
X169626936Y-122610500D01*
X169610490Y-122609422D01*
X169586988Y-122606328D01*
X169578800Y-122605250D01*
X169570612Y-122606328D01*
X169538929Y-122610499D01*
X169538920Y-122610500D01*
X169538915Y-122610500D01*
X169419950Y-122626162D01*
X169412323Y-122629321D01*
X169412320Y-122629322D01*
X169333238Y-122662079D01*
X169271924Y-122687476D01*
X169176728Y-122760523D01*
X169176725Y-122760526D01*
X169144813Y-122785013D01*
X169139783Y-122791568D01*
X169125348Y-122810379D01*
X169114481Y-122822770D01*
X157866765Y-134070486D01*
X157854374Y-134081353D01*
X157829012Y-134100814D01*
X157804525Y-134132726D01*
X157804522Y-134132729D01*
X157731475Y-134227925D01*
X157670161Y-134375950D01*
X157670161Y-134375951D01*
X157654499Y-134494916D01*
X157654499Y-134494921D01*
X157649249Y-134534801D01*
X157650327Y-134542989D01*
X157653421Y-134566491D01*
X157654499Y-134582937D01*
X157654499Y-134805408D01*
X157634497Y-134873529D01*
X157617594Y-134894503D01*
X156892264Y-135619833D01*
X156879873Y-135630700D01*
X156854511Y-135650161D01*
X156830024Y-135682073D01*
X156830021Y-135682076D01*
X156756974Y-135777272D01*
X156697591Y-135920635D01*
X156695660Y-135925298D01*
X156679998Y-136044263D01*
X156679998Y-136044268D01*
X156674748Y-136084148D01*
X156678890Y-136115607D01*
X156678920Y-136115838D01*
X156679998Y-136132284D01*
X156679998Y-137029715D01*
X156678920Y-137046158D01*
X156674748Y-137077851D01*
X156675826Y-137086040D01*
X156679901Y-137116993D01*
X156679998Y-137117731D01*
X156679998Y-137117736D01*
X156687384Y-137173837D01*
X156695660Y-137236702D01*
X156756974Y-137384727D01*
X156762001Y-137391278D01*
X156762002Y-137391280D01*
X156830018Y-137479920D01*
X156830024Y-137479926D01*
X156854511Y-137511838D01*
X156861066Y-137516868D01*
X156879877Y-137531303D01*
X156892268Y-137542170D01*
X156953105Y-137603007D01*
X156987131Y-137665319D01*
X156982066Y-137736134D01*
X156964836Y-137767667D01*
X156944969Y-137794176D01*
X156937385Y-137804295D01*
X156886255Y-137940684D01*
X156879500Y-138002866D01*
X156879500Y-138999134D01*
X156886255Y-139061316D01*
X156889028Y-139068714D01*
X156890362Y-139074323D01*
X156886660Y-139145223D01*
X156850111Y-139198849D01*
X156849700Y-139199204D01*
X156845149Y-139202474D01*
X156778692Y-139271052D01*
X156709131Y-139342834D01*
X156695023Y-139357392D01*
X156574703Y-139536447D01*
X156572444Y-139541593D01*
X156572443Y-139541595D01*
X156549177Y-139594596D01*
X156487992Y-139733980D01*
X156437632Y-139943745D01*
X156425214Y-140159113D01*
X153608180Y-140159113D01*
X153688435Y-140079137D01*
X153692096Y-140075489D01*
X153716104Y-140042079D01*
X153819435Y-139898277D01*
X153822453Y-139894077D01*
X153832232Y-139874292D01*
X153919136Y-139698453D01*
X153919137Y-139698451D01*
X153921430Y-139693811D01*
X153972285Y-139526428D01*
X153984865Y-139485023D01*
X153984865Y-139485021D01*
X153986370Y-139480069D01*
X154015529Y-139258590D01*
X154015845Y-139245667D01*
X154017074Y-139195365D01*
X154017074Y-139195361D01*
X154017156Y-139192000D01*
X153998852Y-138969361D01*
X153944431Y-138752702D01*
X153855354Y-138547840D01*
X153734014Y-138360277D01*
X153730532Y-138356450D01*
X153586798Y-138198488D01*
X153555746Y-138134642D01*
X153564141Y-138064143D01*
X153609317Y-138009375D01*
X153635761Y-137995706D01*
X153742297Y-137955767D01*
X153750705Y-137952615D01*
X153867261Y-137865261D01*
X153954615Y-137748705D01*
X154005745Y-137612316D01*
X154012500Y-137550134D01*
X154012500Y-135753866D01*
X154005745Y-135691684D01*
X153954615Y-135555295D01*
X153867261Y-135438739D01*
X153750705Y-135351385D01*
X153614316Y-135300255D01*
X153552134Y-135293500D01*
X151755866Y-135293500D01*
X151693684Y-135300255D01*
X151557295Y-135351385D01*
X151440739Y-135438739D01*
X151353385Y-135555295D01*
X151302255Y-135691684D01*
X151295500Y-135753866D01*
X151295500Y-137550134D01*
X151302255Y-137612316D01*
X151353385Y-137748705D01*
X151440739Y-137865261D01*
X151557295Y-137952615D01*
X151565704Y-137955767D01*
X151565705Y-137955768D01*
X151674451Y-137996535D01*
X151731216Y-138039176D01*
X151755916Y-138105738D01*
X151740709Y-138175087D01*
X151721316Y-138201568D01*
X151594629Y-138334138D01*
X151468743Y-138518680D01*
X151421715Y-138619993D01*
X151377902Y-138714382D01*
X151374688Y-138721305D01*
X151314989Y-138936570D01*
X151291251Y-139158695D01*
X150563912Y-139158695D01*
X150586825Y-130139846D01*
X150588326Y-130126259D01*
X150588167Y-130126247D01*
X150588841Y-130117296D01*
X150590777Y-130108529D01*
X150587341Y-130057397D01*
X150587057Y-130048632D01*
X150587081Y-130039285D01*
X150587081Y-130039281D01*
X150587092Y-130034813D01*
X150586470Y-130030388D01*
X150586469Y-130030379D01*
X150585300Y-130022072D01*
X150584354Y-130012965D01*
X150581622Y-129972298D01*
X150581622Y-129972296D01*
X150581020Y-129963343D01*
X150577929Y-129954917D01*
X150576063Y-129946135D01*
X150576122Y-129946122D01*
X150575766Y-129944701D01*
X150575708Y-129944718D01*
X150573209Y-129936092D01*
X150571960Y-129927206D01*
X150551494Y-129881888D01*
X150548035Y-129873422D01*
X150534000Y-129835159D01*
X150533998Y-129835155D01*
X150530907Y-129826729D01*
X150525574Y-129819507D01*
X150521320Y-129811605D01*
X150521372Y-129811577D01*
X150520630Y-129810311D01*
X150520580Y-129810343D01*
X150515762Y-129802767D01*
X150512069Y-129794589D01*
X150506229Y-129787777D01*
X150506227Y-129787773D01*
X150479705Y-129756833D01*
X150474010Y-129749680D01*
X150449800Y-129716896D01*
X150449799Y-129716895D01*
X150444465Y-129709672D01*
X150437316Y-129704235D01*
X150431019Y-129697848D01*
X150431062Y-129697806D01*
X150429996Y-129696801D01*
X150429957Y-129696845D01*
X150423205Y-129690925D01*
X150417364Y-129684111D01*
X150409844Y-129679210D01*
X150403095Y-129673292D01*
X150403441Y-129672898D01*
X150393956Y-129665068D01*
X149820735Y-129071912D01*
X149816933Y-129067799D01*
X149232071Y-128406122D01*
X149228456Y-128401844D01*
X148673587Y-127714839D01*
X148670166Y-127710404D01*
X148146374Y-126999415D01*
X148143152Y-126994833D01*
X147814248Y-126504119D01*
X147811487Y-126500000D01*
X151136439Y-126500000D01*
X151156660Y-126808507D01*
X151216975Y-127111735D01*
X151316354Y-127404496D01*
X151318177Y-127408192D01*
X151318180Y-127408200D01*
X151420410Y-127615500D01*
X151453096Y-127681780D01*
X151455390Y-127685213D01*
X151455391Y-127685215D01*
X151565527Y-127850045D01*
X151624861Y-127938845D01*
X151627575Y-127941939D01*
X151627579Y-127941945D01*
X151812182Y-128152444D01*
X151828710Y-128171290D01*
X151831799Y-128173999D01*
X152058055Y-128372421D01*
X152058061Y-128372425D01*
X152061155Y-128375139D01*
X152064581Y-128377428D01*
X152064586Y-128377432D01*
X152104387Y-128404026D01*
X152318219Y-128546904D01*
X152321918Y-128548728D01*
X152321923Y-128548731D01*
X152464435Y-128619010D01*
X152595504Y-128683646D01*
X152599409Y-128684971D01*
X152599410Y-128684972D01*
X152884358Y-128781699D01*
X152884361Y-128781700D01*
X152888265Y-128783025D01*
X153114961Y-128828117D01*
X153187450Y-128842536D01*
X153187453Y-128842536D01*
X153191493Y-128843340D01*
X153195604Y-128843609D01*
X153195608Y-128843610D01*
X153495881Y-128863291D01*
X153500000Y-128863561D01*
X153504119Y-128863291D01*
X153804392Y-128843610D01*
X153804396Y-128843609D01*
X153808507Y-128843340D01*
X153812547Y-128842536D01*
X153812550Y-128842536D01*
X153885039Y-128828117D01*
X154111735Y-128783025D01*
X154115639Y-128781700D01*
X154115642Y-128781699D01*
X154400590Y-128684972D01*
X154400591Y-128684971D01*
X154404496Y-128683646D01*
X154535565Y-128619010D01*
X154678077Y-128548731D01*
X154678082Y-128548728D01*
X154681781Y-128546904D01*
X154895613Y-128404026D01*
X154935414Y-128377432D01*
X154935419Y-128377428D01*
X154938845Y-128375139D01*
X154941939Y-128372425D01*
X154941945Y-128372421D01*
X155168201Y-128173999D01*
X155171290Y-128171290D01*
X155187818Y-128152444D01*
X155372421Y-127941945D01*
X155372425Y-127941939D01*
X155375139Y-127938845D01*
X155434474Y-127850045D01*
X155544609Y-127685215D01*
X155544610Y-127685213D01*
X155546904Y-127681780D01*
X155579590Y-127615500D01*
X155681820Y-127408200D01*
X155681823Y-127408192D01*
X155683646Y-127404496D01*
X155783025Y-127111735D01*
X155843340Y-126808507D01*
X155863561Y-126500000D01*
X155847761Y-126258940D01*
X155843610Y-126195608D01*
X155843609Y-126195604D01*
X155843340Y-126191493D01*
X155783025Y-125888265D01*
X155683646Y-125595504D01*
X155681823Y-125591808D01*
X155681820Y-125591800D01*
X155562777Y-125350407D01*
X155546904Y-125318220D01*
X155375139Y-125061155D01*
X155372425Y-125058061D01*
X155372421Y-125058055D01*
X155173999Y-124831799D01*
X155171290Y-124828710D01*
X155050400Y-124722692D01*
X154941945Y-124627579D01*
X154941939Y-124627575D01*
X154938845Y-124624861D01*
X154935415Y-124622569D01*
X154935414Y-124622568D01*
X154731043Y-124486012D01*
X154681781Y-124453096D01*
X154678082Y-124451272D01*
X154678077Y-124451269D01*
X154475071Y-124351158D01*
X154404496Y-124316354D01*
X154400581Y-124315025D01*
X154115642Y-124218301D01*
X154115639Y-124218300D01*
X154111735Y-124216975D01*
X153836887Y-124162305D01*
X153812550Y-124157464D01*
X153812547Y-124157464D01*
X153808507Y-124156660D01*
X153804396Y-124156391D01*
X153804392Y-124156390D01*
X153504119Y-124136709D01*
X153500000Y-124136439D01*
X153495881Y-124136709D01*
X153195608Y-124156390D01*
X153195604Y-124156391D01*
X153191493Y-124156660D01*
X153187453Y-124157464D01*
X153187450Y-124157464D01*
X153163113Y-124162305D01*
X152888265Y-124216975D01*
X152884361Y-124218300D01*
X152884358Y-124218301D01*
X152599419Y-124315025D01*
X152595504Y-124316354D01*
X152591808Y-124318177D01*
X152591800Y-124318180D01*
X152382428Y-124421432D01*
X152318220Y-124453096D01*
X152314787Y-124455390D01*
X152314785Y-124455391D01*
X152064586Y-124622568D01*
X152064585Y-124622569D01*
X152061155Y-124624861D01*
X152058061Y-124627575D01*
X152058055Y-124627579D01*
X151949600Y-124722692D01*
X151828710Y-124828710D01*
X151826001Y-124831799D01*
X151627579Y-125058055D01*
X151627575Y-125058061D01*
X151624861Y-125061155D01*
X151453096Y-125318220D01*
X151437223Y-125350407D01*
X151318180Y-125591800D01*
X151318177Y-125591808D01*
X151316354Y-125595504D01*
X151216975Y-125888265D01*
X151156660Y-126191493D01*
X151156391Y-126195604D01*
X151156390Y-126195608D01*
X151152239Y-126258940D01*
X151136439Y-126500000D01*
X147811487Y-126500000D01*
X147651458Y-126261240D01*
X147648470Y-126256561D01*
X147189867Y-125501847D01*
X147187066Y-125496997D01*
X146762480Y-124722692D01*
X146759896Y-124717722D01*
X146510191Y-124210045D01*
X146370119Y-123925265D01*
X146367762Y-123920190D01*
X146013605Y-123111231D01*
X146011473Y-123106051D01*
X145693609Y-122282132D01*
X145691710Y-122276863D01*
X145592768Y-121982000D01*
X145410778Y-121439639D01*
X145409122Y-121434314D01*
X145404606Y-121418565D01*
X145165673Y-120585416D01*
X145164249Y-120580000D01*
X144958772Y-119721141D01*
X144957590Y-119715667D01*
X144790482Y-118848513D01*
X144789545Y-118842991D01*
X144661141Y-117969282D01*
X144660450Y-117963723D01*
X144571003Y-117085162D01*
X144570560Y-117079579D01*
X144520246Y-116197927D01*
X144520051Y-116192329D01*
X144515742Y-115848968D01*
X144508970Y-115309289D01*
X144509024Y-115303698D01*
X144509264Y-115296198D01*
X144527614Y-114721274D01*
X144537197Y-114421047D01*
X144537500Y-114415454D01*
X144604873Y-113534909D01*
X144605425Y-113529336D01*
X144711858Y-112652703D01*
X144712656Y-112647159D01*
X144857951Y-111776085D01*
X144858995Y-111770582D01*
X145042858Y-110906824D01*
X145044146Y-110901373D01*
X145184449Y-110361348D01*
X145266210Y-110046654D01*
X145267726Y-110041307D01*
X145527572Y-109197252D01*
X145529339Y-109191937D01*
X145826420Y-108360316D01*
X145828421Y-108355085D01*
X146162163Y-107537501D01*
X146164394Y-107532363D01*
X146400940Y-107019319D01*
X146534165Y-106730368D01*
X146536618Y-106725345D01*
X146558141Y-106683646D01*
X146822586Y-106171290D01*
X146941652Y-105940604D01*
X146944331Y-105935686D01*
X147383832Y-105169731D01*
X147386727Y-105164936D01*
X147615484Y-104804392D01*
X147808614Y-104500000D01*
X151136439Y-104500000D01*
X151156660Y-104808507D01*
X151216975Y-105111735D01*
X151218300Y-105115639D01*
X151218301Y-105115642D01*
X151235034Y-105164936D01*
X151316354Y-105404496D01*
X151318177Y-105408192D01*
X151318180Y-105408200D01*
X151428721Y-105632352D01*
X151453096Y-105681780D01*
X151455390Y-105685213D01*
X151455391Y-105685215D01*
X151504135Y-105758165D01*
X151624861Y-105938845D01*
X151627575Y-105941939D01*
X151627579Y-105941945D01*
X151775679Y-106110820D01*
X151828710Y-106171290D01*
X151831799Y-106173999D01*
X152058055Y-106372421D01*
X152058061Y-106372425D01*
X152061155Y-106375139D01*
X152064581Y-106377428D01*
X152064586Y-106377432D01*
X152258318Y-106506879D01*
X152318219Y-106546904D01*
X152321918Y-106548728D01*
X152321923Y-106548731D01*
X152464435Y-106619010D01*
X152595504Y-106683646D01*
X152599409Y-106684971D01*
X152599410Y-106684972D01*
X152884358Y-106781699D01*
X152884361Y-106781700D01*
X152888265Y-106783025D01*
X153114961Y-106828117D01*
X153187450Y-106842536D01*
X153187453Y-106842536D01*
X153191493Y-106843340D01*
X153195604Y-106843609D01*
X153195608Y-106843610D01*
X153495881Y-106863291D01*
X153500000Y-106863561D01*
X153504119Y-106863291D01*
X153804392Y-106843610D01*
X153804396Y-106843609D01*
X153808507Y-106843340D01*
X153812547Y-106842536D01*
X153812550Y-106842536D01*
X153885039Y-106828117D01*
X154111735Y-106783025D01*
X154115639Y-106781700D01*
X154115642Y-106781699D01*
X154400590Y-106684972D01*
X154400591Y-106684971D01*
X154404496Y-106683646D01*
X154535565Y-106619010D01*
X154678077Y-106548731D01*
X154678082Y-106548728D01*
X154681781Y-106546904D01*
X154741682Y-106506879D01*
X154935414Y-106377432D01*
X154935419Y-106377428D01*
X154938845Y-106375139D01*
X154941939Y-106372425D01*
X154941945Y-106372421D01*
X155168201Y-106173999D01*
X155171290Y-106171290D01*
X155224321Y-106110820D01*
X155372421Y-105941945D01*
X155372425Y-105941939D01*
X155375139Y-105938845D01*
X155495866Y-105758165D01*
X155544609Y-105685215D01*
X155544610Y-105685213D01*
X155546904Y-105681780D01*
X155571279Y-105632352D01*
X155681820Y-105408200D01*
X155681823Y-105408192D01*
X155683646Y-105404496D01*
X155764966Y-105164936D01*
X155781699Y-105115642D01*
X155781700Y-105115639D01*
X155783025Y-105111735D01*
X155843340Y-104808507D01*
X155863561Y-104500000D01*
X155857964Y-104414609D01*
X155843610Y-104195608D01*
X155843609Y-104195604D01*
X155843340Y-104191493D01*
X155783025Y-103888265D01*
X155683646Y-103595504D01*
X155681823Y-103591808D01*
X155681820Y-103591800D01*
X155548730Y-103321923D01*
X155546904Y-103318220D01*
X155375139Y-103061155D01*
X155372425Y-103058061D01*
X155372421Y-103058055D01*
X155173999Y-102831799D01*
X155171290Y-102828710D01*
X155163115Y-102821541D01*
X154941945Y-102627579D01*
X154941939Y-102627575D01*
X154938845Y-102624861D01*
X154935419Y-102622572D01*
X154935414Y-102622568D01*
X154741682Y-102493121D01*
X154681781Y-102453096D01*
X154678082Y-102451272D01*
X154678077Y-102451269D01*
X154535565Y-102380990D01*
X154404496Y-102316354D01*
X154348412Y-102297316D01*
X154115642Y-102218301D01*
X154115639Y-102218300D01*
X154111735Y-102216975D01*
X153885039Y-102171883D01*
X153812550Y-102157464D01*
X153812547Y-102157464D01*
X153808507Y-102156660D01*
X153804396Y-102156391D01*
X153804392Y-102156390D01*
X153504119Y-102136709D01*
X153500000Y-102136439D01*
X153495881Y-102136709D01*
X153195608Y-102156390D01*
X153195604Y-102156391D01*
X153191493Y-102156660D01*
X153187453Y-102157464D01*
X153187450Y-102157464D01*
X153114961Y-102171883D01*
X152888265Y-102216975D01*
X152884361Y-102218300D01*
X152884358Y-102218301D01*
X152651588Y-102297316D01*
X152595504Y-102316354D01*
X152591808Y-102318177D01*
X152591800Y-102318180D01*
X152367648Y-102428721D01*
X152318220Y-102453096D01*
X152314787Y-102455390D01*
X152314785Y-102455391D01*
X152064586Y-102622568D01*
X152064581Y-102622572D01*
X152061155Y-102624861D01*
X152058061Y-102627575D01*
X152058055Y-102627579D01*
X151836885Y-102821541D01*
X151828710Y-102828710D01*
X151826001Y-102831799D01*
X151627579Y-103058055D01*
X151627575Y-103058061D01*
X151624861Y-103061155D01*
X151453096Y-103318220D01*
X151451270Y-103321923D01*
X151318180Y-103591800D01*
X151318177Y-103591808D01*
X151316354Y-103595504D01*
X151216975Y-103888265D01*
X151156660Y-104191493D01*
X151156391Y-104195604D01*
X151156390Y-104195608D01*
X151142036Y-104414609D01*
X151136439Y-104500000D01*
X147808614Y-104500000D01*
X147859848Y-104419250D01*
X147862925Y-104414630D01*
X148368726Y-103690696D01*
X148372034Y-103686178D01*
X148909500Y-102985449D01*
X148913007Y-102981082D01*
X149481056Y-102304965D01*
X149484753Y-102300757D01*
X150082330Y-101650507D01*
X150086211Y-101646469D01*
X150712048Y-101023466D01*
X150716104Y-101019603D01*
X151369050Y-100424993D01*
X151373274Y-100421315D01*
X151530031Y-100290823D01*
X152051995Y-99856315D01*
X152056372Y-99852834D01*
X152759511Y-99318573D01*
X152764045Y-99315284D01*
X153490240Y-98812794D01*
X153494915Y-98809710D01*
X154242737Y-98339982D01*
X154247545Y-98337109D01*
X155015504Y-97901080D01*
X155020435Y-97898424D01*
X155728020Y-97537272D01*
X155807005Y-97496958D01*
X155812032Y-97494532D01*
X156615680Y-97128415D01*
X156620827Y-97126207D01*
X157439930Y-96796175D01*
X157445170Y-96794198D01*
X158278129Y-96500895D01*
X158283453Y-96499152D01*
X159128640Y-96243153D01*
X159134035Y-96241649D01*
X159989754Y-96023467D01*
X159995211Y-96022204D01*
X160859786Y-95842266D01*
X160865293Y-95841247D01*
X161737017Y-95699909D01*
X161742565Y-95699136D01*
X162619692Y-95596681D01*
X162625268Y-95596155D01*
X163506082Y-95532783D01*
X163511676Y-95532505D01*
X164394447Y-95508339D01*
X164400048Y-95508310D01*
X164683872Y-95513160D01*
G37*
%TD.AperFunction*%
%TA.AperFunction,Conductor*%
G36*
X167700363Y-137553288D02*
G01*
X167750835Y-137603219D01*
X167758096Y-137635750D01*
X167772325Y-137676115D01*
X168508115Y-138411905D01*
X168542141Y-138474217D01*
X168537076Y-138545032D01*
X168508115Y-138590095D01*
X168238000Y-138860210D01*
X167777204Y-139321007D01*
X167770444Y-139333387D01*
X167775354Y-139339945D01*
X167847232Y-139380118D01*
X167858471Y-139385027D01*
X168025429Y-139439275D01*
X168037403Y-139441908D01*
X168211728Y-139462695D01*
X168223977Y-139462952D01*
X168405160Y-139449010D01*
X168405252Y-139450206D01*
X168469481Y-139457373D01*
X168524582Y-139502143D01*
X168546732Y-139569596D01*
X168536168Y-139624232D01*
X168487992Y-139733980D01*
X168437632Y-139943745D01*
X168425214Y-140159113D01*
X168451130Y-140373277D01*
X168452777Y-140378631D01*
X168452778Y-140378635D01*
X168490750Y-140502062D01*
X168514563Y-140579466D01*
X168517134Y-140584447D01*
X168517136Y-140584452D01*
X168584367Y-140714711D01*
X168597836Y-140784418D01*
X168571480Y-140850341D01*
X168513668Y-140891551D01*
X168472401Y-140898500D01*
X164608439Y-140898500D01*
X164540318Y-140878498D01*
X164519344Y-140861595D01*
X163281111Y-139623362D01*
X163247085Y-139561050D01*
X163252150Y-139490235D01*
X163294697Y-139433399D01*
X163336321Y-139412909D01*
X163366377Y-139404517D01*
X163386294Y-139398956D01*
X163391796Y-139396177D01*
X163391798Y-139396176D01*
X163548572Y-139316984D01*
X163548574Y-139316983D01*
X163554075Y-139314204D01*
X163558934Y-139310408D01*
X163558937Y-139310406D01*
X163608906Y-139271367D01*
X163674900Y-139245190D01*
X163744571Y-139258848D01*
X163768142Y-139274703D01*
X163788324Y-139291880D01*
X163793702Y-139294886D01*
X163793704Y-139294887D01*
X163862238Y-139333189D01*
X163952409Y-139383584D01*
X164131180Y-139441670D01*
X164317830Y-139463927D01*
X164323965Y-139463455D01*
X164323967Y-139463455D01*
X164499105Y-139449979D01*
X164499109Y-139449978D01*
X164505247Y-139449506D01*
X164636321Y-139412909D01*
X164680350Y-139400616D01*
X164680353Y-139400615D01*
X164686294Y-139398956D01*
X164691798Y-139396176D01*
X164691800Y-139396175D01*
X164848572Y-139316984D01*
X164848574Y-139316983D01*
X164854075Y-139314204D01*
X164858934Y-139310408D01*
X164858937Y-139310406D01*
X164908906Y-139271367D01*
X164974900Y-139245190D01*
X165044571Y-139258848D01*
X165068142Y-139274703D01*
X165088324Y-139291880D01*
X165093702Y-139294886D01*
X165093704Y-139294887D01*
X165162238Y-139333189D01*
X165252409Y-139383584D01*
X165431180Y-139441670D01*
X165617830Y-139463927D01*
X165623965Y-139463455D01*
X165623967Y-139463455D01*
X165799105Y-139449979D01*
X165799109Y-139449978D01*
X165805247Y-139449506D01*
X165936321Y-139412909D01*
X165980350Y-139400616D01*
X165980353Y-139400615D01*
X165986294Y-139398956D01*
X165991798Y-139396176D01*
X165991800Y-139396175D01*
X166148574Y-139316983D01*
X166148576Y-139316982D01*
X166154075Y-139314204D01*
X166209307Y-139271052D01*
X166275301Y-139244874D01*
X166344972Y-139258531D01*
X166368545Y-139274389D01*
X166383918Y-139287473D01*
X166393991Y-139294474D01*
X166547230Y-139380116D01*
X166558470Y-139385027D01*
X166725429Y-139439275D01*
X166737403Y-139441908D01*
X166911728Y-139462695D01*
X166923977Y-139462952D01*
X167099017Y-139449483D01*
X167111095Y-139447353D01*
X167280179Y-139400144D01*
X167291609Y-139395711D01*
X167396288Y-139342834D01*
X167406572Y-139333189D01*
X167404334Y-139326544D01*
X166667885Y-138590095D01*
X166633859Y-138527783D01*
X166635694Y-138502132D01*
X167302408Y-138502132D01*
X167302539Y-138503966D01*
X167306790Y-138510579D01*
X167575192Y-138778981D01*
X167589130Y-138786592D01*
X167590966Y-138786460D01*
X167597578Y-138782211D01*
X167865979Y-138513811D01*
X167873592Y-138499868D01*
X167873461Y-138498034D01*
X167869210Y-138491421D01*
X167600808Y-138223019D01*
X167586870Y-138215408D01*
X167585034Y-138215540D01*
X167578422Y-138219789D01*
X167310021Y-138488189D01*
X167302408Y-138502132D01*
X166635694Y-138502132D01*
X166638924Y-138456968D01*
X166667885Y-138411905D01*
X166938000Y-138141790D01*
X167398939Y-137680850D01*
X167410505Y-137659669D01*
X167422234Y-137605755D01*
X167472437Y-137555553D01*
X167547741Y-137541028D01*
X167561720Y-137542695D01*
X167573977Y-137542952D01*
X167630908Y-137538571D01*
X167700363Y-137553288D01*
G37*
%TD.AperFunction*%
%TD*%
M02*
