M48
; DRILL file {KiCad (6.0.0)} date Mon Feb 14 22:10:35 2022
; FORMAT={-:-/ absolute / inch / decimal}
; #@! TF.CreationDate,2022-02-14T22:10:35-06:00
; #@! TF.GenerationSoftware,Kicad,Pcbnew,(6.0.0)
; #@! TF.FileFunction,Plated,1,2,PTH
FMAT,2
INCH
; #@! TA.AperFunction,Plated,PTH,ViaDrill
T1C0.0157
; #@! TA.AperFunction,Plated,PTH,ComponentDrill
T2C0.0236
; #@! TA.AperFunction,Plated,PTH,ComponentDrill
T3C0.0394
; #@! TA.AperFunction,Plated,PTH,ViaDrill
T4C0.1378
%
G90
G05
T1
X6.2975Y-3.875
X6.3025Y-4.3275
X6.4493Y-5.1679
X6.4907Y-5.1679
X6.585Y-4.5375
X6.61Y-5.15
X6.62Y-4.66
X6.6533Y-4.6215
X6.71Y-5.29
X6.73Y-5.1
X6.7493Y-5.06
X6.7875Y-4.3225
X6.7907Y-5.06
X6.8325Y-4.78
X6.985Y-4.6025
X7.035Y-4.34
X7.0893Y-4.275
X7.1307Y-4.275
T2
X6.2141Y-5.4528
X6.2397Y-5.3772
X6.2653Y-5.4528
X6.2909Y-5.3772
X6.3165Y-5.4528
X6.342Y-5.3772
X6.3676Y-5.4528
X6.3932Y-5.3772
X6.4188Y-5.4528
X6.4444Y-5.3772
X6.47Y-5.4528
X6.4956Y-5.3772
X6.5212Y-5.4528
X6.5468Y-5.3772
X6.5724Y-5.4528
X6.598Y-5.3772
X6.6235Y-5.4528
X6.6491Y-5.3772
X6.6747Y-5.4528
X6.7003Y-5.3772
T3
X6.01Y-5.38
X6.01Y-5.48
T4
X6.0433Y-4.1142
X6.0433Y-4.9803
X6.9094Y-4.1142
X6.9094Y-4.9803
T2
G00X6.2023Y-5.5166
M15
G01X6.2653Y-5.5166
M16
G05
G00X6.4385Y-5.3134
M15
G01X6.5015Y-5.3134
M16
G05
G00X6.6747Y-5.5166
M15
G01X6.7377Y-5.5166
M16
G05
T0
M30
