%TF.GenerationSoftware,KiCad,Pcbnew,(5.1.12)-1*%
%TF.CreationDate,2021-11-30T21:21:33-06:00*%
%TF.ProjectId,MA710_encoder,4d413731-305f-4656-9e63-6f6465722e6b,rev?*%
%TF.SameCoordinates,Original*%
%TF.FileFunction,Paste,Bot*%
%TF.FilePolarity,Positive*%
%FSLAX46Y46*%
G04 Gerber Fmt 4.6, Leading zero omitted, Abs format (unit mm)*
G04 Created by KiCad (PCBNEW (5.1.12)-1) date 2021-11-30 21:21:33*
%MOMM*%
%LPD*%
G01*
G04 APERTURE LIST*
G04 APERTURE END LIST*
%TO.C,U1*%
G36*
G01*
X163625000Y-117312500D02*
X163625000Y-116612500D01*
G75*
G02*
X163687500Y-116550000I62500J0D01*
G01*
X163812500Y-116550000D01*
G75*
G02*
X163875000Y-116612500I0J-62500D01*
G01*
X163875000Y-117312500D01*
G75*
G02*
X163812500Y-117375000I-62500J0D01*
G01*
X163687500Y-117375000D01*
G75*
G02*
X163625000Y-117312500I0J62500D01*
G01*
G37*
G36*
G01*
X164125000Y-117312500D02*
X164125000Y-116612500D01*
G75*
G02*
X164187500Y-116550000I62500J0D01*
G01*
X164312500Y-116550000D01*
G75*
G02*
X164375000Y-116612500I0J-62500D01*
G01*
X164375000Y-117312500D01*
G75*
G02*
X164312500Y-117375000I-62500J0D01*
G01*
X164187500Y-117375000D01*
G75*
G02*
X164125000Y-117312500I0J62500D01*
G01*
G37*
G36*
G01*
X164625000Y-117312500D02*
X164625000Y-116612500D01*
G75*
G02*
X164687500Y-116550000I62500J0D01*
G01*
X164812500Y-116550000D01*
G75*
G02*
X164875000Y-116612500I0J-62500D01*
G01*
X164875000Y-117312500D01*
G75*
G02*
X164812500Y-117375000I-62500J0D01*
G01*
X164687500Y-117375000D01*
G75*
G02*
X164625000Y-117312500I0J62500D01*
G01*
G37*
G36*
G01*
X165125000Y-117312500D02*
X165125000Y-116612500D01*
G75*
G02*
X165187500Y-116550000I62500J0D01*
G01*
X165312500Y-116550000D01*
G75*
G02*
X165375000Y-116612500I0J-62500D01*
G01*
X165375000Y-117312500D01*
G75*
G02*
X165312500Y-117375000I-62500J0D01*
G01*
X165187500Y-117375000D01*
G75*
G02*
X165125000Y-117312500I0J62500D01*
G01*
G37*
G36*
G01*
X165550000Y-116312500D02*
X165550000Y-116187500D01*
G75*
G02*
X165612500Y-116125000I62500J0D01*
G01*
X166312500Y-116125000D01*
G75*
G02*
X166375000Y-116187500I0J-62500D01*
G01*
X166375000Y-116312500D01*
G75*
G02*
X166312500Y-116375000I-62500J0D01*
G01*
X165612500Y-116375000D01*
G75*
G02*
X165550000Y-116312500I0J62500D01*
G01*
G37*
G36*
G01*
X165550000Y-115812500D02*
X165550000Y-115687500D01*
G75*
G02*
X165612500Y-115625000I62500J0D01*
G01*
X166312500Y-115625000D01*
G75*
G02*
X166375000Y-115687500I0J-62500D01*
G01*
X166375000Y-115812500D01*
G75*
G02*
X166312500Y-115875000I-62500J0D01*
G01*
X165612500Y-115875000D01*
G75*
G02*
X165550000Y-115812500I0J62500D01*
G01*
G37*
G36*
G01*
X165550000Y-115312500D02*
X165550000Y-115187500D01*
G75*
G02*
X165612500Y-115125000I62500J0D01*
G01*
X166312500Y-115125000D01*
G75*
G02*
X166375000Y-115187500I0J-62500D01*
G01*
X166375000Y-115312500D01*
G75*
G02*
X166312500Y-115375000I-62500J0D01*
G01*
X165612500Y-115375000D01*
G75*
G02*
X165550000Y-115312500I0J62500D01*
G01*
G37*
G36*
G01*
X165550000Y-114812500D02*
X165550000Y-114687500D01*
G75*
G02*
X165612500Y-114625000I62500J0D01*
G01*
X166312500Y-114625000D01*
G75*
G02*
X166375000Y-114687500I0J-62500D01*
G01*
X166375000Y-114812500D01*
G75*
G02*
X166312500Y-114875000I-62500J0D01*
G01*
X165612500Y-114875000D01*
G75*
G02*
X165550000Y-114812500I0J62500D01*
G01*
G37*
G36*
G01*
X165125000Y-114387500D02*
X165125000Y-113687500D01*
G75*
G02*
X165187500Y-113625000I62500J0D01*
G01*
X165312500Y-113625000D01*
G75*
G02*
X165375000Y-113687500I0J-62500D01*
G01*
X165375000Y-114387500D01*
G75*
G02*
X165312500Y-114450000I-62500J0D01*
G01*
X165187500Y-114450000D01*
G75*
G02*
X165125000Y-114387500I0J62500D01*
G01*
G37*
G36*
G01*
X164625000Y-114387500D02*
X164625000Y-113687500D01*
G75*
G02*
X164687500Y-113625000I62500J0D01*
G01*
X164812500Y-113625000D01*
G75*
G02*
X164875000Y-113687500I0J-62500D01*
G01*
X164875000Y-114387500D01*
G75*
G02*
X164812500Y-114450000I-62500J0D01*
G01*
X164687500Y-114450000D01*
G75*
G02*
X164625000Y-114387500I0J62500D01*
G01*
G37*
G36*
G01*
X164125000Y-114387500D02*
X164125000Y-113687500D01*
G75*
G02*
X164187500Y-113625000I62500J0D01*
G01*
X164312500Y-113625000D01*
G75*
G02*
X164375000Y-113687500I0J-62500D01*
G01*
X164375000Y-114387500D01*
G75*
G02*
X164312500Y-114450000I-62500J0D01*
G01*
X164187500Y-114450000D01*
G75*
G02*
X164125000Y-114387500I0J62500D01*
G01*
G37*
G36*
G01*
X163625000Y-114387500D02*
X163625000Y-113687500D01*
G75*
G02*
X163687500Y-113625000I62500J0D01*
G01*
X163812500Y-113625000D01*
G75*
G02*
X163875000Y-113687500I0J-62500D01*
G01*
X163875000Y-114387500D01*
G75*
G02*
X163812500Y-114450000I-62500J0D01*
G01*
X163687500Y-114450000D01*
G75*
G02*
X163625000Y-114387500I0J62500D01*
G01*
G37*
G36*
G01*
X162625000Y-114812500D02*
X162625000Y-114687500D01*
G75*
G02*
X162687500Y-114625000I62500J0D01*
G01*
X163387500Y-114625000D01*
G75*
G02*
X163450000Y-114687500I0J-62500D01*
G01*
X163450000Y-114812500D01*
G75*
G02*
X163387500Y-114875000I-62500J0D01*
G01*
X162687500Y-114875000D01*
G75*
G02*
X162625000Y-114812500I0J62500D01*
G01*
G37*
G36*
G01*
X162625000Y-115312500D02*
X162625000Y-115187500D01*
G75*
G02*
X162687500Y-115125000I62500J0D01*
G01*
X163387500Y-115125000D01*
G75*
G02*
X163450000Y-115187500I0J-62500D01*
G01*
X163450000Y-115312500D01*
G75*
G02*
X163387500Y-115375000I-62500J0D01*
G01*
X162687500Y-115375000D01*
G75*
G02*
X162625000Y-115312500I0J62500D01*
G01*
G37*
G36*
G01*
X162625000Y-115812500D02*
X162625000Y-115687500D01*
G75*
G02*
X162687500Y-115625000I62500J0D01*
G01*
X163387500Y-115625000D01*
G75*
G02*
X163450000Y-115687500I0J-62500D01*
G01*
X163450000Y-115812500D01*
G75*
G02*
X163387500Y-115875000I-62500J0D01*
G01*
X162687500Y-115875000D01*
G75*
G02*
X162625000Y-115812500I0J62500D01*
G01*
G37*
G36*
G01*
X162625000Y-116312500D02*
X162625000Y-116187500D01*
G75*
G02*
X162687500Y-116125000I62500J0D01*
G01*
X163387500Y-116125000D01*
G75*
G02*
X163450000Y-116187500I0J-62500D01*
G01*
X163450000Y-116312500D01*
G75*
G02*
X163387500Y-116375000I-62500J0D01*
G01*
X162687500Y-116375000D01*
G75*
G02*
X162625000Y-116312500I0J62500D01*
G01*
G37*
G36*
G01*
X164580000Y-115247500D02*
X164580000Y-114902500D01*
G75*
G02*
X164752500Y-114730000I172500J0D01*
G01*
X165097500Y-114730000D01*
G75*
G02*
X165270000Y-114902500I0J-172500D01*
G01*
X165270000Y-115247500D01*
G75*
G02*
X165097500Y-115420000I-172500J0D01*
G01*
X164752500Y-115420000D01*
G75*
G02*
X164580000Y-115247500I0J172500D01*
G01*
G37*
G36*
G01*
X164580000Y-116097500D02*
X164580000Y-115752500D01*
G75*
G02*
X164752500Y-115580000I172500J0D01*
G01*
X165097500Y-115580000D01*
G75*
G02*
X165270000Y-115752500I0J-172500D01*
G01*
X165270000Y-116097500D01*
G75*
G02*
X165097500Y-116270000I-172500J0D01*
G01*
X164752500Y-116270000D01*
G75*
G02*
X164580000Y-116097500I0J172500D01*
G01*
G37*
G36*
G01*
X163730000Y-115247500D02*
X163730000Y-114902500D01*
G75*
G02*
X163902500Y-114730000I172500J0D01*
G01*
X164247500Y-114730000D01*
G75*
G02*
X164420000Y-114902500I0J-172500D01*
G01*
X164420000Y-115247500D01*
G75*
G02*
X164247500Y-115420000I-172500J0D01*
G01*
X163902500Y-115420000D01*
G75*
G02*
X163730000Y-115247500I0J172500D01*
G01*
G37*
G36*
G01*
X163730000Y-116097500D02*
X163730000Y-115752500D01*
G75*
G02*
X163902500Y-115580000I172500J0D01*
G01*
X164247500Y-115580000D01*
G75*
G02*
X164420000Y-115752500I0J-172500D01*
G01*
X164420000Y-116097500D01*
G75*
G02*
X164247500Y-116270000I-172500J0D01*
G01*
X163902500Y-116270000D01*
G75*
G02*
X163730000Y-116097500I0J172500D01*
G01*
G37*
%TD*%
%TO.C,C1*%
G36*
G01*
X166608340Y-118683750D02*
X166608340Y-118171250D01*
G75*
G02*
X166827090Y-117952500I218750J0D01*
G01*
X167264590Y-117952500D01*
G75*
G02*
X167483340Y-118171250I0J-218750D01*
G01*
X167483340Y-118683750D01*
G75*
G02*
X167264590Y-118902500I-218750J0D01*
G01*
X166827090Y-118902500D01*
G75*
G02*
X166608340Y-118683750I0J218750D01*
G01*
G37*
G36*
G01*
X165033340Y-118683750D02*
X165033340Y-118171250D01*
G75*
G02*
X165252090Y-117952500I218750J0D01*
G01*
X165689590Y-117952500D01*
G75*
G02*
X165908340Y-118171250I0J-218750D01*
G01*
X165908340Y-118683750D01*
G75*
G02*
X165689590Y-118902500I-218750J0D01*
G01*
X165252090Y-118902500D01*
G75*
G02*
X165033340Y-118683750I0J218750D01*
G01*
G37*
%TD*%
M02*
