%TF.GenerationSoftware,KiCad,Pcbnew,(5.1.12)-1*%
%TF.CreationDate,2021-11-30T21:20:58-06:00*%
%TF.ProjectId,Current_Sense,43757272-656e-4745-9f53-656e73652e6b,rev?*%
%TF.SameCoordinates,Original*%
%TF.FileFunction,Legend,Top*%
%TF.FilePolarity,Positive*%
%FSLAX46Y46*%
G04 Gerber Fmt 4.6, Leading zero omitted, Abs format (unit mm)*
G04 Created by KiCad (PCBNEW (5.1.12)-1) date 2021-11-30 21:20:58*
%MOMM*%
%LPD*%
G01*
G04 APERTURE LIST*
%ADD10C,0.150000*%
%ADD11C,0.120000*%
G04 APERTURE END LIST*
D10*
X109212857Y-93227380D02*
X108736666Y-93227380D01*
X108736666Y-92227380D01*
X109689047Y-93227380D02*
X109593809Y-93179761D01*
X109546190Y-93132142D01*
X109498571Y-93036904D01*
X109498571Y-92751190D01*
X109546190Y-92655952D01*
X109593809Y-92608333D01*
X109689047Y-92560714D01*
X109831904Y-92560714D01*
X109927142Y-92608333D01*
X109974761Y-92655952D01*
X110022380Y-92751190D01*
X110022380Y-93036904D01*
X109974761Y-93132142D01*
X109927142Y-93179761D01*
X109831904Y-93227380D01*
X109689047Y-93227380D01*
X110879523Y-92560714D02*
X110879523Y-93370238D01*
X110831904Y-93465476D01*
X110784285Y-93513095D01*
X110689047Y-93560714D01*
X110546190Y-93560714D01*
X110450952Y-93513095D01*
X110879523Y-93179761D02*
X110784285Y-93227380D01*
X110593809Y-93227380D01*
X110498571Y-93179761D01*
X110450952Y-93132142D01*
X110403333Y-93036904D01*
X110403333Y-92751190D01*
X110450952Y-92655952D01*
X110498571Y-92608333D01*
X110593809Y-92560714D01*
X110784285Y-92560714D01*
X110879523Y-92608333D01*
X111784285Y-93227380D02*
X111784285Y-92703571D01*
X111736666Y-92608333D01*
X111641428Y-92560714D01*
X111450952Y-92560714D01*
X111355714Y-92608333D01*
X111784285Y-93179761D02*
X111689047Y-93227380D01*
X111450952Y-93227380D01*
X111355714Y-93179761D01*
X111308095Y-93084523D01*
X111308095Y-92989285D01*
X111355714Y-92894047D01*
X111450952Y-92846428D01*
X111689047Y-92846428D01*
X111784285Y-92798809D01*
X112260476Y-92560714D02*
X112260476Y-93227380D01*
X112260476Y-92655952D02*
X112308095Y-92608333D01*
X112403333Y-92560714D01*
X112546190Y-92560714D01*
X112641428Y-92608333D01*
X112689047Y-92703571D01*
X112689047Y-93227380D01*
X114498571Y-93227380D02*
X114165238Y-92751190D01*
X113927142Y-93227380D02*
X113927142Y-92227380D01*
X114308095Y-92227380D01*
X114403333Y-92275000D01*
X114450952Y-92322619D01*
X114498571Y-92417857D01*
X114498571Y-92560714D01*
X114450952Y-92655952D01*
X114403333Y-92703571D01*
X114308095Y-92751190D01*
X113927142Y-92751190D01*
X115070000Y-93227380D02*
X114974761Y-93179761D01*
X114927142Y-93132142D01*
X114879523Y-93036904D01*
X114879523Y-92751190D01*
X114927142Y-92655952D01*
X114974761Y-92608333D01*
X115070000Y-92560714D01*
X115212857Y-92560714D01*
X115308095Y-92608333D01*
X115355714Y-92655952D01*
X115403333Y-92751190D01*
X115403333Y-93036904D01*
X115355714Y-93132142D01*
X115308095Y-93179761D01*
X115212857Y-93227380D01*
X115070000Y-93227380D01*
X115784285Y-93179761D02*
X115879523Y-93227380D01*
X116070000Y-93227380D01*
X116165238Y-93179761D01*
X116212857Y-93084523D01*
X116212857Y-93036904D01*
X116165238Y-92941666D01*
X116070000Y-92894047D01*
X115927142Y-92894047D01*
X115831904Y-92846428D01*
X115784285Y-92751190D01*
X115784285Y-92703571D01*
X115831904Y-92608333D01*
X115927142Y-92560714D01*
X116070000Y-92560714D01*
X116165238Y-92608333D01*
X117022380Y-93179761D02*
X116927142Y-93227380D01*
X116736666Y-93227380D01*
X116641428Y-93179761D01*
X116593809Y-93084523D01*
X116593809Y-92703571D01*
X116641428Y-92608333D01*
X116736666Y-92560714D01*
X116927142Y-92560714D01*
X117022380Y-92608333D01*
X117070000Y-92703571D01*
X117070000Y-92798809D01*
X116593809Y-92894047D01*
X117498571Y-92560714D02*
X117498571Y-93227380D01*
X117498571Y-92655952D02*
X117546190Y-92608333D01*
X117641428Y-92560714D01*
X117784285Y-92560714D01*
X117879523Y-92608333D01*
X117927142Y-92703571D01*
X117927142Y-93227380D01*
X118403333Y-93227380D02*
X118403333Y-92560714D01*
X118403333Y-92655952D02*
X118450952Y-92608333D01*
X118546190Y-92560714D01*
X118689047Y-92560714D01*
X118784285Y-92608333D01*
X118831904Y-92703571D01*
X118831904Y-93227380D01*
X118831904Y-92703571D02*
X118879523Y-92608333D01*
X118974761Y-92560714D01*
X119117619Y-92560714D01*
X119212857Y-92608333D01*
X119260476Y-92703571D01*
X119260476Y-93227380D01*
X120165238Y-93227380D02*
X120165238Y-92703571D01*
X120117619Y-92608333D01*
X120022380Y-92560714D01*
X119831904Y-92560714D01*
X119736666Y-92608333D01*
X120165238Y-93179761D02*
X120070000Y-93227380D01*
X119831904Y-93227380D01*
X119736666Y-93179761D01*
X119689047Y-93084523D01*
X119689047Y-92989285D01*
X119736666Y-92894047D01*
X119831904Y-92846428D01*
X120070000Y-92846428D01*
X120165238Y-92798809D01*
X120546190Y-92560714D02*
X120784285Y-93227380D01*
X121022380Y-92560714D02*
X120784285Y-93227380D01*
X120689047Y-93465476D01*
X120641428Y-93513095D01*
X120546190Y-93560714D01*
X121784285Y-93179761D02*
X121689047Y-93227380D01*
X121498571Y-93227380D01*
X121403333Y-93179761D01*
X121355714Y-93084523D01*
X121355714Y-92703571D01*
X121403333Y-92608333D01*
X121498571Y-92560714D01*
X121689047Y-92560714D01*
X121784285Y-92608333D01*
X121831904Y-92703571D01*
X121831904Y-92798809D01*
X121355714Y-92894047D01*
X122260476Y-93227380D02*
X122260476Y-92560714D01*
X122260476Y-92751190D02*
X122308095Y-92655952D01*
X122355714Y-92608333D01*
X122450952Y-92560714D01*
X122546190Y-92560714D01*
X111070000Y-94782142D02*
X111022380Y-94829761D01*
X110879523Y-94877380D01*
X110784285Y-94877380D01*
X110641428Y-94829761D01*
X110546190Y-94734523D01*
X110498571Y-94639285D01*
X110450952Y-94448809D01*
X110450952Y-94305952D01*
X110498571Y-94115476D01*
X110546190Y-94020238D01*
X110641428Y-93925000D01*
X110784285Y-93877380D01*
X110879523Y-93877380D01*
X111022380Y-93925000D01*
X111070000Y-93972619D01*
X111927142Y-94210714D02*
X111927142Y-94877380D01*
X111498571Y-94210714D02*
X111498571Y-94734523D01*
X111546190Y-94829761D01*
X111641428Y-94877380D01*
X111784285Y-94877380D01*
X111879523Y-94829761D01*
X111927142Y-94782142D01*
X112403333Y-94877380D02*
X112403333Y-94210714D01*
X112403333Y-94401190D02*
X112450952Y-94305952D01*
X112498571Y-94258333D01*
X112593809Y-94210714D01*
X112689047Y-94210714D01*
X113022380Y-94877380D02*
X113022380Y-94210714D01*
X113022380Y-94401190D02*
X113070000Y-94305952D01*
X113117619Y-94258333D01*
X113212857Y-94210714D01*
X113308095Y-94210714D01*
X114022380Y-94829761D02*
X113927142Y-94877380D01*
X113736666Y-94877380D01*
X113641428Y-94829761D01*
X113593809Y-94734523D01*
X113593809Y-94353571D01*
X113641428Y-94258333D01*
X113736666Y-94210714D01*
X113927142Y-94210714D01*
X114022380Y-94258333D01*
X114070000Y-94353571D01*
X114070000Y-94448809D01*
X113593809Y-94544047D01*
X114498571Y-94210714D02*
X114498571Y-94877380D01*
X114498571Y-94305952D02*
X114546190Y-94258333D01*
X114641428Y-94210714D01*
X114784285Y-94210714D01*
X114879523Y-94258333D01*
X114927142Y-94353571D01*
X114927142Y-94877380D01*
X115260476Y-94210714D02*
X115641428Y-94210714D01*
X115403333Y-93877380D02*
X115403333Y-94734523D01*
X115450952Y-94829761D01*
X115546190Y-94877380D01*
X115641428Y-94877380D01*
X116689047Y-94829761D02*
X116831904Y-94877380D01*
X117070000Y-94877380D01*
X117165238Y-94829761D01*
X117212857Y-94782142D01*
X117260476Y-94686904D01*
X117260476Y-94591666D01*
X117212857Y-94496428D01*
X117165238Y-94448809D01*
X117070000Y-94401190D01*
X116879523Y-94353571D01*
X116784285Y-94305952D01*
X116736666Y-94258333D01*
X116689047Y-94163095D01*
X116689047Y-94067857D01*
X116736666Y-93972619D01*
X116784285Y-93925000D01*
X116879523Y-93877380D01*
X117117619Y-93877380D01*
X117260476Y-93925000D01*
X118070000Y-94829761D02*
X117974761Y-94877380D01*
X117784285Y-94877380D01*
X117689047Y-94829761D01*
X117641428Y-94734523D01*
X117641428Y-94353571D01*
X117689047Y-94258333D01*
X117784285Y-94210714D01*
X117974761Y-94210714D01*
X118070000Y-94258333D01*
X118117619Y-94353571D01*
X118117619Y-94448809D01*
X117641428Y-94544047D01*
X118546190Y-94210714D02*
X118546190Y-94877380D01*
X118546190Y-94305952D02*
X118593809Y-94258333D01*
X118689047Y-94210714D01*
X118831904Y-94210714D01*
X118927142Y-94258333D01*
X118974761Y-94353571D01*
X118974761Y-94877380D01*
X119403333Y-94829761D02*
X119498571Y-94877380D01*
X119689047Y-94877380D01*
X119784285Y-94829761D01*
X119831904Y-94734523D01*
X119831904Y-94686904D01*
X119784285Y-94591666D01*
X119689047Y-94544047D01*
X119546190Y-94544047D01*
X119450952Y-94496428D01*
X119403333Y-94401190D01*
X119403333Y-94353571D01*
X119450952Y-94258333D01*
X119546190Y-94210714D01*
X119689047Y-94210714D01*
X119784285Y-94258333D01*
X120641428Y-94829761D02*
X120546190Y-94877380D01*
X120355714Y-94877380D01*
X120260476Y-94829761D01*
X120212857Y-94734523D01*
X120212857Y-94353571D01*
X120260476Y-94258333D01*
X120355714Y-94210714D01*
X120546190Y-94210714D01*
X120641428Y-94258333D01*
X120689047Y-94353571D01*
X120689047Y-94448809D01*
X120212857Y-94544047D01*
X113498571Y-96527380D02*
X113165238Y-96051190D01*
X112927142Y-96527380D02*
X112927142Y-95527380D01*
X113308095Y-95527380D01*
X113403333Y-95575000D01*
X113450952Y-95622619D01*
X113498571Y-95717857D01*
X113498571Y-95860714D01*
X113450952Y-95955952D01*
X113403333Y-96003571D01*
X113308095Y-96051190D01*
X112927142Y-96051190D01*
X114308095Y-96479761D02*
X114212857Y-96527380D01*
X114022380Y-96527380D01*
X113927142Y-96479761D01*
X113879523Y-96384523D01*
X113879523Y-96003571D01*
X113927142Y-95908333D01*
X114022380Y-95860714D01*
X114212857Y-95860714D01*
X114308095Y-95908333D01*
X114355714Y-96003571D01*
X114355714Y-96098809D01*
X113879523Y-96194047D01*
X114689047Y-95860714D02*
X114927142Y-96527380D01*
X115165238Y-95860714D01*
X116831904Y-96527380D02*
X116260476Y-96527380D01*
X116546190Y-96527380D02*
X116546190Y-95527380D01*
X116450952Y-95670238D01*
X116355714Y-95765476D01*
X116260476Y-95813095D01*
X117260476Y-96432142D02*
X117308095Y-96479761D01*
X117260476Y-96527380D01*
X117212857Y-96479761D01*
X117260476Y-96432142D01*
X117260476Y-96527380D01*
X117927142Y-95527380D02*
X118022380Y-95527380D01*
X118117619Y-95575000D01*
X118165238Y-95622619D01*
X118212857Y-95717857D01*
X118260476Y-95908333D01*
X118260476Y-96146428D01*
X118212857Y-96336904D01*
X118165238Y-96432142D01*
X118117619Y-96479761D01*
X118022380Y-96527380D01*
X117927142Y-96527380D01*
X117831904Y-96479761D01*
X117784285Y-96432142D01*
X117736666Y-96336904D01*
X117689047Y-96146428D01*
X117689047Y-95908333D01*
X117736666Y-95717857D01*
X117784285Y-95622619D01*
X117831904Y-95575000D01*
X117927142Y-95527380D01*
X112427142Y-98177380D02*
X111855714Y-98177380D01*
X112141428Y-98177380D02*
X112141428Y-97177380D01*
X112046190Y-97320238D01*
X111950952Y-97415476D01*
X111855714Y-97463095D01*
X113379523Y-98177380D02*
X112808095Y-98177380D01*
X113093809Y-98177380D02*
X113093809Y-97177380D01*
X112998571Y-97320238D01*
X112903333Y-97415476D01*
X112808095Y-97463095D01*
X114522380Y-97129761D02*
X113665238Y-98415476D01*
X114760476Y-97177380D02*
X115379523Y-97177380D01*
X115046190Y-97558333D01*
X115189047Y-97558333D01*
X115284285Y-97605952D01*
X115331904Y-97653571D01*
X115379523Y-97748809D01*
X115379523Y-97986904D01*
X115331904Y-98082142D01*
X115284285Y-98129761D01*
X115189047Y-98177380D01*
X114903333Y-98177380D01*
X114808095Y-98129761D01*
X114760476Y-98082142D01*
X115998571Y-97177380D02*
X116093809Y-97177380D01*
X116189047Y-97225000D01*
X116236666Y-97272619D01*
X116284285Y-97367857D01*
X116331904Y-97558333D01*
X116331904Y-97796428D01*
X116284285Y-97986904D01*
X116236666Y-98082142D01*
X116189047Y-98129761D01*
X116093809Y-98177380D01*
X115998571Y-98177380D01*
X115903333Y-98129761D01*
X115855714Y-98082142D01*
X115808095Y-97986904D01*
X115760476Y-97796428D01*
X115760476Y-97558333D01*
X115808095Y-97367857D01*
X115855714Y-97272619D01*
X115903333Y-97225000D01*
X115998571Y-97177380D01*
X117474761Y-97129761D02*
X116617619Y-98415476D01*
X117760476Y-97272619D02*
X117808095Y-97225000D01*
X117903333Y-97177380D01*
X118141428Y-97177380D01*
X118236666Y-97225000D01*
X118284285Y-97272619D01*
X118331904Y-97367857D01*
X118331904Y-97463095D01*
X118284285Y-97605952D01*
X117712857Y-98177380D01*
X118331904Y-98177380D01*
X119284285Y-98177380D02*
X118712857Y-98177380D01*
X118998571Y-98177380D02*
X118998571Y-97177380D01*
X118903333Y-97320238D01*
X118808095Y-97415476D01*
X118712857Y-97463095D01*
D11*
%TO.C,C1*%
X105471279Y-92839000D02*
X105145721Y-92839000D01*
X105471279Y-91819000D02*
X105145721Y-91819000D01*
%TO.C,U1*%
X103390000Y-75145001D02*
X58390000Y-75145001D01*
X58390000Y-97145001D02*
X103390000Y-97145001D01*
X58390000Y-97145001D02*
X58390000Y-75145001D01*
X103640000Y-97145001D02*
X103640000Y-75145001D01*
X103640000Y-97145001D02*
X103390000Y-97145001D01*
X103390000Y-75145001D02*
X103640000Y-75145001D01*
%TO.C,J5*%
X122570000Y-78090000D02*
X122570000Y-92090000D01*
X108570000Y-78090000D02*
X122570000Y-78090000D01*
X108570000Y-92090000D02*
X122570000Y-92090000D01*
X108570000Y-92090000D02*
X108570000Y-78090000D01*
%TO.C,C1*%
D10*
X105141833Y-94116142D02*
X105094214Y-94163761D01*
X104951357Y-94211380D01*
X104856119Y-94211380D01*
X104713261Y-94163761D01*
X104618023Y-94068523D01*
X104570404Y-93973285D01*
X104522785Y-93782809D01*
X104522785Y-93639952D01*
X104570404Y-93449476D01*
X104618023Y-93354238D01*
X104713261Y-93259000D01*
X104856119Y-93211380D01*
X104951357Y-93211380D01*
X105094214Y-93259000D01*
X105141833Y-93306619D01*
X106094214Y-94211380D02*
X105522785Y-94211380D01*
X105808500Y-94211380D02*
X105808500Y-93211380D01*
X105713261Y-93354238D01*
X105618023Y-93449476D01*
X105522785Y-93497095D01*
%TO.C,U1*%
X105128095Y-85597381D02*
X105128095Y-86406905D01*
X105175714Y-86502143D01*
X105223333Y-86549762D01*
X105318571Y-86597381D01*
X105509047Y-86597381D01*
X105604285Y-86549762D01*
X105651904Y-86502143D01*
X105699523Y-86406905D01*
X105699523Y-85597381D01*
X106699523Y-86597381D02*
X106128095Y-86597381D01*
X106413809Y-86597381D02*
X106413809Y-85597381D01*
X106318571Y-85740239D01*
X106223333Y-85835477D01*
X106128095Y-85883096D01*
%TO.C,J5*%
X114522380Y-85423333D02*
X115236666Y-85423333D01*
X115379523Y-85470952D01*
X115474761Y-85566190D01*
X115522380Y-85709047D01*
X115522380Y-85804285D01*
X114522380Y-84470952D02*
X114522380Y-84947142D01*
X114998571Y-84994761D01*
X114950952Y-84947142D01*
X114903333Y-84851904D01*
X114903333Y-84613809D01*
X114950952Y-84518571D01*
X114998571Y-84470952D01*
X115093809Y-84423333D01*
X115331904Y-84423333D01*
X115427142Y-84470952D01*
X115474761Y-84518571D01*
X115522380Y-84613809D01*
X115522380Y-84851904D01*
X115474761Y-84947142D01*
X115427142Y-84994761D01*
%TD*%
M02*
