%TF.GenerationSoftware,KiCad,Pcbnew,(6.0.0)*%
%TF.CreationDate,2022-01-12T21:24:23-06:00*%
%TF.ProjectId,Current_Sense,43757272-656e-4745-9f53-656e73652e6b,rev?*%
%TF.SameCoordinates,Original*%
%TF.FileFunction,Copper,L2,Bot*%
%TF.FilePolarity,Positive*%
%FSLAX46Y46*%
G04 Gerber Fmt 4.6, Leading zero omitted, Abs format (unit mm)*
G04 Created by KiCad (PCBNEW (6.0.0)) date 2022-01-12 21:24:23*
%MOMM*%
%LPD*%
G01*
G04 APERTURE LIST*
%TA.AperFunction,ComponentPad*%
%ADD10C,4.000000*%
%TD*%
%TA.AperFunction,ComponentPad*%
%ADD11O,2.100000X1.500000*%
%TD*%
%TA.AperFunction,ViaPad*%
%ADD12C,0.800000*%
%TD*%
%TA.AperFunction,Conductor*%
%ADD13C,0.250000*%
%TD*%
G04 APERTURE END LIST*
D10*
%TO.P,U1,9,I_in*%
%TO.N,unconnected-(U1-Pad9)*%
X75290000Y-95145001D03*
%TO.P,U1,10,I_out*%
%TO.N,unconnected-(U1-Pad10)*%
X78790000Y-77145001D03*
X75290000Y-77145001D03*
%TO.P,U1,9,I_in*%
%TO.N,unconnected-(U1-Pad9)*%
X78790000Y-95145001D03*
D11*
%TO.P,U1,1,OCD*%
%TO.N,unconnected-(U1-Pad1)*%
X102390000Y-81765001D03*
%TO.P,U1,3*%
%TO.N,N/C*%
X102390000Y-84265001D03*
%TO.P,U1,2,GND*%
%TO.N,GND*%
X100390000Y-83015001D03*
%TO.P,U1,4*%
%TO.N,N/C*%
X100390000Y-85515001D03*
%TO.P,U1,5,CLK*%
%TO.N,DFSDM1_CKIN5_5V*%
X102390000Y-86765001D03*
%TO.P,U1,6,Dout*%
%TO.N,DFSDM1_DATIN5_5V*%
X100390000Y-88015001D03*
%TO.P,U1,7,Vc*%
%TO.N,+5V*%
X102390000Y-89265001D03*
%TO.P,U1,8,GND*%
%TO.N,GND*%
X100390000Y-90515001D03*
%TD*%
D12*
%TO.N,DFSDM1_DATIN5_5V*%
X109765500Y-83185000D03*
%TD*%
D13*
%TO.N,DFSDM1_DATIN5_5V*%
X104935499Y-88015001D02*
X109765500Y-83185000D01*
X100390000Y-88015001D02*
X104935499Y-88015001D01*
%TD*%
%TA.AperFunction,Conductor*%
%TO.N,GND*%
G36*
X124430057Y-74169500D02*
G01*
X124444858Y-74171805D01*
X124444861Y-74171805D01*
X124453730Y-74173186D01*
X124469999Y-74171059D01*
X124494567Y-74170266D01*
X124716985Y-74184844D01*
X124733326Y-74186995D01*
X124977824Y-74235629D01*
X124993743Y-74239895D01*
X125229790Y-74320022D01*
X125245017Y-74326329D01*
X125468592Y-74436584D01*
X125482865Y-74444825D01*
X125690133Y-74583316D01*
X125703210Y-74593349D01*
X125890632Y-74757714D01*
X125902286Y-74769368D01*
X126066651Y-74956790D01*
X126076684Y-74969867D01*
X126215175Y-75177135D01*
X126223416Y-75191408D01*
X126333671Y-75414983D01*
X126339978Y-75430210D01*
X126420105Y-75666257D01*
X126424371Y-75682176D01*
X126473005Y-75926673D01*
X126475156Y-75943014D01*
X126489264Y-76158268D01*
X126488239Y-76181304D01*
X126488196Y-76184854D01*
X126486814Y-76193730D01*
X126488454Y-76206270D01*
X126490936Y-76225251D01*
X126492000Y-76241589D01*
X126492000Y-96470672D01*
X126490500Y-96490056D01*
X126486814Y-96513730D01*
X126488941Y-96529999D01*
X126489734Y-96554567D01*
X126475156Y-96776985D01*
X126473005Y-96793326D01*
X126424371Y-97037824D01*
X126420105Y-97053743D01*
X126339978Y-97289790D01*
X126333671Y-97305017D01*
X126223416Y-97528592D01*
X126215175Y-97542865D01*
X126076684Y-97750133D01*
X126066651Y-97763210D01*
X125902286Y-97950632D01*
X125890632Y-97962286D01*
X125703210Y-98126651D01*
X125690133Y-98136684D01*
X125482865Y-98275175D01*
X125468592Y-98283416D01*
X125245017Y-98393671D01*
X125229790Y-98399978D01*
X124993743Y-98480105D01*
X124977824Y-98484371D01*
X124733327Y-98533005D01*
X124716986Y-98535156D01*
X124501732Y-98549264D01*
X124478696Y-98548239D01*
X124475146Y-98548196D01*
X124466270Y-98546814D01*
X124437762Y-98550542D01*
X124434749Y-98550936D01*
X124418411Y-98552000D01*
X59739328Y-98552000D01*
X59719943Y-98550500D01*
X59705142Y-98548195D01*
X59705139Y-98548195D01*
X59696270Y-98546814D01*
X59680001Y-98548941D01*
X59655433Y-98549734D01*
X59433015Y-98535156D01*
X59416674Y-98533005D01*
X59172176Y-98484371D01*
X59156257Y-98480105D01*
X58920210Y-98399978D01*
X58904983Y-98393671D01*
X58681408Y-98283416D01*
X58667135Y-98275175D01*
X58459867Y-98136684D01*
X58446790Y-98126651D01*
X58259368Y-97962286D01*
X58247714Y-97950632D01*
X58083349Y-97763210D01*
X58073316Y-97750133D01*
X57934825Y-97542865D01*
X57926584Y-97528592D01*
X57816329Y-97305017D01*
X57810022Y-97289790D01*
X57729895Y-97053743D01*
X57725629Y-97037824D01*
X57676995Y-96793327D01*
X57674844Y-96776986D01*
X57660736Y-96561732D01*
X57661761Y-96538696D01*
X57661804Y-96535146D01*
X57663186Y-96526270D01*
X57659064Y-96494748D01*
X57658000Y-96478411D01*
X57658000Y-95145001D01*
X72776540Y-95145001D01*
X72796359Y-95460021D01*
X72855505Y-95770073D01*
X72953044Y-96070267D01*
X72954731Y-96073853D01*
X72954733Y-96073857D01*
X73085750Y-96352284D01*
X73085754Y-96352291D01*
X73087438Y-96355870D01*
X73256568Y-96622376D01*
X73457767Y-96865583D01*
X73687860Y-97081655D01*
X73943221Y-97267185D01*
X73946690Y-97269092D01*
X73946693Y-97269094D01*
X74216352Y-97417341D01*
X74219821Y-97419248D01*
X74223490Y-97420701D01*
X74223495Y-97420703D01*
X74330770Y-97463176D01*
X74513298Y-97535444D01*
X74819025Y-97613941D01*
X75132179Y-97653501D01*
X75447821Y-97653501D01*
X75760975Y-97613941D01*
X76066702Y-97535444D01*
X76249230Y-97463176D01*
X76356505Y-97420703D01*
X76356510Y-97420701D01*
X76360179Y-97419248D01*
X76363648Y-97417341D01*
X76633307Y-97269094D01*
X76633310Y-97269092D01*
X76636779Y-97267185D01*
X76892140Y-97081655D01*
X76953747Y-97023802D01*
X77017097Y-96991751D01*
X77087719Y-96999038D01*
X77126253Y-97023802D01*
X77187860Y-97081655D01*
X77443221Y-97267185D01*
X77446690Y-97269092D01*
X77446693Y-97269094D01*
X77716352Y-97417341D01*
X77719821Y-97419248D01*
X77723490Y-97420701D01*
X77723495Y-97420703D01*
X77830770Y-97463176D01*
X78013298Y-97535444D01*
X78319025Y-97613941D01*
X78632179Y-97653501D01*
X78947821Y-97653501D01*
X79260975Y-97613941D01*
X79566702Y-97535444D01*
X79749230Y-97463176D01*
X79856505Y-97420703D01*
X79856510Y-97420701D01*
X79860179Y-97419248D01*
X79863648Y-97417341D01*
X80133307Y-97269094D01*
X80133310Y-97269092D01*
X80136779Y-97267185D01*
X80392140Y-97081655D01*
X80622233Y-96865583D01*
X80823432Y-96622376D01*
X80992562Y-96355870D01*
X80994246Y-96352291D01*
X80994250Y-96352284D01*
X81125267Y-96073857D01*
X81125269Y-96073853D01*
X81126956Y-96070267D01*
X81224495Y-95770073D01*
X81283641Y-95460021D01*
X81303460Y-95145001D01*
X81283641Y-94829981D01*
X81224495Y-94519929D01*
X81126956Y-94219735D01*
X81125267Y-94216145D01*
X80994250Y-93937718D01*
X80994246Y-93937711D01*
X80992562Y-93934132D01*
X80823432Y-93667626D01*
X80622233Y-93424419D01*
X80392140Y-93208347D01*
X80136779Y-93022817D01*
X79860179Y-92870754D01*
X79856510Y-92869301D01*
X79856505Y-92869299D01*
X79570372Y-92756011D01*
X79570371Y-92756011D01*
X79566702Y-92754558D01*
X79260975Y-92676061D01*
X78947821Y-92636501D01*
X78632179Y-92636501D01*
X78319025Y-92676061D01*
X78013298Y-92754558D01*
X78009629Y-92756011D01*
X78009628Y-92756011D01*
X77723495Y-92869299D01*
X77723490Y-92869301D01*
X77719821Y-92870754D01*
X77443221Y-93022817D01*
X77187860Y-93208347D01*
X77126253Y-93266200D01*
X77062903Y-93298251D01*
X76992281Y-93290964D01*
X76953747Y-93266200D01*
X76892140Y-93208347D01*
X76636779Y-93022817D01*
X76360179Y-92870754D01*
X76356510Y-92869301D01*
X76356505Y-92869299D01*
X76070372Y-92756011D01*
X76070371Y-92756011D01*
X76066702Y-92754558D01*
X75760975Y-92676061D01*
X75447821Y-92636501D01*
X75132179Y-92636501D01*
X74819025Y-92676061D01*
X74513298Y-92754558D01*
X74509629Y-92756011D01*
X74509628Y-92756011D01*
X74223495Y-92869299D01*
X74223490Y-92869301D01*
X74219821Y-92870754D01*
X73943221Y-93022817D01*
X73687860Y-93208347D01*
X73457767Y-93424419D01*
X73256568Y-93667626D01*
X73087438Y-93934132D01*
X73085754Y-93937711D01*
X73085750Y-93937718D01*
X72954733Y-94216145D01*
X72953044Y-94219735D01*
X72855505Y-94519929D01*
X72796359Y-94829981D01*
X72776540Y-95145001D01*
X57658000Y-95145001D01*
X57658000Y-90782729D01*
X98856114Y-90782729D01*
X98856166Y-90782974D01*
X98918898Y-90986884D01*
X98923119Y-90997230D01*
X99020971Y-91186815D01*
X99026957Y-91196246D01*
X99156832Y-91365502D01*
X99164393Y-91373725D01*
X99322194Y-91517313D01*
X99331094Y-91524068D01*
X99511815Y-91637435D01*
X99521781Y-91642512D01*
X99719714Y-91722081D01*
X99730429Y-91725316D01*
X99940301Y-91768778D01*
X99949438Y-91769981D01*
X99999990Y-91772896D01*
X100003637Y-91773001D01*
X100117885Y-91773001D01*
X100133124Y-91768526D01*
X100134329Y-91767136D01*
X100136000Y-91759453D01*
X100136000Y-90787116D01*
X100131525Y-90771877D01*
X100130135Y-90770672D01*
X100122452Y-90769001D01*
X98871589Y-90769001D01*
X98857607Y-90773106D01*
X98856114Y-90782729D01*
X57658000Y-90782729D01*
X57658000Y-88054691D01*
X98827037Y-88054691D01*
X98854025Y-88277716D01*
X98920082Y-88492436D01*
X98922652Y-88497416D01*
X98922654Y-88497420D01*
X99017069Y-88680345D01*
X99023118Y-88692065D01*
X99159877Y-88870293D01*
X99326036Y-89021486D01*
X99330783Y-89024464D01*
X99330786Y-89024466D01*
X99511595Y-89137886D01*
X99516344Y-89140865D01*
X99538870Y-89149920D01*
X99594611Y-89193885D01*
X99617737Y-89261010D01*
X99600901Y-89329981D01*
X99546116Y-89380551D01*
X99452106Y-89425392D01*
X99442484Y-89431083D01*
X99269233Y-89555576D01*
X99260767Y-89562884D01*
X99112308Y-89716083D01*
X99105265Y-89724780D01*
X98986281Y-89901845D01*
X98980895Y-89911643D01*
X98895143Y-90106991D01*
X98891578Y-90117583D01*
X98861376Y-90243385D01*
X98862081Y-90257471D01*
X98870960Y-90261001D01*
X100518000Y-90261001D01*
X100586121Y-90281003D01*
X100632614Y-90334659D01*
X100644000Y-90387001D01*
X100644000Y-91754886D01*
X100648475Y-91770125D01*
X100649865Y-91771330D01*
X100657548Y-91773001D01*
X100744175Y-91773001D01*
X100749770Y-91772752D01*
X100908078Y-91758623D01*
X100919092Y-91756641D01*
X101124860Y-91700350D01*
X101135341Y-91696452D01*
X101327903Y-91604604D01*
X101337516Y-91598919D01*
X101510767Y-91474426D01*
X101519233Y-91467118D01*
X101667692Y-91313919D01*
X101674735Y-91305222D01*
X101793719Y-91128157D01*
X101799105Y-91118359D01*
X101884857Y-90923011D01*
X101888422Y-90912419D01*
X101938225Y-90704973D01*
X101939858Y-90693911D01*
X101942837Y-90642248D01*
X101966727Y-90575392D01*
X102022970Y-90532064D01*
X102068628Y-90523501D01*
X102746999Y-90523501D01*
X102749786Y-90523252D01*
X102749792Y-90523252D01*
X102819929Y-90516992D01*
X102913762Y-90508618D01*
X102919176Y-90507137D01*
X102919181Y-90507136D01*
X103046912Y-90472192D01*
X103130451Y-90449338D01*
X103135509Y-90446926D01*
X103135513Y-90446924D01*
X103261143Y-90387001D01*
X103333218Y-90352623D01*
X103515654Y-90221530D01*
X103671992Y-90060202D01*
X103797290Y-89873739D01*
X103887588Y-89668034D01*
X103912833Y-89562884D01*
X103938722Y-89455047D01*
X103938722Y-89455046D01*
X103940032Y-89449590D01*
X103952963Y-89225311D01*
X103925975Y-89002286D01*
X103867296Y-88811548D01*
X103866384Y-88740560D01*
X103903996Y-88680345D01*
X103968192Y-88650024D01*
X103987726Y-88648501D01*
X104856732Y-88648501D01*
X104867915Y-88649028D01*
X104875408Y-88650703D01*
X104883334Y-88650454D01*
X104883335Y-88650454D01*
X104943485Y-88648563D01*
X104947444Y-88648501D01*
X104975355Y-88648501D01*
X104979290Y-88648004D01*
X104979355Y-88647996D01*
X104991192Y-88647063D01*
X105023450Y-88646049D01*
X105027469Y-88645923D01*
X105035388Y-88645674D01*
X105054842Y-88640022D01*
X105074199Y-88636014D01*
X105086429Y-88634469D01*
X105086430Y-88634469D01*
X105094296Y-88633475D01*
X105101667Y-88630556D01*
X105101669Y-88630556D01*
X105135411Y-88617197D01*
X105146641Y-88613352D01*
X105181482Y-88603230D01*
X105181483Y-88603230D01*
X105189092Y-88601019D01*
X105195911Y-88596986D01*
X105195916Y-88596984D01*
X105206527Y-88590708D01*
X105224275Y-88582013D01*
X105243116Y-88574553D01*
X105278886Y-88548565D01*
X105288806Y-88542049D01*
X105320034Y-88523581D01*
X105320037Y-88523579D01*
X105326861Y-88519543D01*
X105341182Y-88505222D01*
X105356216Y-88492381D01*
X105372606Y-88480473D01*
X105400797Y-88446396D01*
X105408787Y-88437617D01*
X109716000Y-84130405D01*
X109778312Y-84096379D01*
X109805095Y-84093500D01*
X109860987Y-84093500D01*
X109867439Y-84092128D01*
X109867444Y-84092128D01*
X109954388Y-84073647D01*
X110047788Y-84053794D01*
X110114554Y-84024068D01*
X110216222Y-83978803D01*
X110216224Y-83978802D01*
X110222252Y-83976118D01*
X110376753Y-83863866D01*
X110445454Y-83787566D01*
X110500121Y-83726852D01*
X110500122Y-83726851D01*
X110504540Y-83721944D01*
X110600027Y-83556556D01*
X110659042Y-83374928D01*
X110671591Y-83255536D01*
X110678314Y-83191565D01*
X110679004Y-83185000D01*
X110665377Y-83055345D01*
X110659732Y-83001635D01*
X110659732Y-83001633D01*
X110659042Y-82995072D01*
X110600027Y-82813444D01*
X110575803Y-82771486D01*
X110507841Y-82653774D01*
X110504540Y-82648056D01*
X110376753Y-82506134D01*
X110222252Y-82393882D01*
X110216224Y-82391198D01*
X110216222Y-82391197D01*
X110053819Y-82318891D01*
X110053818Y-82318891D01*
X110047788Y-82316206D01*
X109954388Y-82296353D01*
X109867444Y-82277872D01*
X109867439Y-82277872D01*
X109860987Y-82276500D01*
X109670013Y-82276500D01*
X109663561Y-82277872D01*
X109663556Y-82277872D01*
X109576612Y-82296353D01*
X109483212Y-82316206D01*
X109477182Y-82318891D01*
X109477181Y-82318891D01*
X109314778Y-82391197D01*
X109314776Y-82391198D01*
X109308748Y-82393882D01*
X109154247Y-82506134D01*
X109026460Y-82648056D01*
X109023159Y-82653774D01*
X108955198Y-82771486D01*
X108930973Y-82813444D01*
X108871958Y-82995072D01*
X108871268Y-83001633D01*
X108871268Y-83001635D01*
X108865623Y-83055345D01*
X108856817Y-83139137D01*
X108854593Y-83160293D01*
X108827580Y-83225950D01*
X108818378Y-83236218D01*
X104709999Y-87344596D01*
X104647687Y-87378622D01*
X104620904Y-87381501D01*
X103986798Y-87381501D01*
X103918677Y-87361499D01*
X103872184Y-87307843D01*
X103862080Y-87237569D01*
X103871425Y-87204855D01*
X103885331Y-87173176D01*
X103885332Y-87173174D01*
X103887588Y-87168034D01*
X103940032Y-86949590D01*
X103950307Y-86771384D01*
X103952640Y-86730918D01*
X103952640Y-86730915D01*
X103952963Y-86725311D01*
X103925975Y-86502286D01*
X103859918Y-86287566D01*
X103810627Y-86192065D01*
X103759454Y-86092920D01*
X103759454Y-86092919D01*
X103756882Y-86087937D01*
X103620123Y-85909709D01*
X103453964Y-85758516D01*
X103449217Y-85755538D01*
X103449214Y-85755536D01*
X103268405Y-85642116D01*
X103263656Y-85639137D01*
X103241761Y-85630335D01*
X103186018Y-85586371D01*
X103162892Y-85519246D01*
X103179728Y-85450275D01*
X103234513Y-85399704D01*
X103328151Y-85355040D01*
X103328152Y-85355039D01*
X103333218Y-85352623D01*
X103515654Y-85221530D01*
X103671992Y-85060202D01*
X103797290Y-84873739D01*
X103887588Y-84668034D01*
X103940032Y-84449590D01*
X103952963Y-84225311D01*
X103925975Y-84002286D01*
X103859918Y-83787566D01*
X103828582Y-83726852D01*
X103759454Y-83592920D01*
X103759454Y-83592919D01*
X103756882Y-83587937D01*
X103620123Y-83409709D01*
X103453964Y-83258516D01*
X103449217Y-83255538D01*
X103449214Y-83255536D01*
X103268405Y-83142116D01*
X103263656Y-83139137D01*
X103241761Y-83130335D01*
X103186018Y-83086371D01*
X103162892Y-83019246D01*
X103179728Y-82950275D01*
X103234513Y-82899704D01*
X103328151Y-82855040D01*
X103328152Y-82855039D01*
X103333218Y-82852623D01*
X103515654Y-82721530D01*
X103671992Y-82560202D01*
X103797290Y-82373739D01*
X103887588Y-82168034D01*
X103912833Y-82062884D01*
X103938722Y-81955047D01*
X103938722Y-81955046D01*
X103940032Y-81949590D01*
X103948386Y-81804691D01*
X103952640Y-81730918D01*
X103952640Y-81730915D01*
X103952963Y-81725311D01*
X103925975Y-81502286D01*
X103859918Y-81287566D01*
X103794798Y-81161397D01*
X103759454Y-81092920D01*
X103759454Y-81092919D01*
X103756882Y-81087937D01*
X103620123Y-80909709D01*
X103453964Y-80758516D01*
X103449217Y-80755538D01*
X103449214Y-80755536D01*
X103268405Y-80642116D01*
X103263656Y-80639137D01*
X103055217Y-80555345D01*
X102835233Y-80509788D01*
X102830622Y-80509522D01*
X102830621Y-80509522D01*
X102780048Y-80506606D01*
X102780044Y-80506606D01*
X102778225Y-80506501D01*
X102033001Y-80506501D01*
X102030214Y-80506750D01*
X102030208Y-80506750D01*
X101960071Y-80513010D01*
X101866238Y-80521384D01*
X101860824Y-80522865D01*
X101860819Y-80522866D01*
X101746262Y-80554206D01*
X101649549Y-80580664D01*
X101644491Y-80583076D01*
X101644487Y-80583078D01*
X101548166Y-80629021D01*
X101446782Y-80677379D01*
X101264346Y-80808472D01*
X101108008Y-80969800D01*
X100982710Y-81156263D01*
X100892412Y-81361968D01*
X100839968Y-81580412D01*
X100839645Y-81586016D01*
X100836633Y-81638254D01*
X100812743Y-81705110D01*
X100756500Y-81748438D01*
X100710842Y-81757001D01*
X100662115Y-81757001D01*
X100646876Y-81761476D01*
X100645671Y-81762866D01*
X100644000Y-81770549D01*
X100644000Y-83143001D01*
X100623998Y-83211122D01*
X100570342Y-83257615D01*
X100518000Y-83269001D01*
X98871589Y-83269001D01*
X98857607Y-83273106D01*
X98856114Y-83282729D01*
X98856166Y-83282974D01*
X98918898Y-83486884D01*
X98923119Y-83497230D01*
X99020971Y-83686815D01*
X99026957Y-83696246D01*
X99156832Y-83865502D01*
X99164393Y-83873725D01*
X99322194Y-84017313D01*
X99331094Y-84024068D01*
X99511815Y-84137435D01*
X99521778Y-84142511D01*
X99538849Y-84149373D01*
X99594594Y-84193338D01*
X99617721Y-84260463D01*
X99600885Y-84329435D01*
X99546101Y-84380006D01*
X99446782Y-84427379D01*
X99264346Y-84558472D01*
X99108008Y-84719800D01*
X98982710Y-84906263D01*
X98892412Y-85111968D01*
X98839968Y-85330412D01*
X98838548Y-85355040D01*
X98829081Y-85519246D01*
X98827037Y-85554691D01*
X98854025Y-85777716D01*
X98920082Y-85992436D01*
X98922652Y-85997416D01*
X98922654Y-85997420D01*
X99020546Y-86187082D01*
X99023118Y-86192065D01*
X99159877Y-86370293D01*
X99326036Y-86521486D01*
X99330783Y-86524464D01*
X99330786Y-86524466D01*
X99511595Y-86637886D01*
X99516344Y-86640865D01*
X99538239Y-86649667D01*
X99593982Y-86693631D01*
X99617108Y-86760756D01*
X99600272Y-86829727D01*
X99545487Y-86880298D01*
X99451849Y-86924962D01*
X99446782Y-86927379D01*
X99264346Y-87058472D01*
X99260439Y-87062504D01*
X99122491Y-87204855D01*
X99108008Y-87219800D01*
X98982710Y-87406263D01*
X98892412Y-87611968D01*
X98839968Y-87830412D01*
X98827037Y-88054691D01*
X57658000Y-88054691D01*
X57658000Y-82743385D01*
X98861376Y-82743385D01*
X98862081Y-82757471D01*
X98870960Y-82761001D01*
X100117885Y-82761001D01*
X100133124Y-82756526D01*
X100134329Y-82755136D01*
X100136000Y-82747453D01*
X100136000Y-81775116D01*
X100131525Y-81759877D01*
X100130135Y-81758672D01*
X100122452Y-81757001D01*
X100035825Y-81757001D01*
X100030230Y-81757250D01*
X99871922Y-81771379D01*
X99860908Y-81773361D01*
X99655140Y-81829652D01*
X99644659Y-81833550D01*
X99452097Y-81925398D01*
X99442484Y-81931083D01*
X99269233Y-82055576D01*
X99260767Y-82062884D01*
X99112308Y-82216083D01*
X99105265Y-82224780D01*
X98986281Y-82401845D01*
X98980895Y-82411643D01*
X98895143Y-82606991D01*
X98891578Y-82617583D01*
X98861376Y-82743385D01*
X57658000Y-82743385D01*
X57658000Y-77145001D01*
X72776540Y-77145001D01*
X72796359Y-77460021D01*
X72855505Y-77770073D01*
X72953044Y-78070267D01*
X72954731Y-78073853D01*
X72954733Y-78073857D01*
X73085750Y-78352284D01*
X73085754Y-78352291D01*
X73087438Y-78355870D01*
X73256568Y-78622376D01*
X73457767Y-78865583D01*
X73687860Y-79081655D01*
X73943221Y-79267185D01*
X74219821Y-79419248D01*
X74223490Y-79420701D01*
X74223495Y-79420703D01*
X74509628Y-79533991D01*
X74513298Y-79535444D01*
X74819025Y-79613941D01*
X75132179Y-79653501D01*
X75447821Y-79653501D01*
X75760975Y-79613941D01*
X76066702Y-79535444D01*
X76070372Y-79533991D01*
X76356505Y-79420703D01*
X76356510Y-79420701D01*
X76360179Y-79419248D01*
X76636779Y-79267185D01*
X76892140Y-79081655D01*
X76953747Y-79023802D01*
X77017097Y-78991751D01*
X77087719Y-78999038D01*
X77126253Y-79023802D01*
X77187860Y-79081655D01*
X77443221Y-79267185D01*
X77719821Y-79419248D01*
X77723490Y-79420701D01*
X77723495Y-79420703D01*
X78009628Y-79533991D01*
X78013298Y-79535444D01*
X78319025Y-79613941D01*
X78632179Y-79653501D01*
X78947821Y-79653501D01*
X79260975Y-79613941D01*
X79566702Y-79535444D01*
X79570372Y-79533991D01*
X79856505Y-79420703D01*
X79856510Y-79420701D01*
X79860179Y-79419248D01*
X80136779Y-79267185D01*
X80392140Y-79081655D01*
X80622233Y-78865583D01*
X80823432Y-78622376D01*
X80992562Y-78355870D01*
X80994246Y-78352291D01*
X80994250Y-78352284D01*
X81125267Y-78073857D01*
X81125269Y-78073853D01*
X81126956Y-78070267D01*
X81224495Y-77770073D01*
X81283641Y-77460021D01*
X81303460Y-77145001D01*
X81283641Y-76829981D01*
X81224495Y-76519929D01*
X81126956Y-76219735D01*
X81120620Y-76206270D01*
X80994250Y-75937718D01*
X80994246Y-75937711D01*
X80992562Y-75934132D01*
X80823432Y-75667626D01*
X80622233Y-75424419D01*
X80392140Y-75208347D01*
X80368826Y-75191408D01*
X80336369Y-75167827D01*
X80136779Y-75022817D01*
X80027968Y-74962997D01*
X79863648Y-74872661D01*
X79863647Y-74872660D01*
X79860179Y-74870754D01*
X79856510Y-74869301D01*
X79856505Y-74869299D01*
X79570372Y-74756011D01*
X79570371Y-74756011D01*
X79566702Y-74754558D01*
X79260975Y-74676061D01*
X78947821Y-74636501D01*
X78632179Y-74636501D01*
X78319025Y-74676061D01*
X78013298Y-74754558D01*
X78009629Y-74756011D01*
X78009628Y-74756011D01*
X77723495Y-74869299D01*
X77723490Y-74869301D01*
X77719821Y-74870754D01*
X77716353Y-74872660D01*
X77716352Y-74872661D01*
X77552033Y-74962997D01*
X77443221Y-75022817D01*
X77243631Y-75167827D01*
X77211175Y-75191408D01*
X77187860Y-75208347D01*
X77126253Y-75266200D01*
X77062903Y-75298251D01*
X76992281Y-75290964D01*
X76953747Y-75266200D01*
X76892140Y-75208347D01*
X76868826Y-75191408D01*
X76836369Y-75167827D01*
X76636779Y-75022817D01*
X76527968Y-74962997D01*
X76363648Y-74872661D01*
X76363647Y-74872660D01*
X76360179Y-74870754D01*
X76356510Y-74869301D01*
X76356505Y-74869299D01*
X76070372Y-74756011D01*
X76070371Y-74756011D01*
X76066702Y-74754558D01*
X75760975Y-74676061D01*
X75447821Y-74636501D01*
X75132179Y-74636501D01*
X74819025Y-74676061D01*
X74513298Y-74754558D01*
X74509629Y-74756011D01*
X74509628Y-74756011D01*
X74223495Y-74869299D01*
X74223490Y-74869301D01*
X74219821Y-74870754D01*
X74216353Y-74872660D01*
X74216352Y-74872661D01*
X74052033Y-74962997D01*
X73943221Y-75022817D01*
X73743631Y-75167827D01*
X73711175Y-75191408D01*
X73687860Y-75208347D01*
X73457767Y-75424419D01*
X73256568Y-75667626D01*
X73087438Y-75934132D01*
X73085754Y-75937711D01*
X73085750Y-75937718D01*
X72959380Y-76206270D01*
X72953044Y-76219735D01*
X72855505Y-76519929D01*
X72796359Y-76829981D01*
X72776540Y-77145001D01*
X57658000Y-77145001D01*
X57658000Y-76249328D01*
X57659500Y-76229943D01*
X57661805Y-76215142D01*
X57661805Y-76215139D01*
X57663186Y-76206270D01*
X57661059Y-76190001D01*
X57660266Y-76165433D01*
X57674844Y-75943015D01*
X57676995Y-75926674D01*
X57725629Y-75682176D01*
X57729895Y-75666257D01*
X57810022Y-75430210D01*
X57816329Y-75414983D01*
X57926584Y-75191408D01*
X57934825Y-75177135D01*
X58073316Y-74969867D01*
X58083349Y-74956790D01*
X58247714Y-74769368D01*
X58259368Y-74757714D01*
X58446790Y-74593349D01*
X58459867Y-74583316D01*
X58667135Y-74444825D01*
X58681408Y-74436584D01*
X58904983Y-74326329D01*
X58920210Y-74320022D01*
X59156257Y-74239895D01*
X59172176Y-74235629D01*
X59416673Y-74186995D01*
X59433014Y-74184844D01*
X59648268Y-74170736D01*
X59671304Y-74171761D01*
X59674854Y-74171804D01*
X59683730Y-74173186D01*
X59715252Y-74169064D01*
X59731589Y-74168000D01*
X124410672Y-74168000D01*
X124430057Y-74169500D01*
G37*
%TD.AperFunction*%
%TD*%
M02*
