%TF.GenerationSoftware,KiCad,Pcbnew,(6.0.0)*%
%TF.CreationDate,2022-01-12T21:24:23-06:00*%
%TF.ProjectId,Current_Sense,43757272-656e-4745-9f53-656e73652e6b,rev?*%
%TF.SameCoordinates,Original*%
%TF.FileFunction,Legend,Top*%
%TF.FilePolarity,Positive*%
%FSLAX46Y46*%
G04 Gerber Fmt 4.6, Leading zero omitted, Abs format (unit mm)*
G04 Created by KiCad (PCBNEW (6.0.0)) date 2022-01-12 21:24:23*
%MOMM*%
%LPD*%
G01*
G04 APERTURE LIST*
%ADD10C,0.150000*%
%ADD11C,0.120000*%
G04 APERTURE END LIST*
D10*
X109339857Y-93795380D02*
X108863666Y-93795380D01*
X108863666Y-92795380D01*
X109816047Y-93795380D02*
X109720809Y-93747761D01*
X109673190Y-93700142D01*
X109625571Y-93604904D01*
X109625571Y-93319190D01*
X109673190Y-93223952D01*
X109720809Y-93176333D01*
X109816047Y-93128714D01*
X109958904Y-93128714D01*
X110054142Y-93176333D01*
X110101761Y-93223952D01*
X110149380Y-93319190D01*
X110149380Y-93604904D01*
X110101761Y-93700142D01*
X110054142Y-93747761D01*
X109958904Y-93795380D01*
X109816047Y-93795380D01*
X111006523Y-93128714D02*
X111006523Y-93938238D01*
X110958904Y-94033476D01*
X110911285Y-94081095D01*
X110816047Y-94128714D01*
X110673190Y-94128714D01*
X110577952Y-94081095D01*
X111006523Y-93747761D02*
X110911285Y-93795380D01*
X110720809Y-93795380D01*
X110625571Y-93747761D01*
X110577952Y-93700142D01*
X110530333Y-93604904D01*
X110530333Y-93319190D01*
X110577952Y-93223952D01*
X110625571Y-93176333D01*
X110720809Y-93128714D01*
X110911285Y-93128714D01*
X111006523Y-93176333D01*
X111911285Y-93795380D02*
X111911285Y-93271571D01*
X111863666Y-93176333D01*
X111768428Y-93128714D01*
X111577952Y-93128714D01*
X111482714Y-93176333D01*
X111911285Y-93747761D02*
X111816047Y-93795380D01*
X111577952Y-93795380D01*
X111482714Y-93747761D01*
X111435095Y-93652523D01*
X111435095Y-93557285D01*
X111482714Y-93462047D01*
X111577952Y-93414428D01*
X111816047Y-93414428D01*
X111911285Y-93366809D01*
X112387476Y-93128714D02*
X112387476Y-93795380D01*
X112387476Y-93223952D02*
X112435095Y-93176333D01*
X112530333Y-93128714D01*
X112673190Y-93128714D01*
X112768428Y-93176333D01*
X112816047Y-93271571D01*
X112816047Y-93795380D01*
X114625571Y-93795380D02*
X114292238Y-93319190D01*
X114054142Y-93795380D02*
X114054142Y-92795380D01*
X114435095Y-92795380D01*
X114530333Y-92843000D01*
X114577952Y-92890619D01*
X114625571Y-92985857D01*
X114625571Y-93128714D01*
X114577952Y-93223952D01*
X114530333Y-93271571D01*
X114435095Y-93319190D01*
X114054142Y-93319190D01*
X115197000Y-93795380D02*
X115101761Y-93747761D01*
X115054142Y-93700142D01*
X115006523Y-93604904D01*
X115006523Y-93319190D01*
X115054142Y-93223952D01*
X115101761Y-93176333D01*
X115197000Y-93128714D01*
X115339857Y-93128714D01*
X115435095Y-93176333D01*
X115482714Y-93223952D01*
X115530333Y-93319190D01*
X115530333Y-93604904D01*
X115482714Y-93700142D01*
X115435095Y-93747761D01*
X115339857Y-93795380D01*
X115197000Y-93795380D01*
X115911285Y-93747761D02*
X116006523Y-93795380D01*
X116197000Y-93795380D01*
X116292238Y-93747761D01*
X116339857Y-93652523D01*
X116339857Y-93604904D01*
X116292238Y-93509666D01*
X116197000Y-93462047D01*
X116054142Y-93462047D01*
X115958904Y-93414428D01*
X115911285Y-93319190D01*
X115911285Y-93271571D01*
X115958904Y-93176333D01*
X116054142Y-93128714D01*
X116197000Y-93128714D01*
X116292238Y-93176333D01*
X117149380Y-93747761D02*
X117054142Y-93795380D01*
X116863666Y-93795380D01*
X116768428Y-93747761D01*
X116720809Y-93652523D01*
X116720809Y-93271571D01*
X116768428Y-93176333D01*
X116863666Y-93128714D01*
X117054142Y-93128714D01*
X117149380Y-93176333D01*
X117197000Y-93271571D01*
X117197000Y-93366809D01*
X116720809Y-93462047D01*
X117625571Y-93128714D02*
X117625571Y-93795380D01*
X117625571Y-93223952D02*
X117673190Y-93176333D01*
X117768428Y-93128714D01*
X117911285Y-93128714D01*
X118006523Y-93176333D01*
X118054142Y-93271571D01*
X118054142Y-93795380D01*
X118530333Y-93795380D02*
X118530333Y-93128714D01*
X118530333Y-93223952D02*
X118577952Y-93176333D01*
X118673190Y-93128714D01*
X118816047Y-93128714D01*
X118911285Y-93176333D01*
X118958904Y-93271571D01*
X118958904Y-93795380D01*
X118958904Y-93271571D02*
X119006523Y-93176333D01*
X119101761Y-93128714D01*
X119244619Y-93128714D01*
X119339857Y-93176333D01*
X119387476Y-93271571D01*
X119387476Y-93795380D01*
X120292238Y-93795380D02*
X120292238Y-93271571D01*
X120244619Y-93176333D01*
X120149380Y-93128714D01*
X119958904Y-93128714D01*
X119863666Y-93176333D01*
X120292238Y-93747761D02*
X120197000Y-93795380D01*
X119958904Y-93795380D01*
X119863666Y-93747761D01*
X119816047Y-93652523D01*
X119816047Y-93557285D01*
X119863666Y-93462047D01*
X119958904Y-93414428D01*
X120197000Y-93414428D01*
X120292238Y-93366809D01*
X120673190Y-93128714D02*
X120911285Y-93795380D01*
X121149380Y-93128714D02*
X120911285Y-93795380D01*
X120816047Y-94033476D01*
X120768428Y-94081095D01*
X120673190Y-94128714D01*
X121911285Y-93747761D02*
X121816047Y-93795380D01*
X121625571Y-93795380D01*
X121530333Y-93747761D01*
X121482714Y-93652523D01*
X121482714Y-93271571D01*
X121530333Y-93176333D01*
X121625571Y-93128714D01*
X121816047Y-93128714D01*
X121911285Y-93176333D01*
X121958904Y-93271571D01*
X121958904Y-93366809D01*
X121482714Y-93462047D01*
X122387476Y-93795380D02*
X122387476Y-93128714D01*
X122387476Y-93319190D02*
X122435095Y-93223952D01*
X122482714Y-93176333D01*
X122577952Y-93128714D01*
X122673190Y-93128714D01*
X106125571Y-95310142D02*
X106077952Y-95357761D01*
X105935095Y-95405380D01*
X105839857Y-95405380D01*
X105697000Y-95357761D01*
X105601761Y-95262523D01*
X105554142Y-95167285D01*
X105506523Y-94976809D01*
X105506523Y-94833952D01*
X105554142Y-94643476D01*
X105601761Y-94548238D01*
X105697000Y-94453000D01*
X105839857Y-94405380D01*
X105935095Y-94405380D01*
X106077952Y-94453000D01*
X106125571Y-94500619D01*
X106982714Y-94738714D02*
X106982714Y-95405380D01*
X106554142Y-94738714D02*
X106554142Y-95262523D01*
X106601761Y-95357761D01*
X106697000Y-95405380D01*
X106839857Y-95405380D01*
X106935095Y-95357761D01*
X106982714Y-95310142D01*
X107458904Y-95405380D02*
X107458904Y-94738714D01*
X107458904Y-94929190D02*
X107506523Y-94833952D01*
X107554142Y-94786333D01*
X107649380Y-94738714D01*
X107744619Y-94738714D01*
X108077952Y-95405380D02*
X108077952Y-94738714D01*
X108077952Y-94929190D02*
X108125571Y-94833952D01*
X108173190Y-94786333D01*
X108268428Y-94738714D01*
X108363666Y-94738714D01*
X109077952Y-95357761D02*
X108982714Y-95405380D01*
X108792238Y-95405380D01*
X108697000Y-95357761D01*
X108649380Y-95262523D01*
X108649380Y-94881571D01*
X108697000Y-94786333D01*
X108792238Y-94738714D01*
X108982714Y-94738714D01*
X109077952Y-94786333D01*
X109125571Y-94881571D01*
X109125571Y-94976809D01*
X108649380Y-95072047D01*
X109554142Y-94738714D02*
X109554142Y-95405380D01*
X109554142Y-94833952D02*
X109601761Y-94786333D01*
X109697000Y-94738714D01*
X109839857Y-94738714D01*
X109935095Y-94786333D01*
X109982714Y-94881571D01*
X109982714Y-95405380D01*
X110316047Y-94738714D02*
X110697000Y-94738714D01*
X110458904Y-94405380D02*
X110458904Y-95262523D01*
X110506523Y-95357761D01*
X110601761Y-95405380D01*
X110697000Y-95405380D01*
X111744619Y-95357761D02*
X111887476Y-95405380D01*
X112125571Y-95405380D01*
X112220809Y-95357761D01*
X112268428Y-95310142D01*
X112316047Y-95214904D01*
X112316047Y-95119666D01*
X112268428Y-95024428D01*
X112220809Y-94976809D01*
X112125571Y-94929190D01*
X111935095Y-94881571D01*
X111839857Y-94833952D01*
X111792238Y-94786333D01*
X111744619Y-94691095D01*
X111744619Y-94595857D01*
X111792238Y-94500619D01*
X111839857Y-94453000D01*
X111935095Y-94405380D01*
X112173190Y-94405380D01*
X112316047Y-94453000D01*
X113125571Y-95357761D02*
X113030333Y-95405380D01*
X112839857Y-95405380D01*
X112744619Y-95357761D01*
X112697000Y-95262523D01*
X112697000Y-94881571D01*
X112744619Y-94786333D01*
X112839857Y-94738714D01*
X113030333Y-94738714D01*
X113125571Y-94786333D01*
X113173190Y-94881571D01*
X113173190Y-94976809D01*
X112697000Y-95072047D01*
X113601761Y-94738714D02*
X113601761Y-95405380D01*
X113601761Y-94833952D02*
X113649380Y-94786333D01*
X113744619Y-94738714D01*
X113887476Y-94738714D01*
X113982714Y-94786333D01*
X114030333Y-94881571D01*
X114030333Y-95405380D01*
X114458904Y-95357761D02*
X114554142Y-95405380D01*
X114744619Y-95405380D01*
X114839857Y-95357761D01*
X114887476Y-95262523D01*
X114887476Y-95214904D01*
X114839857Y-95119666D01*
X114744619Y-95072047D01*
X114601761Y-95072047D01*
X114506523Y-95024428D01*
X114458904Y-94929190D01*
X114458904Y-94881571D01*
X114506523Y-94786333D01*
X114601761Y-94738714D01*
X114744619Y-94738714D01*
X114839857Y-94786333D01*
X115697000Y-95357761D02*
X115601761Y-95405380D01*
X115411285Y-95405380D01*
X115316047Y-95357761D01*
X115268428Y-95262523D01*
X115268428Y-94881571D01*
X115316047Y-94786333D01*
X115411285Y-94738714D01*
X115601761Y-94738714D01*
X115697000Y-94786333D01*
X115744619Y-94881571D01*
X115744619Y-94976809D01*
X115268428Y-95072047D01*
X116792238Y-94405380D02*
X117363666Y-94405380D01*
X117077952Y-95405380D02*
X117077952Y-94405380D01*
X118125571Y-95405380D02*
X118125571Y-94881571D01*
X118077952Y-94786333D01*
X117982714Y-94738714D01*
X117792238Y-94738714D01*
X117696999Y-94786333D01*
X118125571Y-95357761D02*
X118030333Y-95405380D01*
X117792238Y-95405380D01*
X117696999Y-95357761D01*
X117649380Y-95262523D01*
X117649380Y-95167285D01*
X117696999Y-95072047D01*
X117792238Y-95024428D01*
X118030333Y-95024428D01*
X118125571Y-94976809D01*
X118601761Y-95405380D02*
X118601761Y-94738714D01*
X118601761Y-94929190D02*
X118649380Y-94833952D01*
X118696999Y-94786333D01*
X118792238Y-94738714D01*
X118887476Y-94738714D01*
X119649380Y-95405380D02*
X119649380Y-94405380D01*
X119649380Y-95357761D02*
X119554142Y-95405380D01*
X119363666Y-95405380D01*
X119268428Y-95357761D01*
X119220809Y-95310142D01*
X119173190Y-95214904D01*
X119173190Y-94929190D01*
X119220809Y-94833952D01*
X119268428Y-94786333D01*
X119363666Y-94738714D01*
X119554142Y-94738714D01*
X119649380Y-94786333D01*
X120744619Y-94405380D02*
X121077952Y-95405380D01*
X121411285Y-94405380D01*
X122125571Y-95357761D02*
X122030333Y-95405380D01*
X121839857Y-95405380D01*
X121744619Y-95357761D01*
X121696999Y-95262523D01*
X121696999Y-94881571D01*
X121744619Y-94786333D01*
X121839857Y-94738714D01*
X122030333Y-94738714D01*
X122125571Y-94786333D01*
X122173190Y-94881571D01*
X122173190Y-94976809D01*
X121696999Y-95072047D01*
X122601761Y-95405380D02*
X122601761Y-94738714D01*
X122601761Y-94929190D02*
X122649380Y-94833952D01*
X122696999Y-94786333D01*
X122792238Y-94738714D01*
X122887476Y-94738714D01*
X123173190Y-95357761D02*
X123268428Y-95405380D01*
X123458904Y-95405380D01*
X123554142Y-95357761D01*
X123601761Y-95262523D01*
X123601761Y-95214904D01*
X123554142Y-95119666D01*
X123458904Y-95072047D01*
X123316047Y-95072047D01*
X123220809Y-95024428D01*
X123173190Y-94929190D01*
X123173190Y-94881571D01*
X123220809Y-94786333D01*
X123316047Y-94738714D01*
X123458904Y-94738714D01*
X123554142Y-94786333D01*
X124030333Y-95405380D02*
X124030333Y-94738714D01*
X124030333Y-94405380D02*
X123982714Y-94453000D01*
X124030333Y-94500619D01*
X124077952Y-94453000D01*
X124030333Y-94405380D01*
X124030333Y-94500619D01*
X124649380Y-95405380D02*
X124554142Y-95357761D01*
X124506523Y-95310142D01*
X124458904Y-95214904D01*
X124458904Y-94929190D01*
X124506523Y-94833952D01*
X124554142Y-94786333D01*
X124649380Y-94738714D01*
X124792238Y-94738714D01*
X124887476Y-94786333D01*
X124935095Y-94833952D01*
X124982714Y-94929190D01*
X124982714Y-95214904D01*
X124935095Y-95310142D01*
X124887476Y-95357761D01*
X124792238Y-95405380D01*
X124649380Y-95405380D01*
X125411285Y-94738714D02*
X125411285Y-95405380D01*
X125411285Y-94833952D02*
X125458904Y-94786333D01*
X125554142Y-94738714D01*
X125696999Y-94738714D01*
X125792238Y-94786333D01*
X125839857Y-94881571D01*
X125839857Y-95405380D01*
X109435095Y-97396333D02*
X109387476Y-97348714D01*
X109292238Y-97205857D01*
X109244619Y-97110619D01*
X109197000Y-96967761D01*
X109149380Y-96729666D01*
X109149380Y-96539190D01*
X109197000Y-96301095D01*
X109244619Y-96158238D01*
X109292238Y-96063000D01*
X109387476Y-95920142D01*
X109435095Y-95872523D01*
X110387476Y-96920142D02*
X110339857Y-96967761D01*
X110197000Y-97015380D01*
X110101761Y-97015380D01*
X109958904Y-96967761D01*
X109863666Y-96872523D01*
X109816047Y-96777285D01*
X109768428Y-96586809D01*
X109768428Y-96443952D01*
X109816047Y-96253476D01*
X109863666Y-96158238D01*
X109958904Y-96063000D01*
X110101761Y-96015380D01*
X110197000Y-96015380D01*
X110339857Y-96063000D01*
X110387476Y-96110619D01*
X111339857Y-97015380D02*
X110768428Y-97015380D01*
X111054142Y-97015380D02*
X111054142Y-96015380D01*
X110958904Y-96158238D01*
X110863666Y-96253476D01*
X110768428Y-96301095D01*
X112720809Y-96015380D02*
X112911285Y-96015380D01*
X113006523Y-96063000D01*
X113101761Y-96158238D01*
X113149380Y-96348714D01*
X113149380Y-96682047D01*
X113101761Y-96872523D01*
X113006523Y-96967761D01*
X112911285Y-97015380D01*
X112720809Y-97015380D01*
X112625571Y-96967761D01*
X112530333Y-96872523D01*
X112482714Y-96682047D01*
X112482714Y-96348714D01*
X112530333Y-96158238D01*
X112625571Y-96063000D01*
X112720809Y-96015380D01*
X113577952Y-97015380D02*
X113577952Y-96015380D01*
X114149380Y-97015380D01*
X114149380Y-96015380D01*
X115101761Y-97015380D02*
X114625571Y-97015380D01*
X114625571Y-96015380D01*
X115625571Y-96539190D02*
X115625571Y-97015380D01*
X115292238Y-96015380D02*
X115625571Y-96539190D01*
X115958904Y-96015380D01*
X116197000Y-97396333D02*
X116244619Y-97348714D01*
X116339857Y-97205857D01*
X116387476Y-97110619D01*
X116435095Y-96967761D01*
X116482714Y-96729666D01*
X116482714Y-96539190D01*
X116435095Y-96301095D01*
X116387476Y-96158238D01*
X116339857Y-96063000D01*
X116244619Y-95920142D01*
X116197000Y-95872523D01*
X117530333Y-97015380D02*
X117197000Y-96539190D01*
X116958904Y-97015380D02*
X116958904Y-96015380D01*
X117339857Y-96015380D01*
X117435095Y-96063000D01*
X117482714Y-96110619D01*
X117530333Y-96205857D01*
X117530333Y-96348714D01*
X117482714Y-96443952D01*
X117435095Y-96491571D01*
X117339857Y-96539190D01*
X116958904Y-96539190D01*
X118339857Y-96967761D02*
X118244619Y-97015380D01*
X118054142Y-97015380D01*
X117958904Y-96967761D01*
X117911285Y-96872523D01*
X117911285Y-96491571D01*
X117958904Y-96396333D01*
X118054142Y-96348714D01*
X118244619Y-96348714D01*
X118339857Y-96396333D01*
X118387476Y-96491571D01*
X118387476Y-96586809D01*
X117911285Y-96682047D01*
X118720809Y-96348714D02*
X118958904Y-97015380D01*
X119197000Y-96348714D01*
X120863666Y-97015380D02*
X120292238Y-97015380D01*
X120577952Y-97015380D02*
X120577952Y-96015380D01*
X120482714Y-96158238D01*
X120387476Y-96253476D01*
X120292238Y-96301095D01*
X121292238Y-96920142D02*
X121339857Y-96967761D01*
X121292238Y-97015380D01*
X121244619Y-96967761D01*
X121292238Y-96920142D01*
X121292238Y-97015380D01*
X121958904Y-96015380D02*
X122054142Y-96015380D01*
X122149380Y-96063000D01*
X122197000Y-96110619D01*
X122244619Y-96205857D01*
X122292238Y-96396333D01*
X122292238Y-96634428D01*
X122244619Y-96824904D01*
X122197000Y-96920142D01*
X122149380Y-96967761D01*
X122054142Y-97015380D01*
X121958904Y-97015380D01*
X121863666Y-96967761D01*
X121816047Y-96920142D01*
X121768428Y-96824904D01*
X121720809Y-96634428D01*
X121720809Y-96396333D01*
X121768428Y-96205857D01*
X121816047Y-96110619D01*
X121863666Y-96063000D01*
X121958904Y-96015380D01*
X112554142Y-98625380D02*
X111982714Y-98625380D01*
X112268428Y-98625380D02*
X112268428Y-97625380D01*
X112173190Y-97768238D01*
X112077952Y-97863476D01*
X111982714Y-97911095D01*
X113506523Y-98625380D02*
X112935095Y-98625380D01*
X113220809Y-98625380D02*
X113220809Y-97625380D01*
X113125571Y-97768238D01*
X113030333Y-97863476D01*
X112935095Y-97911095D01*
X114649380Y-97577761D02*
X113792238Y-98863476D01*
X114887476Y-97625380D02*
X115506523Y-97625380D01*
X115173190Y-98006333D01*
X115316047Y-98006333D01*
X115411285Y-98053952D01*
X115458904Y-98101571D01*
X115506523Y-98196809D01*
X115506523Y-98434904D01*
X115458904Y-98530142D01*
X115411285Y-98577761D01*
X115316047Y-98625380D01*
X115030333Y-98625380D01*
X114935095Y-98577761D01*
X114887476Y-98530142D01*
X116125571Y-97625380D02*
X116220809Y-97625380D01*
X116316047Y-97673000D01*
X116363666Y-97720619D01*
X116411285Y-97815857D01*
X116458904Y-98006333D01*
X116458904Y-98244428D01*
X116411285Y-98434904D01*
X116363666Y-98530142D01*
X116316047Y-98577761D01*
X116220809Y-98625380D01*
X116125571Y-98625380D01*
X116030333Y-98577761D01*
X115982714Y-98530142D01*
X115935095Y-98434904D01*
X115887476Y-98244428D01*
X115887476Y-98006333D01*
X115935095Y-97815857D01*
X115982714Y-97720619D01*
X116030333Y-97673000D01*
X116125571Y-97625380D01*
X117601761Y-97577761D02*
X116744619Y-98863476D01*
X117887476Y-97720619D02*
X117935095Y-97673000D01*
X118030333Y-97625380D01*
X118268428Y-97625380D01*
X118363666Y-97673000D01*
X118411285Y-97720619D01*
X118458904Y-97815857D01*
X118458904Y-97911095D01*
X118411285Y-98053952D01*
X117839857Y-98625380D01*
X118458904Y-98625380D01*
X119411285Y-98625380D02*
X118839857Y-98625380D01*
X119125571Y-98625380D02*
X119125571Y-97625380D01*
X119030333Y-97768238D01*
X118935095Y-97863476D01*
X118839857Y-97911095D01*
%TO.C,C1*%
X105141833Y-94116142D02*
X105094214Y-94163761D01*
X104951357Y-94211380D01*
X104856119Y-94211380D01*
X104713261Y-94163761D01*
X104618023Y-94068523D01*
X104570404Y-93973285D01*
X104522785Y-93782809D01*
X104522785Y-93639952D01*
X104570404Y-93449476D01*
X104618023Y-93354238D01*
X104713261Y-93259000D01*
X104856119Y-93211380D01*
X104951357Y-93211380D01*
X105094214Y-93259000D01*
X105141833Y-93306619D01*
X106094214Y-94211380D02*
X105522785Y-94211380D01*
X105808500Y-94211380D02*
X105808500Y-93211380D01*
X105713261Y-93354238D01*
X105618023Y-93449476D01*
X105522785Y-93497095D01*
%TO.C,U1*%
X105128095Y-85597381D02*
X105128095Y-86406905D01*
X105175714Y-86502143D01*
X105223333Y-86549762D01*
X105318571Y-86597381D01*
X105509047Y-86597381D01*
X105604285Y-86549762D01*
X105651904Y-86502143D01*
X105699523Y-86406905D01*
X105699523Y-85597381D01*
X106699523Y-86597381D02*
X106128095Y-86597381D01*
X106413809Y-86597381D02*
X106413809Y-85597381D01*
X106318571Y-85740239D01*
X106223333Y-85835477D01*
X106128095Y-85883096D01*
%TO.C,J5*%
X114522380Y-85423333D02*
X115236666Y-85423333D01*
X115379523Y-85470952D01*
X115474761Y-85566190D01*
X115522380Y-85709047D01*
X115522380Y-85804285D01*
X114522380Y-84470952D02*
X114522380Y-84947142D01*
X114998571Y-84994761D01*
X114950952Y-84947142D01*
X114903333Y-84851904D01*
X114903333Y-84613809D01*
X114950952Y-84518571D01*
X114998571Y-84470952D01*
X115093809Y-84423333D01*
X115331904Y-84423333D01*
X115427142Y-84470952D01*
X115474761Y-84518571D01*
X115522380Y-84613809D01*
X115522380Y-84851904D01*
X115474761Y-84947142D01*
X115427142Y-84994761D01*
D11*
%TO.C,C1*%
X105471279Y-92839000D02*
X105145721Y-92839000D01*
X105471279Y-91819000D02*
X105145721Y-91819000D01*
%TO.C,U1*%
X103390000Y-75145001D02*
X58390000Y-75145001D01*
X58390000Y-97145001D02*
X103390000Y-97145001D01*
X58390000Y-97145001D02*
X58390000Y-75145001D01*
X103640000Y-97145001D02*
X103640000Y-75145001D01*
X103640000Y-97145001D02*
X103390000Y-97145001D01*
X103390000Y-75145001D02*
X103640000Y-75145001D01*
%TO.C,J5*%
X122570000Y-78090000D02*
X122570000Y-92090000D01*
X108570000Y-78090000D02*
X122570000Y-78090000D01*
X108570000Y-92090000D02*
X122570000Y-92090000D01*
X108570000Y-92090000D02*
X108570000Y-78090000D01*
%TD*%
M02*
