%TF.GenerationSoftware,KiCad,Pcbnew,(5.1.12)-1*%
%TF.CreationDate,2021-11-30T21:21:33-06:00*%
%TF.ProjectId,MA710_encoder,4d413731-305f-4656-9e63-6f6465722e6b,rev?*%
%TF.SameCoordinates,Original*%
%TF.FileFunction,Soldermask,Bot*%
%TF.FilePolarity,Negative*%
%FSLAX46Y46*%
G04 Gerber Fmt 4.6, Leading zero omitted, Abs format (unit mm)*
G04 Created by KiCad (PCBNEW (5.1.12)-1) date 2021-11-30 21:21:33*
%MOMM*%
%LPD*%
G01*
G04 APERTURE LIST*
%ADD10C,1.000000*%
%ADD11O,2.900000X1.500000*%
G04 APERTURE END LIST*
%TO.C,J4*%
G36*
G01*
X157338000Y-138951000D02*
X157338000Y-138051000D01*
G75*
G02*
X157388000Y-138001000I50000J0D01*
G01*
X158288000Y-138001000D01*
G75*
G02*
X158338000Y-138051000I0J-50000D01*
G01*
X158338000Y-138951000D01*
G75*
G02*
X158288000Y-139001000I-50000J0D01*
G01*
X157388000Y-139001000D01*
G75*
G02*
X157338000Y-138951000I0J50000D01*
G01*
G37*
D10*
X158488000Y-136581000D03*
X159138000Y-138501000D03*
X159788000Y-136581000D03*
X160438000Y-138501000D03*
X161088000Y-136581000D03*
X161738000Y-138501000D03*
X162388000Y-136581000D03*
X163038000Y-138501000D03*
X163688000Y-136581000D03*
X164338000Y-138501000D03*
X164988000Y-136581000D03*
X165638000Y-138501000D03*
X166288000Y-136581000D03*
X166938000Y-138501000D03*
X167588000Y-136581000D03*
X168238000Y-138501000D03*
X168888000Y-136581000D03*
X169538000Y-138501000D03*
X170188000Y-136581000D03*
D11*
X164338000Y-134961000D03*
X170338000Y-140121000D03*
X158338000Y-140121000D03*
%TD*%
%TO.C,U1*%
G36*
G01*
X163575000Y-117337500D02*
X163575000Y-116587500D01*
G75*
G02*
X163662500Y-116500000I87500J0D01*
G01*
X163837500Y-116500000D01*
G75*
G02*
X163925000Y-116587500I0J-87500D01*
G01*
X163925000Y-117337500D01*
G75*
G02*
X163837500Y-117425000I-87500J0D01*
G01*
X163662500Y-117425000D01*
G75*
G02*
X163575000Y-117337500I0J87500D01*
G01*
G37*
G36*
G01*
X164075000Y-117337500D02*
X164075000Y-116587500D01*
G75*
G02*
X164162500Y-116500000I87500J0D01*
G01*
X164337500Y-116500000D01*
G75*
G02*
X164425000Y-116587500I0J-87500D01*
G01*
X164425000Y-117337500D01*
G75*
G02*
X164337500Y-117425000I-87500J0D01*
G01*
X164162500Y-117425000D01*
G75*
G02*
X164075000Y-117337500I0J87500D01*
G01*
G37*
G36*
G01*
X164575000Y-117337500D02*
X164575000Y-116587500D01*
G75*
G02*
X164662500Y-116500000I87500J0D01*
G01*
X164837500Y-116500000D01*
G75*
G02*
X164925000Y-116587500I0J-87500D01*
G01*
X164925000Y-117337500D01*
G75*
G02*
X164837500Y-117425000I-87500J0D01*
G01*
X164662500Y-117425000D01*
G75*
G02*
X164575000Y-117337500I0J87500D01*
G01*
G37*
G36*
G01*
X165075000Y-117337500D02*
X165075000Y-116587500D01*
G75*
G02*
X165162500Y-116500000I87500J0D01*
G01*
X165337500Y-116500000D01*
G75*
G02*
X165425000Y-116587500I0J-87500D01*
G01*
X165425000Y-117337500D01*
G75*
G02*
X165337500Y-117425000I-87500J0D01*
G01*
X165162500Y-117425000D01*
G75*
G02*
X165075000Y-117337500I0J87500D01*
G01*
G37*
G36*
G01*
X165500000Y-116337500D02*
X165500000Y-116162500D01*
G75*
G02*
X165587500Y-116075000I87500J0D01*
G01*
X166337500Y-116075000D01*
G75*
G02*
X166425000Y-116162500I0J-87500D01*
G01*
X166425000Y-116337500D01*
G75*
G02*
X166337500Y-116425000I-87500J0D01*
G01*
X165587500Y-116425000D01*
G75*
G02*
X165500000Y-116337500I0J87500D01*
G01*
G37*
G36*
G01*
X165500000Y-115837500D02*
X165500000Y-115662500D01*
G75*
G02*
X165587500Y-115575000I87500J0D01*
G01*
X166337500Y-115575000D01*
G75*
G02*
X166425000Y-115662500I0J-87500D01*
G01*
X166425000Y-115837500D01*
G75*
G02*
X166337500Y-115925000I-87500J0D01*
G01*
X165587500Y-115925000D01*
G75*
G02*
X165500000Y-115837500I0J87500D01*
G01*
G37*
G36*
G01*
X165500000Y-115337500D02*
X165500000Y-115162500D01*
G75*
G02*
X165587500Y-115075000I87500J0D01*
G01*
X166337500Y-115075000D01*
G75*
G02*
X166425000Y-115162500I0J-87500D01*
G01*
X166425000Y-115337500D01*
G75*
G02*
X166337500Y-115425000I-87500J0D01*
G01*
X165587500Y-115425000D01*
G75*
G02*
X165500000Y-115337500I0J87500D01*
G01*
G37*
G36*
G01*
X165500000Y-114837500D02*
X165500000Y-114662500D01*
G75*
G02*
X165587500Y-114575000I87500J0D01*
G01*
X166337500Y-114575000D01*
G75*
G02*
X166425000Y-114662500I0J-87500D01*
G01*
X166425000Y-114837500D01*
G75*
G02*
X166337500Y-114925000I-87500J0D01*
G01*
X165587500Y-114925000D01*
G75*
G02*
X165500000Y-114837500I0J87500D01*
G01*
G37*
G36*
G01*
X165075000Y-114412500D02*
X165075000Y-113662500D01*
G75*
G02*
X165162500Y-113575000I87500J0D01*
G01*
X165337500Y-113575000D01*
G75*
G02*
X165425000Y-113662500I0J-87500D01*
G01*
X165425000Y-114412500D01*
G75*
G02*
X165337500Y-114500000I-87500J0D01*
G01*
X165162500Y-114500000D01*
G75*
G02*
X165075000Y-114412500I0J87500D01*
G01*
G37*
G36*
G01*
X164575000Y-114412500D02*
X164575000Y-113662500D01*
G75*
G02*
X164662500Y-113575000I87500J0D01*
G01*
X164837500Y-113575000D01*
G75*
G02*
X164925000Y-113662500I0J-87500D01*
G01*
X164925000Y-114412500D01*
G75*
G02*
X164837500Y-114500000I-87500J0D01*
G01*
X164662500Y-114500000D01*
G75*
G02*
X164575000Y-114412500I0J87500D01*
G01*
G37*
G36*
G01*
X164075000Y-114412500D02*
X164075000Y-113662500D01*
G75*
G02*
X164162500Y-113575000I87500J0D01*
G01*
X164337500Y-113575000D01*
G75*
G02*
X164425000Y-113662500I0J-87500D01*
G01*
X164425000Y-114412500D01*
G75*
G02*
X164337500Y-114500000I-87500J0D01*
G01*
X164162500Y-114500000D01*
G75*
G02*
X164075000Y-114412500I0J87500D01*
G01*
G37*
G36*
G01*
X163575000Y-114412500D02*
X163575000Y-113662500D01*
G75*
G02*
X163662500Y-113575000I87500J0D01*
G01*
X163837500Y-113575000D01*
G75*
G02*
X163925000Y-113662500I0J-87500D01*
G01*
X163925000Y-114412500D01*
G75*
G02*
X163837500Y-114500000I-87500J0D01*
G01*
X163662500Y-114500000D01*
G75*
G02*
X163575000Y-114412500I0J87500D01*
G01*
G37*
G36*
G01*
X162575000Y-114837500D02*
X162575000Y-114662500D01*
G75*
G02*
X162662500Y-114575000I87500J0D01*
G01*
X163412500Y-114575000D01*
G75*
G02*
X163500000Y-114662500I0J-87500D01*
G01*
X163500000Y-114837500D01*
G75*
G02*
X163412500Y-114925000I-87500J0D01*
G01*
X162662500Y-114925000D01*
G75*
G02*
X162575000Y-114837500I0J87500D01*
G01*
G37*
G36*
G01*
X162575000Y-115337500D02*
X162575000Y-115162500D01*
G75*
G02*
X162662500Y-115075000I87500J0D01*
G01*
X163412500Y-115075000D01*
G75*
G02*
X163500000Y-115162500I0J-87500D01*
G01*
X163500000Y-115337500D01*
G75*
G02*
X163412500Y-115425000I-87500J0D01*
G01*
X162662500Y-115425000D01*
G75*
G02*
X162575000Y-115337500I0J87500D01*
G01*
G37*
G36*
G01*
X162575000Y-115837500D02*
X162575000Y-115662500D01*
G75*
G02*
X162662500Y-115575000I87500J0D01*
G01*
X163412500Y-115575000D01*
G75*
G02*
X163500000Y-115662500I0J-87500D01*
G01*
X163500000Y-115837500D01*
G75*
G02*
X163412500Y-115925000I-87500J0D01*
G01*
X162662500Y-115925000D01*
G75*
G02*
X162575000Y-115837500I0J87500D01*
G01*
G37*
G36*
G01*
X162575000Y-116337500D02*
X162575000Y-116162500D01*
G75*
G02*
X162662500Y-116075000I87500J0D01*
G01*
X163412500Y-116075000D01*
G75*
G02*
X163500000Y-116162500I0J-87500D01*
G01*
X163500000Y-116337500D01*
G75*
G02*
X163412500Y-116425000I-87500J0D01*
G01*
X162662500Y-116425000D01*
G75*
G02*
X162575000Y-116337500I0J87500D01*
G01*
G37*
G36*
G01*
X163600000Y-116135295D02*
X163600000Y-114864705D01*
G75*
G02*
X163864705Y-114600000I264705J0D01*
G01*
X165135295Y-114600000D01*
G75*
G02*
X165400000Y-114864705I0J-264705D01*
G01*
X165400000Y-116135295D01*
G75*
G02*
X165135295Y-116400000I-264705J0D01*
G01*
X163864705Y-116400000D01*
G75*
G02*
X163600000Y-116135295I0J264705D01*
G01*
G37*
%TD*%
%TO.C,C1*%
G36*
G01*
X166558340Y-118708750D02*
X166558340Y-118146250D01*
G75*
G02*
X166802090Y-117902500I243750J0D01*
G01*
X167289590Y-117902500D01*
G75*
G02*
X167533340Y-118146250I0J-243750D01*
G01*
X167533340Y-118708750D01*
G75*
G02*
X167289590Y-118952500I-243750J0D01*
G01*
X166802090Y-118952500D01*
G75*
G02*
X166558340Y-118708750I0J243750D01*
G01*
G37*
G36*
G01*
X164983340Y-118708750D02*
X164983340Y-118146250D01*
G75*
G02*
X165227090Y-117902500I243750J0D01*
G01*
X165714590Y-117902500D01*
G75*
G02*
X165958340Y-118146250I0J-243750D01*
G01*
X165958340Y-118708750D01*
G75*
G02*
X165714590Y-118952500I-243750J0D01*
G01*
X165227090Y-118952500D01*
G75*
G02*
X164983340Y-118708750I0J243750D01*
G01*
G37*
%TD*%
M02*
