%TF.GenerationSoftware,KiCad,Pcbnew,(5.1.12)-1*%
%TF.CreationDate,2021-11-30T21:21:33-06:00*%
%TF.ProjectId,MA710_encoder,4d413731-305f-4656-9e63-6f6465722e6b,rev?*%
%TF.SameCoordinates,Original*%
%TF.FileFunction,Copper,L1,Top*%
%TF.FilePolarity,Positive*%
%FSLAX46Y46*%
G04 Gerber Fmt 4.6, Leading zero omitted, Abs format (unit mm)*
G04 Created by KiCad (PCBNEW (5.1.12)-1) date 2021-11-30 21:21:33*
%MOMM*%
%LPD*%
G01*
G04 APERTURE LIST*
%TA.AperFunction,SMDPad,CuDef*%
%ADD10R,0.600000X1.500000*%
%TD*%
%TA.AperFunction,ComponentPad*%
%ADD11R,0.900000X0.900000*%
%TD*%
%TA.AperFunction,ComponentPad*%
%ADD12C,0.900000*%
%TD*%
%TA.AperFunction,ComponentPad*%
%ADD13O,2.800000X1.400000*%
%TD*%
%TA.AperFunction,ViaPad*%
%ADD14C,3.700000*%
%TD*%
%TA.AperFunction,ViaPad*%
%ADD15C,0.800000*%
%TD*%
%TA.AperFunction,Conductor*%
%ADD16C,0.250000*%
%TD*%
%TA.AperFunction,Conductor*%
%ADD17C,0.200000*%
%TD*%
%TA.AperFunction,Conductor*%
%ADD18C,0.254000*%
%TD*%
%TA.AperFunction,Conductor*%
%ADD19C,0.100000*%
%TD*%
G04 APERTURE END LIST*
D10*
%TO.P,U14,16*%
%TO.N,+3V3*%
X172339000Y-113632000D03*
%TO.P,U14,15*%
%TO.N,N/C*%
X173609000Y-113632000D03*
%TO.P,U14,14*%
X174879000Y-113632000D03*
%TO.P,U14,13*%
X176149000Y-113632000D03*
%TO.P,U14,12*%
%TO.N,GND*%
X177419000Y-113632000D03*
%TO.P,U14,11*%
%TO.N,SPI6_nSS*%
X178689000Y-113632000D03*
%TO.P,U14,10*%
%TO.N,SPI6_nSS_-*%
X179959000Y-113632000D03*
%TO.P,U14,9*%
%TO.N,SPI6_nSS_+*%
X181229000Y-113632000D03*
%TO.P,U14,8*%
%TO.N,GND*%
X181229000Y-119032000D03*
%TO.P,U14,7*%
%TO.N,SPI6_SCK_-*%
X179959000Y-119032000D03*
%TO.P,U14,6*%
%TO.N,SPI6_SCK_+*%
X178689000Y-119032000D03*
%TO.P,U14,5*%
%TO.N,SPI6_SCK*%
X177419000Y-119032000D03*
%TO.P,U14,4*%
%TO.N,+3V3*%
X176149000Y-119032000D03*
%TO.P,U14,3*%
%TO.N,SPI6_MOSI*%
X174879000Y-119032000D03*
%TO.P,U14,2*%
%TO.N,SPI6_MOSI_+*%
X173609000Y-119032000D03*
%TO.P,U14,1*%
%TO.N,SPI6_MOSI_-*%
X172339000Y-119032000D03*
%TD*%
%TO.P,U9,16*%
%TO.N,+3V3*%
X160083500Y-102710000D03*
%TO.P,U9,15*%
%TO.N,N/C*%
X161353500Y-102710000D03*
%TO.P,U9,14*%
X162623500Y-102710000D03*
%TO.P,U9,13*%
X163893500Y-102710000D03*
%TO.P,U9,12*%
%TO.N,GND*%
X165163500Y-102710000D03*
%TO.P,U9,11*%
%TO.N,N/C*%
X166433500Y-102710000D03*
%TO.P,U9,10*%
X167703500Y-102710000D03*
%TO.P,U9,9*%
X168973500Y-102710000D03*
%TO.P,U9,8*%
%TO.N,GND*%
X168973500Y-108110000D03*
%TO.P,U9,7*%
%TO.N,N/C*%
X167703500Y-108110000D03*
%TO.P,U9,6*%
X166433500Y-108110000D03*
%TO.P,U9,5*%
X165163500Y-108110000D03*
%TO.P,U9,4*%
%TO.N,+3V3*%
X163893500Y-108110000D03*
%TO.P,U9,3*%
%TO.N,SPI6_MISO_+*%
X162623500Y-108110000D03*
%TO.P,U9,2*%
%TO.N,SPI6_MISO_-*%
X161353500Y-108110000D03*
%TO.P,U9,1*%
%TO.N,SPI6_MISO*%
X160083500Y-108110000D03*
%TD*%
D11*
%TO.P,J4,1*%
%TO.N,SPI6_MISO_+*%
X157838000Y-138501000D03*
D12*
%TO.P,J4,2*%
%TO.N,GND*%
X158488000Y-136581000D03*
%TO.P,J4,3*%
%TO.N,SPI6_MISO_-*%
X159138000Y-138501000D03*
%TO.P,J4,4*%
%TO.N,SPI6_MOSI_+*%
X159788000Y-136581000D03*
%TO.P,J4,5*%
%TO.N,GND*%
X160438000Y-138501000D03*
%TO.P,J4,6*%
%TO.N,SPI6_MOSI_-*%
X161088000Y-136581000D03*
%TO.P,J4,7*%
%TO.N,SPI6_SCK_+*%
X161738000Y-138501000D03*
%TO.P,J4,8*%
%TO.N,GND*%
X162388000Y-136581000D03*
%TO.P,J4,9*%
%TO.N,SPI6_SCK_-*%
X163038000Y-138501000D03*
%TO.P,J4,10*%
%TO.N,SPI6_nSS_+*%
X163688000Y-136581000D03*
%TO.P,J4,11*%
%TO.N,GND*%
X164338000Y-138501000D03*
%TO.P,J4,12*%
%TO.N,SPI6_nSS_-*%
X164988000Y-136581000D03*
%TO.P,J4,13*%
%TO.N,N/C*%
X165638000Y-138501000D03*
%TO.P,J4,14*%
X166288000Y-136581000D03*
%TO.P,J4,15*%
X166938000Y-138501000D03*
%TO.P,J4,16*%
X167588000Y-136581000D03*
%TO.P,J4,17*%
X168238000Y-138501000D03*
%TO.P,J4,18*%
X168888000Y-136581000D03*
%TO.P,J4,19*%
%TO.N,GND*%
X169538000Y-138501000D03*
%TO.P,J4,20*%
%TO.N,+3V3*%
X170188000Y-136581000D03*
D13*
%TO.P,J4,SH3*%
%TO.N,N/C*%
X164338000Y-134961000D03*
%TO.P,J4,SH2*%
X170338000Y-140121000D03*
%TO.P,J4,SH1*%
X158338000Y-140121000D03*
%TD*%
%TO.P,R3,2*%
%TO.N,SPI6_nSS_-*%
%TA.AperFunction,SMDPad,CuDef*%
G36*
G01*
X180244000Y-111059250D02*
X180244000Y-111571750D01*
G75*
G02*
X180025250Y-111790500I-218750J0D01*
G01*
X179587750Y-111790500D01*
G75*
G02*
X179369000Y-111571750I0J218750D01*
G01*
X179369000Y-111059250D01*
G75*
G02*
X179587750Y-110840500I218750J0D01*
G01*
X180025250Y-110840500D01*
G75*
G02*
X180244000Y-111059250I0J-218750D01*
G01*
G37*
%TD.AperFunction*%
%TO.P,R3,1*%
%TO.N,SPI6_nSS_+*%
%TA.AperFunction,SMDPad,CuDef*%
G36*
G01*
X181819000Y-111059250D02*
X181819000Y-111571750D01*
G75*
G02*
X181600250Y-111790500I-218750J0D01*
G01*
X181162750Y-111790500D01*
G75*
G02*
X180944000Y-111571750I0J218750D01*
G01*
X180944000Y-111059250D01*
G75*
G02*
X181162750Y-110840500I218750J0D01*
G01*
X181600250Y-110840500D01*
G75*
G02*
X181819000Y-111059250I0J-218750D01*
G01*
G37*
%TD.AperFunction*%
%TD*%
%TO.P,R2,2*%
%TO.N,SPI6_SCK_-*%
%TA.AperFunction,SMDPad,CuDef*%
G36*
G01*
X179164500Y-123441750D02*
X179164500Y-123954250D01*
G75*
G02*
X178945750Y-124173000I-218750J0D01*
G01*
X178508250Y-124173000D01*
G75*
G02*
X178289500Y-123954250I0J218750D01*
G01*
X178289500Y-123441750D01*
G75*
G02*
X178508250Y-123223000I218750J0D01*
G01*
X178945750Y-123223000D01*
G75*
G02*
X179164500Y-123441750I0J-218750D01*
G01*
G37*
%TD.AperFunction*%
%TO.P,R2,1*%
%TO.N,SPI6_SCK_+*%
%TA.AperFunction,SMDPad,CuDef*%
G36*
G01*
X180739500Y-123441750D02*
X180739500Y-123954250D01*
G75*
G02*
X180520750Y-124173000I-218750J0D01*
G01*
X180083250Y-124173000D01*
G75*
G02*
X179864500Y-123954250I0J218750D01*
G01*
X179864500Y-123441750D01*
G75*
G02*
X180083250Y-123223000I218750J0D01*
G01*
X180520750Y-123223000D01*
G75*
G02*
X180739500Y-123441750I0J-218750D01*
G01*
G37*
%TD.AperFunction*%
%TD*%
%TO.P,R1,2*%
%TO.N,SPI6_MOSI_-*%
%TA.AperFunction,SMDPad,CuDef*%
G36*
G01*
X170174500Y-121985750D02*
X170174500Y-121473250D01*
G75*
G02*
X170393250Y-121254500I218750J0D01*
G01*
X170830750Y-121254500D01*
G75*
G02*
X171049500Y-121473250I0J-218750D01*
G01*
X171049500Y-121985750D01*
G75*
G02*
X170830750Y-122204500I-218750J0D01*
G01*
X170393250Y-122204500D01*
G75*
G02*
X170174500Y-121985750I0J218750D01*
G01*
G37*
%TD.AperFunction*%
%TO.P,R1,1*%
%TO.N,SPI6_MOSI_+*%
%TA.AperFunction,SMDPad,CuDef*%
G36*
G01*
X168599500Y-121985750D02*
X168599500Y-121473250D01*
G75*
G02*
X168818250Y-121254500I218750J0D01*
G01*
X169255750Y-121254500D01*
G75*
G02*
X169474500Y-121473250I0J-218750D01*
G01*
X169474500Y-121985750D01*
G75*
G02*
X169255750Y-122204500I-218750J0D01*
G01*
X168818250Y-122204500D01*
G75*
G02*
X168599500Y-121985750I0J218750D01*
G01*
G37*
%TD.AperFunction*%
%TD*%
%TO.P,C3,2*%
%TO.N,GND*%
%TA.AperFunction,SMDPad,CuDef*%
G36*
G01*
X173489000Y-111444750D02*
X173489000Y-110932250D01*
G75*
G02*
X173707750Y-110713500I218750J0D01*
G01*
X174145250Y-110713500D01*
G75*
G02*
X174364000Y-110932250I0J-218750D01*
G01*
X174364000Y-111444750D01*
G75*
G02*
X174145250Y-111663500I-218750J0D01*
G01*
X173707750Y-111663500D01*
G75*
G02*
X173489000Y-111444750I0J218750D01*
G01*
G37*
%TD.AperFunction*%
%TO.P,C3,1*%
%TO.N,+3V3*%
%TA.AperFunction,SMDPad,CuDef*%
G36*
G01*
X171914000Y-111444750D02*
X171914000Y-110932250D01*
G75*
G02*
X172132750Y-110713500I218750J0D01*
G01*
X172570250Y-110713500D01*
G75*
G02*
X172789000Y-110932250I0J-218750D01*
G01*
X172789000Y-111444750D01*
G75*
G02*
X172570250Y-111663500I-218750J0D01*
G01*
X172132750Y-111663500D01*
G75*
G02*
X171914000Y-111444750I0J218750D01*
G01*
G37*
%TD.AperFunction*%
%TD*%
%TO.P,C2,2*%
%TO.N,GND*%
%TA.AperFunction,SMDPad,CuDef*%
G36*
G01*
X161233500Y-100205250D02*
X161233500Y-99692750D01*
G75*
G02*
X161452250Y-99474000I218750J0D01*
G01*
X161889750Y-99474000D01*
G75*
G02*
X162108500Y-99692750I0J-218750D01*
G01*
X162108500Y-100205250D01*
G75*
G02*
X161889750Y-100424000I-218750J0D01*
G01*
X161452250Y-100424000D01*
G75*
G02*
X161233500Y-100205250I0J218750D01*
G01*
G37*
%TD.AperFunction*%
%TO.P,C2,1*%
%TO.N,+3V3*%
%TA.AperFunction,SMDPad,CuDef*%
G36*
G01*
X159658500Y-100205250D02*
X159658500Y-99692750D01*
G75*
G02*
X159877250Y-99474000I218750J0D01*
G01*
X160314750Y-99474000D01*
G75*
G02*
X160533500Y-99692750I0J-218750D01*
G01*
X160533500Y-100205250D01*
G75*
G02*
X160314750Y-100424000I-218750J0D01*
G01*
X159877250Y-100424000D01*
G75*
G02*
X159658500Y-100205250I0J218750D01*
G01*
G37*
%TD.AperFunction*%
%TD*%
D14*
%TO.N,*%
X175500000Y-104500000D03*
X175500000Y-126500000D03*
X153500000Y-126500000D03*
X153500000Y-104500000D03*
D15*
%TO.N,GND*%
X168148000Y-118364000D03*
X167259000Y-115252500D03*
%TO.N,+3V3*%
X159956500Y-98425000D03*
X172402500Y-109791500D03*
X168993767Y-117386460D03*
%TO.N,SPI6_nSS_-*%
X183722500Y-112966500D03*
%TO.N,SPI6_nSS_+*%
X182672500Y-112966500D03*
%TO.N,SPI6_MISO*%
X160083500Y-109918500D03*
%TO.N,SPI6_SCK*%
X177419000Y-116903500D03*
%TO.N,SPI6_nSS*%
X178689000Y-110236000D03*
%TO.N,SPI6_MOSI*%
X173545500Y-121412000D03*
%TD*%
D16*
%TO.N,GND*%
X161671000Y-99949000D02*
X164020500Y-99949000D01*
X165163500Y-101092000D02*
X165163500Y-102710000D01*
X164020500Y-99949000D02*
X165163500Y-101092000D01*
X168973500Y-108110000D02*
X168973500Y-106616500D01*
X168973500Y-106616500D02*
X167640000Y-105283000D01*
X167640000Y-105283000D02*
X165798500Y-105283000D01*
X165163500Y-104648000D02*
X165163500Y-102710000D01*
X165798500Y-105283000D02*
X165163500Y-104648000D01*
X181229000Y-119032000D02*
X181229000Y-119824500D01*
X181229000Y-119824500D02*
X180594000Y-120459500D01*
X178063999Y-118021999D02*
X178063999Y-121040999D01*
X178263992Y-117822006D02*
X178063999Y-118021999D01*
X178263992Y-116675490D02*
X178263992Y-117822006D01*
X177419000Y-115830498D02*
X178263992Y-116675490D01*
X177419000Y-113632000D02*
X177419000Y-115830498D01*
X162418000Y-136581000D02*
X162388000Y-136581000D01*
X164338000Y-138501000D02*
X162418000Y-136581000D01*
X162358000Y-136581000D02*
X162388000Y-136581000D01*
X160438000Y-138501000D02*
X162358000Y-136581000D01*
X158518000Y-136581000D02*
X158488000Y-136581000D01*
X160438000Y-138501000D02*
X158518000Y-136581000D01*
X168762999Y-137725999D02*
X169538000Y-138501000D01*
X165113001Y-137725999D02*
X168762999Y-137725999D01*
X164338000Y-138501000D02*
X165113001Y-137725999D01*
%TO.N,+3V3*%
X160083500Y-99961500D02*
X160096000Y-99949000D01*
X160083500Y-102710000D02*
X160083500Y-99961500D01*
X163893500Y-108110000D02*
X163893500Y-107124500D01*
X163893500Y-107124500D02*
X162115500Y-105346500D01*
X162115500Y-105346500D02*
X161544000Y-105346500D01*
X160083500Y-103886000D02*
X160083500Y-102710000D01*
X161544000Y-105346500D02*
X160083500Y-103886000D01*
X172339000Y-111201000D02*
X172351500Y-111188500D01*
X172339000Y-113632000D02*
X172339000Y-111201000D01*
X176149000Y-119032000D02*
X176149000Y-117157500D01*
X176149000Y-117157500D02*
X174117000Y-115125500D01*
X174117000Y-115125500D02*
X172656500Y-115125500D01*
X172339000Y-114808000D02*
X172339000Y-113632000D01*
X160096000Y-98564500D02*
X159956500Y-98425000D01*
X160096000Y-99949000D02*
X160096000Y-98564500D01*
X172351500Y-109842500D02*
X172402500Y-109791500D01*
X172351500Y-111188500D02*
X172351500Y-109842500D01*
X171381727Y-114998500D02*
X168993767Y-117386460D01*
X172529500Y-114998500D02*
X171381727Y-114998500D01*
X172656500Y-115125500D02*
X172529500Y-114998500D01*
X172529500Y-114998500D02*
X172339000Y-114808000D01*
D17*
%TO.N,SPI6_SCK_-*%
X179959000Y-117906999D02*
X179549000Y-117496999D01*
X179959000Y-119032000D02*
X179959000Y-117906999D01*
X179549000Y-117496999D02*
X179549000Y-116869700D01*
X179549000Y-116869700D02*
X179861700Y-116557000D01*
X179861700Y-116557000D02*
X182151800Y-116557000D01*
X182151800Y-116557000D02*
X182655000Y-117060200D01*
X182655000Y-117060200D02*
X182655000Y-119731300D01*
X178727000Y-123698000D02*
X179289500Y-123135500D01*
X179289500Y-123135500D02*
X179289500Y-122525300D01*
X179289500Y-122525300D02*
X180500800Y-121314000D01*
X181072300Y-121314000D02*
X182655000Y-119731300D01*
X180500800Y-121314000D02*
X181072300Y-121314000D01*
X173638000Y-139797300D02*
X171737800Y-141697500D01*
X179289500Y-127605300D02*
X173638000Y-133256800D01*
X178727000Y-123698000D02*
X179289500Y-124260500D01*
X173638000Y-133256800D02*
X173638000Y-139797300D01*
X171737800Y-141697500D02*
X165193200Y-141697500D01*
X179289500Y-124260500D02*
X179289500Y-127605300D01*
X163038000Y-138501000D02*
X162613000Y-138926000D01*
X162613000Y-139117300D02*
X165193200Y-141697500D01*
X162613000Y-138926000D02*
X162613000Y-139117300D01*
%TO.N,SPI6_nSS_-*%
X183722500Y-112966500D02*
X183422500Y-112666500D01*
X183422500Y-112666500D02*
X183422500Y-109698300D01*
X183422500Y-109698300D02*
X182147700Y-108423500D01*
X182147700Y-108423500D02*
X181326300Y-108423500D01*
X180369000Y-110753000D02*
X179806500Y-111315500D01*
X180369000Y-109380800D02*
X180369000Y-110753000D01*
X181326300Y-108423500D02*
X180369000Y-109380800D01*
X180369000Y-112096999D02*
X179959000Y-112506999D01*
X179959000Y-112506999D02*
X179959000Y-113632000D01*
X180369000Y-111878000D02*
X180369000Y-112096999D01*
X179806500Y-111315500D02*
X180369000Y-111878000D01*
%TO.N,SPI6_nSS_+*%
X182672500Y-112966500D02*
X182972500Y-112666500D01*
X182972500Y-112666500D02*
X182972500Y-109884700D01*
X182972500Y-109884700D02*
X181961300Y-108873500D01*
X181961300Y-108873500D02*
X181512700Y-108873500D01*
X180819000Y-109567200D02*
X180819000Y-110753000D01*
X180819000Y-110753000D02*
X181381500Y-111315500D01*
X181512700Y-108873500D02*
X180819000Y-109567200D01*
X181229000Y-112506999D02*
X181229000Y-113632000D01*
X180819000Y-112096999D02*
X181229000Y-112506999D01*
X180819000Y-111878000D02*
X180819000Y-112096999D01*
X181381500Y-111315500D02*
X180819000Y-111878000D01*
%TO.N,SPI6_MOSI_-*%
X160663000Y-136156000D02*
X161088000Y-136581000D01*
X170049500Y-125607200D02*
X160663000Y-134993700D01*
X170049500Y-122292000D02*
X170049500Y-125607200D01*
X160663000Y-134993700D02*
X160663000Y-136156000D01*
X170612000Y-121729500D02*
X170049500Y-122292000D01*
X170049500Y-121167000D02*
X170612000Y-121729500D01*
X170049500Y-117923700D02*
X170049500Y-121167000D01*
X171797200Y-116176000D02*
X170049500Y-117923700D01*
X172339000Y-117906999D02*
X172749000Y-117496999D01*
X172339000Y-119032000D02*
X172339000Y-117906999D01*
X172749000Y-117496999D02*
X172749000Y-116615700D01*
X172749000Y-116615700D02*
X172309300Y-116176000D01*
X172309300Y-116176000D02*
X171797200Y-116176000D01*
%TO.N,SPI6_SCK_+*%
X178689000Y-117906999D02*
X179099000Y-117496999D01*
X178689000Y-119032000D02*
X178689000Y-117906999D01*
X179099000Y-117496999D02*
X179099000Y-116683300D01*
X179099000Y-116683300D02*
X179675300Y-116107000D01*
X179675300Y-116107000D02*
X182338200Y-116107000D01*
X182338200Y-116107000D02*
X183105000Y-116873800D01*
X183105000Y-116873800D02*
X183105000Y-119917700D01*
X180302000Y-123698000D02*
X179739500Y-123135500D01*
X179739500Y-123135500D02*
X179739500Y-122711700D01*
X179739500Y-122711700D02*
X180687200Y-121764000D01*
X181258700Y-121764000D02*
X183105000Y-119917700D01*
X180687200Y-121764000D02*
X181258700Y-121764000D01*
X171924200Y-142147500D02*
X165006800Y-142147500D01*
X174088000Y-139983700D02*
X171924200Y-142147500D01*
X174088000Y-133443200D02*
X174088000Y-139983700D01*
X179739500Y-127791700D02*
X174088000Y-133443200D01*
X179739500Y-124260500D02*
X179739500Y-127791700D01*
X180302000Y-123698000D02*
X179739500Y-124260500D01*
X161738000Y-138501000D02*
X162163000Y-138926000D01*
X162163000Y-139303700D02*
X165006800Y-142147500D01*
X162163000Y-138926000D02*
X162163000Y-139303700D01*
%TO.N,SPI6_MOSI_+*%
X160213000Y-136156000D02*
X159788000Y-136581000D01*
X160213000Y-134807300D02*
X160213000Y-136156000D01*
X169599500Y-125420800D02*
X160213000Y-134807300D01*
X169599500Y-122292000D02*
X169599500Y-125420800D01*
X169037000Y-121729500D02*
X169599500Y-122292000D01*
X173609000Y-119032000D02*
X173609000Y-117906999D01*
X169599500Y-121167000D02*
X169037000Y-121729500D01*
X173199000Y-117496999D02*
X173199000Y-116429300D01*
X173199000Y-116429300D02*
X172495700Y-115726000D01*
X171610800Y-115726000D02*
X169599500Y-117737300D01*
X173609000Y-117906999D02*
X173199000Y-117496999D01*
X172495700Y-115726000D02*
X171610800Y-115726000D01*
X169599500Y-117737300D02*
X169599500Y-121167000D01*
%TO.N,SPI6_MISO_-*%
X161353500Y-107660000D02*
X161353500Y-108110000D01*
X161763500Y-107250000D02*
X161353500Y-107660000D01*
X161763500Y-106900200D02*
X161763500Y-107250000D01*
X161133300Y-106270000D02*
X161763500Y-106900200D01*
X159478200Y-106270000D02*
X161133300Y-106270000D01*
X156562000Y-109186200D02*
X159478200Y-106270000D01*
X159138000Y-138341002D02*
X156562000Y-135765002D01*
X156562000Y-135765002D02*
X156562000Y-109186200D01*
X159138000Y-138501000D02*
X159138000Y-138341002D01*
%TO.N,SPI6_MISO_+*%
X162623500Y-107660000D02*
X162623500Y-108110000D01*
X162213500Y-107250000D02*
X162623500Y-107660000D01*
X162213500Y-106713800D02*
X162213500Y-107250000D01*
X161319700Y-105820000D02*
X162213500Y-106713800D01*
X159291800Y-105820000D02*
X161319700Y-105820000D01*
X156112000Y-108999800D02*
X159291800Y-105820000D01*
X156112000Y-135880700D02*
X156112000Y-108999800D01*
X157838000Y-137606700D02*
X156112000Y-135880700D01*
X157838000Y-138501000D02*
X157838000Y-137606700D01*
D16*
%TO.N,SPI6_MISO*%
X160083500Y-109918500D02*
X160083500Y-108110000D01*
%TO.N,SPI6_SCK*%
X177419000Y-116903500D02*
X177419000Y-119032000D01*
%TO.N,SPI6_nSS*%
X178689000Y-110236000D02*
X178689000Y-113632000D01*
%TO.N,SPI6_MOSI*%
X174879000Y-120078500D02*
X174879000Y-119032000D01*
X173545500Y-121412000D02*
X174879000Y-120078500D01*
%TD*%
D18*
%TO.N,GND*%
X166127512Y-95727496D02*
X167844612Y-95944584D01*
X169536248Y-96310499D01*
X171189557Y-96822459D01*
X172791964Y-97476569D01*
X174331260Y-98267847D01*
X175795728Y-99190271D01*
X177174224Y-100236816D01*
X178456268Y-101399528D01*
X179632106Y-102669563D01*
X180692764Y-104037228D01*
X181630191Y-105492139D01*
X182437249Y-107023220D01*
X182908696Y-108145050D01*
X182692958Y-107929312D01*
X182669938Y-107901262D01*
X182558020Y-107809413D01*
X182430333Y-107741163D01*
X182291785Y-107699135D01*
X182183805Y-107688500D01*
X182147700Y-107684944D01*
X182111595Y-107688500D01*
X181362405Y-107688500D01*
X181326300Y-107684944D01*
X181182215Y-107699135D01*
X181043666Y-107741163D01*
X180973582Y-107778624D01*
X180915980Y-107809413D01*
X180804062Y-107901262D01*
X180781046Y-107929307D01*
X179874808Y-108835546D01*
X179846762Y-108858563D01*
X179754913Y-108970481D01*
X179686663Y-109098168D01*
X179663034Y-109176062D01*
X179644635Y-109236715D01*
X179630444Y-109380800D01*
X179634000Y-109416906D01*
X179634000Y-109812847D01*
X179606205Y-109745744D01*
X179492937Y-109576226D01*
X179348774Y-109432063D01*
X179179256Y-109318795D01*
X178990898Y-109240774D01*
X178790939Y-109201000D01*
X178587061Y-109201000D01*
X178387102Y-109240774D01*
X178198744Y-109318795D01*
X178029226Y-109432063D01*
X177885063Y-109576226D01*
X177771795Y-109745744D01*
X177693774Y-109934102D01*
X177654000Y-110134061D01*
X177654000Y-110337939D01*
X177693774Y-110537898D01*
X177771795Y-110726256D01*
X177885063Y-110895774D01*
X177929000Y-110939711D01*
X177929001Y-112282130D01*
X177843482Y-112256188D01*
X177719000Y-112243928D01*
X177704750Y-112247000D01*
X177546000Y-112405750D01*
X177546000Y-113505000D01*
X177566000Y-113505000D01*
X177566000Y-113759000D01*
X177546000Y-113759000D01*
X177546000Y-114858250D01*
X177704750Y-115017000D01*
X177719000Y-115020072D01*
X177843482Y-115007812D01*
X177963180Y-114971502D01*
X178054000Y-114922957D01*
X178144820Y-114971502D01*
X178264518Y-115007812D01*
X178389000Y-115020072D01*
X178989000Y-115020072D01*
X179113482Y-115007812D01*
X179233180Y-114971502D01*
X179324000Y-114922957D01*
X179414820Y-114971502D01*
X179534518Y-115007812D01*
X179659000Y-115020072D01*
X180259000Y-115020072D01*
X180383482Y-115007812D01*
X180503180Y-114971502D01*
X180594000Y-114922957D01*
X180684820Y-114971502D01*
X180804518Y-115007812D01*
X180929000Y-115020072D01*
X181529000Y-115020072D01*
X181653482Y-115007812D01*
X181773180Y-114971502D01*
X181883494Y-114912537D01*
X181980185Y-114833185D01*
X182059537Y-114736494D01*
X182118502Y-114626180D01*
X182154812Y-114506482D01*
X182167072Y-114382000D01*
X182167072Y-113873567D01*
X182182244Y-113883705D01*
X182370602Y-113961726D01*
X182570561Y-114001500D01*
X182774439Y-114001500D01*
X182974398Y-113961726D01*
X183162756Y-113883705D01*
X183197500Y-113860490D01*
X183232244Y-113883705D01*
X183420602Y-113961726D01*
X183620561Y-114001500D01*
X183824439Y-114001500D01*
X184024398Y-113961726D01*
X184212756Y-113883705D01*
X184263538Y-113849773D01*
X184339111Y-115398035D01*
X184272504Y-117127513D01*
X184055416Y-118844614D01*
X183840000Y-119840487D01*
X183840000Y-116909905D01*
X183843556Y-116873800D01*
X183829365Y-116729715D01*
X183820680Y-116701085D01*
X183787337Y-116591167D01*
X183719087Y-116463480D01*
X183661405Y-116393195D01*
X183650253Y-116379606D01*
X183650250Y-116379603D01*
X183627237Y-116351562D01*
X183599197Y-116328550D01*
X182883458Y-115612812D01*
X182860438Y-115584762D01*
X182748520Y-115492913D01*
X182620833Y-115424663D01*
X182482285Y-115382635D01*
X182374305Y-115372000D01*
X182338200Y-115368444D01*
X182302095Y-115372000D01*
X179711394Y-115372000D01*
X179675299Y-115368445D01*
X179639204Y-115372000D01*
X179639195Y-115372000D01*
X179531215Y-115382635D01*
X179392667Y-115424663D01*
X179264980Y-115492913D01*
X179153062Y-115584762D01*
X179130046Y-115612807D01*
X178604808Y-116138046D01*
X178576763Y-116161062D01*
X178484914Y-116272980D01*
X178449045Y-116340087D01*
X178416664Y-116400667D01*
X178380448Y-116520054D01*
X178336205Y-116413244D01*
X178222937Y-116243726D01*
X178078774Y-116099563D01*
X177909256Y-115986295D01*
X177720898Y-115908274D01*
X177520939Y-115868500D01*
X177317061Y-115868500D01*
X177117102Y-115908274D01*
X176928744Y-115986295D01*
X176759226Y-116099563D01*
X176615063Y-116243726D01*
X176501795Y-116413244D01*
X176495278Y-116428976D01*
X175086373Y-115020072D01*
X175179000Y-115020072D01*
X175303482Y-115007812D01*
X175423180Y-114971502D01*
X175514000Y-114922957D01*
X175604820Y-114971502D01*
X175724518Y-115007812D01*
X175849000Y-115020072D01*
X176449000Y-115020072D01*
X176573482Y-115007812D01*
X176693180Y-114971502D01*
X176784000Y-114922957D01*
X176874820Y-114971502D01*
X176994518Y-115007812D01*
X177119000Y-115020072D01*
X177133250Y-115017000D01*
X177292000Y-114858250D01*
X177292000Y-113759000D01*
X177272000Y-113759000D01*
X177272000Y-113505000D01*
X177292000Y-113505000D01*
X177292000Y-112405750D01*
X177133250Y-112247000D01*
X177119000Y-112243928D01*
X176994518Y-112256188D01*
X176874820Y-112292498D01*
X176784000Y-112341043D01*
X176693180Y-112292498D01*
X176573482Y-112256188D01*
X176449000Y-112243928D01*
X175849000Y-112243928D01*
X175724518Y-112256188D01*
X175604820Y-112292498D01*
X175514000Y-112341043D01*
X175423180Y-112292498D01*
X175303482Y-112256188D01*
X175179000Y-112243928D01*
X174625156Y-112243928D01*
X174718494Y-112194037D01*
X174815185Y-112114685D01*
X174894537Y-112017994D01*
X174953502Y-111907680D01*
X174989812Y-111787982D01*
X175002072Y-111663500D01*
X174999000Y-111474250D01*
X174840250Y-111315500D01*
X174053500Y-111315500D01*
X174053500Y-111335500D01*
X173799500Y-111335500D01*
X173799500Y-111315500D01*
X173779500Y-111315500D01*
X173779500Y-111061500D01*
X173799500Y-111061500D01*
X173799500Y-110237250D01*
X174053500Y-110237250D01*
X174053500Y-111061500D01*
X174840250Y-111061500D01*
X174999000Y-110902750D01*
X175002072Y-110713500D01*
X174989812Y-110589018D01*
X174953502Y-110469320D01*
X174894537Y-110359006D01*
X174815185Y-110262315D01*
X174718494Y-110182963D01*
X174608180Y-110123998D01*
X174488482Y-110087688D01*
X174364000Y-110075428D01*
X174212250Y-110078500D01*
X174053500Y-110237250D01*
X173799500Y-110237250D01*
X173640750Y-110078500D01*
X173489000Y-110075428D01*
X173399548Y-110084238D01*
X173437500Y-109893439D01*
X173437500Y-109689561D01*
X173397726Y-109489602D01*
X173319705Y-109301244D01*
X173206437Y-109131726D01*
X173062274Y-108987563D01*
X172892756Y-108874295D01*
X172704398Y-108796274D01*
X172504439Y-108756500D01*
X172300561Y-108756500D01*
X172100602Y-108796274D01*
X171912244Y-108874295D01*
X171742726Y-108987563D01*
X171598563Y-109131726D01*
X171485295Y-109301244D01*
X171407274Y-109489602D01*
X171367500Y-109689561D01*
X171367500Y-109893439D01*
X171407274Y-110093398D01*
X171485295Y-110281756D01*
X171520397Y-110334290D01*
X171420329Y-110456225D01*
X171341150Y-110604358D01*
X171292392Y-110765092D01*
X171275928Y-110932250D01*
X171275928Y-111444750D01*
X171292392Y-111611908D01*
X171341150Y-111772642D01*
X171420329Y-111920775D01*
X171526885Y-112050615D01*
X171579001Y-112093385D01*
X171579000Y-112441556D01*
X171508463Y-112527506D01*
X171449498Y-112637820D01*
X171413188Y-112757518D01*
X171400928Y-112882000D01*
X171400928Y-114236715D01*
X171381726Y-114234824D01*
X171344403Y-114238500D01*
X171344394Y-114238500D01*
X171232741Y-114249497D01*
X171089480Y-114292954D01*
X170957451Y-114363526D01*
X170957449Y-114363527D01*
X170957450Y-114363527D01*
X170870723Y-114434701D01*
X170870719Y-114434705D01*
X170841726Y-114458499D01*
X170817932Y-114487492D01*
X168953966Y-116351460D01*
X168891828Y-116351460D01*
X168691869Y-116391234D01*
X168503511Y-116469255D01*
X168333993Y-116582523D01*
X168189830Y-116726686D01*
X168076562Y-116896204D01*
X167998541Y-117084562D01*
X167958767Y-117284521D01*
X167958767Y-117488399D01*
X167998541Y-117688358D01*
X168076562Y-117876716D01*
X168189830Y-118046234D01*
X168333993Y-118190397D01*
X168503511Y-118303665D01*
X168691869Y-118381686D01*
X168864500Y-118416024D01*
X168864501Y-120616428D01*
X168818250Y-120616428D01*
X168651092Y-120632892D01*
X168490358Y-120681650D01*
X168342225Y-120760829D01*
X168212385Y-120867385D01*
X168105829Y-120997225D01*
X168026650Y-121145358D01*
X167977892Y-121306092D01*
X167961428Y-121473250D01*
X167961428Y-121985750D01*
X167977892Y-122152908D01*
X168026650Y-122313642D01*
X168105829Y-122461775D01*
X168212385Y-122591615D01*
X168342225Y-122698171D01*
X168490358Y-122777350D01*
X168651092Y-122826108D01*
X168818250Y-122842572D01*
X168864500Y-122842572D01*
X168864501Y-125116352D01*
X159718808Y-134262046D01*
X159690762Y-134285063D01*
X159598913Y-134396981D01*
X159530663Y-134524668D01*
X159512853Y-134583380D01*
X159488635Y-134663215D01*
X159474444Y-134807300D01*
X159478000Y-134843406D01*
X159478001Y-135536406D01*
X159471517Y-135537696D01*
X159274060Y-135619485D01*
X159096353Y-135738225D01*
X159044021Y-135790557D01*
X159021725Y-135630325D01*
X158826003Y-135544468D01*
X158617290Y-135498444D01*
X158403610Y-135494021D01*
X158193172Y-135531371D01*
X157994064Y-135609057D01*
X157954275Y-135630325D01*
X157925283Y-135838678D01*
X158488000Y-136401395D01*
X158502143Y-136387253D01*
X158681748Y-136566858D01*
X158667605Y-136581000D01*
X158681748Y-136595143D01*
X158556667Y-136720223D01*
X157297000Y-135460556D01*
X157297000Y-109490646D01*
X159145428Y-107642219D01*
X159145428Y-108860000D01*
X159157688Y-108984482D01*
X159193998Y-109104180D01*
X159252963Y-109214494D01*
X159284891Y-109253398D01*
X159279563Y-109258726D01*
X159166295Y-109428244D01*
X159088274Y-109616602D01*
X159048500Y-109816561D01*
X159048500Y-110020439D01*
X159088274Y-110220398D01*
X159166295Y-110408756D01*
X159279563Y-110578274D01*
X159423726Y-110722437D01*
X159593244Y-110835705D01*
X159781602Y-110913726D01*
X159981561Y-110953500D01*
X160185439Y-110953500D01*
X160385398Y-110913726D01*
X160573756Y-110835705D01*
X160743274Y-110722437D01*
X160887437Y-110578274D01*
X161000705Y-110408756D01*
X161078726Y-110220398D01*
X161118500Y-110020439D01*
X161118500Y-109816561D01*
X161078726Y-109616602D01*
X161028614Y-109495621D01*
X161053500Y-109498072D01*
X161653500Y-109498072D01*
X161777982Y-109485812D01*
X161897680Y-109449502D01*
X161988500Y-109400957D01*
X162079320Y-109449502D01*
X162199018Y-109485812D01*
X162323500Y-109498072D01*
X162923500Y-109498072D01*
X163047982Y-109485812D01*
X163167680Y-109449502D01*
X163258500Y-109400957D01*
X163349320Y-109449502D01*
X163469018Y-109485812D01*
X163593500Y-109498072D01*
X164193500Y-109498072D01*
X164317982Y-109485812D01*
X164437680Y-109449502D01*
X164528500Y-109400957D01*
X164619320Y-109449502D01*
X164739018Y-109485812D01*
X164863500Y-109498072D01*
X165463500Y-109498072D01*
X165587982Y-109485812D01*
X165707680Y-109449502D01*
X165798500Y-109400957D01*
X165889320Y-109449502D01*
X166009018Y-109485812D01*
X166133500Y-109498072D01*
X166733500Y-109498072D01*
X166857982Y-109485812D01*
X166977680Y-109449502D01*
X167068500Y-109400957D01*
X167159320Y-109449502D01*
X167279018Y-109485812D01*
X167403500Y-109498072D01*
X168003500Y-109498072D01*
X168127982Y-109485812D01*
X168247680Y-109449502D01*
X168338500Y-109400957D01*
X168429320Y-109449502D01*
X168549018Y-109485812D01*
X168673500Y-109498072D01*
X168687750Y-109495000D01*
X168846500Y-109336250D01*
X168846500Y-108237000D01*
X169100500Y-108237000D01*
X169100500Y-109336250D01*
X169259250Y-109495000D01*
X169273500Y-109498072D01*
X169397982Y-109485812D01*
X169517680Y-109449502D01*
X169627994Y-109390537D01*
X169724685Y-109311185D01*
X169804037Y-109214494D01*
X169863002Y-109104180D01*
X169899312Y-108984482D01*
X169911572Y-108860000D01*
X169908500Y-108395750D01*
X169749750Y-108237000D01*
X169100500Y-108237000D01*
X168846500Y-108237000D01*
X168826500Y-108237000D01*
X168826500Y-107983000D01*
X168846500Y-107983000D01*
X168846500Y-106883750D01*
X169100500Y-106883750D01*
X169100500Y-107983000D01*
X169749750Y-107983000D01*
X169908500Y-107824250D01*
X169911572Y-107360000D01*
X169899312Y-107235518D01*
X169863002Y-107115820D01*
X169804037Y-107005506D01*
X169724685Y-106908815D01*
X169627994Y-106829463D01*
X169517680Y-106770498D01*
X169397982Y-106734188D01*
X169273500Y-106721928D01*
X169259250Y-106725000D01*
X169100500Y-106883750D01*
X168846500Y-106883750D01*
X168687750Y-106725000D01*
X168673500Y-106721928D01*
X168549018Y-106734188D01*
X168429320Y-106770498D01*
X168338500Y-106819043D01*
X168247680Y-106770498D01*
X168127982Y-106734188D01*
X168003500Y-106721928D01*
X167403500Y-106721928D01*
X167279018Y-106734188D01*
X167159320Y-106770498D01*
X167068500Y-106819043D01*
X166977680Y-106770498D01*
X166857982Y-106734188D01*
X166733500Y-106721928D01*
X166133500Y-106721928D01*
X166009018Y-106734188D01*
X165889320Y-106770498D01*
X165798500Y-106819043D01*
X165707680Y-106770498D01*
X165587982Y-106734188D01*
X165463500Y-106721928D01*
X164863500Y-106721928D01*
X164739018Y-106734188D01*
X164619320Y-106770498D01*
X164577877Y-106792650D01*
X164528474Y-106700224D01*
X164433501Y-106584499D01*
X164404503Y-106560701D01*
X162679304Y-104835503D01*
X162655501Y-104806499D01*
X162539776Y-104711526D01*
X162407747Y-104640954D01*
X162264486Y-104597497D01*
X162152833Y-104586500D01*
X162152822Y-104586500D01*
X162115500Y-104582824D01*
X162078178Y-104586500D01*
X161858802Y-104586500D01*
X161527551Y-104255249D01*
X173015000Y-104255249D01*
X173015000Y-104744751D01*
X173110497Y-105224848D01*
X173297821Y-105677089D01*
X173569774Y-106084095D01*
X173915905Y-106430226D01*
X174322911Y-106702179D01*
X174775152Y-106889503D01*
X175255249Y-106985000D01*
X175744751Y-106985000D01*
X176224848Y-106889503D01*
X176677089Y-106702179D01*
X177084095Y-106430226D01*
X177430226Y-106084095D01*
X177702179Y-105677089D01*
X177889503Y-105224848D01*
X177985000Y-104744751D01*
X177985000Y-104255249D01*
X177889503Y-103775152D01*
X177702179Y-103322911D01*
X177430226Y-102915905D01*
X177084095Y-102569774D01*
X176677089Y-102297821D01*
X176224848Y-102110497D01*
X175744751Y-102015000D01*
X175255249Y-102015000D01*
X174775152Y-102110497D01*
X174322911Y-102297821D01*
X173915905Y-102569774D01*
X173569774Y-102915905D01*
X173297821Y-103322911D01*
X173110497Y-103775152D01*
X173015000Y-104255249D01*
X161527551Y-104255249D01*
X161370374Y-104098072D01*
X161653500Y-104098072D01*
X161777982Y-104085812D01*
X161897680Y-104049502D01*
X161988500Y-104000957D01*
X162079320Y-104049502D01*
X162199018Y-104085812D01*
X162323500Y-104098072D01*
X162923500Y-104098072D01*
X163047982Y-104085812D01*
X163167680Y-104049502D01*
X163258500Y-104000957D01*
X163349320Y-104049502D01*
X163469018Y-104085812D01*
X163593500Y-104098072D01*
X164193500Y-104098072D01*
X164317982Y-104085812D01*
X164437680Y-104049502D01*
X164528500Y-104000957D01*
X164619320Y-104049502D01*
X164739018Y-104085812D01*
X164863500Y-104098072D01*
X164877750Y-104095000D01*
X165036500Y-103936250D01*
X165036500Y-102837000D01*
X165016500Y-102837000D01*
X165016500Y-102583000D01*
X165036500Y-102583000D01*
X165036500Y-101483750D01*
X165290500Y-101483750D01*
X165290500Y-102583000D01*
X165310500Y-102583000D01*
X165310500Y-102837000D01*
X165290500Y-102837000D01*
X165290500Y-103936250D01*
X165449250Y-104095000D01*
X165463500Y-104098072D01*
X165587982Y-104085812D01*
X165707680Y-104049502D01*
X165798500Y-104000957D01*
X165889320Y-104049502D01*
X166009018Y-104085812D01*
X166133500Y-104098072D01*
X166733500Y-104098072D01*
X166857982Y-104085812D01*
X166977680Y-104049502D01*
X167068500Y-104000957D01*
X167159320Y-104049502D01*
X167279018Y-104085812D01*
X167403500Y-104098072D01*
X168003500Y-104098072D01*
X168127982Y-104085812D01*
X168247680Y-104049502D01*
X168338500Y-104000957D01*
X168429320Y-104049502D01*
X168549018Y-104085812D01*
X168673500Y-104098072D01*
X169273500Y-104098072D01*
X169397982Y-104085812D01*
X169517680Y-104049502D01*
X169627994Y-103990537D01*
X169724685Y-103911185D01*
X169804037Y-103814494D01*
X169863002Y-103704180D01*
X169899312Y-103584482D01*
X169911572Y-103460000D01*
X169911572Y-101960000D01*
X169899312Y-101835518D01*
X169863002Y-101715820D01*
X169804037Y-101605506D01*
X169724685Y-101508815D01*
X169627994Y-101429463D01*
X169517680Y-101370498D01*
X169397982Y-101334188D01*
X169273500Y-101321928D01*
X168673500Y-101321928D01*
X168549018Y-101334188D01*
X168429320Y-101370498D01*
X168338500Y-101419043D01*
X168247680Y-101370498D01*
X168127982Y-101334188D01*
X168003500Y-101321928D01*
X167403500Y-101321928D01*
X167279018Y-101334188D01*
X167159320Y-101370498D01*
X167068500Y-101419043D01*
X166977680Y-101370498D01*
X166857982Y-101334188D01*
X166733500Y-101321928D01*
X166133500Y-101321928D01*
X166009018Y-101334188D01*
X165889320Y-101370498D01*
X165798500Y-101419043D01*
X165707680Y-101370498D01*
X165587982Y-101334188D01*
X165463500Y-101321928D01*
X165449250Y-101325000D01*
X165290500Y-101483750D01*
X165036500Y-101483750D01*
X164877750Y-101325000D01*
X164863500Y-101321928D01*
X164739018Y-101334188D01*
X164619320Y-101370498D01*
X164528500Y-101419043D01*
X164437680Y-101370498D01*
X164317982Y-101334188D01*
X164193500Y-101321928D01*
X163593500Y-101321928D01*
X163469018Y-101334188D01*
X163349320Y-101370498D01*
X163258500Y-101419043D01*
X163167680Y-101370498D01*
X163047982Y-101334188D01*
X162923500Y-101321928D01*
X162323500Y-101321928D01*
X162199018Y-101334188D01*
X162079320Y-101370498D01*
X161988500Y-101419043D01*
X161897680Y-101370498D01*
X161777982Y-101334188D01*
X161653500Y-101321928D01*
X161053500Y-101321928D01*
X160929018Y-101334188D01*
X160843500Y-101360130D01*
X160843500Y-100925398D01*
X160879006Y-100954537D01*
X160989320Y-101013502D01*
X161109018Y-101049812D01*
X161233500Y-101062072D01*
X161385250Y-101059000D01*
X161544000Y-100900250D01*
X161544000Y-100076000D01*
X161798000Y-100076000D01*
X161798000Y-100900250D01*
X161956750Y-101059000D01*
X162108500Y-101062072D01*
X162232982Y-101049812D01*
X162352680Y-101013502D01*
X162462994Y-100954537D01*
X162559685Y-100875185D01*
X162639037Y-100778494D01*
X162698002Y-100668180D01*
X162734312Y-100548482D01*
X162746572Y-100424000D01*
X162743500Y-100234750D01*
X162584750Y-100076000D01*
X161798000Y-100076000D01*
X161544000Y-100076000D01*
X161524000Y-100076000D01*
X161524000Y-99822000D01*
X161544000Y-99822000D01*
X161544000Y-98997750D01*
X161798000Y-98997750D01*
X161798000Y-99822000D01*
X162584750Y-99822000D01*
X162743500Y-99663250D01*
X162746572Y-99474000D01*
X162734312Y-99349518D01*
X162698002Y-99229820D01*
X162639037Y-99119506D01*
X162559685Y-99022815D01*
X162462994Y-98943463D01*
X162352680Y-98884498D01*
X162232982Y-98848188D01*
X162108500Y-98835928D01*
X161956750Y-98839000D01*
X161798000Y-98997750D01*
X161544000Y-98997750D01*
X161385250Y-98839000D01*
X161233500Y-98835928D01*
X161109018Y-98848188D01*
X160989320Y-98884498D01*
X160879006Y-98943463D01*
X160856000Y-98962343D01*
X160856000Y-98941753D01*
X160873705Y-98915256D01*
X160951726Y-98726898D01*
X160991500Y-98526939D01*
X160991500Y-98323061D01*
X160951726Y-98123102D01*
X160873705Y-97934744D01*
X160760437Y-97765226D01*
X160616274Y-97621063D01*
X160446756Y-97507795D01*
X160258398Y-97429774D01*
X160058439Y-97390000D01*
X159854561Y-97390000D01*
X159654602Y-97429774D01*
X159466244Y-97507795D01*
X159296726Y-97621063D01*
X159152563Y-97765226D01*
X159039295Y-97934744D01*
X158961274Y-98123102D01*
X158921500Y-98323061D01*
X158921500Y-98526939D01*
X158961274Y-98726898D01*
X159039295Y-98915256D01*
X159152563Y-99084774D01*
X159218777Y-99150988D01*
X159164829Y-99216725D01*
X159085650Y-99364858D01*
X159036892Y-99525592D01*
X159020428Y-99692750D01*
X159020428Y-100205250D01*
X159036892Y-100372408D01*
X159085650Y-100533142D01*
X159164829Y-100681275D01*
X159271385Y-100811115D01*
X159323501Y-100853885D01*
X159323500Y-101519556D01*
X159252963Y-101605506D01*
X159193998Y-101715820D01*
X159157688Y-101835518D01*
X159145428Y-101960000D01*
X159145428Y-103460000D01*
X159157688Y-103584482D01*
X159193998Y-103704180D01*
X159252963Y-103814494D01*
X159320939Y-103897324D01*
X159323500Y-103923322D01*
X159323500Y-103923332D01*
X159334497Y-104034985D01*
X159377598Y-104177074D01*
X159377954Y-104178246D01*
X159448526Y-104310276D01*
X159454070Y-104317031D01*
X159543499Y-104426001D01*
X159572503Y-104449804D01*
X160207699Y-105085000D01*
X159327894Y-105085000D01*
X159291799Y-105081445D01*
X159255704Y-105085000D01*
X159255695Y-105085000D01*
X159147715Y-105095635D01*
X159009167Y-105137663D01*
X158881480Y-105205913D01*
X158769562Y-105297762D01*
X158746546Y-105325807D01*
X155617808Y-108454546D01*
X155589763Y-108477562D01*
X155497914Y-108589480D01*
X155435562Y-108706133D01*
X155429664Y-108717167D01*
X155387635Y-108855715D01*
X155373444Y-108999800D01*
X155377001Y-109035915D01*
X155377000Y-124862679D01*
X155084095Y-124569774D01*
X154677089Y-124297821D01*
X154224848Y-124110497D01*
X153744751Y-124015000D01*
X153255249Y-124015000D01*
X152775152Y-124110497D01*
X152322911Y-124297821D01*
X151915905Y-124569774D01*
X151569774Y-124915905D01*
X151297821Y-125322911D01*
X151110497Y-125775152D01*
X151015000Y-126255249D01*
X151015000Y-126744751D01*
X151110497Y-127224848D01*
X151297821Y-127677089D01*
X151569774Y-128084095D01*
X151915905Y-128430226D01*
X152322911Y-128702179D01*
X152775152Y-128889503D01*
X153255249Y-128985000D01*
X153744751Y-128985000D01*
X154224848Y-128889503D01*
X154677089Y-128702179D01*
X155084095Y-128430226D01*
X155377000Y-128137321D01*
X155377000Y-135844595D01*
X155373444Y-135880700D01*
X155387635Y-136024785D01*
X155394566Y-136047634D01*
X155429663Y-136163332D01*
X155497913Y-136291019D01*
X155589762Y-136402937D01*
X155617808Y-136425954D01*
X156871390Y-137679536D01*
X156857463Y-137696506D01*
X156798498Y-137806820D01*
X156762188Y-137926518D01*
X156749928Y-138051000D01*
X156749928Y-138951000D01*
X156762188Y-139075482D01*
X156771239Y-139105319D01*
X156689445Y-139172445D01*
X156522618Y-139375725D01*
X156398653Y-139607646D01*
X156322317Y-139859294D01*
X156296541Y-140121000D01*
X156322317Y-140382706D01*
X156398653Y-140634354D01*
X156522618Y-140866275D01*
X156689445Y-141069555D01*
X156892725Y-141236382D01*
X157124646Y-141360347D01*
X157376294Y-141436683D01*
X157572421Y-141456000D01*
X159103579Y-141456000D01*
X159299706Y-141436683D01*
X159551354Y-141360347D01*
X159783275Y-141236382D01*
X159986555Y-141069555D01*
X160153382Y-140866275D01*
X160277347Y-140634354D01*
X160353683Y-140382706D01*
X160379459Y-140121000D01*
X160353683Y-139859294D01*
X160277347Y-139607646D01*
X160258559Y-139572497D01*
X160308710Y-139583556D01*
X160522390Y-139587979D01*
X160732828Y-139550629D01*
X160931936Y-139472943D01*
X160971725Y-139451675D01*
X160994021Y-139291443D01*
X161046353Y-139343775D01*
X161224060Y-139462515D01*
X161421517Y-139544304D01*
X161470893Y-139554125D01*
X161480663Y-139586333D01*
X161548913Y-139714020D01*
X161640763Y-139825938D01*
X161668808Y-139848954D01*
X164461546Y-142641693D01*
X164484562Y-142669738D01*
X164558240Y-142730204D01*
X164596480Y-142761587D01*
X164724166Y-142829837D01*
X164862715Y-142871865D01*
X165006800Y-142886056D01*
X165042905Y-142882500D01*
X171888095Y-142882500D01*
X171924200Y-142886056D01*
X171960305Y-142882500D01*
X172068285Y-142871865D01*
X172206833Y-142829837D01*
X172334520Y-142761587D01*
X172446438Y-142669738D01*
X172469458Y-142641688D01*
X174582193Y-140528954D01*
X174610238Y-140505938D01*
X174702087Y-140394020D01*
X174770337Y-140266333D01*
X174812365Y-140127785D01*
X174823000Y-140019805D01*
X174823000Y-140019796D01*
X174826555Y-139983701D01*
X174823000Y-139947606D01*
X174823000Y-133747646D01*
X178409960Y-130160687D01*
X178408184Y-140819567D01*
X176862734Y-141621580D01*
X174916438Y-142456853D01*
X172914187Y-143147342D01*
X170866745Y-143689336D01*
X168785114Y-144079921D01*
X166680458Y-144317004D01*
X164564114Y-144399308D01*
X162447393Y-144326393D01*
X160341728Y-144098651D01*
X158258382Y-143717305D01*
X156208544Y-143184397D01*
X154203263Y-142502802D01*
X152253252Y-141676159D01*
X150711525Y-140884906D01*
X150739081Y-130039258D01*
X150729777Y-129942270D01*
X150692353Y-129817764D01*
X150631360Y-129702952D01*
X150549138Y-129602245D01*
X150533203Y-129589100D01*
X149367900Y-128330443D01*
X148307236Y-126962772D01*
X147369806Y-125507857D01*
X146562749Y-123976776D01*
X145892208Y-122381192D01*
X145363280Y-120733230D01*
X144979994Y-119045433D01*
X144745269Y-117330669D01*
X144660889Y-115601965D01*
X144727496Y-113872488D01*
X144944584Y-112155388D01*
X145310499Y-110463752D01*
X145822459Y-108810443D01*
X146476569Y-107208036D01*
X147267847Y-105668740D01*
X148158162Y-104255249D01*
X151015000Y-104255249D01*
X151015000Y-104744751D01*
X151110497Y-105224848D01*
X151297821Y-105677089D01*
X151569774Y-106084095D01*
X151915905Y-106430226D01*
X152322911Y-106702179D01*
X152775152Y-106889503D01*
X153255249Y-106985000D01*
X153744751Y-106985000D01*
X154224848Y-106889503D01*
X154677089Y-106702179D01*
X155084095Y-106430226D01*
X155430226Y-106084095D01*
X155702179Y-105677089D01*
X155889503Y-105224848D01*
X155985000Y-104744751D01*
X155985000Y-104255249D01*
X155889503Y-103775152D01*
X155702179Y-103322911D01*
X155430226Y-102915905D01*
X155084095Y-102569774D01*
X154677089Y-102297821D01*
X154224848Y-102110497D01*
X153744751Y-102015000D01*
X153255249Y-102015000D01*
X152775152Y-102110497D01*
X152322911Y-102297821D01*
X151915905Y-102569774D01*
X151569774Y-102915905D01*
X151297821Y-103322911D01*
X151110497Y-103775152D01*
X151015000Y-104255249D01*
X148158162Y-104255249D01*
X148190271Y-104204272D01*
X149236816Y-102825776D01*
X150399528Y-101543732D01*
X151669563Y-100367894D01*
X153037228Y-99307236D01*
X154492139Y-98369809D01*
X156023220Y-97562751D01*
X157618808Y-96892208D01*
X159266768Y-96363281D01*
X160954567Y-95979994D01*
X162669331Y-95745269D01*
X164398035Y-95660889D01*
X166127512Y-95727496D01*
%TA.AperFunction,Conductor*%
D19*
G36*
X166127512Y-95727496D02*
G01*
X167844612Y-95944584D01*
X169536248Y-96310499D01*
X171189557Y-96822459D01*
X172791964Y-97476569D01*
X174331260Y-98267847D01*
X175795728Y-99190271D01*
X177174224Y-100236816D01*
X178456268Y-101399528D01*
X179632106Y-102669563D01*
X180692764Y-104037228D01*
X181630191Y-105492139D01*
X182437249Y-107023220D01*
X182908696Y-108145050D01*
X182692958Y-107929312D01*
X182669938Y-107901262D01*
X182558020Y-107809413D01*
X182430333Y-107741163D01*
X182291785Y-107699135D01*
X182183805Y-107688500D01*
X182147700Y-107684944D01*
X182111595Y-107688500D01*
X181362405Y-107688500D01*
X181326300Y-107684944D01*
X181182215Y-107699135D01*
X181043666Y-107741163D01*
X180973582Y-107778624D01*
X180915980Y-107809413D01*
X180804062Y-107901262D01*
X180781046Y-107929307D01*
X179874808Y-108835546D01*
X179846762Y-108858563D01*
X179754913Y-108970481D01*
X179686663Y-109098168D01*
X179663034Y-109176062D01*
X179644635Y-109236715D01*
X179630444Y-109380800D01*
X179634000Y-109416906D01*
X179634000Y-109812847D01*
X179606205Y-109745744D01*
X179492937Y-109576226D01*
X179348774Y-109432063D01*
X179179256Y-109318795D01*
X178990898Y-109240774D01*
X178790939Y-109201000D01*
X178587061Y-109201000D01*
X178387102Y-109240774D01*
X178198744Y-109318795D01*
X178029226Y-109432063D01*
X177885063Y-109576226D01*
X177771795Y-109745744D01*
X177693774Y-109934102D01*
X177654000Y-110134061D01*
X177654000Y-110337939D01*
X177693774Y-110537898D01*
X177771795Y-110726256D01*
X177885063Y-110895774D01*
X177929000Y-110939711D01*
X177929001Y-112282130D01*
X177843482Y-112256188D01*
X177719000Y-112243928D01*
X177704750Y-112247000D01*
X177546000Y-112405750D01*
X177546000Y-113505000D01*
X177566000Y-113505000D01*
X177566000Y-113759000D01*
X177546000Y-113759000D01*
X177546000Y-114858250D01*
X177704750Y-115017000D01*
X177719000Y-115020072D01*
X177843482Y-115007812D01*
X177963180Y-114971502D01*
X178054000Y-114922957D01*
X178144820Y-114971502D01*
X178264518Y-115007812D01*
X178389000Y-115020072D01*
X178989000Y-115020072D01*
X179113482Y-115007812D01*
X179233180Y-114971502D01*
X179324000Y-114922957D01*
X179414820Y-114971502D01*
X179534518Y-115007812D01*
X179659000Y-115020072D01*
X180259000Y-115020072D01*
X180383482Y-115007812D01*
X180503180Y-114971502D01*
X180594000Y-114922957D01*
X180684820Y-114971502D01*
X180804518Y-115007812D01*
X180929000Y-115020072D01*
X181529000Y-115020072D01*
X181653482Y-115007812D01*
X181773180Y-114971502D01*
X181883494Y-114912537D01*
X181980185Y-114833185D01*
X182059537Y-114736494D01*
X182118502Y-114626180D01*
X182154812Y-114506482D01*
X182167072Y-114382000D01*
X182167072Y-113873567D01*
X182182244Y-113883705D01*
X182370602Y-113961726D01*
X182570561Y-114001500D01*
X182774439Y-114001500D01*
X182974398Y-113961726D01*
X183162756Y-113883705D01*
X183197500Y-113860490D01*
X183232244Y-113883705D01*
X183420602Y-113961726D01*
X183620561Y-114001500D01*
X183824439Y-114001500D01*
X184024398Y-113961726D01*
X184212756Y-113883705D01*
X184263538Y-113849773D01*
X184339111Y-115398035D01*
X184272504Y-117127513D01*
X184055416Y-118844614D01*
X183840000Y-119840487D01*
X183840000Y-116909905D01*
X183843556Y-116873800D01*
X183829365Y-116729715D01*
X183820680Y-116701085D01*
X183787337Y-116591167D01*
X183719087Y-116463480D01*
X183661405Y-116393195D01*
X183650253Y-116379606D01*
X183650250Y-116379603D01*
X183627237Y-116351562D01*
X183599197Y-116328550D01*
X182883458Y-115612812D01*
X182860438Y-115584762D01*
X182748520Y-115492913D01*
X182620833Y-115424663D01*
X182482285Y-115382635D01*
X182374305Y-115372000D01*
X182338200Y-115368444D01*
X182302095Y-115372000D01*
X179711394Y-115372000D01*
X179675299Y-115368445D01*
X179639204Y-115372000D01*
X179639195Y-115372000D01*
X179531215Y-115382635D01*
X179392667Y-115424663D01*
X179264980Y-115492913D01*
X179153062Y-115584762D01*
X179130046Y-115612807D01*
X178604808Y-116138046D01*
X178576763Y-116161062D01*
X178484914Y-116272980D01*
X178449045Y-116340087D01*
X178416664Y-116400667D01*
X178380448Y-116520054D01*
X178336205Y-116413244D01*
X178222937Y-116243726D01*
X178078774Y-116099563D01*
X177909256Y-115986295D01*
X177720898Y-115908274D01*
X177520939Y-115868500D01*
X177317061Y-115868500D01*
X177117102Y-115908274D01*
X176928744Y-115986295D01*
X176759226Y-116099563D01*
X176615063Y-116243726D01*
X176501795Y-116413244D01*
X176495278Y-116428976D01*
X175086373Y-115020072D01*
X175179000Y-115020072D01*
X175303482Y-115007812D01*
X175423180Y-114971502D01*
X175514000Y-114922957D01*
X175604820Y-114971502D01*
X175724518Y-115007812D01*
X175849000Y-115020072D01*
X176449000Y-115020072D01*
X176573482Y-115007812D01*
X176693180Y-114971502D01*
X176784000Y-114922957D01*
X176874820Y-114971502D01*
X176994518Y-115007812D01*
X177119000Y-115020072D01*
X177133250Y-115017000D01*
X177292000Y-114858250D01*
X177292000Y-113759000D01*
X177272000Y-113759000D01*
X177272000Y-113505000D01*
X177292000Y-113505000D01*
X177292000Y-112405750D01*
X177133250Y-112247000D01*
X177119000Y-112243928D01*
X176994518Y-112256188D01*
X176874820Y-112292498D01*
X176784000Y-112341043D01*
X176693180Y-112292498D01*
X176573482Y-112256188D01*
X176449000Y-112243928D01*
X175849000Y-112243928D01*
X175724518Y-112256188D01*
X175604820Y-112292498D01*
X175514000Y-112341043D01*
X175423180Y-112292498D01*
X175303482Y-112256188D01*
X175179000Y-112243928D01*
X174625156Y-112243928D01*
X174718494Y-112194037D01*
X174815185Y-112114685D01*
X174894537Y-112017994D01*
X174953502Y-111907680D01*
X174989812Y-111787982D01*
X175002072Y-111663500D01*
X174999000Y-111474250D01*
X174840250Y-111315500D01*
X174053500Y-111315500D01*
X174053500Y-111335500D01*
X173799500Y-111335500D01*
X173799500Y-111315500D01*
X173779500Y-111315500D01*
X173779500Y-111061500D01*
X173799500Y-111061500D01*
X173799500Y-110237250D01*
X174053500Y-110237250D01*
X174053500Y-111061500D01*
X174840250Y-111061500D01*
X174999000Y-110902750D01*
X175002072Y-110713500D01*
X174989812Y-110589018D01*
X174953502Y-110469320D01*
X174894537Y-110359006D01*
X174815185Y-110262315D01*
X174718494Y-110182963D01*
X174608180Y-110123998D01*
X174488482Y-110087688D01*
X174364000Y-110075428D01*
X174212250Y-110078500D01*
X174053500Y-110237250D01*
X173799500Y-110237250D01*
X173640750Y-110078500D01*
X173489000Y-110075428D01*
X173399548Y-110084238D01*
X173437500Y-109893439D01*
X173437500Y-109689561D01*
X173397726Y-109489602D01*
X173319705Y-109301244D01*
X173206437Y-109131726D01*
X173062274Y-108987563D01*
X172892756Y-108874295D01*
X172704398Y-108796274D01*
X172504439Y-108756500D01*
X172300561Y-108756500D01*
X172100602Y-108796274D01*
X171912244Y-108874295D01*
X171742726Y-108987563D01*
X171598563Y-109131726D01*
X171485295Y-109301244D01*
X171407274Y-109489602D01*
X171367500Y-109689561D01*
X171367500Y-109893439D01*
X171407274Y-110093398D01*
X171485295Y-110281756D01*
X171520397Y-110334290D01*
X171420329Y-110456225D01*
X171341150Y-110604358D01*
X171292392Y-110765092D01*
X171275928Y-110932250D01*
X171275928Y-111444750D01*
X171292392Y-111611908D01*
X171341150Y-111772642D01*
X171420329Y-111920775D01*
X171526885Y-112050615D01*
X171579001Y-112093385D01*
X171579000Y-112441556D01*
X171508463Y-112527506D01*
X171449498Y-112637820D01*
X171413188Y-112757518D01*
X171400928Y-112882000D01*
X171400928Y-114236715D01*
X171381726Y-114234824D01*
X171344403Y-114238500D01*
X171344394Y-114238500D01*
X171232741Y-114249497D01*
X171089480Y-114292954D01*
X170957451Y-114363526D01*
X170957449Y-114363527D01*
X170957450Y-114363527D01*
X170870723Y-114434701D01*
X170870719Y-114434705D01*
X170841726Y-114458499D01*
X170817932Y-114487492D01*
X168953966Y-116351460D01*
X168891828Y-116351460D01*
X168691869Y-116391234D01*
X168503511Y-116469255D01*
X168333993Y-116582523D01*
X168189830Y-116726686D01*
X168076562Y-116896204D01*
X167998541Y-117084562D01*
X167958767Y-117284521D01*
X167958767Y-117488399D01*
X167998541Y-117688358D01*
X168076562Y-117876716D01*
X168189830Y-118046234D01*
X168333993Y-118190397D01*
X168503511Y-118303665D01*
X168691869Y-118381686D01*
X168864500Y-118416024D01*
X168864501Y-120616428D01*
X168818250Y-120616428D01*
X168651092Y-120632892D01*
X168490358Y-120681650D01*
X168342225Y-120760829D01*
X168212385Y-120867385D01*
X168105829Y-120997225D01*
X168026650Y-121145358D01*
X167977892Y-121306092D01*
X167961428Y-121473250D01*
X167961428Y-121985750D01*
X167977892Y-122152908D01*
X168026650Y-122313642D01*
X168105829Y-122461775D01*
X168212385Y-122591615D01*
X168342225Y-122698171D01*
X168490358Y-122777350D01*
X168651092Y-122826108D01*
X168818250Y-122842572D01*
X168864500Y-122842572D01*
X168864501Y-125116352D01*
X159718808Y-134262046D01*
X159690762Y-134285063D01*
X159598913Y-134396981D01*
X159530663Y-134524668D01*
X159512853Y-134583380D01*
X159488635Y-134663215D01*
X159474444Y-134807300D01*
X159478000Y-134843406D01*
X159478001Y-135536406D01*
X159471517Y-135537696D01*
X159274060Y-135619485D01*
X159096353Y-135738225D01*
X159044021Y-135790557D01*
X159021725Y-135630325D01*
X158826003Y-135544468D01*
X158617290Y-135498444D01*
X158403610Y-135494021D01*
X158193172Y-135531371D01*
X157994064Y-135609057D01*
X157954275Y-135630325D01*
X157925283Y-135838678D01*
X158488000Y-136401395D01*
X158502143Y-136387253D01*
X158681748Y-136566858D01*
X158667605Y-136581000D01*
X158681748Y-136595143D01*
X158556667Y-136720223D01*
X157297000Y-135460556D01*
X157297000Y-109490646D01*
X159145428Y-107642219D01*
X159145428Y-108860000D01*
X159157688Y-108984482D01*
X159193998Y-109104180D01*
X159252963Y-109214494D01*
X159284891Y-109253398D01*
X159279563Y-109258726D01*
X159166295Y-109428244D01*
X159088274Y-109616602D01*
X159048500Y-109816561D01*
X159048500Y-110020439D01*
X159088274Y-110220398D01*
X159166295Y-110408756D01*
X159279563Y-110578274D01*
X159423726Y-110722437D01*
X159593244Y-110835705D01*
X159781602Y-110913726D01*
X159981561Y-110953500D01*
X160185439Y-110953500D01*
X160385398Y-110913726D01*
X160573756Y-110835705D01*
X160743274Y-110722437D01*
X160887437Y-110578274D01*
X161000705Y-110408756D01*
X161078726Y-110220398D01*
X161118500Y-110020439D01*
X161118500Y-109816561D01*
X161078726Y-109616602D01*
X161028614Y-109495621D01*
X161053500Y-109498072D01*
X161653500Y-109498072D01*
X161777982Y-109485812D01*
X161897680Y-109449502D01*
X161988500Y-109400957D01*
X162079320Y-109449502D01*
X162199018Y-109485812D01*
X162323500Y-109498072D01*
X162923500Y-109498072D01*
X163047982Y-109485812D01*
X163167680Y-109449502D01*
X163258500Y-109400957D01*
X163349320Y-109449502D01*
X163469018Y-109485812D01*
X163593500Y-109498072D01*
X164193500Y-109498072D01*
X164317982Y-109485812D01*
X164437680Y-109449502D01*
X164528500Y-109400957D01*
X164619320Y-109449502D01*
X164739018Y-109485812D01*
X164863500Y-109498072D01*
X165463500Y-109498072D01*
X165587982Y-109485812D01*
X165707680Y-109449502D01*
X165798500Y-109400957D01*
X165889320Y-109449502D01*
X166009018Y-109485812D01*
X166133500Y-109498072D01*
X166733500Y-109498072D01*
X166857982Y-109485812D01*
X166977680Y-109449502D01*
X167068500Y-109400957D01*
X167159320Y-109449502D01*
X167279018Y-109485812D01*
X167403500Y-109498072D01*
X168003500Y-109498072D01*
X168127982Y-109485812D01*
X168247680Y-109449502D01*
X168338500Y-109400957D01*
X168429320Y-109449502D01*
X168549018Y-109485812D01*
X168673500Y-109498072D01*
X168687750Y-109495000D01*
X168846500Y-109336250D01*
X168846500Y-108237000D01*
X169100500Y-108237000D01*
X169100500Y-109336250D01*
X169259250Y-109495000D01*
X169273500Y-109498072D01*
X169397982Y-109485812D01*
X169517680Y-109449502D01*
X169627994Y-109390537D01*
X169724685Y-109311185D01*
X169804037Y-109214494D01*
X169863002Y-109104180D01*
X169899312Y-108984482D01*
X169911572Y-108860000D01*
X169908500Y-108395750D01*
X169749750Y-108237000D01*
X169100500Y-108237000D01*
X168846500Y-108237000D01*
X168826500Y-108237000D01*
X168826500Y-107983000D01*
X168846500Y-107983000D01*
X168846500Y-106883750D01*
X169100500Y-106883750D01*
X169100500Y-107983000D01*
X169749750Y-107983000D01*
X169908500Y-107824250D01*
X169911572Y-107360000D01*
X169899312Y-107235518D01*
X169863002Y-107115820D01*
X169804037Y-107005506D01*
X169724685Y-106908815D01*
X169627994Y-106829463D01*
X169517680Y-106770498D01*
X169397982Y-106734188D01*
X169273500Y-106721928D01*
X169259250Y-106725000D01*
X169100500Y-106883750D01*
X168846500Y-106883750D01*
X168687750Y-106725000D01*
X168673500Y-106721928D01*
X168549018Y-106734188D01*
X168429320Y-106770498D01*
X168338500Y-106819043D01*
X168247680Y-106770498D01*
X168127982Y-106734188D01*
X168003500Y-106721928D01*
X167403500Y-106721928D01*
X167279018Y-106734188D01*
X167159320Y-106770498D01*
X167068500Y-106819043D01*
X166977680Y-106770498D01*
X166857982Y-106734188D01*
X166733500Y-106721928D01*
X166133500Y-106721928D01*
X166009018Y-106734188D01*
X165889320Y-106770498D01*
X165798500Y-106819043D01*
X165707680Y-106770498D01*
X165587982Y-106734188D01*
X165463500Y-106721928D01*
X164863500Y-106721928D01*
X164739018Y-106734188D01*
X164619320Y-106770498D01*
X164577877Y-106792650D01*
X164528474Y-106700224D01*
X164433501Y-106584499D01*
X164404503Y-106560701D01*
X162679304Y-104835503D01*
X162655501Y-104806499D01*
X162539776Y-104711526D01*
X162407747Y-104640954D01*
X162264486Y-104597497D01*
X162152833Y-104586500D01*
X162152822Y-104586500D01*
X162115500Y-104582824D01*
X162078178Y-104586500D01*
X161858802Y-104586500D01*
X161527551Y-104255249D01*
X173015000Y-104255249D01*
X173015000Y-104744751D01*
X173110497Y-105224848D01*
X173297821Y-105677089D01*
X173569774Y-106084095D01*
X173915905Y-106430226D01*
X174322911Y-106702179D01*
X174775152Y-106889503D01*
X175255249Y-106985000D01*
X175744751Y-106985000D01*
X176224848Y-106889503D01*
X176677089Y-106702179D01*
X177084095Y-106430226D01*
X177430226Y-106084095D01*
X177702179Y-105677089D01*
X177889503Y-105224848D01*
X177985000Y-104744751D01*
X177985000Y-104255249D01*
X177889503Y-103775152D01*
X177702179Y-103322911D01*
X177430226Y-102915905D01*
X177084095Y-102569774D01*
X176677089Y-102297821D01*
X176224848Y-102110497D01*
X175744751Y-102015000D01*
X175255249Y-102015000D01*
X174775152Y-102110497D01*
X174322911Y-102297821D01*
X173915905Y-102569774D01*
X173569774Y-102915905D01*
X173297821Y-103322911D01*
X173110497Y-103775152D01*
X173015000Y-104255249D01*
X161527551Y-104255249D01*
X161370374Y-104098072D01*
X161653500Y-104098072D01*
X161777982Y-104085812D01*
X161897680Y-104049502D01*
X161988500Y-104000957D01*
X162079320Y-104049502D01*
X162199018Y-104085812D01*
X162323500Y-104098072D01*
X162923500Y-104098072D01*
X163047982Y-104085812D01*
X163167680Y-104049502D01*
X163258500Y-104000957D01*
X163349320Y-104049502D01*
X163469018Y-104085812D01*
X163593500Y-104098072D01*
X164193500Y-104098072D01*
X164317982Y-104085812D01*
X164437680Y-104049502D01*
X164528500Y-104000957D01*
X164619320Y-104049502D01*
X164739018Y-104085812D01*
X164863500Y-104098072D01*
X164877750Y-104095000D01*
X165036500Y-103936250D01*
X165036500Y-102837000D01*
X165016500Y-102837000D01*
X165016500Y-102583000D01*
X165036500Y-102583000D01*
X165036500Y-101483750D01*
X165290500Y-101483750D01*
X165290500Y-102583000D01*
X165310500Y-102583000D01*
X165310500Y-102837000D01*
X165290500Y-102837000D01*
X165290500Y-103936250D01*
X165449250Y-104095000D01*
X165463500Y-104098072D01*
X165587982Y-104085812D01*
X165707680Y-104049502D01*
X165798500Y-104000957D01*
X165889320Y-104049502D01*
X166009018Y-104085812D01*
X166133500Y-104098072D01*
X166733500Y-104098072D01*
X166857982Y-104085812D01*
X166977680Y-104049502D01*
X167068500Y-104000957D01*
X167159320Y-104049502D01*
X167279018Y-104085812D01*
X167403500Y-104098072D01*
X168003500Y-104098072D01*
X168127982Y-104085812D01*
X168247680Y-104049502D01*
X168338500Y-104000957D01*
X168429320Y-104049502D01*
X168549018Y-104085812D01*
X168673500Y-104098072D01*
X169273500Y-104098072D01*
X169397982Y-104085812D01*
X169517680Y-104049502D01*
X169627994Y-103990537D01*
X169724685Y-103911185D01*
X169804037Y-103814494D01*
X169863002Y-103704180D01*
X169899312Y-103584482D01*
X169911572Y-103460000D01*
X169911572Y-101960000D01*
X169899312Y-101835518D01*
X169863002Y-101715820D01*
X169804037Y-101605506D01*
X169724685Y-101508815D01*
X169627994Y-101429463D01*
X169517680Y-101370498D01*
X169397982Y-101334188D01*
X169273500Y-101321928D01*
X168673500Y-101321928D01*
X168549018Y-101334188D01*
X168429320Y-101370498D01*
X168338500Y-101419043D01*
X168247680Y-101370498D01*
X168127982Y-101334188D01*
X168003500Y-101321928D01*
X167403500Y-101321928D01*
X167279018Y-101334188D01*
X167159320Y-101370498D01*
X167068500Y-101419043D01*
X166977680Y-101370498D01*
X166857982Y-101334188D01*
X166733500Y-101321928D01*
X166133500Y-101321928D01*
X166009018Y-101334188D01*
X165889320Y-101370498D01*
X165798500Y-101419043D01*
X165707680Y-101370498D01*
X165587982Y-101334188D01*
X165463500Y-101321928D01*
X165449250Y-101325000D01*
X165290500Y-101483750D01*
X165036500Y-101483750D01*
X164877750Y-101325000D01*
X164863500Y-101321928D01*
X164739018Y-101334188D01*
X164619320Y-101370498D01*
X164528500Y-101419043D01*
X164437680Y-101370498D01*
X164317982Y-101334188D01*
X164193500Y-101321928D01*
X163593500Y-101321928D01*
X163469018Y-101334188D01*
X163349320Y-101370498D01*
X163258500Y-101419043D01*
X163167680Y-101370498D01*
X163047982Y-101334188D01*
X162923500Y-101321928D01*
X162323500Y-101321928D01*
X162199018Y-101334188D01*
X162079320Y-101370498D01*
X161988500Y-101419043D01*
X161897680Y-101370498D01*
X161777982Y-101334188D01*
X161653500Y-101321928D01*
X161053500Y-101321928D01*
X160929018Y-101334188D01*
X160843500Y-101360130D01*
X160843500Y-100925398D01*
X160879006Y-100954537D01*
X160989320Y-101013502D01*
X161109018Y-101049812D01*
X161233500Y-101062072D01*
X161385250Y-101059000D01*
X161544000Y-100900250D01*
X161544000Y-100076000D01*
X161798000Y-100076000D01*
X161798000Y-100900250D01*
X161956750Y-101059000D01*
X162108500Y-101062072D01*
X162232982Y-101049812D01*
X162352680Y-101013502D01*
X162462994Y-100954537D01*
X162559685Y-100875185D01*
X162639037Y-100778494D01*
X162698002Y-100668180D01*
X162734312Y-100548482D01*
X162746572Y-100424000D01*
X162743500Y-100234750D01*
X162584750Y-100076000D01*
X161798000Y-100076000D01*
X161544000Y-100076000D01*
X161524000Y-100076000D01*
X161524000Y-99822000D01*
X161544000Y-99822000D01*
X161544000Y-98997750D01*
X161798000Y-98997750D01*
X161798000Y-99822000D01*
X162584750Y-99822000D01*
X162743500Y-99663250D01*
X162746572Y-99474000D01*
X162734312Y-99349518D01*
X162698002Y-99229820D01*
X162639037Y-99119506D01*
X162559685Y-99022815D01*
X162462994Y-98943463D01*
X162352680Y-98884498D01*
X162232982Y-98848188D01*
X162108500Y-98835928D01*
X161956750Y-98839000D01*
X161798000Y-98997750D01*
X161544000Y-98997750D01*
X161385250Y-98839000D01*
X161233500Y-98835928D01*
X161109018Y-98848188D01*
X160989320Y-98884498D01*
X160879006Y-98943463D01*
X160856000Y-98962343D01*
X160856000Y-98941753D01*
X160873705Y-98915256D01*
X160951726Y-98726898D01*
X160991500Y-98526939D01*
X160991500Y-98323061D01*
X160951726Y-98123102D01*
X160873705Y-97934744D01*
X160760437Y-97765226D01*
X160616274Y-97621063D01*
X160446756Y-97507795D01*
X160258398Y-97429774D01*
X160058439Y-97390000D01*
X159854561Y-97390000D01*
X159654602Y-97429774D01*
X159466244Y-97507795D01*
X159296726Y-97621063D01*
X159152563Y-97765226D01*
X159039295Y-97934744D01*
X158961274Y-98123102D01*
X158921500Y-98323061D01*
X158921500Y-98526939D01*
X158961274Y-98726898D01*
X159039295Y-98915256D01*
X159152563Y-99084774D01*
X159218777Y-99150988D01*
X159164829Y-99216725D01*
X159085650Y-99364858D01*
X159036892Y-99525592D01*
X159020428Y-99692750D01*
X159020428Y-100205250D01*
X159036892Y-100372408D01*
X159085650Y-100533142D01*
X159164829Y-100681275D01*
X159271385Y-100811115D01*
X159323501Y-100853885D01*
X159323500Y-101519556D01*
X159252963Y-101605506D01*
X159193998Y-101715820D01*
X159157688Y-101835518D01*
X159145428Y-101960000D01*
X159145428Y-103460000D01*
X159157688Y-103584482D01*
X159193998Y-103704180D01*
X159252963Y-103814494D01*
X159320939Y-103897324D01*
X159323500Y-103923322D01*
X159323500Y-103923332D01*
X159334497Y-104034985D01*
X159377598Y-104177074D01*
X159377954Y-104178246D01*
X159448526Y-104310276D01*
X159454070Y-104317031D01*
X159543499Y-104426001D01*
X159572503Y-104449804D01*
X160207699Y-105085000D01*
X159327894Y-105085000D01*
X159291799Y-105081445D01*
X159255704Y-105085000D01*
X159255695Y-105085000D01*
X159147715Y-105095635D01*
X159009167Y-105137663D01*
X158881480Y-105205913D01*
X158769562Y-105297762D01*
X158746546Y-105325807D01*
X155617808Y-108454546D01*
X155589763Y-108477562D01*
X155497914Y-108589480D01*
X155435562Y-108706133D01*
X155429664Y-108717167D01*
X155387635Y-108855715D01*
X155373444Y-108999800D01*
X155377001Y-109035915D01*
X155377000Y-124862679D01*
X155084095Y-124569774D01*
X154677089Y-124297821D01*
X154224848Y-124110497D01*
X153744751Y-124015000D01*
X153255249Y-124015000D01*
X152775152Y-124110497D01*
X152322911Y-124297821D01*
X151915905Y-124569774D01*
X151569774Y-124915905D01*
X151297821Y-125322911D01*
X151110497Y-125775152D01*
X151015000Y-126255249D01*
X151015000Y-126744751D01*
X151110497Y-127224848D01*
X151297821Y-127677089D01*
X151569774Y-128084095D01*
X151915905Y-128430226D01*
X152322911Y-128702179D01*
X152775152Y-128889503D01*
X153255249Y-128985000D01*
X153744751Y-128985000D01*
X154224848Y-128889503D01*
X154677089Y-128702179D01*
X155084095Y-128430226D01*
X155377000Y-128137321D01*
X155377000Y-135844595D01*
X155373444Y-135880700D01*
X155387635Y-136024785D01*
X155394566Y-136047634D01*
X155429663Y-136163332D01*
X155497913Y-136291019D01*
X155589762Y-136402937D01*
X155617808Y-136425954D01*
X156871390Y-137679536D01*
X156857463Y-137696506D01*
X156798498Y-137806820D01*
X156762188Y-137926518D01*
X156749928Y-138051000D01*
X156749928Y-138951000D01*
X156762188Y-139075482D01*
X156771239Y-139105319D01*
X156689445Y-139172445D01*
X156522618Y-139375725D01*
X156398653Y-139607646D01*
X156322317Y-139859294D01*
X156296541Y-140121000D01*
X156322317Y-140382706D01*
X156398653Y-140634354D01*
X156522618Y-140866275D01*
X156689445Y-141069555D01*
X156892725Y-141236382D01*
X157124646Y-141360347D01*
X157376294Y-141436683D01*
X157572421Y-141456000D01*
X159103579Y-141456000D01*
X159299706Y-141436683D01*
X159551354Y-141360347D01*
X159783275Y-141236382D01*
X159986555Y-141069555D01*
X160153382Y-140866275D01*
X160277347Y-140634354D01*
X160353683Y-140382706D01*
X160379459Y-140121000D01*
X160353683Y-139859294D01*
X160277347Y-139607646D01*
X160258559Y-139572497D01*
X160308710Y-139583556D01*
X160522390Y-139587979D01*
X160732828Y-139550629D01*
X160931936Y-139472943D01*
X160971725Y-139451675D01*
X160994021Y-139291443D01*
X161046353Y-139343775D01*
X161224060Y-139462515D01*
X161421517Y-139544304D01*
X161470893Y-139554125D01*
X161480663Y-139586333D01*
X161548913Y-139714020D01*
X161640763Y-139825938D01*
X161668808Y-139848954D01*
X164461546Y-142641693D01*
X164484562Y-142669738D01*
X164558240Y-142730204D01*
X164596480Y-142761587D01*
X164724166Y-142829837D01*
X164862715Y-142871865D01*
X165006800Y-142886056D01*
X165042905Y-142882500D01*
X171888095Y-142882500D01*
X171924200Y-142886056D01*
X171960305Y-142882500D01*
X172068285Y-142871865D01*
X172206833Y-142829837D01*
X172334520Y-142761587D01*
X172446438Y-142669738D01*
X172469458Y-142641688D01*
X174582193Y-140528954D01*
X174610238Y-140505938D01*
X174702087Y-140394020D01*
X174770337Y-140266333D01*
X174812365Y-140127785D01*
X174823000Y-140019805D01*
X174823000Y-140019796D01*
X174826555Y-139983701D01*
X174823000Y-139947606D01*
X174823000Y-133747646D01*
X178409960Y-130160687D01*
X178408184Y-140819567D01*
X176862734Y-141621580D01*
X174916438Y-142456853D01*
X172914187Y-143147342D01*
X170866745Y-143689336D01*
X168785114Y-144079921D01*
X166680458Y-144317004D01*
X164564114Y-144399308D01*
X162447393Y-144326393D01*
X160341728Y-144098651D01*
X158258382Y-143717305D01*
X156208544Y-143184397D01*
X154203263Y-142502802D01*
X152253252Y-141676159D01*
X150711525Y-140884906D01*
X150739081Y-130039258D01*
X150729777Y-129942270D01*
X150692353Y-129817764D01*
X150631360Y-129702952D01*
X150549138Y-129602245D01*
X150533203Y-129589100D01*
X149367900Y-128330443D01*
X148307236Y-126962772D01*
X147369806Y-125507857D01*
X146562749Y-123976776D01*
X145892208Y-122381192D01*
X145363280Y-120733230D01*
X144979994Y-119045433D01*
X144745269Y-117330669D01*
X144660889Y-115601965D01*
X144727496Y-113872488D01*
X144944584Y-112155388D01*
X145310499Y-110463752D01*
X145822459Y-108810443D01*
X146476569Y-107208036D01*
X147267847Y-105668740D01*
X148158162Y-104255249D01*
X151015000Y-104255249D01*
X151015000Y-104744751D01*
X151110497Y-105224848D01*
X151297821Y-105677089D01*
X151569774Y-106084095D01*
X151915905Y-106430226D01*
X152322911Y-106702179D01*
X152775152Y-106889503D01*
X153255249Y-106985000D01*
X153744751Y-106985000D01*
X154224848Y-106889503D01*
X154677089Y-106702179D01*
X155084095Y-106430226D01*
X155430226Y-106084095D01*
X155702179Y-105677089D01*
X155889503Y-105224848D01*
X155985000Y-104744751D01*
X155985000Y-104255249D01*
X155889503Y-103775152D01*
X155702179Y-103322911D01*
X155430226Y-102915905D01*
X155084095Y-102569774D01*
X154677089Y-102297821D01*
X154224848Y-102110497D01*
X153744751Y-102015000D01*
X153255249Y-102015000D01*
X152775152Y-102110497D01*
X152322911Y-102297821D01*
X151915905Y-102569774D01*
X151569774Y-102915905D01*
X151297821Y-103322911D01*
X151110497Y-103775152D01*
X151015000Y-104255249D01*
X148158162Y-104255249D01*
X148190271Y-104204272D01*
X149236816Y-102825776D01*
X150399528Y-101543732D01*
X151669563Y-100367894D01*
X153037228Y-99307236D01*
X154492139Y-98369809D01*
X156023220Y-97562751D01*
X157618808Y-96892208D01*
X159266768Y-96363281D01*
X160954567Y-95979994D01*
X162669331Y-95745269D01*
X164398035Y-95660889D01*
X166127512Y-95727496D01*
G37*
%TD.AperFunction*%
D18*
X172014000Y-117192553D02*
X171844808Y-117361745D01*
X171816763Y-117384761D01*
X171724914Y-117496679D01*
X171656665Y-117624365D01*
X171656664Y-117624366D01*
X171614635Y-117762914D01*
X171609718Y-117812840D01*
X171587815Y-117830815D01*
X171508463Y-117927506D01*
X171449498Y-118037820D01*
X171413188Y-118157518D01*
X171400928Y-118282000D01*
X171400928Y-119782000D01*
X171413188Y-119906482D01*
X171449498Y-120026180D01*
X171508463Y-120136494D01*
X171587815Y-120233185D01*
X171684506Y-120312537D01*
X171794820Y-120371502D01*
X171914518Y-120407812D01*
X172039000Y-120420072D01*
X172639000Y-120420072D01*
X172763482Y-120407812D01*
X172883180Y-120371502D01*
X172974000Y-120322957D01*
X173064820Y-120371502D01*
X173184518Y-120407812D01*
X173254170Y-120414672D01*
X173243602Y-120416774D01*
X173055244Y-120494795D01*
X172885726Y-120608063D01*
X172741563Y-120752226D01*
X172628295Y-120921744D01*
X172550274Y-121110102D01*
X172510500Y-121310061D01*
X172510500Y-121513939D01*
X172550274Y-121713898D01*
X172628295Y-121902256D01*
X172741563Y-122071774D01*
X172885726Y-122215937D01*
X173055244Y-122329205D01*
X173243602Y-122407226D01*
X173443561Y-122447000D01*
X173647439Y-122447000D01*
X173847398Y-122407226D01*
X174035756Y-122329205D01*
X174205274Y-122215937D01*
X174349437Y-122071774D01*
X174462705Y-121902256D01*
X174540726Y-121713898D01*
X174580500Y-121513939D01*
X174580500Y-121451801D01*
X175390004Y-120642298D01*
X175419001Y-120618501D01*
X175513974Y-120502776D01*
X175584546Y-120370747D01*
X175587178Y-120362072D01*
X175604820Y-120371502D01*
X175724518Y-120407812D01*
X175849000Y-120420072D01*
X176449000Y-120420072D01*
X176573482Y-120407812D01*
X176693180Y-120371502D01*
X176784000Y-120322957D01*
X176874820Y-120371502D01*
X176994518Y-120407812D01*
X177119000Y-120420072D01*
X177719000Y-120420072D01*
X177843482Y-120407812D01*
X177963180Y-120371502D01*
X178054000Y-120322957D01*
X178144820Y-120371502D01*
X178264518Y-120407812D01*
X178389000Y-120420072D01*
X178989000Y-120420072D01*
X179113482Y-120407812D01*
X179233180Y-120371502D01*
X179324000Y-120322957D01*
X179414820Y-120371502D01*
X179534518Y-120407812D01*
X179659000Y-120420072D01*
X180259000Y-120420072D01*
X180383482Y-120407812D01*
X180503180Y-120371502D01*
X180594000Y-120322957D01*
X180684820Y-120371502D01*
X180804518Y-120407812D01*
X180926981Y-120419873D01*
X180767854Y-120579000D01*
X180536905Y-120579000D01*
X180500800Y-120575444D01*
X180464695Y-120579000D01*
X180356715Y-120589635D01*
X180218167Y-120631663D01*
X180090480Y-120699913D01*
X179978562Y-120791762D01*
X179955546Y-120819807D01*
X178795308Y-121980046D01*
X178767263Y-122003062D01*
X178675414Y-122114980D01*
X178607163Y-122242667D01*
X178585633Y-122313642D01*
X178565135Y-122381215D01*
X178550944Y-122525300D01*
X178554500Y-122561405D01*
X178554500Y-122584928D01*
X178508250Y-122584928D01*
X178341092Y-122601392D01*
X178180358Y-122650150D01*
X178032225Y-122729329D01*
X177902385Y-122835885D01*
X177795829Y-122965725D01*
X177716650Y-123113858D01*
X177667892Y-123274592D01*
X177651428Y-123441750D01*
X177651428Y-123954250D01*
X177667892Y-124121408D01*
X177716650Y-124282142D01*
X177795829Y-124430275D01*
X177902385Y-124560115D01*
X178032225Y-124666671D01*
X178180358Y-124745850D01*
X178341092Y-124794608D01*
X178508250Y-124811072D01*
X178554500Y-124811072D01*
X178554501Y-127300852D01*
X173143808Y-132711546D01*
X173115762Y-132734563D01*
X173023913Y-132846481D01*
X172955663Y-132974168D01*
X172937853Y-133032880D01*
X172913635Y-133112715D01*
X172899444Y-133256800D01*
X172903000Y-133292905D01*
X172903001Y-139492852D01*
X172370080Y-140025773D01*
X172353683Y-139859294D01*
X172277347Y-139607646D01*
X172153382Y-139375725D01*
X171986555Y-139172445D01*
X171783275Y-139005618D01*
X171551354Y-138881653D01*
X171299706Y-138805317D01*
X171103579Y-138786000D01*
X170586220Y-138786000D01*
X170620556Y-138630290D01*
X170624979Y-138416610D01*
X170587629Y-138206172D01*
X170509943Y-138007064D01*
X170488675Y-137967275D01*
X170280322Y-137938283D01*
X169717605Y-138501000D01*
X169731748Y-138515143D01*
X169552143Y-138694748D01*
X169538000Y-138680605D01*
X169523858Y-138694748D01*
X169344253Y-138515143D01*
X169358395Y-138501000D01*
X169344253Y-138486858D01*
X169523858Y-138307253D01*
X169538000Y-138321395D01*
X170100717Y-137758678D01*
X170087821Y-137666000D01*
X170294863Y-137666000D01*
X170504483Y-137624304D01*
X170701940Y-137542515D01*
X170879647Y-137423775D01*
X171030775Y-137272647D01*
X171149515Y-137094940D01*
X171231304Y-136897483D01*
X171273000Y-136687863D01*
X171273000Y-136474137D01*
X171231304Y-136264517D01*
X171149515Y-136067060D01*
X171030775Y-135889353D01*
X170879647Y-135738225D01*
X170701940Y-135619485D01*
X170504483Y-135537696D01*
X170294863Y-135496000D01*
X170081137Y-135496000D01*
X169871517Y-135537696D01*
X169674060Y-135619485D01*
X169538000Y-135710397D01*
X169401940Y-135619485D01*
X169204483Y-135537696D01*
X168994863Y-135496000D01*
X168781137Y-135496000D01*
X168571517Y-135537696D01*
X168374060Y-135619485D01*
X168238000Y-135710397D01*
X168101940Y-135619485D01*
X167904483Y-135537696D01*
X167694863Y-135496000D01*
X167481137Y-135496000D01*
X167271517Y-135537696D01*
X167074060Y-135619485D01*
X166938000Y-135710397D01*
X166801940Y-135619485D01*
X166604483Y-135537696D01*
X166394863Y-135496000D01*
X166265777Y-135496000D01*
X166277347Y-135474354D01*
X166353683Y-135222706D01*
X166379459Y-134961000D01*
X166353683Y-134699294D01*
X166277347Y-134447646D01*
X166153382Y-134215725D01*
X165986555Y-134012445D01*
X165783275Y-133845618D01*
X165551354Y-133721653D01*
X165299706Y-133645317D01*
X165103579Y-133626000D01*
X163572421Y-133626000D01*
X163376294Y-133645317D01*
X163124646Y-133721653D01*
X162892725Y-133845618D01*
X162689445Y-134012445D01*
X162522618Y-134215725D01*
X162398653Y-134447646D01*
X162322317Y-134699294D01*
X162296541Y-134961000D01*
X162322317Y-135222706D01*
X162398653Y-135474354D01*
X162410346Y-135496230D01*
X162303610Y-135494021D01*
X162093172Y-135531371D01*
X161894064Y-135609057D01*
X161854275Y-135630325D01*
X161831979Y-135790557D01*
X161779647Y-135738225D01*
X161601940Y-135619485D01*
X161404483Y-135537696D01*
X161398000Y-135536406D01*
X161398000Y-135298146D01*
X170440897Y-126255249D01*
X173015000Y-126255249D01*
X173015000Y-126744751D01*
X173110497Y-127224848D01*
X173297821Y-127677089D01*
X173569774Y-128084095D01*
X173915905Y-128430226D01*
X174322911Y-128702179D01*
X174775152Y-128889503D01*
X175255249Y-128985000D01*
X175744751Y-128985000D01*
X176224848Y-128889503D01*
X176677089Y-128702179D01*
X177084095Y-128430226D01*
X177430226Y-128084095D01*
X177702179Y-127677089D01*
X177889503Y-127224848D01*
X177985000Y-126744751D01*
X177985000Y-126255249D01*
X177889503Y-125775152D01*
X177702179Y-125322911D01*
X177430226Y-124915905D01*
X177084095Y-124569774D01*
X176677089Y-124297821D01*
X176224848Y-124110497D01*
X175744751Y-124015000D01*
X175255249Y-124015000D01*
X174775152Y-124110497D01*
X174322911Y-124297821D01*
X173915905Y-124569774D01*
X173569774Y-124915905D01*
X173297821Y-125322911D01*
X173110497Y-125775152D01*
X173015000Y-126255249D01*
X170440897Y-126255249D01*
X170543693Y-126152454D01*
X170571738Y-126129438D01*
X170663587Y-126017520D01*
X170667407Y-126010374D01*
X170731837Y-125889834D01*
X170773865Y-125751285D01*
X170788056Y-125607200D01*
X170784500Y-125571095D01*
X170784500Y-122842572D01*
X170830750Y-122842572D01*
X170997908Y-122826108D01*
X171158642Y-122777350D01*
X171306775Y-122698171D01*
X171436615Y-122591615D01*
X171543171Y-122461775D01*
X171622350Y-122313642D01*
X171671108Y-122152908D01*
X171687572Y-121985750D01*
X171687572Y-121473250D01*
X171671108Y-121306092D01*
X171622350Y-121145358D01*
X171543171Y-120997225D01*
X171436615Y-120867385D01*
X171306775Y-120760829D01*
X171158642Y-120681650D01*
X170997908Y-120632892D01*
X170830750Y-120616428D01*
X170784500Y-120616428D01*
X170784500Y-118228146D01*
X172014000Y-116998647D01*
X172014000Y-117192553D01*
%TA.AperFunction,Conductor*%
D19*
G36*
X172014000Y-117192553D02*
G01*
X171844808Y-117361745D01*
X171816763Y-117384761D01*
X171724914Y-117496679D01*
X171656665Y-117624365D01*
X171656664Y-117624366D01*
X171614635Y-117762914D01*
X171609718Y-117812840D01*
X171587815Y-117830815D01*
X171508463Y-117927506D01*
X171449498Y-118037820D01*
X171413188Y-118157518D01*
X171400928Y-118282000D01*
X171400928Y-119782000D01*
X171413188Y-119906482D01*
X171449498Y-120026180D01*
X171508463Y-120136494D01*
X171587815Y-120233185D01*
X171684506Y-120312537D01*
X171794820Y-120371502D01*
X171914518Y-120407812D01*
X172039000Y-120420072D01*
X172639000Y-120420072D01*
X172763482Y-120407812D01*
X172883180Y-120371502D01*
X172974000Y-120322957D01*
X173064820Y-120371502D01*
X173184518Y-120407812D01*
X173254170Y-120414672D01*
X173243602Y-120416774D01*
X173055244Y-120494795D01*
X172885726Y-120608063D01*
X172741563Y-120752226D01*
X172628295Y-120921744D01*
X172550274Y-121110102D01*
X172510500Y-121310061D01*
X172510500Y-121513939D01*
X172550274Y-121713898D01*
X172628295Y-121902256D01*
X172741563Y-122071774D01*
X172885726Y-122215937D01*
X173055244Y-122329205D01*
X173243602Y-122407226D01*
X173443561Y-122447000D01*
X173647439Y-122447000D01*
X173847398Y-122407226D01*
X174035756Y-122329205D01*
X174205274Y-122215937D01*
X174349437Y-122071774D01*
X174462705Y-121902256D01*
X174540726Y-121713898D01*
X174580500Y-121513939D01*
X174580500Y-121451801D01*
X175390004Y-120642298D01*
X175419001Y-120618501D01*
X175513974Y-120502776D01*
X175584546Y-120370747D01*
X175587178Y-120362072D01*
X175604820Y-120371502D01*
X175724518Y-120407812D01*
X175849000Y-120420072D01*
X176449000Y-120420072D01*
X176573482Y-120407812D01*
X176693180Y-120371502D01*
X176784000Y-120322957D01*
X176874820Y-120371502D01*
X176994518Y-120407812D01*
X177119000Y-120420072D01*
X177719000Y-120420072D01*
X177843482Y-120407812D01*
X177963180Y-120371502D01*
X178054000Y-120322957D01*
X178144820Y-120371502D01*
X178264518Y-120407812D01*
X178389000Y-120420072D01*
X178989000Y-120420072D01*
X179113482Y-120407812D01*
X179233180Y-120371502D01*
X179324000Y-120322957D01*
X179414820Y-120371502D01*
X179534518Y-120407812D01*
X179659000Y-120420072D01*
X180259000Y-120420072D01*
X180383482Y-120407812D01*
X180503180Y-120371502D01*
X180594000Y-120322957D01*
X180684820Y-120371502D01*
X180804518Y-120407812D01*
X180926981Y-120419873D01*
X180767854Y-120579000D01*
X180536905Y-120579000D01*
X180500800Y-120575444D01*
X180464695Y-120579000D01*
X180356715Y-120589635D01*
X180218167Y-120631663D01*
X180090480Y-120699913D01*
X179978562Y-120791762D01*
X179955546Y-120819807D01*
X178795308Y-121980046D01*
X178767263Y-122003062D01*
X178675414Y-122114980D01*
X178607163Y-122242667D01*
X178585633Y-122313642D01*
X178565135Y-122381215D01*
X178550944Y-122525300D01*
X178554500Y-122561405D01*
X178554500Y-122584928D01*
X178508250Y-122584928D01*
X178341092Y-122601392D01*
X178180358Y-122650150D01*
X178032225Y-122729329D01*
X177902385Y-122835885D01*
X177795829Y-122965725D01*
X177716650Y-123113858D01*
X177667892Y-123274592D01*
X177651428Y-123441750D01*
X177651428Y-123954250D01*
X177667892Y-124121408D01*
X177716650Y-124282142D01*
X177795829Y-124430275D01*
X177902385Y-124560115D01*
X178032225Y-124666671D01*
X178180358Y-124745850D01*
X178341092Y-124794608D01*
X178508250Y-124811072D01*
X178554500Y-124811072D01*
X178554501Y-127300852D01*
X173143808Y-132711546D01*
X173115762Y-132734563D01*
X173023913Y-132846481D01*
X172955663Y-132974168D01*
X172937853Y-133032880D01*
X172913635Y-133112715D01*
X172899444Y-133256800D01*
X172903000Y-133292905D01*
X172903001Y-139492852D01*
X172370080Y-140025773D01*
X172353683Y-139859294D01*
X172277347Y-139607646D01*
X172153382Y-139375725D01*
X171986555Y-139172445D01*
X171783275Y-139005618D01*
X171551354Y-138881653D01*
X171299706Y-138805317D01*
X171103579Y-138786000D01*
X170586220Y-138786000D01*
X170620556Y-138630290D01*
X170624979Y-138416610D01*
X170587629Y-138206172D01*
X170509943Y-138007064D01*
X170488675Y-137967275D01*
X170280322Y-137938283D01*
X169717605Y-138501000D01*
X169731748Y-138515143D01*
X169552143Y-138694748D01*
X169538000Y-138680605D01*
X169523858Y-138694748D01*
X169344253Y-138515143D01*
X169358395Y-138501000D01*
X169344253Y-138486858D01*
X169523858Y-138307253D01*
X169538000Y-138321395D01*
X170100717Y-137758678D01*
X170087821Y-137666000D01*
X170294863Y-137666000D01*
X170504483Y-137624304D01*
X170701940Y-137542515D01*
X170879647Y-137423775D01*
X171030775Y-137272647D01*
X171149515Y-137094940D01*
X171231304Y-136897483D01*
X171273000Y-136687863D01*
X171273000Y-136474137D01*
X171231304Y-136264517D01*
X171149515Y-136067060D01*
X171030775Y-135889353D01*
X170879647Y-135738225D01*
X170701940Y-135619485D01*
X170504483Y-135537696D01*
X170294863Y-135496000D01*
X170081137Y-135496000D01*
X169871517Y-135537696D01*
X169674060Y-135619485D01*
X169538000Y-135710397D01*
X169401940Y-135619485D01*
X169204483Y-135537696D01*
X168994863Y-135496000D01*
X168781137Y-135496000D01*
X168571517Y-135537696D01*
X168374060Y-135619485D01*
X168238000Y-135710397D01*
X168101940Y-135619485D01*
X167904483Y-135537696D01*
X167694863Y-135496000D01*
X167481137Y-135496000D01*
X167271517Y-135537696D01*
X167074060Y-135619485D01*
X166938000Y-135710397D01*
X166801940Y-135619485D01*
X166604483Y-135537696D01*
X166394863Y-135496000D01*
X166265777Y-135496000D01*
X166277347Y-135474354D01*
X166353683Y-135222706D01*
X166379459Y-134961000D01*
X166353683Y-134699294D01*
X166277347Y-134447646D01*
X166153382Y-134215725D01*
X165986555Y-134012445D01*
X165783275Y-133845618D01*
X165551354Y-133721653D01*
X165299706Y-133645317D01*
X165103579Y-133626000D01*
X163572421Y-133626000D01*
X163376294Y-133645317D01*
X163124646Y-133721653D01*
X162892725Y-133845618D01*
X162689445Y-134012445D01*
X162522618Y-134215725D01*
X162398653Y-134447646D01*
X162322317Y-134699294D01*
X162296541Y-134961000D01*
X162322317Y-135222706D01*
X162398653Y-135474354D01*
X162410346Y-135496230D01*
X162303610Y-135494021D01*
X162093172Y-135531371D01*
X161894064Y-135609057D01*
X161854275Y-135630325D01*
X161831979Y-135790557D01*
X161779647Y-135738225D01*
X161601940Y-135619485D01*
X161404483Y-135537696D01*
X161398000Y-135536406D01*
X161398000Y-135298146D01*
X170440897Y-126255249D01*
X173015000Y-126255249D01*
X173015000Y-126744751D01*
X173110497Y-127224848D01*
X173297821Y-127677089D01*
X173569774Y-128084095D01*
X173915905Y-128430226D01*
X174322911Y-128702179D01*
X174775152Y-128889503D01*
X175255249Y-128985000D01*
X175744751Y-128985000D01*
X176224848Y-128889503D01*
X176677089Y-128702179D01*
X177084095Y-128430226D01*
X177430226Y-128084095D01*
X177702179Y-127677089D01*
X177889503Y-127224848D01*
X177985000Y-126744751D01*
X177985000Y-126255249D01*
X177889503Y-125775152D01*
X177702179Y-125322911D01*
X177430226Y-124915905D01*
X177084095Y-124569774D01*
X176677089Y-124297821D01*
X176224848Y-124110497D01*
X175744751Y-124015000D01*
X175255249Y-124015000D01*
X174775152Y-124110497D01*
X174322911Y-124297821D01*
X173915905Y-124569774D01*
X173569774Y-124915905D01*
X173297821Y-125322911D01*
X173110497Y-125775152D01*
X173015000Y-126255249D01*
X170440897Y-126255249D01*
X170543693Y-126152454D01*
X170571738Y-126129438D01*
X170663587Y-126017520D01*
X170667407Y-126010374D01*
X170731837Y-125889834D01*
X170773865Y-125751285D01*
X170788056Y-125607200D01*
X170784500Y-125571095D01*
X170784500Y-122842572D01*
X170830750Y-122842572D01*
X170997908Y-122826108D01*
X171158642Y-122777350D01*
X171306775Y-122698171D01*
X171436615Y-122591615D01*
X171543171Y-122461775D01*
X171622350Y-122313642D01*
X171671108Y-122152908D01*
X171687572Y-121985750D01*
X171687572Y-121473250D01*
X171671108Y-121306092D01*
X171622350Y-121145358D01*
X171543171Y-120997225D01*
X171436615Y-120867385D01*
X171306775Y-120760829D01*
X171158642Y-120681650D01*
X170997908Y-120632892D01*
X170830750Y-120616428D01*
X170784500Y-120616428D01*
X170784500Y-118228146D01*
X172014000Y-116998647D01*
X172014000Y-117192553D01*
G37*
%TD.AperFunction*%
D18*
X160631748Y-138486858D02*
X160617605Y-138501000D01*
X160631748Y-138515143D01*
X160452143Y-138694748D01*
X160438000Y-138680605D01*
X160423858Y-138694748D01*
X160244253Y-138515143D01*
X160258395Y-138501000D01*
X160244253Y-138486858D01*
X160423858Y-138307253D01*
X160438000Y-138321395D01*
X160452143Y-138307253D01*
X160631748Y-138486858D01*
%TA.AperFunction,Conductor*%
D19*
G36*
X160631748Y-138486858D02*
G01*
X160617605Y-138501000D01*
X160631748Y-138515143D01*
X160452143Y-138694748D01*
X160438000Y-138680605D01*
X160423858Y-138694748D01*
X160244253Y-138515143D01*
X160258395Y-138501000D01*
X160244253Y-138486858D01*
X160423858Y-138307253D01*
X160438000Y-138321395D01*
X160452143Y-138307253D01*
X160631748Y-138486858D01*
G37*
%TD.AperFunction*%
D18*
X164531748Y-138486858D02*
X164517605Y-138501000D01*
X164531748Y-138515143D01*
X164352143Y-138694748D01*
X164338000Y-138680605D01*
X164323858Y-138694748D01*
X164144253Y-138515143D01*
X164158395Y-138501000D01*
X164144253Y-138486858D01*
X164323858Y-138307253D01*
X164338000Y-138321395D01*
X164352143Y-138307253D01*
X164531748Y-138486858D01*
%TA.AperFunction,Conductor*%
D19*
G36*
X164531748Y-138486858D02*
G01*
X164517605Y-138501000D01*
X164531748Y-138515143D01*
X164352143Y-138694748D01*
X164338000Y-138680605D01*
X164323858Y-138694748D01*
X164144253Y-138515143D01*
X164158395Y-138501000D01*
X164144253Y-138486858D01*
X164323858Y-138307253D01*
X164338000Y-138321395D01*
X164352143Y-138307253D01*
X164531748Y-138486858D01*
G37*
%TD.AperFunction*%
D18*
X162581748Y-136566858D02*
X162567605Y-136581000D01*
X162581748Y-136595143D01*
X162402143Y-136774748D01*
X162388000Y-136760605D01*
X162373858Y-136774748D01*
X162194253Y-136595143D01*
X162208395Y-136581000D01*
X162194253Y-136566858D01*
X162373858Y-136387253D01*
X162388000Y-136401395D01*
X162402143Y-136387253D01*
X162581748Y-136566858D01*
%TA.AperFunction,Conductor*%
D19*
G36*
X162581748Y-136566858D02*
G01*
X162567605Y-136581000D01*
X162581748Y-136595143D01*
X162402143Y-136774748D01*
X162388000Y-136760605D01*
X162373858Y-136774748D01*
X162194253Y-136595143D01*
X162208395Y-136581000D01*
X162194253Y-136566858D01*
X162373858Y-136387253D01*
X162388000Y-136401395D01*
X162402143Y-136387253D01*
X162581748Y-136566858D01*
G37*
%TD.AperFunction*%
D18*
X181920000Y-117364647D02*
X181920000Y-117781423D01*
X181883494Y-117751463D01*
X181773180Y-117692498D01*
X181653482Y-117656188D01*
X181529000Y-117643928D01*
X181514750Y-117647000D01*
X181356000Y-117805750D01*
X181356000Y-118905000D01*
X181376000Y-118905000D01*
X181376000Y-119159000D01*
X181356000Y-119159000D01*
X181356000Y-119179000D01*
X181102000Y-119179000D01*
X181102000Y-119159000D01*
X181082000Y-119159000D01*
X181082000Y-118905000D01*
X181102000Y-118905000D01*
X181102000Y-117805750D01*
X180943250Y-117647000D01*
X180929000Y-117643928D01*
X180804518Y-117656188D01*
X180684820Y-117692498D01*
X180665188Y-117702992D01*
X180641337Y-117624365D01*
X180595806Y-117539184D01*
X180573087Y-117496679D01*
X180481238Y-117384761D01*
X180453187Y-117361740D01*
X180383447Y-117292000D01*
X181847354Y-117292000D01*
X181920000Y-117364647D01*
%TA.AperFunction,Conductor*%
D19*
G36*
X181920000Y-117364647D02*
G01*
X181920000Y-117781423D01*
X181883494Y-117751463D01*
X181773180Y-117692498D01*
X181653482Y-117656188D01*
X181529000Y-117643928D01*
X181514750Y-117647000D01*
X181356000Y-117805750D01*
X181356000Y-118905000D01*
X181376000Y-118905000D01*
X181376000Y-119159000D01*
X181356000Y-119159000D01*
X181356000Y-119179000D01*
X181102000Y-119179000D01*
X181102000Y-119159000D01*
X181082000Y-119159000D01*
X181082000Y-118905000D01*
X181102000Y-118905000D01*
X181102000Y-117805750D01*
X180943250Y-117647000D01*
X180929000Y-117643928D01*
X180804518Y-117656188D01*
X180684820Y-117692498D01*
X180665188Y-117702992D01*
X180641337Y-117624365D01*
X180595806Y-117539184D01*
X180573087Y-117496679D01*
X180481238Y-117384761D01*
X180453187Y-117361740D01*
X180383447Y-117292000D01*
X181847354Y-117292000D01*
X181920000Y-117364647D01*
G37*
%TD.AperFunction*%
%TD*%
M02*
