%TF.GenerationSoftware,KiCad,Pcbnew,(5.1.12)-1*%
%TF.CreationDate,2021-11-30T21:21:33-06:00*%
%TF.ProjectId,MA710_encoder,4d413731-305f-4656-9e63-6f6465722e6b,rev?*%
%TF.SameCoordinates,Original*%
%TF.FileFunction,Soldermask,Top*%
%TF.FilePolarity,Negative*%
%FSLAX46Y46*%
G04 Gerber Fmt 4.6, Leading zero omitted, Abs format (unit mm)*
G04 Created by KiCad (PCBNEW (5.1.12)-1) date 2021-11-30 21:21:33*
%MOMM*%
%LPD*%
G01*
G04 APERTURE LIST*
%ADD10C,1.000000*%
%ADD11O,2.900000X1.500000*%
G04 APERTURE END LIST*
%TO.C,U14*%
G36*
G01*
X172639000Y-114432000D02*
X172039000Y-114432000D01*
G75*
G02*
X171989000Y-114382000I0J50000D01*
G01*
X171989000Y-112882000D01*
G75*
G02*
X172039000Y-112832000I50000J0D01*
G01*
X172639000Y-112832000D01*
G75*
G02*
X172689000Y-112882000I0J-50000D01*
G01*
X172689000Y-114382000D01*
G75*
G02*
X172639000Y-114432000I-50000J0D01*
G01*
G37*
G36*
G01*
X173909000Y-114432000D02*
X173309000Y-114432000D01*
G75*
G02*
X173259000Y-114382000I0J50000D01*
G01*
X173259000Y-112882000D01*
G75*
G02*
X173309000Y-112832000I50000J0D01*
G01*
X173909000Y-112832000D01*
G75*
G02*
X173959000Y-112882000I0J-50000D01*
G01*
X173959000Y-114382000D01*
G75*
G02*
X173909000Y-114432000I-50000J0D01*
G01*
G37*
G36*
G01*
X175179000Y-114432000D02*
X174579000Y-114432000D01*
G75*
G02*
X174529000Y-114382000I0J50000D01*
G01*
X174529000Y-112882000D01*
G75*
G02*
X174579000Y-112832000I50000J0D01*
G01*
X175179000Y-112832000D01*
G75*
G02*
X175229000Y-112882000I0J-50000D01*
G01*
X175229000Y-114382000D01*
G75*
G02*
X175179000Y-114432000I-50000J0D01*
G01*
G37*
G36*
G01*
X176449000Y-114432000D02*
X175849000Y-114432000D01*
G75*
G02*
X175799000Y-114382000I0J50000D01*
G01*
X175799000Y-112882000D01*
G75*
G02*
X175849000Y-112832000I50000J0D01*
G01*
X176449000Y-112832000D01*
G75*
G02*
X176499000Y-112882000I0J-50000D01*
G01*
X176499000Y-114382000D01*
G75*
G02*
X176449000Y-114432000I-50000J0D01*
G01*
G37*
G36*
G01*
X177719000Y-114432000D02*
X177119000Y-114432000D01*
G75*
G02*
X177069000Y-114382000I0J50000D01*
G01*
X177069000Y-112882000D01*
G75*
G02*
X177119000Y-112832000I50000J0D01*
G01*
X177719000Y-112832000D01*
G75*
G02*
X177769000Y-112882000I0J-50000D01*
G01*
X177769000Y-114382000D01*
G75*
G02*
X177719000Y-114432000I-50000J0D01*
G01*
G37*
G36*
G01*
X178989000Y-114432000D02*
X178389000Y-114432000D01*
G75*
G02*
X178339000Y-114382000I0J50000D01*
G01*
X178339000Y-112882000D01*
G75*
G02*
X178389000Y-112832000I50000J0D01*
G01*
X178989000Y-112832000D01*
G75*
G02*
X179039000Y-112882000I0J-50000D01*
G01*
X179039000Y-114382000D01*
G75*
G02*
X178989000Y-114432000I-50000J0D01*
G01*
G37*
G36*
G01*
X180259000Y-114432000D02*
X179659000Y-114432000D01*
G75*
G02*
X179609000Y-114382000I0J50000D01*
G01*
X179609000Y-112882000D01*
G75*
G02*
X179659000Y-112832000I50000J0D01*
G01*
X180259000Y-112832000D01*
G75*
G02*
X180309000Y-112882000I0J-50000D01*
G01*
X180309000Y-114382000D01*
G75*
G02*
X180259000Y-114432000I-50000J0D01*
G01*
G37*
G36*
G01*
X181529000Y-114432000D02*
X180929000Y-114432000D01*
G75*
G02*
X180879000Y-114382000I0J50000D01*
G01*
X180879000Y-112882000D01*
G75*
G02*
X180929000Y-112832000I50000J0D01*
G01*
X181529000Y-112832000D01*
G75*
G02*
X181579000Y-112882000I0J-50000D01*
G01*
X181579000Y-114382000D01*
G75*
G02*
X181529000Y-114432000I-50000J0D01*
G01*
G37*
G36*
G01*
X181529000Y-119832000D02*
X180929000Y-119832000D01*
G75*
G02*
X180879000Y-119782000I0J50000D01*
G01*
X180879000Y-118282000D01*
G75*
G02*
X180929000Y-118232000I50000J0D01*
G01*
X181529000Y-118232000D01*
G75*
G02*
X181579000Y-118282000I0J-50000D01*
G01*
X181579000Y-119782000D01*
G75*
G02*
X181529000Y-119832000I-50000J0D01*
G01*
G37*
G36*
G01*
X180259000Y-119832000D02*
X179659000Y-119832000D01*
G75*
G02*
X179609000Y-119782000I0J50000D01*
G01*
X179609000Y-118282000D01*
G75*
G02*
X179659000Y-118232000I50000J0D01*
G01*
X180259000Y-118232000D01*
G75*
G02*
X180309000Y-118282000I0J-50000D01*
G01*
X180309000Y-119782000D01*
G75*
G02*
X180259000Y-119832000I-50000J0D01*
G01*
G37*
G36*
G01*
X178989000Y-119832000D02*
X178389000Y-119832000D01*
G75*
G02*
X178339000Y-119782000I0J50000D01*
G01*
X178339000Y-118282000D01*
G75*
G02*
X178389000Y-118232000I50000J0D01*
G01*
X178989000Y-118232000D01*
G75*
G02*
X179039000Y-118282000I0J-50000D01*
G01*
X179039000Y-119782000D01*
G75*
G02*
X178989000Y-119832000I-50000J0D01*
G01*
G37*
G36*
G01*
X177719000Y-119832000D02*
X177119000Y-119832000D01*
G75*
G02*
X177069000Y-119782000I0J50000D01*
G01*
X177069000Y-118282000D01*
G75*
G02*
X177119000Y-118232000I50000J0D01*
G01*
X177719000Y-118232000D01*
G75*
G02*
X177769000Y-118282000I0J-50000D01*
G01*
X177769000Y-119782000D01*
G75*
G02*
X177719000Y-119832000I-50000J0D01*
G01*
G37*
G36*
G01*
X176449000Y-119832000D02*
X175849000Y-119832000D01*
G75*
G02*
X175799000Y-119782000I0J50000D01*
G01*
X175799000Y-118282000D01*
G75*
G02*
X175849000Y-118232000I50000J0D01*
G01*
X176449000Y-118232000D01*
G75*
G02*
X176499000Y-118282000I0J-50000D01*
G01*
X176499000Y-119782000D01*
G75*
G02*
X176449000Y-119832000I-50000J0D01*
G01*
G37*
G36*
G01*
X175179000Y-119832000D02*
X174579000Y-119832000D01*
G75*
G02*
X174529000Y-119782000I0J50000D01*
G01*
X174529000Y-118282000D01*
G75*
G02*
X174579000Y-118232000I50000J0D01*
G01*
X175179000Y-118232000D01*
G75*
G02*
X175229000Y-118282000I0J-50000D01*
G01*
X175229000Y-119782000D01*
G75*
G02*
X175179000Y-119832000I-50000J0D01*
G01*
G37*
G36*
G01*
X173909000Y-119832000D02*
X173309000Y-119832000D01*
G75*
G02*
X173259000Y-119782000I0J50000D01*
G01*
X173259000Y-118282000D01*
G75*
G02*
X173309000Y-118232000I50000J0D01*
G01*
X173909000Y-118232000D01*
G75*
G02*
X173959000Y-118282000I0J-50000D01*
G01*
X173959000Y-119782000D01*
G75*
G02*
X173909000Y-119832000I-50000J0D01*
G01*
G37*
G36*
G01*
X172639000Y-119832000D02*
X172039000Y-119832000D01*
G75*
G02*
X171989000Y-119782000I0J50000D01*
G01*
X171989000Y-118282000D01*
G75*
G02*
X172039000Y-118232000I50000J0D01*
G01*
X172639000Y-118232000D01*
G75*
G02*
X172689000Y-118282000I0J-50000D01*
G01*
X172689000Y-119782000D01*
G75*
G02*
X172639000Y-119832000I-50000J0D01*
G01*
G37*
%TD*%
%TO.C,U9*%
G36*
G01*
X160383500Y-103510000D02*
X159783500Y-103510000D01*
G75*
G02*
X159733500Y-103460000I0J50000D01*
G01*
X159733500Y-101960000D01*
G75*
G02*
X159783500Y-101910000I50000J0D01*
G01*
X160383500Y-101910000D01*
G75*
G02*
X160433500Y-101960000I0J-50000D01*
G01*
X160433500Y-103460000D01*
G75*
G02*
X160383500Y-103510000I-50000J0D01*
G01*
G37*
G36*
G01*
X161653500Y-103510000D02*
X161053500Y-103510000D01*
G75*
G02*
X161003500Y-103460000I0J50000D01*
G01*
X161003500Y-101960000D01*
G75*
G02*
X161053500Y-101910000I50000J0D01*
G01*
X161653500Y-101910000D01*
G75*
G02*
X161703500Y-101960000I0J-50000D01*
G01*
X161703500Y-103460000D01*
G75*
G02*
X161653500Y-103510000I-50000J0D01*
G01*
G37*
G36*
G01*
X162923500Y-103510000D02*
X162323500Y-103510000D01*
G75*
G02*
X162273500Y-103460000I0J50000D01*
G01*
X162273500Y-101960000D01*
G75*
G02*
X162323500Y-101910000I50000J0D01*
G01*
X162923500Y-101910000D01*
G75*
G02*
X162973500Y-101960000I0J-50000D01*
G01*
X162973500Y-103460000D01*
G75*
G02*
X162923500Y-103510000I-50000J0D01*
G01*
G37*
G36*
G01*
X164193500Y-103510000D02*
X163593500Y-103510000D01*
G75*
G02*
X163543500Y-103460000I0J50000D01*
G01*
X163543500Y-101960000D01*
G75*
G02*
X163593500Y-101910000I50000J0D01*
G01*
X164193500Y-101910000D01*
G75*
G02*
X164243500Y-101960000I0J-50000D01*
G01*
X164243500Y-103460000D01*
G75*
G02*
X164193500Y-103510000I-50000J0D01*
G01*
G37*
G36*
G01*
X165463500Y-103510000D02*
X164863500Y-103510000D01*
G75*
G02*
X164813500Y-103460000I0J50000D01*
G01*
X164813500Y-101960000D01*
G75*
G02*
X164863500Y-101910000I50000J0D01*
G01*
X165463500Y-101910000D01*
G75*
G02*
X165513500Y-101960000I0J-50000D01*
G01*
X165513500Y-103460000D01*
G75*
G02*
X165463500Y-103510000I-50000J0D01*
G01*
G37*
G36*
G01*
X166733500Y-103510000D02*
X166133500Y-103510000D01*
G75*
G02*
X166083500Y-103460000I0J50000D01*
G01*
X166083500Y-101960000D01*
G75*
G02*
X166133500Y-101910000I50000J0D01*
G01*
X166733500Y-101910000D01*
G75*
G02*
X166783500Y-101960000I0J-50000D01*
G01*
X166783500Y-103460000D01*
G75*
G02*
X166733500Y-103510000I-50000J0D01*
G01*
G37*
G36*
G01*
X168003500Y-103510000D02*
X167403500Y-103510000D01*
G75*
G02*
X167353500Y-103460000I0J50000D01*
G01*
X167353500Y-101960000D01*
G75*
G02*
X167403500Y-101910000I50000J0D01*
G01*
X168003500Y-101910000D01*
G75*
G02*
X168053500Y-101960000I0J-50000D01*
G01*
X168053500Y-103460000D01*
G75*
G02*
X168003500Y-103510000I-50000J0D01*
G01*
G37*
G36*
G01*
X169273500Y-103510000D02*
X168673500Y-103510000D01*
G75*
G02*
X168623500Y-103460000I0J50000D01*
G01*
X168623500Y-101960000D01*
G75*
G02*
X168673500Y-101910000I50000J0D01*
G01*
X169273500Y-101910000D01*
G75*
G02*
X169323500Y-101960000I0J-50000D01*
G01*
X169323500Y-103460000D01*
G75*
G02*
X169273500Y-103510000I-50000J0D01*
G01*
G37*
G36*
G01*
X169273500Y-108910000D02*
X168673500Y-108910000D01*
G75*
G02*
X168623500Y-108860000I0J50000D01*
G01*
X168623500Y-107360000D01*
G75*
G02*
X168673500Y-107310000I50000J0D01*
G01*
X169273500Y-107310000D01*
G75*
G02*
X169323500Y-107360000I0J-50000D01*
G01*
X169323500Y-108860000D01*
G75*
G02*
X169273500Y-108910000I-50000J0D01*
G01*
G37*
G36*
G01*
X168003500Y-108910000D02*
X167403500Y-108910000D01*
G75*
G02*
X167353500Y-108860000I0J50000D01*
G01*
X167353500Y-107360000D01*
G75*
G02*
X167403500Y-107310000I50000J0D01*
G01*
X168003500Y-107310000D01*
G75*
G02*
X168053500Y-107360000I0J-50000D01*
G01*
X168053500Y-108860000D01*
G75*
G02*
X168003500Y-108910000I-50000J0D01*
G01*
G37*
G36*
G01*
X166733500Y-108910000D02*
X166133500Y-108910000D01*
G75*
G02*
X166083500Y-108860000I0J50000D01*
G01*
X166083500Y-107360000D01*
G75*
G02*
X166133500Y-107310000I50000J0D01*
G01*
X166733500Y-107310000D01*
G75*
G02*
X166783500Y-107360000I0J-50000D01*
G01*
X166783500Y-108860000D01*
G75*
G02*
X166733500Y-108910000I-50000J0D01*
G01*
G37*
G36*
G01*
X165463500Y-108910000D02*
X164863500Y-108910000D01*
G75*
G02*
X164813500Y-108860000I0J50000D01*
G01*
X164813500Y-107360000D01*
G75*
G02*
X164863500Y-107310000I50000J0D01*
G01*
X165463500Y-107310000D01*
G75*
G02*
X165513500Y-107360000I0J-50000D01*
G01*
X165513500Y-108860000D01*
G75*
G02*
X165463500Y-108910000I-50000J0D01*
G01*
G37*
G36*
G01*
X164193500Y-108910000D02*
X163593500Y-108910000D01*
G75*
G02*
X163543500Y-108860000I0J50000D01*
G01*
X163543500Y-107360000D01*
G75*
G02*
X163593500Y-107310000I50000J0D01*
G01*
X164193500Y-107310000D01*
G75*
G02*
X164243500Y-107360000I0J-50000D01*
G01*
X164243500Y-108860000D01*
G75*
G02*
X164193500Y-108910000I-50000J0D01*
G01*
G37*
G36*
G01*
X162923500Y-108910000D02*
X162323500Y-108910000D01*
G75*
G02*
X162273500Y-108860000I0J50000D01*
G01*
X162273500Y-107360000D01*
G75*
G02*
X162323500Y-107310000I50000J0D01*
G01*
X162923500Y-107310000D01*
G75*
G02*
X162973500Y-107360000I0J-50000D01*
G01*
X162973500Y-108860000D01*
G75*
G02*
X162923500Y-108910000I-50000J0D01*
G01*
G37*
G36*
G01*
X161653500Y-108910000D02*
X161053500Y-108910000D01*
G75*
G02*
X161003500Y-108860000I0J50000D01*
G01*
X161003500Y-107360000D01*
G75*
G02*
X161053500Y-107310000I50000J0D01*
G01*
X161653500Y-107310000D01*
G75*
G02*
X161703500Y-107360000I0J-50000D01*
G01*
X161703500Y-108860000D01*
G75*
G02*
X161653500Y-108910000I-50000J0D01*
G01*
G37*
G36*
G01*
X160383500Y-108910000D02*
X159783500Y-108910000D01*
G75*
G02*
X159733500Y-108860000I0J50000D01*
G01*
X159733500Y-107360000D01*
G75*
G02*
X159783500Y-107310000I50000J0D01*
G01*
X160383500Y-107310000D01*
G75*
G02*
X160433500Y-107360000I0J-50000D01*
G01*
X160433500Y-108860000D01*
G75*
G02*
X160383500Y-108910000I-50000J0D01*
G01*
G37*
%TD*%
%TO.C,J4*%
G36*
G01*
X157338000Y-138951000D02*
X157338000Y-138051000D01*
G75*
G02*
X157388000Y-138001000I50000J0D01*
G01*
X158288000Y-138001000D01*
G75*
G02*
X158338000Y-138051000I0J-50000D01*
G01*
X158338000Y-138951000D01*
G75*
G02*
X158288000Y-139001000I-50000J0D01*
G01*
X157388000Y-139001000D01*
G75*
G02*
X157338000Y-138951000I0J50000D01*
G01*
G37*
D10*
X158488000Y-136581000D03*
X159138000Y-138501000D03*
X159788000Y-136581000D03*
X160438000Y-138501000D03*
X161088000Y-136581000D03*
X161738000Y-138501000D03*
X162388000Y-136581000D03*
X163038000Y-138501000D03*
X163688000Y-136581000D03*
X164338000Y-138501000D03*
X164988000Y-136581000D03*
X165638000Y-138501000D03*
X166288000Y-136581000D03*
X166938000Y-138501000D03*
X167588000Y-136581000D03*
X168238000Y-138501000D03*
X168888000Y-136581000D03*
X169538000Y-138501000D03*
X170188000Y-136581000D03*
D11*
X164338000Y-134961000D03*
X170338000Y-140121000D03*
X158338000Y-140121000D03*
%TD*%
%TO.C,R3*%
G36*
G01*
X180294000Y-111034250D02*
X180294000Y-111596750D01*
G75*
G02*
X180050250Y-111840500I-243750J0D01*
G01*
X179562750Y-111840500D01*
G75*
G02*
X179319000Y-111596750I0J243750D01*
G01*
X179319000Y-111034250D01*
G75*
G02*
X179562750Y-110790500I243750J0D01*
G01*
X180050250Y-110790500D01*
G75*
G02*
X180294000Y-111034250I0J-243750D01*
G01*
G37*
G36*
G01*
X181869000Y-111034250D02*
X181869000Y-111596750D01*
G75*
G02*
X181625250Y-111840500I-243750J0D01*
G01*
X181137750Y-111840500D01*
G75*
G02*
X180894000Y-111596750I0J243750D01*
G01*
X180894000Y-111034250D01*
G75*
G02*
X181137750Y-110790500I243750J0D01*
G01*
X181625250Y-110790500D01*
G75*
G02*
X181869000Y-111034250I0J-243750D01*
G01*
G37*
%TD*%
%TO.C,R2*%
G36*
G01*
X179214500Y-123416750D02*
X179214500Y-123979250D01*
G75*
G02*
X178970750Y-124223000I-243750J0D01*
G01*
X178483250Y-124223000D01*
G75*
G02*
X178239500Y-123979250I0J243750D01*
G01*
X178239500Y-123416750D01*
G75*
G02*
X178483250Y-123173000I243750J0D01*
G01*
X178970750Y-123173000D01*
G75*
G02*
X179214500Y-123416750I0J-243750D01*
G01*
G37*
G36*
G01*
X180789500Y-123416750D02*
X180789500Y-123979250D01*
G75*
G02*
X180545750Y-124223000I-243750J0D01*
G01*
X180058250Y-124223000D01*
G75*
G02*
X179814500Y-123979250I0J243750D01*
G01*
X179814500Y-123416750D01*
G75*
G02*
X180058250Y-123173000I243750J0D01*
G01*
X180545750Y-123173000D01*
G75*
G02*
X180789500Y-123416750I0J-243750D01*
G01*
G37*
%TD*%
%TO.C,R1*%
G36*
G01*
X170124500Y-122010750D02*
X170124500Y-121448250D01*
G75*
G02*
X170368250Y-121204500I243750J0D01*
G01*
X170855750Y-121204500D01*
G75*
G02*
X171099500Y-121448250I0J-243750D01*
G01*
X171099500Y-122010750D01*
G75*
G02*
X170855750Y-122254500I-243750J0D01*
G01*
X170368250Y-122254500D01*
G75*
G02*
X170124500Y-122010750I0J243750D01*
G01*
G37*
G36*
G01*
X168549500Y-122010750D02*
X168549500Y-121448250D01*
G75*
G02*
X168793250Y-121204500I243750J0D01*
G01*
X169280750Y-121204500D01*
G75*
G02*
X169524500Y-121448250I0J-243750D01*
G01*
X169524500Y-122010750D01*
G75*
G02*
X169280750Y-122254500I-243750J0D01*
G01*
X168793250Y-122254500D01*
G75*
G02*
X168549500Y-122010750I0J243750D01*
G01*
G37*
%TD*%
%TO.C,C3*%
G36*
G01*
X173439000Y-111469750D02*
X173439000Y-110907250D01*
G75*
G02*
X173682750Y-110663500I243750J0D01*
G01*
X174170250Y-110663500D01*
G75*
G02*
X174414000Y-110907250I0J-243750D01*
G01*
X174414000Y-111469750D01*
G75*
G02*
X174170250Y-111713500I-243750J0D01*
G01*
X173682750Y-111713500D01*
G75*
G02*
X173439000Y-111469750I0J243750D01*
G01*
G37*
G36*
G01*
X171864000Y-111469750D02*
X171864000Y-110907250D01*
G75*
G02*
X172107750Y-110663500I243750J0D01*
G01*
X172595250Y-110663500D01*
G75*
G02*
X172839000Y-110907250I0J-243750D01*
G01*
X172839000Y-111469750D01*
G75*
G02*
X172595250Y-111713500I-243750J0D01*
G01*
X172107750Y-111713500D01*
G75*
G02*
X171864000Y-111469750I0J243750D01*
G01*
G37*
%TD*%
%TO.C,C2*%
G36*
G01*
X161183500Y-100230250D02*
X161183500Y-99667750D01*
G75*
G02*
X161427250Y-99424000I243750J0D01*
G01*
X161914750Y-99424000D01*
G75*
G02*
X162158500Y-99667750I0J-243750D01*
G01*
X162158500Y-100230250D01*
G75*
G02*
X161914750Y-100474000I-243750J0D01*
G01*
X161427250Y-100474000D01*
G75*
G02*
X161183500Y-100230250I0J243750D01*
G01*
G37*
G36*
G01*
X159608500Y-100230250D02*
X159608500Y-99667750D01*
G75*
G02*
X159852250Y-99424000I243750J0D01*
G01*
X160339750Y-99424000D01*
G75*
G02*
X160583500Y-99667750I0J-243750D01*
G01*
X160583500Y-100230250D01*
G75*
G02*
X160339750Y-100474000I-243750J0D01*
G01*
X159852250Y-100474000D01*
G75*
G02*
X159608500Y-100230250I0J243750D01*
G01*
G37*
%TD*%
M02*
