%TF.GenerationSoftware,KiCad,Pcbnew,(6.0.0)*%
%TF.CreationDate,2022-01-12T21:24:23-06:00*%
%TF.ProjectId,Current_Sense,43757272-656e-4745-9f53-656e73652e6b,rev?*%
%TF.SameCoordinates,Original*%
%TF.FileFunction,Copper,L1,Top*%
%TF.FilePolarity,Positive*%
%FSLAX46Y46*%
G04 Gerber Fmt 4.6, Leading zero omitted, Abs format (unit mm)*
G04 Created by KiCad (PCBNEW (6.0.0)) date 2022-01-12 21:24:23*
%MOMM*%
%LPD*%
G01*
G04 APERTURE LIST*
G04 Aperture macros list*
%AMRoundRect*
0 Rectangle with rounded corners*
0 $1 Rounding radius*
0 $2 $3 $4 $5 $6 $7 $8 $9 X,Y pos of 4 corners*
0 Add a 4 corners polygon primitive as box body*
4,1,4,$2,$3,$4,$5,$6,$7,$8,$9,$2,$3,0*
0 Add four circle primitives for the rounded corners*
1,1,$1+$1,$2,$3*
1,1,$1+$1,$4,$5*
1,1,$1+$1,$6,$7*
1,1,$1+$1,$8,$9*
0 Add four rect primitives between the rounded corners*
20,1,$1+$1,$2,$3,$4,$5,0*
20,1,$1+$1,$4,$5,$6,$7,0*
20,1,$1+$1,$6,$7,$8,$9,0*
20,1,$1+$1,$8,$9,$2,$3,0*%
G04 Aperture macros list end*
%TA.AperFunction,SMDPad,CuDef*%
%ADD10RoundRect,0.218750X0.218750X0.256250X-0.218750X0.256250X-0.218750X-0.256250X0.218750X-0.256250X0*%
%TD*%
%TA.AperFunction,ComponentPad*%
%ADD11C,4.000000*%
%TD*%
%TA.AperFunction,ComponentPad*%
%ADD12O,2.100000X1.500000*%
%TD*%
%TA.AperFunction,SMDPad,CuDef*%
%ADD13RoundRect,0.875000X-0.875000X3.625000X-0.875000X-3.625000X0.875000X-3.625000X0.875000X3.625000X0*%
%TD*%
%TA.AperFunction,SMDPad,CuDef*%
%ADD14RoundRect,0.175000X-1.575000X0.175000X-1.575000X-0.175000X1.575000X-0.175000X1.575000X0.175000X0*%
%TD*%
%TA.AperFunction,ViaPad*%
%ADD15C,0.800000*%
%TD*%
%TA.AperFunction,Conductor*%
%ADD16C,0.250000*%
%TD*%
G04 APERTURE END LIST*
D10*
%TO.P,C1,2*%
%TO.N,GND*%
X104521000Y-92329000D03*
%TO.P,C1,1*%
%TO.N,+5V*%
X106096000Y-92329000D03*
%TD*%
D11*
%TO.P,U1,9,I_in*%
%TO.N,unconnected-(U1-Pad9)*%
X75290000Y-95145001D03*
%TO.P,U1,10,I_out*%
%TO.N,unconnected-(U1-Pad10)*%
X78790000Y-77145001D03*
X75290000Y-77145001D03*
%TO.P,U1,9,I_in*%
%TO.N,unconnected-(U1-Pad9)*%
X78790000Y-95145001D03*
D12*
%TO.P,U1,1,OCD*%
%TO.N,unconnected-(U1-Pad1)*%
X102390000Y-81765001D03*
%TO.P,U1,3*%
%TO.N,N/C*%
X102390000Y-84265001D03*
%TO.P,U1,2,GND*%
%TO.N,GND*%
X100390000Y-83015001D03*
%TO.P,U1,4*%
%TO.N,N/C*%
X100390000Y-85515001D03*
%TO.P,U1,5,CLK*%
%TO.N,DFSDM1_CKIN5_5V*%
X102390000Y-86765001D03*
%TO.P,U1,6,Dout*%
%TO.N,DFSDM1_DATIN5_5V*%
X100390000Y-88015001D03*
%TO.P,U1,7,Vc*%
%TO.N,+5V*%
X102390000Y-89265001D03*
%TO.P,U1,8,GND*%
%TO.N,GND*%
X100390000Y-90515001D03*
%TD*%
D13*
%TO.P,J5,9,Pin_9*%
%TO.N,GND*%
X123825000Y-85090000D03*
D14*
%TO.P,J5,5,Pin_5*%
X107380000Y-84455000D03*
%TO.P,J5,7,Pin_7*%
X107380000Y-81915000D03*
%TO.P,J5,8,Pin_8*%
%TO.N,+5V*%
X107380000Y-80645000D03*
%TO.P,J5,6,Pin_6*%
%TO.N,DFSDM1_DATIN5_5V*%
X107380000Y-83185000D03*
%TO.P,J5,4,Pin_4*%
%TO.N,GND*%
X107380000Y-85725000D03*
%TO.P,J5,3,Pin_3*%
X107380000Y-86995000D03*
%TO.P,J5,2,Pin_2*%
X107380000Y-88265000D03*
%TO.P,J5,1,Pin_1*%
%TO.N,DFSDM1_CKIN5_5V*%
X107380000Y-89535000D03*
%TD*%
D15*
%TO.N,DFSDM1_DATIN5_5V*%
X109765500Y-83185000D03*
%TD*%
D16*
%TO.N,DFSDM1_DATIN5_5V*%
X109765500Y-83185000D02*
X107380000Y-83185000D01*
%TO.N,DFSDM1_CKIN5_5V*%
X105159999Y-89535000D02*
X102390000Y-86765001D01*
X107380000Y-89535000D02*
X105159999Y-89535000D01*
%TO.N,GND*%
X102203999Y-92329000D02*
X100390000Y-90515001D01*
X104521000Y-92329000D02*
X102203999Y-92329000D01*
X107380000Y-88265000D02*
X110363000Y-88265000D01*
X110363000Y-88265000D02*
X110490000Y-88138000D01*
X110490000Y-88138000D02*
X110490000Y-87376000D01*
X110109000Y-86995000D02*
X107380000Y-86995000D01*
X110490000Y-87376000D02*
X110109000Y-86995000D01*
X107380000Y-85725000D02*
X110363000Y-85725000D01*
X110490000Y-85852000D02*
X110490000Y-87376000D01*
X110363000Y-85725000D02*
X110490000Y-85852000D01*
X107380000Y-84455000D02*
X110363000Y-84455000D01*
X110490000Y-84582000D02*
X110490000Y-85852000D01*
X110363000Y-84455000D02*
X110490000Y-84582000D01*
X107380000Y-81915000D02*
X109601000Y-81915000D01*
X110490000Y-82804000D02*
X110490000Y-84582000D01*
X109601000Y-81915000D02*
X110490000Y-82804000D01*
%TO.N,+5V*%
X106096000Y-92329000D02*
X107188000Y-92329000D01*
X107188000Y-92329000D02*
X107569000Y-91948000D01*
X107569000Y-91948000D02*
X107569000Y-91440000D01*
X107569000Y-91440000D02*
X106553000Y-90424000D01*
X103548999Y-90424000D02*
X102390000Y-89265001D01*
X106553000Y-90424000D02*
X103548999Y-90424000D01*
X100939708Y-80645000D02*
X97790000Y-83794708D01*
X107380000Y-80645000D02*
X100939708Y-80645000D01*
X97790000Y-83794708D02*
X97790000Y-88265000D01*
X98790001Y-89265001D02*
X102390000Y-89265001D01*
X97790000Y-88265000D02*
X98790001Y-89265001D01*
%TO.N,DFSDM1_DATIN5_5V*%
X107380000Y-83185000D02*
X105791000Y-83185000D01*
%TO.N,DFSDM1_CKIN5_5V*%
X102390000Y-86586000D02*
X102390000Y-86765001D01*
%TO.N,unconnected-(U1-Pad9)*%
X78790000Y-95145001D02*
X75290000Y-95145001D01*
%TO.N,unconnected-(U1-Pad10)*%
X78790000Y-77145001D02*
X75290000Y-77145001D01*
%TD*%
%TA.AperFunction,Conductor*%
%TO.N,GND*%
G36*
X124430057Y-74169500D02*
G01*
X124444858Y-74171805D01*
X124444861Y-74171805D01*
X124453730Y-74173186D01*
X124469999Y-74171059D01*
X124494567Y-74170266D01*
X124716985Y-74184844D01*
X124733326Y-74186995D01*
X124977824Y-74235629D01*
X124993743Y-74239895D01*
X125229790Y-74320022D01*
X125245017Y-74326329D01*
X125468592Y-74436584D01*
X125482865Y-74444825D01*
X125690133Y-74583316D01*
X125703210Y-74593349D01*
X125890632Y-74757714D01*
X125902286Y-74769368D01*
X126066651Y-74956790D01*
X126076684Y-74969867D01*
X126215175Y-75177135D01*
X126223416Y-75191408D01*
X126333671Y-75414983D01*
X126339978Y-75430210D01*
X126420105Y-75666257D01*
X126424371Y-75682176D01*
X126473005Y-75926673D01*
X126475156Y-75943014D01*
X126489264Y-76158268D01*
X126488239Y-76181304D01*
X126488196Y-76184854D01*
X126486814Y-76193730D01*
X126488454Y-76206270D01*
X126490936Y-76225251D01*
X126492000Y-76241589D01*
X126492000Y-96470672D01*
X126490500Y-96490056D01*
X126486814Y-96513730D01*
X126488941Y-96529999D01*
X126489734Y-96554567D01*
X126475156Y-96776985D01*
X126473005Y-96793326D01*
X126424371Y-97037824D01*
X126420105Y-97053743D01*
X126339978Y-97289790D01*
X126333671Y-97305017D01*
X126223416Y-97528592D01*
X126215175Y-97542865D01*
X126076684Y-97750133D01*
X126066651Y-97763210D01*
X125902286Y-97950632D01*
X125890632Y-97962286D01*
X125703210Y-98126651D01*
X125690133Y-98136684D01*
X125482865Y-98275175D01*
X125468592Y-98283416D01*
X125245017Y-98393671D01*
X125229790Y-98399978D01*
X124993743Y-98480105D01*
X124977824Y-98484371D01*
X124733327Y-98533005D01*
X124716986Y-98535156D01*
X124501732Y-98549264D01*
X124478696Y-98548239D01*
X124475146Y-98548196D01*
X124466270Y-98546814D01*
X124437762Y-98550542D01*
X124434749Y-98550936D01*
X124418411Y-98552000D01*
X59739328Y-98552000D01*
X59719943Y-98550500D01*
X59705142Y-98548195D01*
X59705139Y-98548195D01*
X59696270Y-98546814D01*
X59680001Y-98548941D01*
X59655433Y-98549734D01*
X59433015Y-98535156D01*
X59416674Y-98533005D01*
X59172176Y-98484371D01*
X59156257Y-98480105D01*
X58920210Y-98399978D01*
X58904983Y-98393671D01*
X58681408Y-98283416D01*
X58667135Y-98275175D01*
X58459867Y-98136684D01*
X58446790Y-98126651D01*
X58259368Y-97962286D01*
X58247714Y-97950632D01*
X58083349Y-97763210D01*
X58073316Y-97750133D01*
X57934825Y-97542865D01*
X57926584Y-97528592D01*
X57816329Y-97305017D01*
X57810022Y-97289790D01*
X57729895Y-97053743D01*
X57725629Y-97037824D01*
X57676995Y-96793327D01*
X57674844Y-96776986D01*
X57660736Y-96561732D01*
X57661761Y-96538696D01*
X57661804Y-96535146D01*
X57663186Y-96526270D01*
X57659064Y-96494748D01*
X57658000Y-96478411D01*
X57658000Y-95145001D01*
X72776540Y-95145001D01*
X72796359Y-95460021D01*
X72855505Y-95770073D01*
X72953044Y-96070267D01*
X72954731Y-96073853D01*
X72954733Y-96073857D01*
X73085750Y-96352284D01*
X73085754Y-96352291D01*
X73087438Y-96355870D01*
X73256568Y-96622376D01*
X73457767Y-96865583D01*
X73687860Y-97081655D01*
X73943221Y-97267185D01*
X73946690Y-97269092D01*
X73946693Y-97269094D01*
X74216352Y-97417341D01*
X74219821Y-97419248D01*
X74223490Y-97420701D01*
X74223495Y-97420703D01*
X74330770Y-97463176D01*
X74513298Y-97535444D01*
X74819025Y-97613941D01*
X75132179Y-97653501D01*
X75447821Y-97653501D01*
X75760975Y-97613941D01*
X76066702Y-97535444D01*
X76249230Y-97463176D01*
X76356505Y-97420703D01*
X76356510Y-97420701D01*
X76360179Y-97419248D01*
X76363648Y-97417341D01*
X76633307Y-97269094D01*
X76633310Y-97269092D01*
X76636779Y-97267185D01*
X76892140Y-97081655D01*
X76953747Y-97023802D01*
X77017097Y-96991751D01*
X77087719Y-96999038D01*
X77126253Y-97023802D01*
X77187860Y-97081655D01*
X77443221Y-97267185D01*
X77446690Y-97269092D01*
X77446693Y-97269094D01*
X77716352Y-97417341D01*
X77719821Y-97419248D01*
X77723490Y-97420701D01*
X77723495Y-97420703D01*
X77830770Y-97463176D01*
X78013298Y-97535444D01*
X78319025Y-97613941D01*
X78632179Y-97653501D01*
X78947821Y-97653501D01*
X79260975Y-97613941D01*
X79566702Y-97535444D01*
X79749230Y-97463176D01*
X79856505Y-97420703D01*
X79856510Y-97420701D01*
X79860179Y-97419248D01*
X79863648Y-97417341D01*
X80133307Y-97269094D01*
X80133310Y-97269092D01*
X80136779Y-97267185D01*
X80392140Y-97081655D01*
X80622233Y-96865583D01*
X80823432Y-96622376D01*
X80992562Y-96355870D01*
X80994246Y-96352291D01*
X80994250Y-96352284D01*
X81125267Y-96073857D01*
X81125269Y-96073853D01*
X81126956Y-96070267D01*
X81224495Y-95770073D01*
X81283641Y-95460021D01*
X81303460Y-95145001D01*
X81283641Y-94829981D01*
X81224495Y-94519929D01*
X81126956Y-94219735D01*
X81125267Y-94216145D01*
X80994250Y-93937718D01*
X80994246Y-93937711D01*
X80992562Y-93934132D01*
X80823432Y-93667626D01*
X80622233Y-93424419D01*
X80392140Y-93208347D01*
X80136779Y-93022817D01*
X80028081Y-92963059D01*
X79863648Y-92872661D01*
X79863647Y-92872660D01*
X79860179Y-92870754D01*
X79856510Y-92869301D01*
X79856505Y-92869299D01*
X79570372Y-92756011D01*
X79570371Y-92756011D01*
X79566702Y-92754558D01*
X79260975Y-92676061D01*
X78947821Y-92636501D01*
X78632179Y-92636501D01*
X78319025Y-92676061D01*
X78013298Y-92754558D01*
X78009629Y-92756011D01*
X78009628Y-92756011D01*
X77723495Y-92869299D01*
X77723490Y-92869301D01*
X77719821Y-92870754D01*
X77716353Y-92872660D01*
X77716352Y-92872661D01*
X77551920Y-92963059D01*
X77443221Y-93022817D01*
X77187860Y-93208347D01*
X77126253Y-93266200D01*
X77062903Y-93298251D01*
X76992281Y-93290964D01*
X76953747Y-93266200D01*
X76892140Y-93208347D01*
X76636779Y-93022817D01*
X76528081Y-92963059D01*
X76363648Y-92872661D01*
X76363647Y-92872660D01*
X76360179Y-92870754D01*
X76356510Y-92869301D01*
X76356505Y-92869299D01*
X76070372Y-92756011D01*
X76070371Y-92756011D01*
X76066702Y-92754558D01*
X75760975Y-92676061D01*
X75447821Y-92636501D01*
X75132179Y-92636501D01*
X74819025Y-92676061D01*
X74513298Y-92754558D01*
X74509629Y-92756011D01*
X74509628Y-92756011D01*
X74223495Y-92869299D01*
X74223490Y-92869301D01*
X74219821Y-92870754D01*
X74216353Y-92872660D01*
X74216352Y-92872661D01*
X74051920Y-92963059D01*
X73943221Y-93022817D01*
X73687860Y-93208347D01*
X73457767Y-93424419D01*
X73256568Y-93667626D01*
X73087438Y-93934132D01*
X73085754Y-93937711D01*
X73085750Y-93937718D01*
X72954733Y-94216145D01*
X72953044Y-94219735D01*
X72855505Y-94519929D01*
X72796359Y-94829981D01*
X72776540Y-95145001D01*
X57658000Y-95145001D01*
X57658000Y-92630266D01*
X103575500Y-92630266D01*
X103575837Y-92636782D01*
X103585304Y-92728021D01*
X103588197Y-92741417D01*
X103637330Y-92888687D01*
X103643504Y-92901866D01*
X103724970Y-93033514D01*
X103734006Y-93044915D01*
X103843580Y-93154298D01*
X103854991Y-93163310D01*
X103986791Y-93244553D01*
X103999968Y-93250697D01*
X104147343Y-93299579D01*
X104160710Y-93302445D01*
X104250200Y-93311614D01*
X104264124Y-93307525D01*
X104265329Y-93306135D01*
X104267000Y-93298452D01*
X104267000Y-92601115D01*
X104262525Y-92585876D01*
X104261135Y-92584671D01*
X104253452Y-92583000D01*
X103593615Y-92583000D01*
X103578376Y-92587475D01*
X103577171Y-92588865D01*
X103575500Y-92596548D01*
X103575500Y-92630266D01*
X57658000Y-92630266D01*
X57658000Y-92056885D01*
X103575500Y-92056885D01*
X103579975Y-92072124D01*
X103581365Y-92073329D01*
X103589048Y-92075000D01*
X104248885Y-92075000D01*
X104264124Y-92070525D01*
X104265329Y-92069135D01*
X104267000Y-92061452D01*
X104267000Y-91364115D01*
X104262525Y-91348876D01*
X104261135Y-91347671D01*
X104254179Y-91346158D01*
X104250718Y-91346337D01*
X104159479Y-91355804D01*
X104146083Y-91358697D01*
X103998813Y-91407830D01*
X103985634Y-91414004D01*
X103853986Y-91495470D01*
X103842585Y-91504506D01*
X103733202Y-91614080D01*
X103724190Y-91625491D01*
X103642947Y-91757291D01*
X103636803Y-91770468D01*
X103587921Y-91917843D01*
X103585055Y-91931210D01*
X103575828Y-92021270D01*
X103575500Y-92027685D01*
X103575500Y-92056885D01*
X57658000Y-92056885D01*
X57658000Y-90782729D01*
X98856114Y-90782729D01*
X98856166Y-90782974D01*
X98918898Y-90986884D01*
X98923119Y-90997230D01*
X99020971Y-91186815D01*
X99026957Y-91196246D01*
X99156832Y-91365502D01*
X99164393Y-91373725D01*
X99322194Y-91517313D01*
X99331094Y-91524068D01*
X99511815Y-91637435D01*
X99521781Y-91642512D01*
X99719714Y-91722081D01*
X99730429Y-91725316D01*
X99940301Y-91768778D01*
X99949438Y-91769981D01*
X99999990Y-91772896D01*
X100003637Y-91773001D01*
X100117885Y-91773001D01*
X100133124Y-91768526D01*
X100134329Y-91767136D01*
X100136000Y-91759453D01*
X100136000Y-90787116D01*
X100131525Y-90771877D01*
X100130135Y-90770672D01*
X100122452Y-90769001D01*
X98871589Y-90769001D01*
X98857607Y-90773106D01*
X98856114Y-90782729D01*
X57658000Y-90782729D01*
X57658000Y-83774651D01*
X97151780Y-83774651D01*
X97152526Y-83782543D01*
X97155941Y-83818669D01*
X97156500Y-83830527D01*
X97156500Y-88186233D01*
X97155973Y-88197416D01*
X97154298Y-88204909D01*
X97154547Y-88212835D01*
X97154547Y-88212836D01*
X97156438Y-88272986D01*
X97156500Y-88276945D01*
X97156500Y-88304856D01*
X97156997Y-88308790D01*
X97156997Y-88308791D01*
X97157005Y-88308856D01*
X97157938Y-88320693D01*
X97159327Y-88364889D01*
X97164978Y-88384339D01*
X97168987Y-88403700D01*
X97171526Y-88423797D01*
X97174445Y-88431168D01*
X97174445Y-88431170D01*
X97187804Y-88464912D01*
X97191649Y-88476142D01*
X97196383Y-88492436D01*
X97203982Y-88518593D01*
X97208015Y-88525412D01*
X97208017Y-88525417D01*
X97214293Y-88536028D01*
X97222988Y-88553776D01*
X97230448Y-88572617D01*
X97235110Y-88579033D01*
X97235110Y-88579034D01*
X97256436Y-88608387D01*
X97262952Y-88618307D01*
X97285458Y-88656362D01*
X97299779Y-88670683D01*
X97312619Y-88685716D01*
X97324528Y-88702107D01*
X97330632Y-88707157D01*
X97330637Y-88707162D01*
X97358598Y-88730293D01*
X97367379Y-88738283D01*
X98286354Y-89657259D01*
X98293888Y-89665538D01*
X98298001Y-89672019D01*
X98336884Y-89708532D01*
X98347652Y-89718644D01*
X98350494Y-89721399D01*
X98370231Y-89741136D01*
X98373428Y-89743616D01*
X98382448Y-89751319D01*
X98414680Y-89781587D01*
X98421626Y-89785406D01*
X98421629Y-89785408D01*
X98432435Y-89791349D01*
X98448954Y-89802200D01*
X98464960Y-89814615D01*
X98472229Y-89817760D01*
X98472233Y-89817763D01*
X98505538Y-89832175D01*
X98516188Y-89837392D01*
X98554941Y-89858696D01*
X98562616Y-89860667D01*
X98562617Y-89860667D01*
X98574563Y-89863734D01*
X98593268Y-89870138D01*
X98611856Y-89878182D01*
X98619679Y-89879421D01*
X98619689Y-89879424D01*
X98655525Y-89885100D01*
X98667145Y-89887506D01*
X98702290Y-89896529D01*
X98709971Y-89898501D01*
X98730225Y-89898501D01*
X98749935Y-89900052D01*
X98769944Y-89903221D01*
X98780501Y-89902223D01*
X98782570Y-89902624D01*
X98785759Y-89902724D01*
X98785743Y-89903238D01*
X98850201Y-89915725D01*
X98901538Y-89964767D01*
X98918211Y-90033778D01*
X98907733Y-90078308D01*
X98895145Y-90106986D01*
X98891578Y-90117583D01*
X98861376Y-90243385D01*
X98862081Y-90257471D01*
X98870960Y-90261001D01*
X100518000Y-90261001D01*
X100586121Y-90281003D01*
X100632614Y-90334659D01*
X100644000Y-90387001D01*
X100644000Y-91754886D01*
X100648475Y-91770125D01*
X100649865Y-91771330D01*
X100657548Y-91773001D01*
X100744175Y-91773001D01*
X100749770Y-91772752D01*
X100908078Y-91758623D01*
X100919092Y-91756641D01*
X101124860Y-91700350D01*
X101135341Y-91696452D01*
X101327903Y-91604604D01*
X101337516Y-91598919D01*
X101510767Y-91474426D01*
X101519233Y-91467118D01*
X101667692Y-91313919D01*
X101674735Y-91305222D01*
X101793719Y-91128157D01*
X101799105Y-91118359D01*
X101884857Y-90923011D01*
X101888422Y-90912419D01*
X101938225Y-90704973D01*
X101939858Y-90693911D01*
X101942837Y-90642248D01*
X101966727Y-90575392D01*
X102022970Y-90532064D01*
X102068628Y-90523501D01*
X102700405Y-90523501D01*
X102768526Y-90543503D01*
X102789501Y-90560406D01*
X103045352Y-90816258D01*
X103052886Y-90824537D01*
X103056999Y-90831018D01*
X103106650Y-90877643D01*
X103109492Y-90880398D01*
X103129229Y-90900135D01*
X103132426Y-90902615D01*
X103141446Y-90910318D01*
X103173678Y-90940586D01*
X103180624Y-90944405D01*
X103180627Y-90944407D01*
X103191433Y-90950348D01*
X103207952Y-90961199D01*
X103223958Y-90973614D01*
X103231227Y-90976759D01*
X103231231Y-90976762D01*
X103264536Y-90991174D01*
X103275186Y-90996391D01*
X103313939Y-91017695D01*
X103321614Y-91019666D01*
X103321615Y-91019666D01*
X103333561Y-91022733D01*
X103352266Y-91029137D01*
X103370854Y-91037181D01*
X103378677Y-91038420D01*
X103378687Y-91038423D01*
X103414523Y-91044099D01*
X103426143Y-91046505D01*
X103461043Y-91055465D01*
X103468969Y-91057500D01*
X103489223Y-91057500D01*
X103508933Y-91059051D01*
X103528942Y-91062220D01*
X103536834Y-91061474D01*
X103572960Y-91058059D01*
X103584818Y-91057500D01*
X106238406Y-91057500D01*
X106306527Y-91077502D01*
X106327501Y-91094405D01*
X106363501Y-91130405D01*
X106397527Y-91192717D01*
X106392462Y-91263532D01*
X106349915Y-91320368D01*
X106283395Y-91345179D01*
X106274406Y-91345500D01*
X105828928Y-91345500D01*
X105825682Y-91345837D01*
X105825678Y-91345837D01*
X105804486Y-91348036D01*
X105727518Y-91356022D01*
X105566651Y-91409692D01*
X105422445Y-91498929D01*
X105417276Y-91504107D01*
X105397259Y-91524159D01*
X105334977Y-91558238D01*
X105264157Y-91553235D01*
X105219068Y-91524314D01*
X105198420Y-91503702D01*
X105187009Y-91494690D01*
X105055209Y-91413447D01*
X105042032Y-91407303D01*
X104894657Y-91358421D01*
X104881290Y-91355555D01*
X104791800Y-91346386D01*
X104777876Y-91350475D01*
X104776671Y-91351865D01*
X104775000Y-91359548D01*
X104775000Y-93293885D01*
X104779475Y-93309124D01*
X104780865Y-93310329D01*
X104787821Y-93311842D01*
X104791282Y-93311663D01*
X104882521Y-93302196D01*
X104895917Y-93299303D01*
X105043187Y-93250170D01*
X105056366Y-93243996D01*
X105188014Y-93162530D01*
X105199415Y-93153494D01*
X105219033Y-93133842D01*
X105281316Y-93099763D01*
X105352136Y-93104766D01*
X105397223Y-93133686D01*
X105416951Y-93153379D01*
X105423447Y-93159864D01*
X105567808Y-93248849D01*
X105574756Y-93251154D01*
X105574757Y-93251154D01*
X105722238Y-93300072D01*
X105722240Y-93300072D01*
X105728769Y-93302238D01*
X105828928Y-93312500D01*
X106363072Y-93312500D01*
X106366318Y-93312163D01*
X106366322Y-93312163D01*
X106400103Y-93308658D01*
X106464482Y-93301978D01*
X106625349Y-93248308D01*
X106769555Y-93159071D01*
X106889364Y-93039053D01*
X106899639Y-93022384D01*
X106952412Y-92974890D01*
X107006899Y-92962500D01*
X107109233Y-92962500D01*
X107120416Y-92963027D01*
X107127909Y-92964702D01*
X107135835Y-92964453D01*
X107135836Y-92964453D01*
X107195986Y-92962562D01*
X107199945Y-92962500D01*
X107227856Y-92962500D01*
X107231791Y-92962003D01*
X107231856Y-92961995D01*
X107243693Y-92961062D01*
X107275951Y-92960048D01*
X107279970Y-92959922D01*
X107287889Y-92959673D01*
X107307343Y-92954021D01*
X107326700Y-92950013D01*
X107338930Y-92948468D01*
X107338931Y-92948468D01*
X107346797Y-92947474D01*
X107354168Y-92944555D01*
X107354170Y-92944555D01*
X107387912Y-92931196D01*
X107399142Y-92927351D01*
X107433983Y-92917229D01*
X107433984Y-92917229D01*
X107441593Y-92915018D01*
X107448412Y-92910985D01*
X107448417Y-92910983D01*
X107459028Y-92904707D01*
X107476776Y-92896012D01*
X107495617Y-92888552D01*
X107517490Y-92872661D01*
X107531387Y-92862564D01*
X107541307Y-92856048D01*
X107572535Y-92837580D01*
X107572538Y-92837578D01*
X107579362Y-92833542D01*
X107593683Y-92819221D01*
X107608717Y-92806380D01*
X107618694Y-92799131D01*
X107625107Y-92794472D01*
X107653298Y-92760395D01*
X107661288Y-92751616D01*
X107961247Y-92451657D01*
X107969537Y-92444113D01*
X107976018Y-92440000D01*
X108022659Y-92390332D01*
X108025413Y-92387491D01*
X108045134Y-92367770D01*
X108047612Y-92364575D01*
X108055318Y-92355553D01*
X108080158Y-92329101D01*
X108085586Y-92323321D01*
X108095346Y-92305568D01*
X108106199Y-92289045D01*
X108113753Y-92279306D01*
X108118613Y-92273041D01*
X108136176Y-92232457D01*
X108141383Y-92221827D01*
X108162695Y-92183060D01*
X108164666Y-92175383D01*
X108164668Y-92175378D01*
X108167732Y-92163442D01*
X108174138Y-92144730D01*
X108179034Y-92133417D01*
X108182181Y-92126145D01*
X108189097Y-92082481D01*
X108191504Y-92070860D01*
X108200528Y-92035711D01*
X108200528Y-92035710D01*
X108202500Y-92028030D01*
X108202500Y-92007769D01*
X108204051Y-91988058D01*
X108205979Y-91975885D01*
X108207219Y-91968057D01*
X108203059Y-91924046D01*
X108202500Y-91912189D01*
X108202500Y-91518767D01*
X108203027Y-91507584D01*
X108204702Y-91500091D01*
X108202562Y-91432000D01*
X108202500Y-91428043D01*
X108202500Y-91400144D01*
X108201996Y-91396153D01*
X108201063Y-91384311D01*
X108200731Y-91373725D01*
X108199674Y-91340111D01*
X108197462Y-91332497D01*
X108197461Y-91332492D01*
X108194023Y-91320659D01*
X108190012Y-91301295D01*
X108188467Y-91289064D01*
X108187474Y-91281203D01*
X108184557Y-91273836D01*
X108184556Y-91273831D01*
X108171198Y-91240092D01*
X108167354Y-91228865D01*
X108165232Y-91221561D01*
X108155018Y-91186407D01*
X108144707Y-91168972D01*
X108136012Y-91151224D01*
X108128552Y-91132383D01*
X108102564Y-91096613D01*
X108096048Y-91086693D01*
X108077580Y-91055465D01*
X108077578Y-91055462D01*
X108073542Y-91048638D01*
X108059221Y-91034317D01*
X108046380Y-91019283D01*
X108039131Y-91009306D01*
X108034472Y-91002893D01*
X108028368Y-90997843D01*
X108028363Y-90997838D01*
X108000402Y-90974707D01*
X107991621Y-90966717D01*
X107633500Y-90608595D01*
X107599475Y-90546283D01*
X107604540Y-90475467D01*
X107647087Y-90418632D01*
X107713607Y-90393821D01*
X107722596Y-90393500D01*
X109009634Y-90393500D01*
X109080473Y-90386991D01*
X109086853Y-90384992D01*
X109086856Y-90384991D01*
X109231086Y-90339791D01*
X109238336Y-90337519D01*
X109244833Y-90333584D01*
X109244836Y-90333583D01*
X109364684Y-90261001D01*
X109379842Y-90251821D01*
X109496821Y-90134842D01*
X109531059Y-90078308D01*
X109578583Y-89999836D01*
X109578584Y-89999833D01*
X109582519Y-89993336D01*
X109606841Y-89915725D01*
X109629991Y-89841856D01*
X109629992Y-89841853D01*
X109631991Y-89835473D01*
X109638500Y-89764634D01*
X109638500Y-89305366D01*
X109631991Y-89234527D01*
X109628589Y-89223669D01*
X109584791Y-89083914D01*
X109582519Y-89076664D01*
X109514765Y-88964787D01*
X109496586Y-88896158D01*
X109514765Y-88834246D01*
X109532095Y-88805631D01*
X121567000Y-88805631D01*
X121567091Y-88809016D01*
X121569882Y-88860545D01*
X121570955Y-88869189D01*
X121614080Y-89090018D01*
X121616994Y-89100246D01*
X121696364Y-89309740D01*
X121700962Y-89319338D01*
X121814493Y-89512460D01*
X121820646Y-89521149D01*
X121965101Y-89692392D01*
X121972608Y-89699899D01*
X122143851Y-89844354D01*
X122152540Y-89850507D01*
X122345662Y-89964038D01*
X122355260Y-89968636D01*
X122564754Y-90048006D01*
X122574982Y-90050920D01*
X122795811Y-90094045D01*
X122804455Y-90095118D01*
X122855984Y-90097909D01*
X122859369Y-90098000D01*
X123552885Y-90098000D01*
X123568124Y-90093525D01*
X123569329Y-90092135D01*
X123571000Y-90084452D01*
X123571000Y-90079885D01*
X124079000Y-90079885D01*
X124083475Y-90095124D01*
X124084865Y-90096329D01*
X124092548Y-90098000D01*
X124790631Y-90098000D01*
X124794016Y-90097909D01*
X124845545Y-90095118D01*
X124854189Y-90094045D01*
X125075018Y-90050920D01*
X125085246Y-90048006D01*
X125294740Y-89968636D01*
X125304338Y-89964038D01*
X125497460Y-89850507D01*
X125506149Y-89844354D01*
X125677392Y-89699899D01*
X125684899Y-89692392D01*
X125829354Y-89521149D01*
X125835507Y-89512460D01*
X125949038Y-89319338D01*
X125953636Y-89309740D01*
X126033006Y-89100246D01*
X126035920Y-89090018D01*
X126079045Y-88869189D01*
X126080118Y-88860545D01*
X126082909Y-88809016D01*
X126083000Y-88805631D01*
X126083000Y-85362115D01*
X126078525Y-85346876D01*
X126077135Y-85345671D01*
X126069452Y-85344000D01*
X124097115Y-85344000D01*
X124081876Y-85348475D01*
X124080671Y-85349865D01*
X124079000Y-85357548D01*
X124079000Y-90079885D01*
X123571000Y-90079885D01*
X123571000Y-85362115D01*
X123566525Y-85346876D01*
X123565135Y-85345671D01*
X123557452Y-85344000D01*
X121585115Y-85344000D01*
X121569876Y-85348475D01*
X121568671Y-85349865D01*
X121567000Y-85357548D01*
X121567000Y-88805631D01*
X109532095Y-88805631D01*
X109578125Y-88729625D01*
X109584332Y-88715879D01*
X109629494Y-88571766D01*
X109632107Y-88558717D01*
X109634099Y-88537039D01*
X109631178Y-88522164D01*
X109619284Y-88519000D01*
X105142359Y-88519000D01*
X105134886Y-88521194D01*
X105063889Y-88521192D01*
X105010295Y-88489392D01*
X103887879Y-87366976D01*
X103853853Y-87304664D01*
X103857781Y-87265405D01*
X105125750Y-87265405D01*
X105127893Y-87288717D01*
X105130506Y-87301766D01*
X105175668Y-87445879D01*
X105181875Y-87459626D01*
X105245527Y-87564729D01*
X105263706Y-87633359D01*
X105245527Y-87695271D01*
X105181875Y-87800374D01*
X105175668Y-87814121D01*
X105130506Y-87958234D01*
X105127893Y-87971283D01*
X105125901Y-87992961D01*
X105128822Y-88007836D01*
X105140716Y-88011000D01*
X107107885Y-88011000D01*
X107123124Y-88006525D01*
X107124329Y-88005135D01*
X107126000Y-87997452D01*
X107126000Y-87992885D01*
X107634000Y-87992885D01*
X107638475Y-88008124D01*
X107639865Y-88009329D01*
X107647548Y-88011000D01*
X109617642Y-88011000D01*
X109632187Y-88006729D01*
X109634250Y-87994595D01*
X109632107Y-87971283D01*
X109629494Y-87958234D01*
X109584332Y-87814121D01*
X109578125Y-87800374D01*
X109514473Y-87695271D01*
X109496294Y-87626641D01*
X109514473Y-87564729D01*
X109578125Y-87459626D01*
X109584332Y-87445879D01*
X109629494Y-87301766D01*
X109632107Y-87288717D01*
X109634099Y-87267039D01*
X109631178Y-87252164D01*
X109619284Y-87249000D01*
X107652115Y-87249000D01*
X107636876Y-87253475D01*
X107635671Y-87254865D01*
X107634000Y-87262548D01*
X107634000Y-87992885D01*
X107126000Y-87992885D01*
X107126000Y-87267115D01*
X107121525Y-87251876D01*
X107120135Y-87250671D01*
X107112452Y-87249000D01*
X105142358Y-87249000D01*
X105127813Y-87253271D01*
X105125750Y-87265405D01*
X103857781Y-87265405D01*
X103861601Y-87227235D01*
X103885331Y-87173176D01*
X103885332Y-87173174D01*
X103887588Y-87168034D01*
X103940032Y-86949590D01*
X103950307Y-86771384D01*
X103952640Y-86730918D01*
X103952640Y-86730915D01*
X103952963Y-86725311D01*
X103925975Y-86502286D01*
X103859918Y-86287566D01*
X103810627Y-86192065D01*
X103759454Y-86092920D01*
X103759454Y-86092919D01*
X103756882Y-86087937D01*
X103685880Y-85995405D01*
X105125750Y-85995405D01*
X105127893Y-86018717D01*
X105130506Y-86031766D01*
X105175668Y-86175879D01*
X105181875Y-86189626D01*
X105245527Y-86294729D01*
X105263706Y-86363359D01*
X105245527Y-86425271D01*
X105181875Y-86530374D01*
X105175668Y-86544121D01*
X105130506Y-86688234D01*
X105127893Y-86701283D01*
X105125901Y-86722961D01*
X105128822Y-86737836D01*
X105140716Y-86741000D01*
X107107885Y-86741000D01*
X107123124Y-86736525D01*
X107124329Y-86735135D01*
X107126000Y-86727452D01*
X107126000Y-86722885D01*
X107634000Y-86722885D01*
X107638475Y-86738124D01*
X107639865Y-86739329D01*
X107647548Y-86741000D01*
X109617642Y-86741000D01*
X109632187Y-86736729D01*
X109634250Y-86724595D01*
X109632107Y-86701283D01*
X109629494Y-86688234D01*
X109584332Y-86544121D01*
X109578125Y-86530374D01*
X109514473Y-86425271D01*
X109496294Y-86356641D01*
X109514473Y-86294729D01*
X109578125Y-86189626D01*
X109584332Y-86175879D01*
X109629494Y-86031766D01*
X109632107Y-86018717D01*
X109634099Y-85997039D01*
X109631178Y-85982164D01*
X109619284Y-85979000D01*
X107652115Y-85979000D01*
X107636876Y-85983475D01*
X107635671Y-85984865D01*
X107634000Y-85992548D01*
X107634000Y-86722885D01*
X107126000Y-86722885D01*
X107126000Y-85997115D01*
X107121525Y-85981876D01*
X107120135Y-85980671D01*
X107112452Y-85979000D01*
X105142358Y-85979000D01*
X105127813Y-85983271D01*
X105125750Y-85995405D01*
X103685880Y-85995405D01*
X103620123Y-85909709D01*
X103453964Y-85758516D01*
X103449217Y-85755538D01*
X103449214Y-85755536D01*
X103268405Y-85642116D01*
X103263656Y-85639137D01*
X103241761Y-85630335D01*
X103186018Y-85586371D01*
X103162892Y-85519246D01*
X103179728Y-85450275D01*
X103234513Y-85399704D01*
X103328151Y-85355040D01*
X103328152Y-85355039D01*
X103333218Y-85352623D01*
X103515654Y-85221530D01*
X103671992Y-85060202D01*
X103797290Y-84873739D01*
X103862404Y-84725405D01*
X105125750Y-84725405D01*
X105127893Y-84748717D01*
X105130506Y-84761766D01*
X105175668Y-84905879D01*
X105181875Y-84919626D01*
X105245527Y-85024729D01*
X105263706Y-85093359D01*
X105245527Y-85155271D01*
X105181875Y-85260374D01*
X105175668Y-85274121D01*
X105130506Y-85418234D01*
X105127893Y-85431283D01*
X105125901Y-85452961D01*
X105128822Y-85467836D01*
X105140716Y-85471000D01*
X107107885Y-85471000D01*
X107123124Y-85466525D01*
X107124329Y-85465135D01*
X107126000Y-85457452D01*
X107126000Y-85452885D01*
X107634000Y-85452885D01*
X107638475Y-85468124D01*
X107639865Y-85469329D01*
X107647548Y-85471000D01*
X109617642Y-85471000D01*
X109632187Y-85466729D01*
X109634250Y-85454595D01*
X109632107Y-85431283D01*
X109629494Y-85418234D01*
X109584332Y-85274121D01*
X109578125Y-85260374D01*
X109514473Y-85155271D01*
X109496294Y-85086641D01*
X109514473Y-85024729D01*
X109578125Y-84919626D01*
X109584332Y-84905879D01*
X109611907Y-84817885D01*
X121567000Y-84817885D01*
X121571475Y-84833124D01*
X121572865Y-84834329D01*
X121580548Y-84836000D01*
X123552885Y-84836000D01*
X123568124Y-84831525D01*
X123569329Y-84830135D01*
X123571000Y-84822452D01*
X123571000Y-84817885D01*
X124079000Y-84817885D01*
X124083475Y-84833124D01*
X124084865Y-84834329D01*
X124092548Y-84836000D01*
X126064885Y-84836000D01*
X126080124Y-84831525D01*
X126081329Y-84830135D01*
X126083000Y-84822452D01*
X126083000Y-81374370D01*
X126082909Y-81370984D01*
X126080118Y-81319455D01*
X126079045Y-81310811D01*
X126035920Y-81089982D01*
X126033006Y-81079754D01*
X125953636Y-80870260D01*
X125949038Y-80860662D01*
X125835507Y-80667540D01*
X125829354Y-80658851D01*
X125684899Y-80487608D01*
X125677392Y-80480101D01*
X125506149Y-80335646D01*
X125497460Y-80329493D01*
X125304338Y-80215962D01*
X125294740Y-80211364D01*
X125085246Y-80131994D01*
X125075018Y-80129080D01*
X124854189Y-80085955D01*
X124845545Y-80084882D01*
X124794016Y-80082091D01*
X124790630Y-80082000D01*
X124097115Y-80082000D01*
X124081876Y-80086475D01*
X124080671Y-80087865D01*
X124079000Y-80095548D01*
X124079000Y-84817885D01*
X123571000Y-84817885D01*
X123571000Y-80100115D01*
X123566525Y-80084876D01*
X123565135Y-80083671D01*
X123557452Y-80082000D01*
X122859370Y-80082000D01*
X122855984Y-80082091D01*
X122804455Y-80084882D01*
X122795811Y-80085955D01*
X122574982Y-80129080D01*
X122564754Y-80131994D01*
X122355260Y-80211364D01*
X122345662Y-80215962D01*
X122152540Y-80329493D01*
X122143851Y-80335646D01*
X121972608Y-80480101D01*
X121965101Y-80487608D01*
X121820646Y-80658851D01*
X121814493Y-80667540D01*
X121700962Y-80860662D01*
X121696364Y-80870260D01*
X121616994Y-81079754D01*
X121614080Y-81089982D01*
X121570955Y-81310811D01*
X121569882Y-81319455D01*
X121567091Y-81370984D01*
X121567000Y-81374370D01*
X121567000Y-84817885D01*
X109611907Y-84817885D01*
X109629494Y-84761766D01*
X109632107Y-84748717D01*
X109634099Y-84727039D01*
X109631178Y-84712164D01*
X109619284Y-84709000D01*
X107652115Y-84709000D01*
X107636876Y-84713475D01*
X107635671Y-84714865D01*
X107634000Y-84722548D01*
X107634000Y-85452885D01*
X107126000Y-85452885D01*
X107126000Y-84727115D01*
X107121525Y-84711876D01*
X107120135Y-84710671D01*
X107112452Y-84709000D01*
X105142358Y-84709000D01*
X105127813Y-84713271D01*
X105125750Y-84725405D01*
X103862404Y-84725405D01*
X103887588Y-84668034D01*
X103940032Y-84449590D01*
X103952963Y-84225311D01*
X103925975Y-84002286D01*
X103859918Y-83787566D01*
X103857326Y-83782543D01*
X103759454Y-83592920D01*
X103759454Y-83592919D01*
X103756882Y-83587937D01*
X103623902Y-83414634D01*
X105121500Y-83414634D01*
X105128009Y-83485473D01*
X105130008Y-83491853D01*
X105130009Y-83491856D01*
X105139113Y-83520906D01*
X105177481Y-83643336D01*
X105181416Y-83649833D01*
X105181417Y-83649836D01*
X105195156Y-83672522D01*
X105238960Y-83744850D01*
X105245235Y-83755212D01*
X105263414Y-83823842D01*
X105245235Y-83885754D01*
X105181875Y-83990375D01*
X105175668Y-84004121D01*
X105130506Y-84148234D01*
X105127893Y-84161283D01*
X105125901Y-84182961D01*
X105128822Y-84197836D01*
X105140716Y-84201000D01*
X109617642Y-84201000D01*
X109632801Y-84196549D01*
X109663038Y-84134581D01*
X109723726Y-84097736D01*
X109756123Y-84093500D01*
X109860987Y-84093500D01*
X109867439Y-84092128D01*
X109867444Y-84092128D01*
X109954388Y-84073647D01*
X110047788Y-84053794D01*
X110070909Y-84043500D01*
X110216222Y-83978803D01*
X110216224Y-83978802D01*
X110222252Y-83976118D01*
X110376753Y-83863866D01*
X110445454Y-83787566D01*
X110500121Y-83726852D01*
X110500122Y-83726851D01*
X110504540Y-83721944D01*
X110600027Y-83556556D01*
X110659042Y-83374928D01*
X110661116Y-83355201D01*
X110678314Y-83191565D01*
X110679004Y-83185000D01*
X110665377Y-83055345D01*
X110659732Y-83001635D01*
X110659732Y-83001633D01*
X110659042Y-82995072D01*
X110600027Y-82813444D01*
X110575803Y-82771486D01*
X110507841Y-82653774D01*
X110504540Y-82648056D01*
X110474586Y-82614788D01*
X110381175Y-82511045D01*
X110381174Y-82511044D01*
X110376753Y-82506134D01*
X110222252Y-82393882D01*
X110216224Y-82391198D01*
X110216222Y-82391197D01*
X110053819Y-82318891D01*
X110053818Y-82318891D01*
X110047788Y-82316206D01*
X109954388Y-82296353D01*
X109867444Y-82277872D01*
X109867439Y-82277872D01*
X109860987Y-82276500D01*
X109755329Y-82276500D01*
X109687208Y-82256498D01*
X109640715Y-82202842D01*
X109631691Y-82174784D01*
X109631176Y-82172164D01*
X109619284Y-82169000D01*
X105142358Y-82169000D01*
X105127813Y-82173271D01*
X105125750Y-82185405D01*
X105127893Y-82208717D01*
X105130506Y-82221766D01*
X105175668Y-82365879D01*
X105181875Y-82379625D01*
X105245235Y-82484246D01*
X105263414Y-82552876D01*
X105245235Y-82614787D01*
X105177481Y-82726664D01*
X105175209Y-82733914D01*
X105139033Y-82849351D01*
X105128009Y-82884527D01*
X105121500Y-82955366D01*
X105121500Y-83414634D01*
X103623902Y-83414634D01*
X103620123Y-83409709D01*
X103453964Y-83258516D01*
X103449217Y-83255538D01*
X103449214Y-83255536D01*
X103268405Y-83142116D01*
X103263656Y-83139137D01*
X103241761Y-83130335D01*
X103186018Y-83086371D01*
X103162892Y-83019246D01*
X103179728Y-82950275D01*
X103234513Y-82899704D01*
X103328151Y-82855040D01*
X103328152Y-82855039D01*
X103333218Y-82852623D01*
X103515654Y-82721530D01*
X103613760Y-82620293D01*
X103668089Y-82564230D01*
X103668091Y-82564227D01*
X103671992Y-82560202D01*
X103797290Y-82373739D01*
X103887588Y-82168034D01*
X103940032Y-81949590D01*
X103952963Y-81725311D01*
X103925975Y-81502286D01*
X103910005Y-81450375D01*
X103907290Y-81441549D01*
X103906378Y-81370558D01*
X103943991Y-81310344D01*
X104008187Y-81280023D01*
X104027720Y-81278500D01*
X105064340Y-81278500D01*
X105132461Y-81298502D01*
X105178954Y-81352158D01*
X105189058Y-81422432D01*
X105179177Y-81456350D01*
X105175668Y-81464121D01*
X105130506Y-81608234D01*
X105127893Y-81621283D01*
X105125901Y-81642961D01*
X105128822Y-81657836D01*
X105140716Y-81661000D01*
X109617642Y-81661000D01*
X109632187Y-81656729D01*
X109634250Y-81644595D01*
X109632107Y-81621283D01*
X109629494Y-81608234D01*
X109584332Y-81464121D01*
X109578125Y-81450375D01*
X109514765Y-81345754D01*
X109496586Y-81277124D01*
X109514765Y-81215212D01*
X109578583Y-81109836D01*
X109578584Y-81109833D01*
X109582519Y-81103336D01*
X109631991Y-80945473D01*
X109638500Y-80874634D01*
X109638500Y-80415366D01*
X109631991Y-80344527D01*
X109582519Y-80186664D01*
X109578198Y-80179528D01*
X109500758Y-80051659D01*
X109496821Y-80045158D01*
X109379842Y-79928179D01*
X109352312Y-79911506D01*
X109244836Y-79846417D01*
X109244833Y-79846416D01*
X109238336Y-79842481D01*
X109213922Y-79834830D01*
X109086856Y-79795009D01*
X109086853Y-79795008D01*
X109080473Y-79793009D01*
X109009634Y-79786500D01*
X105750366Y-79786500D01*
X105679527Y-79793009D01*
X105673147Y-79795008D01*
X105673144Y-79795009D01*
X105546078Y-79834830D01*
X105521664Y-79842481D01*
X105515167Y-79846416D01*
X105515164Y-79846417D01*
X105407688Y-79911506D01*
X105380158Y-79928179D01*
X105333742Y-79974595D01*
X105271430Y-80008621D01*
X105244647Y-80011500D01*
X101018476Y-80011500D01*
X101007293Y-80010973D01*
X100999800Y-80009298D01*
X100991874Y-80009547D01*
X100991873Y-80009547D01*
X100931710Y-80011438D01*
X100927752Y-80011500D01*
X100899852Y-80011500D01*
X100895862Y-80012004D01*
X100884028Y-80012936D01*
X100839819Y-80014326D01*
X100832205Y-80016538D01*
X100832200Y-80016539D01*
X100820367Y-80019977D01*
X100801004Y-80023988D01*
X100780911Y-80026526D01*
X100773544Y-80029443D01*
X100773539Y-80029444D01*
X100739800Y-80042802D01*
X100728573Y-80046646D01*
X100686115Y-80058982D01*
X100679289Y-80063019D01*
X100668680Y-80069293D01*
X100650932Y-80077988D01*
X100632091Y-80085448D01*
X100625675Y-80090110D01*
X100625674Y-80090110D01*
X100596321Y-80111436D01*
X100586401Y-80117952D01*
X100555173Y-80136420D01*
X100555170Y-80136422D01*
X100548346Y-80140458D01*
X100534025Y-80154779D01*
X100518992Y-80167619D01*
X100502601Y-80179528D01*
X100497550Y-80185634D01*
X100474410Y-80213605D01*
X100466420Y-80222384D01*
X97397747Y-83291056D01*
X97389461Y-83298596D01*
X97382982Y-83302708D01*
X97377557Y-83308485D01*
X97336357Y-83352359D01*
X97333602Y-83355201D01*
X97313865Y-83374938D01*
X97311385Y-83378135D01*
X97303682Y-83387155D01*
X97273414Y-83419387D01*
X97269595Y-83426333D01*
X97269593Y-83426336D01*
X97263652Y-83437142D01*
X97252801Y-83453661D01*
X97240386Y-83469667D01*
X97237241Y-83476936D01*
X97237238Y-83476940D01*
X97222826Y-83510245D01*
X97217609Y-83520895D01*
X97196305Y-83559648D01*
X97194334Y-83567323D01*
X97194334Y-83567324D01*
X97191267Y-83579270D01*
X97184863Y-83597974D01*
X97176819Y-83616563D01*
X97175580Y-83624386D01*
X97175577Y-83624396D01*
X97169901Y-83660232D01*
X97167495Y-83671852D01*
X97156500Y-83714678D01*
X97156500Y-83734932D01*
X97154949Y-83754642D01*
X97151780Y-83774651D01*
X57658000Y-83774651D01*
X57658000Y-77145001D01*
X72776540Y-77145001D01*
X72796359Y-77460021D01*
X72855505Y-77770073D01*
X72953044Y-78070267D01*
X72954731Y-78073853D01*
X72954733Y-78073857D01*
X73085750Y-78352284D01*
X73085754Y-78352291D01*
X73087438Y-78355870D01*
X73256568Y-78622376D01*
X73457767Y-78865583D01*
X73687860Y-79081655D01*
X73943221Y-79267185D01*
X74219821Y-79419248D01*
X74223490Y-79420701D01*
X74223495Y-79420703D01*
X74509628Y-79533991D01*
X74513298Y-79535444D01*
X74819025Y-79613941D01*
X75132179Y-79653501D01*
X75447821Y-79653501D01*
X75760975Y-79613941D01*
X76066702Y-79535444D01*
X76070372Y-79533991D01*
X76356505Y-79420703D01*
X76356510Y-79420701D01*
X76360179Y-79419248D01*
X76636779Y-79267185D01*
X76892140Y-79081655D01*
X76953747Y-79023802D01*
X77017097Y-78991751D01*
X77087719Y-78999038D01*
X77126253Y-79023802D01*
X77187860Y-79081655D01*
X77443221Y-79267185D01*
X77719821Y-79419248D01*
X77723490Y-79420701D01*
X77723495Y-79420703D01*
X78009628Y-79533991D01*
X78013298Y-79535444D01*
X78319025Y-79613941D01*
X78632179Y-79653501D01*
X78947821Y-79653501D01*
X79260975Y-79613941D01*
X79566702Y-79535444D01*
X79570372Y-79533991D01*
X79856505Y-79420703D01*
X79856510Y-79420701D01*
X79860179Y-79419248D01*
X80136779Y-79267185D01*
X80392140Y-79081655D01*
X80622233Y-78865583D01*
X80823432Y-78622376D01*
X80992562Y-78355870D01*
X80994246Y-78352291D01*
X80994250Y-78352284D01*
X81125267Y-78073857D01*
X81125269Y-78073853D01*
X81126956Y-78070267D01*
X81224495Y-77770073D01*
X81283641Y-77460021D01*
X81303460Y-77145001D01*
X81283641Y-76829981D01*
X81224495Y-76519929D01*
X81126956Y-76219735D01*
X81120620Y-76206270D01*
X80994250Y-75937718D01*
X80994246Y-75937711D01*
X80992562Y-75934132D01*
X80823432Y-75667626D01*
X80622233Y-75424419D01*
X80392140Y-75208347D01*
X80368826Y-75191408D01*
X80336369Y-75167827D01*
X80136779Y-75022817D01*
X80027968Y-74962997D01*
X79863648Y-74872661D01*
X79863647Y-74872660D01*
X79860179Y-74870754D01*
X79856510Y-74869301D01*
X79856505Y-74869299D01*
X79570372Y-74756011D01*
X79570371Y-74756011D01*
X79566702Y-74754558D01*
X79260975Y-74676061D01*
X78947821Y-74636501D01*
X78632179Y-74636501D01*
X78319025Y-74676061D01*
X78013298Y-74754558D01*
X78009629Y-74756011D01*
X78009628Y-74756011D01*
X77723495Y-74869299D01*
X77723490Y-74869301D01*
X77719821Y-74870754D01*
X77716353Y-74872660D01*
X77716352Y-74872661D01*
X77552033Y-74962997D01*
X77443221Y-75022817D01*
X77243631Y-75167827D01*
X77211175Y-75191408D01*
X77187860Y-75208347D01*
X77126253Y-75266200D01*
X77062903Y-75298251D01*
X76992281Y-75290964D01*
X76953747Y-75266200D01*
X76892140Y-75208347D01*
X76868826Y-75191408D01*
X76836369Y-75167827D01*
X76636779Y-75022817D01*
X76527968Y-74962997D01*
X76363648Y-74872661D01*
X76363647Y-74872660D01*
X76360179Y-74870754D01*
X76356510Y-74869301D01*
X76356505Y-74869299D01*
X76070372Y-74756011D01*
X76070371Y-74756011D01*
X76066702Y-74754558D01*
X75760975Y-74676061D01*
X75447821Y-74636501D01*
X75132179Y-74636501D01*
X74819025Y-74676061D01*
X74513298Y-74754558D01*
X74509629Y-74756011D01*
X74509628Y-74756011D01*
X74223495Y-74869299D01*
X74223490Y-74869301D01*
X74219821Y-74870754D01*
X74216353Y-74872660D01*
X74216352Y-74872661D01*
X74052033Y-74962997D01*
X73943221Y-75022817D01*
X73743631Y-75167827D01*
X73711175Y-75191408D01*
X73687860Y-75208347D01*
X73457767Y-75424419D01*
X73256568Y-75667626D01*
X73087438Y-75934132D01*
X73085754Y-75937711D01*
X73085750Y-75937718D01*
X72959380Y-76206270D01*
X72953044Y-76219735D01*
X72855505Y-76519929D01*
X72796359Y-76829981D01*
X72776540Y-77145001D01*
X57658000Y-77145001D01*
X57658000Y-76249328D01*
X57659500Y-76229943D01*
X57661805Y-76215142D01*
X57661805Y-76215139D01*
X57663186Y-76206270D01*
X57661059Y-76190001D01*
X57660266Y-76165433D01*
X57674844Y-75943015D01*
X57676995Y-75926674D01*
X57725629Y-75682176D01*
X57729895Y-75666257D01*
X57810022Y-75430210D01*
X57816329Y-75414983D01*
X57926584Y-75191408D01*
X57934825Y-75177135D01*
X58073316Y-74969867D01*
X58083349Y-74956790D01*
X58247714Y-74769368D01*
X58259368Y-74757714D01*
X58446790Y-74593349D01*
X58459867Y-74583316D01*
X58667135Y-74444825D01*
X58681408Y-74436584D01*
X58904983Y-74326329D01*
X58920210Y-74320022D01*
X59156257Y-74239895D01*
X59172176Y-74235629D01*
X59416673Y-74186995D01*
X59433014Y-74184844D01*
X59648268Y-74170736D01*
X59671304Y-74171761D01*
X59674854Y-74171804D01*
X59683730Y-74173186D01*
X59715252Y-74169064D01*
X59731589Y-74168000D01*
X124410672Y-74168000D01*
X124430057Y-74169500D01*
G37*
%TD.AperFunction*%
%TD*%
M02*
